<svg width="500" height="373" viewBox="0 0 500 373" fill="none" xmlns="http://www.w3.org/2000/svg">
<g clip-path="url(#clip0_1421_19217)">
<mask id="mask0_1421_19217" style="mask-type:luminance" maskUnits="userSpaceOnUse" x="0" y="327" width="500" height="1">
<path fill-rule="evenodd" clip-rule="evenodd" d="M0 327H500V328H0V327Z" fill="white"/>
</mask>
<g mask="url(#mask0_1421_19217)">
<path fill-rule="evenodd" clip-rule="evenodd" d="M0 327.625H500V327.375H0V327.625Z" fill="#E4E4DE"/>
</g>
<path fill-rule="evenodd" clip-rule="evenodd" d="M397 343.625H450V343.375H397V343.625Z" fill="#E4E4DE"/>
<path fill-rule="evenodd" clip-rule="evenodd" d="M273 340.625H332V340.375H273V340.625Z" fill="#E4E4DE"/>
<path fill-rule="evenodd" clip-rule="evenodd" d="M380 339.625H399V339.375H380V339.625Z" fill="#E4E4DE"/>
<path fill-rule="evenodd" clip-rule="evenodd" d="M100 336.625H143V336.375H100V336.625Z" fill="#D0D9E6"/>
<path fill-rule="evenodd" clip-rule="evenodd" d="M79 336.625H94V336.375H79V336.625Z" fill="#D0D9E6"/>
<path fill-rule="evenodd" clip-rule="evenodd" d="M131 340.625H185V340.375H131V340.625Z" fill="#D0D9E6"/>
<path fill-rule="evenodd" clip-rule="evenodd" d="M43.708 0.25C40.698 0.25 38.25 2.699 38.25 5.708V277.139C38.25 280.149 40.698 282.597 43.708 282.597H236.807C239.815 282.597 242.264 280.149 242.264 277.139V5.708C242.264 2.699 239.815 0.25 236.807 0.25H43.708ZM236.807 282.847H43.708C40.56 282.847 38 280.287 38 277.139V5.708C38 2.561 40.56 0 43.708 0H236.807C239.953 0 242.514 2.561 242.514 5.708V277.139C242.514 280.287 239.953 282.847 236.807 282.847Z" fill="#D0D9E6"/>
<path fill-rule="evenodd" clip-rule="evenodd" d="M260.707 0.25C257.698 0.25 255.25 2.699 255.25 5.708V277.139C255.25 280.149 257.698 282.597 260.707 282.597H453.806C456.815 282.597 459.264 280.149 459.264 277.139V5.708C459.264 2.699 456.815 0.25 453.806 0.25H260.707ZM453.806 282.847H260.707C257.56 282.847 255 280.287 255 277.139V5.708C255 2.561 257.56 0 260.707 0H453.806C456.953 0 459.514 2.561 459.514 5.708V277.139C459.514 280.287 456.953 282.847 453.806 282.847Z" fill="#D0D9E6"/>
<path fill-rule="evenodd" clip-rule="evenodd" d="M117.873 267H57.1272C54.307 267 52 264.778 52 262.063V259.937C52 257.221 54.307 255 57.1272 255H117.873C120.692 255 123 257.221 123 259.937V262.063C123 264.778 120.692 267 117.873 267Z" fill="#E3ECFA"/>
<path fill-rule="evenodd" clip-rule="evenodd" d="M71 267H61.1752L50 327H59.8248L71 267Z" fill="#DAE2F0"/>
<path fill-rule="evenodd" clip-rule="evenodd" d="M92 267H81.746L76 327H86.254L92 267Z" fill="#DAE2F0"/>
<path fill-rule="evenodd" clip-rule="evenodd" d="M103 267H112.825L124 327H114.176L103 267Z" fill="#DAE2F0"/>
<path fill-rule="evenodd" clip-rule="evenodd" d="M197 220H431V16H197V220Z" fill="#DAE2F0"/>
<path fill-rule="evenodd" clip-rule="evenodd" d="M200 220H437V16H200V220Z" fill="#E3ECFA"/>
<path fill-rule="evenodd" clip-rule="evenodd" d="M197 223H431V219H197V223Z" fill="#DDDED8"/>
<path fill-rule="evenodd" clip-rule="evenodd" d="M204 223H441V219H204V223Z" fill="#DAE2F0"/>
<path fill-rule="evenodd" clip-rule="evenodd" d="M210 213H428V22H210V213Z" fill="#FCFEFF"/>
<path fill-rule="evenodd" clip-rule="evenodd" d="M280 213L320.904 22H348L307.096 213H280Z" fill="#FFFFFE"/>
<path fill-rule="evenodd" clip-rule="evenodd" d="M248 213L288.903 22H316L275.097 213H248Z" fill="#FFFFFE"/>
<path fill-rule="evenodd" clip-rule="evenodd" d="M215 22.5158V200.484C215 200.769 215.404 201 215.903 201H217.098C217.597 201 218 200.769 218 200.484V22.5158C218 22.2305 217.597 22 217.098 22H215.903C215.404 22 215 22.2305 215 22.5158Z" fill="#EAEAE5"/>
<path fill-rule="evenodd" clip-rule="evenodd" d="M350 213L391.327 22H402L360.673 213H350Z" fill="#FFFFFE"/>
<path fill-rule="evenodd" clip-rule="evenodd" d="M427 213H428V22H427V213Z" fill="#DAE2F0"/>
<path fill-rule="evenodd" clip-rule="evenodd" d="M440 29H438V24H439.222L440 29Z" fill="#E3ECFA"/>
<path fill-rule="evenodd" clip-rule="evenodd" d="M428 29H438V24H428V29Z" fill="#DAE2F0"/>
<path fill-rule="evenodd" clip-rule="evenodd" d="M426.981 29.461H399.949L401.123 24H426.981V29.461ZM389.348 29.461H378.266L378 24H390.522L389.348 29.461Z" fill="#E3ECFA"/>
<path fill-rule="evenodd" clip-rule="evenodd" d="M399.804 29H389L390.196 24H401L399.804 29Z" fill="#EBF3FF"/>
<path fill-rule="evenodd" clip-rule="evenodd" d="M427 29H428V24H427V29Z" fill="#CCD3E0"/>
<path fill-rule="evenodd" clip-rule="evenodd" d="M440 48H438V43H439.222L440 48Z" fill="#E3ECFA"/>
<path fill-rule="evenodd" clip-rule="evenodd" d="M428 48H438V43H428V48Z" fill="#DAE2F0"/>
<path fill-rule="evenodd" clip-rule="evenodd" d="M427.069 48.461H396.008L397.182 43H427.069V48.461ZM385.408 48.461H379.266L379 43H386.582L385.408 48.461Z" fill="#E3ECFA"/>
<path fill-rule="evenodd" clip-rule="evenodd" d="M395.803 48H385L386.197 43H397L395.803 48Z" fill="#EBF3FF"/>
<path fill-rule="evenodd" clip-rule="evenodd" d="M427 48H428V43H427V48Z" fill="#CCD3E0"/>
<path fill-rule="evenodd" clip-rule="evenodd" d="M440 67H438V62H439.222L440 67Z" fill="#E3ECFA"/>
<path fill-rule="evenodd" clip-rule="evenodd" d="M428 67H438V62H428V67Z" fill="#DAE2F0"/>
<path fill-rule="evenodd" clip-rule="evenodd" d="M427.156 67.461H392.067L393.241 62H427.156V67.461ZM381.466 67.461H380.266L380 62H382.641L381.466 67.461Z" fill="#E3ECFA"/>
<path fill-rule="evenodd" clip-rule="evenodd" d="M391.804 67H381L382.197 62H393L391.804 67Z" fill="#EBF3FF"/>
<path fill-rule="evenodd" clip-rule="evenodd" d="M427 67H428V62H427V67Z" fill="#CCD3E0"/>
<path fill-rule="evenodd" clip-rule="evenodd" d="M440 86H438V81H439.222L440 86Z" fill="#E3ECFA"/>
<path fill-rule="evenodd" clip-rule="evenodd" d="M428 86H438V81H428V86Z" fill="#DAE2F0"/>
<path fill-rule="evenodd" clip-rule="evenodd" d="M427 86H388L389.171 81H427V86Z" fill="#E3ECFA"/>
<path fill-rule="evenodd" clip-rule="evenodd" d="M387.868 86H381.256L381 81H389L387.868 86Z" fill="#EBF3FF"/>
<path fill-rule="evenodd" clip-rule="evenodd" d="M427 86H428V81H427V86Z" fill="#CCD3E0"/>
<path fill-rule="evenodd" clip-rule="evenodd" d="M440 104H438V99H439.222L440 104Z" fill="#E3ECFA"/>
<path fill-rule="evenodd" clip-rule="evenodd" d="M428 104H438V99H428V104Z" fill="#DAE2F0"/>
<path fill-rule="evenodd" clip-rule="evenodd" d="M427 104H384L385.17 99H427V104Z" fill="#E3ECFA"/>
<path fill-rule="evenodd" clip-rule="evenodd" d="M382.952 104H381.237L381 99H384L382.952 104Z" fill="#EBF3FF"/>
<path fill-rule="evenodd" clip-rule="evenodd" d="M427 104H428V99H427V104Z" fill="#CCD3E0"/>
<path fill-rule="evenodd" clip-rule="evenodd" d="M440 123H438V118H439.222L440 123Z" fill="#E3ECFA"/>
<path fill-rule="evenodd" clip-rule="evenodd" d="M428 123H438V118H428V123Z" fill="#DAE2F0"/>
<path fill-rule="evenodd" clip-rule="evenodd" d="M426 123H384.114C383.618 122.229 382.932 121.193 382.107 120.027L382 118H426V123Z" fill="#E3ECFA"/>
<path fill-rule="evenodd" clip-rule="evenodd" d="M427 123H428V118H427V123Z" fill="#CCD3E0"/>
<path fill-rule="evenodd" clip-rule="evenodd" d="M440 39H438V34H439.222L440 39Z" fill="#E3ECFA"/>
<path fill-rule="evenodd" clip-rule="evenodd" d="M428 39H438V34H428V39Z" fill="#DAE2F0"/>
<path fill-rule="evenodd" clip-rule="evenodd" d="M426.525 39.461H397.479L398.653 34H426.525V39.461ZM386.878 39.461H378.266L378 34H388.052L386.878 39.461Z" fill="#E3ECFA"/>
<path fill-rule="evenodd" clip-rule="evenodd" d="M397.804 39H387L388.196 34H399L397.804 39Z" fill="#EBF3FF"/>
<path fill-rule="evenodd" clip-rule="evenodd" d="M427 39H428V34H427V39Z" fill="#CCD3E0"/>
<path fill-rule="evenodd" clip-rule="evenodd" d="M440 58H438V53H439.222L440 58Z" fill="#E3ECFA"/>
<path fill-rule="evenodd" clip-rule="evenodd" d="M428 58H438V53H428V58Z" fill="#DAE2F0"/>
<path fill-rule="evenodd" clip-rule="evenodd" d="M426.612 58.461H393.537L394.711 53H426.612V58.461ZM382.936 58.461H379.265L379 53H384.111L382.936 58.461Z" fill="#E3ECFA"/>
<path fill-rule="evenodd" clip-rule="evenodd" d="M393.804 58H383L384.197 53H395L393.804 58Z" fill="#EBF3FF"/>
<path fill-rule="evenodd" clip-rule="evenodd" d="M427 58H428V53H427V58Z" fill="#CCD3E0"/>
<path fill-rule="evenodd" clip-rule="evenodd" d="M440 76H438V71H439.222L440 76Z" fill="#E3ECFA"/>
<path fill-rule="evenodd" clip-rule="evenodd" d="M428 76H438V71H428V76Z" fill="#DAE2F0"/>
<path fill-rule="evenodd" clip-rule="evenodd" d="M426.7 76.461H389.597L390.771 71H426.7V76.461ZM380.031 71.646L380 71H380.17L380.031 71.646Z" fill="#E3ECFA"/>
<path fill-rule="evenodd" clip-rule="evenodd" d="M389.798 76H380.241L380 71.5915L380.142 71H391L389.798 76Z" fill="#EBF3FF"/>
<path fill-rule="evenodd" clip-rule="evenodd" d="M427 76H428V71H427V76Z" fill="#CCD3E0"/>
<path fill-rule="evenodd" clip-rule="evenodd" d="M440 95H438V90H439.222L440 95Z" fill="#E3ECFA"/>
<path fill-rule="evenodd" clip-rule="evenodd" d="M428 95H438V90H428V95Z" fill="#DAE2F0"/>
<path fill-rule="evenodd" clip-rule="evenodd" d="M427 95H386L387.17 90H427V95Z" fill="#E3ECFA"/>
<path fill-rule="evenodd" clip-rule="evenodd" d="M385.792 95H381.274L381 90H387L385.792 95Z" fill="#EBF3FF"/>
<path fill-rule="evenodd" clip-rule="evenodd" d="M427 95H428V90H427V95Z" fill="#CCD3E0"/>
<path fill-rule="evenodd" clip-rule="evenodd" d="M440 114H438V109H439.222L440 114Z" fill="#E3ECFA"/>
<path fill-rule="evenodd" clip-rule="evenodd" d="M428 114H438V109H428V114Z" fill="#DAE2F0"/>
<path fill-rule="evenodd" clip-rule="evenodd" d="M427 114H382.103L382 112.09L382.731 109H427V114Z" fill="#E3ECFA"/>
<path fill-rule="evenodd" clip-rule="evenodd" d="M382.219 112L382.055 109H382.945L382.219 112Z" fill="#E9E9E4"/>
<path fill-rule="evenodd" clip-rule="evenodd" d="M427 114H428V109H427V114Z" fill="#CCD3E0"/>
<path fill-rule="evenodd" clip-rule="evenodd" d="M440 133H438V128H439.222L440 133Z" fill="#E3ECFA"/>
<path fill-rule="evenodd" clip-rule="evenodd" d="M428 133H438V128H428V133Z" fill="#DAE2F0"/>
<path fill-rule="evenodd" clip-rule="evenodd" d="M426 133H387.041C386.659 132.309 386.265 131.628 385.862 130.953C385.273 129.942 384.647 128.962 384 128H426V133Z" fill="#E3ECFA"/>
<path fill-rule="evenodd" clip-rule="evenodd" d="M427 133H428V128H427V133Z" fill="#CCD3E0"/>
<path fill-rule="evenodd" clip-rule="evenodd" d="M400 328H431V235H400V328Z" fill="#DDDED8"/>
<path fill-rule="evenodd" clip-rule="evenodd" d="M411.962 328H431V317H392L411.962 328Z" fill="#E3ECFA"/>
<path fill-rule="evenodd" clip-rule="evenodd" d="M307 328H338V235H307V328Z" fill="#DAE2F0"/>
<path fill-rule="evenodd" clip-rule="evenodd" d="M322 326H431V235H322V326Z" fill="#E3ECFA"/>
<path fill-rule="evenodd" clip-rule="evenodd" d="M341.038 328H322V317H361L341.038 328Z" fill="#E3ECFA"/>
<path fill-rule="evenodd" clip-rule="evenodd" d="M336 292H416V245H336V292Z" fill="#FCFEFF"/>
<path fill-rule="evenodd" clip-rule="evenodd" d="M336 319H416V297H336V319Z" fill="#FCFEFF"/>
<path fill-rule="evenodd" clip-rule="evenodd" d="M382.793 247H368.207C365.884 247 364 245.21 364 243H387C387 245.21 385.116 247 382.793 247Z" fill="#E4E4DE"/>
<path fill-rule="evenodd" clip-rule="evenodd" d="M382.793 299H368.207C365.884 299 364 297.209 364 295H387C387 297.209 385.117 299 382.793 299Z" fill="#E3ECFA"/>
<path fill-rule="evenodd" clip-rule="evenodd" d="M282 328H313V235H282V328Z" fill="#E3ECFA"/>
<path fill-rule="evenodd" clip-rule="evenodd" d="M294.962 328H314V317H275L294.962 328Z" fill="#E3ECFA"/>
<path fill-rule="evenodd" clip-rule="evenodd" d="M190 328H221V235H190V328Z" fill="#DAE2F0"/>
<path fill-rule="evenodd" clip-rule="evenodd" d="M204 326H313V235H204V326Z" fill="#E3ECFA"/>
<path fill-rule="evenodd" clip-rule="evenodd" d="M223.039 328H204V317H243L223.039 328Z" fill="#E3ECFA"/>
<path fill-rule="evenodd" clip-rule="evenodd" d="M219 292H299V245H219V292Z" fill="#FCFEFF"/>
<path fill-rule="evenodd" clip-rule="evenodd" d="M219 319H299V297H219V319Z" fill="#FCFEFF"/>
<path fill-rule="evenodd" clip-rule="evenodd" d="M265.793 247H251.207C248.883 247 247 245.21 247 243H270C270 245.21 268.117 247 265.793 247Z" fill="#E4E4DE"/>
<path fill-rule="evenodd" clip-rule="evenodd" d="M265.793 299H251.207C248.883 299 247 297.209 247 295H270C270 297.209 268.117 299 265.793 299Z" fill="#E3ECFA"/>
<path fill-rule="evenodd" clip-rule="evenodd" d="M204 235H430V231H204V235Z" fill="#DAE2F0"/>
<path fill-rule="evenodd" clip-rule="evenodd" d="M190 235H205V231H190V235Z" fill="#D4D5CF"/>
<path fill-rule="evenodd" clip-rule="evenodd" d="M84.6786 240.721C83.2324 204.199 81.6897 167.883 84.8479 149.564L90 146C90 146 88.8707 149.415 88.2789 205.372C87.8665 244.267 87.3855 242.154 87.3424 240.041C87.3229 239.113 87.3886 238.186 87.5804 240.721H84.6786Z" fill="#DDDED8"/>
<path fill-rule="evenodd" clip-rule="evenodd" d="M92.5274 110.729C100.223 90.5542 118.153 71.0725 137.633 63.1035C145.281 59.9744 134.262 128.776 106.533 133.211C92.9923 135.376 88.7767 170.246 86.4936 187C85.719 154.048 84.8329 130.905 92.5274 110.729Z" fill="#DDDED8"/>
<path fill-rule="evenodd" clip-rule="evenodd" d="M90.4442 161.604C95.8516 153.025 104.693 141.012 117.61 141C132.252 140.987 119.439 165.114 102.228 172.82C93.824 176.583 86.8187 188.526 85 196C85.1511 180.852 85.0358 170.183 90.4442 161.604Z" fill="#DDDED8"/>
<path fill-rule="evenodd" clip-rule="evenodd" d="M77.5085 136.292C68.0788 119.581 47.0618 102.776 24.686 95.1309C15.9013 92.1288 15.0349 141.631 62.3988 153.477C77.6959 157.302 83.8285 184.384 87 198C86.7358 171.555 86.9372 153.003 77.5085 136.292Z" fill="#DAE2F0"/>
<path fill-rule="evenodd" clip-rule="evenodd" d="M83.4865 175.934C77.4192 165.318 60.9252 160.128 46.092 161.12C40.2672 161.508 39.631 183.299 72.0262 191.714C81.8519 194.266 85.8166 211.35 87.8569 220C87.6868 203.199 89.5539 186.552 83.4865 175.934Z" fill="#DAE2F0"/>
<path fill-rule="evenodd" clip-rule="evenodd" d="M83.1369 119.14C78.4414 104.138 64.6012 90.692 51.8983 85.1338C46.9112 82.9517 45.378 107.828 72.6406 132.182C80.9094 139.57 83.5167 161.09 84.8644 172C85.4827 152.522 87.8325 134.141 83.1369 119.14Z" fill="#DAE2F0"/>
<path fill-rule="evenodd" clip-rule="evenodd" d="M86.5 255C76.5025 255 68.2403 254.271 67.6656 240.748L66 223H107L105.334 240.748C104.761 254.271 96.4985 255 86.5 255Z" fill="#E3ECFA"/>
<path fill-rule="evenodd" clip-rule="evenodd" d="M105.835 230H65.1648L64 222H107L105.835 230Z" fill="#E3ECFA"/>
<path fill-rule="evenodd" clip-rule="evenodd" d="M444 361.501C444 367.852 357.144 373 250 373C142.857 373 56 367.852 56 361.501C56 355.149 142.857 350 250 350C357.144 350 444 355.149 444 361.501Z" fill="#E3ECFA"/>
<path fill-rule="evenodd" clip-rule="evenodd" d="M72.9904 63L72 43.0486L73.0096 43L74 62.9514L72.9904 63Z" fill="#3874B9"/>
<path fill-rule="evenodd" clip-rule="evenodd" d="M73.3252 80L73 70.0483L73.6748 70L74 79.9507L73.3252 80Z" fill="#3874B9"/>
<path fill-rule="evenodd" clip-rule="evenodd" d="M86.5239 247C85.579 247 84.801 246.257 84.755 245.311L74.0041 23.8621C73.9551 22.8494 74.7611 22 75.7729 22H375.477C376.421 22 377.199 22.7432 377.245 23.6898L387.996 245.139C388.045 246.152 387.239 247 386.227 247H86.5239Z" fill="#3874B9"/>
<path fill-rule="evenodd" clip-rule="evenodd" d="M366.764 243.367H90.1831C89.2371 243.367 88.4581 242.625 88.4131 241.681L78.0021 27.859C77.9531 26.848 78.7601 26 79.7731 26H372.583C373.529 26 374.308 26.742 374.354 27.687L378.614 115.172C376.533 112.555 374.201 110.113 371.958 108.804C370.359 107.747 368.465 107.085 366.405 106.972C366.264 106.964 366.124 106.957 365.983 106.95C362.345 103.437 363.062 96.145 364.161 90.881L353.125 97.034C353.963 100.565 354.058 104.842 351.181 106.838C350.631 106.87 350.11 106.907 349.623 106.951C347.816 107.115 346.041 107.376 344.459 107.655C344.06 107.726 343.668 107.819 343.286 107.934C341.733 108.366 340.016 109.235 338.154 110.637C330.511 116.393 324.836 128.587 324.836 128.587L326.648 129.581C324.965 131.435 323.216 133.247 321.407 135.026C319.426 136.963 317.441 138.802 315.285 140.818C315.227 140.824 315.167 140.83 315.103 140.834C315.033 140.838 314.96 140.84 314.884 140.84C314.414 140.84 313.834 140.764 313.209 140.605C312.193 140.353 311.076 139.936 309.94 139.412C310.005 138.166 310.062 136.926 310.11 135.705L319.24 135.406C319.769 130.497 319.045 122.322 317.821 113.854C316.776 104.985 314.986 94.886 313.08 84.597L303.971 85.175L301.714 38.812C301.689 38.324 301.261 37.948 300.801 37.948C300.789 37.948 300.776 37.949 300.763 37.949C300.263 37.974 299.877 38.399 299.901 38.899L302.16 85.29L264.835 87.661C264.95 88.166 265.064 88.671 265.177 89.174H265.176C265.178 89.182 265.18 89.19 265.182 89.199C265.361 89.997 265.537 90.793 265.711 91.586C267.162 98.288 268.283 104.824 269.094 111.073L263.009 110.12C263.106 128.098 261.173 144.556 258.027 157.49L306.115 166.508L309.233 230.556C309.257 231.041 309.658 231.419 310.138 231.419L310.183 231.418C310.683 231.394 311.07 230.968 311.046 230.468L307.66 160.937C308.334 157.429 308.867 153.226 309.273 148.795C309.595 148.943 309.925 149.085 310.264 149.222C311.499 149.71 312.871 150.12 314.441 150.3C314.877 150.351 315.334 150.379 315.805 150.379C317.017 150.379 318.324 150.192 319.614 149.728L320.287 149.485L321.11 148.808C323.429 146.899 326.053 144.817 328.485 142.634C330.616 140.751 332.699 138.781 334.699 136.71C334.712 137.792 334.735 138.913 334.769 140.077C334.782 140.63 334.802 141.2 334.825 141.784C335.11 149.631 335.858 159.284 337.307 171.14H344.78L342.209 179.771L347.579 181.37C347.557 181.517 347.534 181.664 347.512 181.811L353.296 183.072L353.573 183.155C356.716 197.592 362.015 221.887 365.587 238.049C366.005 239.943 366.4 241.726 366.764 243.367ZM160.008 209.112L161.052 230.556C161.077 231.041 161.477 231.419 161.958 231.419L162.003 231.418C162.503 231.394 162.889 230.968 162.865 230.468L161.816 208.928L187.162 206.353C187.034 195.056 181.224 168.82 177.779 158.987L159.491 161.16L157.924 128.986L163.612 128.68C161.054 111.674 159.194 95.337 158.65 80.259L155.558 80.378L153.534 38.812C153.509 38.324 153.089 37.948 152.622 37.948C152.609 37.948 152.597 37.949 152.584 37.949C152.084 37.974 151.697 38.399 151.721 38.899L153.744 80.448L111.468 82.08C111.364 95.911 112.535 114.587 115.319 131.283L156.112 129.084L157.684 161.375L131.062 164.538C136.03 182.056 136.238 197.933 137.616 211.388L160.008 209.112ZM175.885 95.373L175.883 143.501L224.428 146.43L224.43 98.302L175.885 95.373ZM383.367 212.804C382.013 205.059 380.64 197.428 379.443 190.859L382.341 191.722L383.367 212.804ZM379.867 140.919L375.281 139.919C375.324 138.491 375.38 137.035 375.453 135.558L376.222 134.773C377.549 136.758 378.784 138.77 379.861 140.801L379.867 140.919ZM315.934 140.652L316.052 140.579C316.02 140.604 315.981 140.628 315.934 140.652Z" fill="#F4F9FD"/>
<path d="M99.6892 52.4129C99.1373 52.4225 98.6397 52.3352 98.1964 52.1509C97.761 51.9584 97.4163 51.6924 97.1623 51.3528C96.9082 51.0052 96.7732 50.6035 96.7572 50.1477L97.921 50.1274C97.9679 50.5186 98.1336 50.8478 98.4183 51.1148C98.7109 51.3738 99.1291 51.4985 99.6731 51.489C100.193 51.4799 100.599 51.3448 100.89 51.0837C101.19 50.8144 101.336 50.4758 101.329 50.0679C101.323 49.7479 101.23 49.4895 101.051 49.2926C100.871 49.0957 100.649 48.9476 100.383 48.8482C100.117 48.7488 99.7594 48.6431 99.3094 48.5309C98.7549 48.3966 98.3085 48.2603 97.97 48.1222C97.6396 47.984 97.3517 47.765 97.1064 47.4652C96.869 47.1573 96.7458 46.7434 96.7367 46.2235C96.7287 45.7675 96.8377 45.3616 97.0635 45.0056C97.2893 44.6496 97.6085 44.372 98.0211 44.1727C98.4417 43.9734 98.9239 43.8689 99.4679 43.8594C100.252 43.8457 100.895 44.0305 101.398 44.4138C101.909 44.797 102.202 45.3119 102.277 45.9587L101.077 45.9797C101.032 45.6604 100.859 45.3834 100.559 45.1486C100.258 44.9058 99.8641 44.7887 99.3762 44.7972C98.9203 44.8051 98.5504 44.9316 98.2667 45.1766C97.9828 45.4136 97.8445 45.744 97.8519 46.168C97.8572 46.4719 97.9455 46.7184 98.1169 46.9075C98.2962 47.0964 98.5107 47.2406 98.7605 47.3403C99.0181 47.4318 99.376 47.5376 99.8342 47.6576C100.389 47.8 100.835 47.9442 101.174 48.0903C101.512 48.2284 101.804 48.4513 102.05 48.7591C102.295 49.0589 102.422 49.4727 102.431 50.0006C102.439 50.4086 102.337 50.7944 102.128 51.1581C101.918 51.5218 101.603 51.8194 101.183 52.0507C100.763 52.2821 100.265 52.4028 99.6892 52.4129ZM105.311 46.5539L105.378 50.4293C105.384 50.7492 105.456 50.976 105.594 51.1096C105.733 51.2352 105.97 51.2951 106.306 51.2892L107.109 51.2752L107.126 52.1991L106.142 52.2162C105.534 52.2268 105.075 52.0948 104.767 51.8202C104.458 51.5455 104.298 51.0882 104.287 50.4483L104.219 46.5729L103.367 46.5878L103.351 45.6879L104.203 45.6731L104.174 44.0173L105.266 43.9983L105.295 45.654L107.011 45.6241L107.026 46.5239L105.311 46.5539ZM107.983 48.8716C107.971 48.1997 108.097 47.6094 108.36 47.1007C108.623 46.5841 108.988 46.1816 109.455 45.8934C109.93 45.6051 110.459 45.4558 111.043 45.4456C111.619 45.4356 112.121 45.5508 112.55 45.7914C112.978 46.032 113.299 46.3384 113.514 46.7107L113.493 45.5109L114.597 45.4916L114.711 52.0666L113.608 52.0859L113.586 50.8621C113.377 51.2498 113.059 51.5754 112.631 51.8389C112.212 52.0943 111.718 52.2269 111.15 52.2368C110.566 52.247 110.036 52.1123 109.559 51.8325C109.082 51.5528 108.703 51.1554 108.422 50.6402C108.141 50.125 107.994 49.5355 107.983 48.8716ZM113.55 48.7864C113.541 48.2905 113.434 47.8603 113.227 47.4958C113.021 47.1314 112.744 46.8562 112.397 46.6702C112.058 46.4761 111.684 46.3826 111.276 46.3897C110.868 46.3969 110.498 46.4993 110.165 46.6972C109.832 46.895 109.569 47.1796 109.376 47.5511C109.182 47.9225 109.09 48.3562 109.099 48.8521C109.107 49.356 109.215 49.7942 109.422 50.1667C109.628 50.5311 109.901 50.8104 110.24 51.0045C110.58 51.1906 110.953 51.2801 111.361 51.273C111.769 51.2659 112.139 51.1634 112.472 50.9656C112.812 50.7596 113.079 50.4709 113.273 50.0994C113.466 49.72 113.559 49.2823 113.55 48.7864ZM117.552 46.5082C117.738 46.1289 118.005 45.8322 118.353 45.6181C118.709 45.4039 119.143 45.2923 119.655 45.2833L119.675 46.4112L119.387 46.4162C118.163 46.4375 117.563 47.1121 117.586 48.4399L117.648 52.0154L116.557 52.0344L116.442 45.4594L117.534 45.4404L117.552 46.5082ZM122.265 46.2579L122.333 50.1333C122.338 50.4533 122.41 50.6801 122.549 50.8137C122.687 50.9393 122.924 50.9991 123.26 50.9933L124.064 50.9793L124.08 51.9031L123.096 51.9203C122.488 51.9309 122.03 51.7989 121.721 51.5242C121.412 51.2496 121.252 50.7923 121.241 50.1524L121.173 46.277L120.321 46.2919L120.306 45.392L121.158 45.3771L121.129 43.7214L122.221 43.7023L122.249 45.3581L123.965 45.3281L123.981 46.228L122.265 46.2579ZM131.34 48.2358C131.344 48.4438 131.336 48.664 131.316 48.8964L126.061 48.9881C126.112 49.6353 126.341 50.1394 126.747 50.5004C127.161 50.8532 127.656 51.0246 128.232 51.0145C128.704 51.0063 129.094 50.8914 129.402 50.67C129.718 50.4405 129.937 50.1406 130.059 49.7704L131.235 49.7499C131.07 50.3849 130.727 50.907 130.206 51.3161C129.685 51.7173 129.032 51.9247 128.248 51.9384C127.624 51.9493 127.062 51.8191 126.561 51.5478C126.068 51.2763 125.678 50.8871 125.389 50.38C125.1 49.865 124.949 49.2675 124.937 48.5876C124.925 47.9077 125.051 47.3095 125.314 46.7928C125.577 46.2761 125.95 45.8776 126.433 45.5971C126.924 45.3085 127.49 45.1586 128.13 45.1474C128.754 45.1365 129.308 45.2629 129.793 45.5264C130.277 45.79 130.652 46.1595 130.916 46.635C131.188 47.1023 131.33 47.6359 131.34 48.2358ZM130.208 48.0276C130.201 47.6116 130.103 47.2573 129.914 46.9645C129.725 46.6638 129.469 46.4402 129.146 46.2938C128.831 46.1393 128.482 46.0654 128.098 46.0721C127.546 46.0817 127.077 46.2659 126.691 46.6247C126.314 46.9834 126.102 47.4751 126.057 48.1L130.208 48.0276ZM132.377 48.4458C132.366 47.7739 132.491 47.1836 132.755 46.6749C133.018 46.1583 133.383 45.7558 133.85 45.4676C134.325 45.1793 134.858 45.03 135.45 45.0196C135.962 45.0107 136.44 45.1224 136.884 45.3546C137.328 45.5789 137.669 45.881 137.908 46.2609L137.847 42.7814L138.951 42.7622L139.106 51.6408L138.002 51.6601L137.981 50.4243C137.772 50.82 137.457 51.1495 137.038 51.4129C136.618 51.6683 136.125 51.8009 135.557 51.8108C134.973 51.821 134.438 51.6863 133.953 51.4067C133.476 51.127 133.097 50.7296 132.816 50.2144C132.535 49.6992 132.389 49.1097 132.377 48.4458ZM137.945 48.3606C137.936 47.8647 137.829 47.4345 137.622 47.07C137.416 46.7056 137.139 46.4304 136.792 46.2444C136.452 46.0503 136.079 45.9568 135.671 45.9639C135.263 45.971 134.892 46.0735 134.56 46.2714C134.227 46.4692 133.964 46.7538 133.771 47.1253C133.577 47.4967 133.485 47.9304 133.493 48.4263C133.502 48.9302 133.61 49.3684 133.816 49.7409C134.023 50.1053 134.296 50.3846 134.635 50.5787C134.974 50.7648 135.348 50.8543 135.756 50.8472C136.164 50.8401 136.534 50.7376 136.867 50.5397C137.207 50.3338 137.474 50.0451 137.668 49.6736C137.861 49.2942 137.953 48.8565 137.945 48.3606Z" fill="#3874B9"/>
<path d="M170.145 52.4398C169.593 52.4495 169.095 52.3621 168.652 52.1778C168.216 51.9854 167.872 51.7194 167.618 51.3798C167.364 51.0322 167.229 50.6305 167.213 50.1747L168.377 50.1543C168.423 50.5456 168.589 50.8747 168.874 51.1418C169.166 51.4008 169.585 51.5255 170.129 51.516C170.648 51.5069 171.054 51.3718 171.346 51.1107C171.645 50.8414 171.791 50.5028 171.784 50.0949C171.778 49.7749 171.686 49.5165 171.506 49.3196C171.327 49.1227 171.104 48.9746 170.839 48.8752C170.573 48.7758 170.215 48.67 169.765 48.5579C169.21 48.4235 168.764 48.2873 168.426 48.1492C168.095 48.0109 167.807 47.7919 167.562 47.4922C167.325 47.1843 167.201 46.7703 167.192 46.2504C167.184 45.7945 167.293 45.3885 167.519 45.0325C167.745 44.6765 168.064 44.3989 168.477 44.1997C168.897 44.0003 169.379 43.8959 169.923 43.8864C170.707 43.8727 171.351 44.0575 171.853 44.4408C172.364 44.8239 172.657 45.3389 172.732 45.9857L171.533 46.0066C171.487 45.6874 171.314 45.4104 171.014 45.1756C170.714 44.9328 170.32 44.8156 169.832 44.8241C169.376 44.8321 169.006 44.9586 168.722 45.2036C168.438 45.4406 168.3 45.771 168.307 46.195C168.313 46.4989 168.401 46.7454 168.572 46.9344C168.752 47.1233 168.966 47.2676 169.216 47.3673C169.474 47.4588 169.832 47.5646 170.29 47.6846C170.844 47.8269 171.291 47.9712 171.629 48.1173C171.968 48.2554 172.26 48.4783 172.505 48.7861C172.751 49.0858 172.878 49.4997 172.887 50.0276C172.894 50.4355 172.793 50.8214 172.583 51.1851C172.373 51.5488 172.059 51.8463 171.639 52.0777C171.219 52.3091 170.721 52.4298 170.145 52.4398ZM180.471 48.635C180.474 48.843 180.466 49.0632 180.446 49.2956L175.191 49.3873C175.242 50.0345 175.471 50.5386 175.878 50.8995C176.292 51.2524 176.787 51.4238 177.363 51.4137C177.835 51.4055 178.225 51.2906 178.533 51.0692C178.849 50.8397 179.068 50.5398 179.189 50.1696L180.365 50.1491C180.2 50.7841 179.857 51.3062 179.336 51.7153C178.815 52.1165 178.163 52.3239 177.379 52.3376C176.755 52.3485 176.193 52.2183 175.692 51.9469C175.199 51.6755 174.808 51.2863 174.519 50.7792C174.23 50.2642 174.08 49.6667 174.068 48.9868C174.056 48.3069 174.182 47.7087 174.445 47.192C174.708 46.6753 175.081 46.2767 175.564 45.9963C176.055 45.7077 176.621 45.5578 177.26 45.5466C177.884 45.5357 178.439 45.6621 178.923 45.9256C179.408 46.1892 179.782 46.5587 180.047 47.0342C180.319 47.5015 180.46 48.0351 180.471 48.635ZM179.339 48.4268C179.332 48.0108 179.234 47.6565 179.044 47.3637C178.855 47.063 178.599 46.8394 178.277 46.693C177.962 46.5385 177.612 46.4646 177.229 46.4713C176.677 46.4809 176.208 46.6651 175.822 47.0239C175.444 47.3826 175.233 47.8743 175.188 48.4992L179.339 48.4268ZM181.508 48.857C181.496 48.1771 181.622 47.5828 181.885 47.0741C182.148 46.5575 182.517 46.1549 182.992 45.8666C183.475 45.5781 184.029 45.4285 184.653 45.4176C185.461 45.4035 186.128 45.5878 186.655 45.9707C187.189 46.3534 187.547 46.8913 187.727 47.5842L186.551 47.6048C186.432 47.2068 186.207 46.8947 185.875 46.6684C185.551 46.4421 185.149 46.333 184.669 46.3414C184.045 46.3523 183.545 46.5771 183.168 47.0157C182.792 47.4464 182.61 48.0536 182.624 48.8375C182.638 49.6294 182.841 50.2379 183.232 50.6632C183.624 51.0884 184.131 51.2956 184.755 51.2847C185.235 51.2763 185.633 51.1573 185.949 50.9278C186.265 50.6982 186.479 50.3744 186.592 49.9564L187.768 49.9359C187.604 50.6109 187.261 51.1569 186.74 51.5741C186.22 51.9832 185.563 52.1947 184.771 52.2085C184.147 52.2194 183.589 52.0891 183.096 51.8177C182.611 51.5461 182.228 51.1567 181.948 50.6496C181.667 50.1424 181.52 49.5449 181.508 48.857ZM194.978 45.3454L195.093 51.9204L194.001 51.9394L193.984 50.9676C193.782 51.3071 193.495 51.5762 193.122 51.7747C192.757 51.9651 192.351 52.0642 191.903 52.072C191.391 52.081 190.929 51.985 190.518 51.7842C190.106 51.5753 189.777 51.261 189.529 50.8413C189.29 50.4214 189.165 49.9075 189.154 49.2996L189.087 45.4482L190.167 45.4293L190.232 49.1368C190.243 49.7847 190.416 50.2817 190.75 50.628C191.084 50.9662 191.535 51.1303 192.102 51.1204C192.686 51.1102 193.143 50.9222 193.473 50.5564C193.802 50.1906 193.961 49.6638 193.949 48.9759L193.886 45.3644L194.978 45.3454ZM197.932 46.362C198.117 45.9827 198.384 45.686 198.733 45.4718C199.089 45.2576 199.523 45.146 200.035 45.1371L200.055 46.2649L199.767 46.2699C198.543 46.2913 197.943 46.9659 197.966 48.2937L198.028 51.8691L196.936 51.8882L196.822 45.3132L197.913 45.2941L197.932 46.362ZM201.843 44.1574C201.635 44.161 201.458 44.0921 201.311 43.9506C201.165 43.8092 201.089 43.6344 201.086 43.4265C201.082 43.2185 201.151 43.0413 201.293 42.8948C201.434 42.7483 201.609 42.6732 201.817 42.6696C202.017 42.6661 202.186 42.7352 202.324 42.8768C202.471 43.0182 202.546 43.1929 202.55 43.4009C202.553 43.6089 202.484 43.7861 202.343 43.9326C202.209 44.079 202.043 44.1539 201.843 44.1574ZM202.389 45.216L202.504 51.791L201.412 51.81L201.297 45.235L202.389 45.216ZM205.598 46.0601L205.665 49.9355C205.671 50.2555 205.743 50.4823 205.881 50.6159C206.019 50.7415 206.256 50.8013 206.592 50.7955L207.396 50.7815L207.412 51.7053L206.429 51.7225C205.821 51.7331 205.362 51.6011 205.053 51.3264C204.745 51.0518 204.585 50.5945 204.573 49.9546L204.506 46.0792L203.654 46.0941L203.638 45.1942L204.49 45.1793L204.461 43.5236L205.553 43.5045L205.582 45.1603L207.298 45.1303L207.313 46.0302L205.598 46.0601ZM214.284 45.0084L210.493 54.748L209.365 54.7677L210.606 51.5776L207.841 45.1208L209.052 45.0997L211.209 50.3909L213.156 45.0281L214.284 45.0084Z" fill="#3874B9"/>
<path d="M233.535 48.3349C233.521 47.5191 233.692 46.784 234.049 46.1296C234.405 45.4673 234.896 44.9467 235.522 44.5677C236.155 44.1886 236.86 43.9923 237.636 43.9787C238.548 43.9628 239.347 44.1689 240.035 44.5969C240.722 45.025 241.229 45.6403 241.555 46.4427L240.247 46.4655C240.007 45.9656 239.664 45.5836 239.219 45.3193C238.783 45.0549 238.26 44.928 237.652 44.9386C237.069 44.9488 236.547 45.0939 236.088 45.3739C235.629 45.654 235.271 46.0483 235.016 46.5568C234.761 47.0574 234.639 47.6436 234.651 48.3155C234.662 48.9794 234.805 49.561 235.077 50.0603C235.35 50.5516 235.721 50.9292 236.189 51.1931C236.658 51.4569 237.184 51.5838 237.768 51.5736C238.376 51.5629 238.894 51.4219 239.321 51.1504C239.756 50.8708 240.085 50.477 240.309 49.969L241.616 49.9462C241.318 50.7515 240.833 51.38 240.161 51.8318C239.489 52.2756 238.697 52.5055 237.785 52.5214C237.009 52.535 236.298 52.3673 235.652 52.0186C235.013 51.6617 234.505 51.1625 234.125 50.521C233.746 49.8795 233.549 49.1508 233.535 48.3349ZM246.154 52.4113C245.538 52.4221 244.975 52.2919 244.467 52.0207C243.966 51.7494 243.567 51.3603 243.27 50.8534C242.981 50.3384 242.831 49.7409 242.819 49.061C242.807 48.3891 242.941 47.7947 243.22 47.2778C243.507 46.7527 243.9 46.3498 244.399 46.069C244.898 45.7802 245.459 45.6304 246.083 45.6195C246.707 45.6086 247.273 45.7388 247.782 46.0099C248.291 46.2731 248.694 46.6581 248.991 47.165C249.295 47.6718 249.454 48.2651 249.466 48.945C249.478 49.6249 249.336 50.2275 249.041 50.7527C248.754 51.2698 248.357 51.6728 247.85 51.9617C247.343 52.2506 246.778 52.4005 246.154 52.4113ZM246.137 51.4515C246.529 51.4446 246.895 51.3462 247.236 51.1563C247.577 50.9663 247.848 50.6855 248.049 50.3139C248.259 49.9422 248.359 49.4924 248.35 48.9645C248.341 48.4366 248.229 47.9905 248.014 47.6261C247.8 47.2618 247.523 46.9946 247.184 46.8245C246.845 46.6464 246.48 46.5608 246.088 46.5676C245.688 46.5746 245.321 46.673 244.989 46.8628C244.664 47.0445 244.405 47.3211 244.211 47.6925C244.017 48.064 243.925 48.5136 243.935 49.0416C243.944 49.5775 244.048 50.0277 244.246 50.3923C244.453 50.7568 244.721 51.0281 245.052 51.2064C245.383 51.3766 245.745 51.4583 246.137 51.4515ZM258.749 45.3865C259.261 45.3775 259.719 45.4775 260.122 45.6865C260.526 45.8875 260.847 46.198 261.087 46.6178C261.326 47.0377 261.451 47.5516 261.462 48.1595L261.529 52.0349L260.449 52.0538L260.384 48.3344C260.373 47.6785 260.2 47.1814 259.866 46.8432C259.54 46.4968 259.101 46.3284 258.549 46.3381C257.981 46.348 257.533 46.5399 257.203 46.9137C256.874 47.2795 256.715 47.8063 256.727 48.4942L256.79 52.1177L255.71 52.1365L255.645 48.4171C255.634 47.7612 255.461 47.2641 255.127 46.9259C254.801 46.5795 254.362 46.4112 253.81 46.4208C253.242 46.4307 252.793 46.6226 252.464 46.9964C252.134 47.3622 251.975 47.889 251.987 48.5769L252.051 52.2004L250.959 52.2195L250.844 45.6445L251.936 45.6254L251.952 46.5732C252.162 46.2255 252.446 45.9565 252.802 45.7663C253.167 45.5759 253.57 45.4769 254.009 45.4692C254.561 45.4595 255.051 45.575 255.48 45.8156C255.908 46.0561 256.23 46.4146 256.447 46.8909C256.623 46.4237 256.92 46.0585 257.34 45.7951C257.759 45.5317 258.229 45.3955 258.749 45.3865ZM264.318 46.6214C264.528 46.2417 264.842 45.9242 265.262 45.6688C265.689 45.4053 266.187 45.2686 266.755 45.2587C267.339 45.2485 267.869 45.3793 268.346 45.651C268.831 45.9226 269.214 46.312 269.495 46.8191C269.775 47.3183 269.922 47.9038 269.933 48.5757C269.945 49.2396 269.819 49.8339 269.556 50.3586C269.294 50.8833 268.925 51.2938 268.45 51.5901C267.983 51.8863 267.457 52.0395 266.874 52.0497C266.314 52.0594 265.816 51.9441 265.379 51.7037C264.951 51.4551 264.621 51.1448 264.391 50.7728L264.467 55.1041L263.375 55.1232L263.205 45.4287L264.297 45.4096L264.318 46.6214ZM268.818 48.5952C268.809 48.0993 268.701 47.6691 268.495 47.3047C268.289 46.9402 268.012 46.665 267.664 46.479C267.325 46.2929 266.952 46.2034 266.544 46.2105C266.144 46.2175 265.773 46.324 265.433 46.53C265.1 46.7278 264.833 47.0165 264.632 47.3961C264.438 47.7675 264.346 48.1972 264.354 48.6851C264.363 49.1811 264.471 49.6152 264.677 49.9877C264.892 50.352 265.169 50.6312 265.508 50.8253C265.855 51.0113 266.229 51.1008 266.629 51.0938C267.037 51.0867 267.407 50.9842 267.74 50.7864C268.08 50.5804 268.347 50.2917 268.541 49.9203C268.734 49.5408 268.826 49.0991 268.818 48.5952ZM270.963 48.5578C270.951 47.8859 271.077 47.2956 271.34 46.7869C271.603 46.2703 271.968 45.8678 272.435 45.5796C272.91 45.2913 273.439 45.142 274.023 45.1318C274.599 45.1218 275.101 45.237 275.53 45.4776C275.958 45.7182 276.279 46.0246 276.494 46.3969L276.473 45.1971L277.577 45.1778L277.691 51.7528L276.588 51.7721L276.566 50.5483C276.357 50.936 276.039 51.2616 275.611 51.5251C275.192 51.7805 274.698 51.9131 274.13 51.923C273.546 51.9332 273.015 51.7984 272.539 51.5187C272.062 51.239 271.683 50.8416 271.402 50.3264C271.121 49.8112 270.974 49.2217 270.963 48.5578ZM276.53 48.4726C276.521 47.9767 276.414 47.5465 276.207 47.182C276.001 46.8176 275.724 46.5424 275.377 46.3564C275.037 46.1623 274.664 46.0688 274.256 46.0759C273.848 46.083 273.478 46.1855 273.145 46.3834C272.812 46.5812 272.549 46.8658 272.356 47.2373C272.162 47.6087 272.07 48.0424 272.078 48.5383C272.087 49.0422 272.195 49.4804 272.401 49.8529C272.608 50.2173 272.881 50.4966 273.22 50.6907C273.559 50.8768 273.933 50.9663 274.341 50.9592C274.749 50.9521 275.119 50.8496 275.452 50.6517C275.792 50.4458 276.059 50.1571 276.253 49.7856C276.446 49.4062 276.539 48.9685 276.53 48.4726ZM282.623 44.9697C283.423 44.9558 284.075 45.1884 284.58 45.6677C285.084 46.139 285.344 46.8305 285.36 47.7424L285.428 51.6178L284.348 51.6366L284.283 47.9172C284.271 47.2613 284.099 46.7642 283.765 46.426C283.431 46.0798 282.98 45.9116 282.412 45.9216C281.836 45.9316 281.379 46.1196 281.041 46.4856C280.712 46.8514 280.553 47.3782 280.565 48.0661L280.628 51.7016L279.537 51.7206L279.422 45.1456L280.514 45.1266L280.53 46.0624C280.74 45.7227 281.027 45.4577 281.392 45.2673C281.765 45.0767 282.175 44.9775 282.623 44.9697ZM292.759 44.9128L288.969 54.6525L287.841 54.6721L289.082 51.482L286.316 45.0253L287.528 45.0041L289.685 50.2953L291.632 44.9325L292.759 44.9128Z" fill="#3874B9"/>
<path d="M322.815 43.8566C323.727 43.8407 324.518 43.9989 325.188 44.3313C325.865 44.6555 326.386 45.1305 326.749 45.7563C327.12 46.3819 327.313 47.1226 327.328 47.9785C327.343 48.8344 327.176 49.5814 326.827 50.2196C326.486 50.8496 325.982 51.3385 325.316 51.6862C324.658 52.0257 323.873 52.2034 322.961 52.2194L320.357 52.2648L320.211 43.9021L322.815 43.8566ZM322.945 51.3195C324.025 51.3006 324.844 51.0023 325.402 50.4245C325.96 49.8387 326.23 49.0298 326.212 47.998C326.194 46.9581 325.892 46.1513 325.305 45.5774C324.727 45.0034 323.902 44.7258 322.83 44.7445L321.319 44.7709L321.433 51.3459L322.945 51.3195ZM331.71 52.1747C331.094 52.1854 330.532 52.0552 330.023 51.784C329.522 51.5127 329.123 51.1236 328.826 50.6167C328.537 50.1017 328.387 49.5042 328.375 48.8244C328.363 48.1525 328.497 47.558 328.776 47.0411C329.063 46.516 329.456 46.1131 329.955 45.8323C330.454 45.5436 331.015 45.3937 331.639 45.3829C332.263 45.372 332.83 45.5021 333.338 45.7733C333.847 46.0364 334.25 46.4215 334.547 46.9284C334.852 47.4351 335.01 48.0284 335.022 48.7083C335.034 49.3882 334.892 49.9908 334.597 50.516C334.31 51.0331 333.913 51.4361 333.406 51.725C332.899 52.0139 332.334 52.1638 331.71 52.1747ZM331.693 51.2148C332.085 51.208 332.451 51.1096 332.792 50.9196C333.133 50.7296 333.404 50.4488 333.606 50.0773C333.815 49.7055 333.915 49.2557 333.906 48.7278C333.897 48.1999 333.785 47.7538 333.571 47.3895C333.356 47.0251 333.08 46.7579 332.741 46.5878C332.401 46.4097 332.036 46.3241 331.644 46.3309C331.244 46.3379 330.878 46.4363 330.545 46.6261C330.22 46.8078 329.961 47.0844 329.767 47.4558C329.574 47.8273 329.482 48.277 329.491 48.8049C329.5 49.3408 329.604 49.7911 329.802 50.1556C330.009 50.5201 330.278 50.7914 330.609 50.9697C330.94 51.1399 331.301 51.2216 331.693 51.2148ZM339.602 45.2319C340.402 45.2179 341.054 45.4506 341.558 45.9298C342.062 46.4011 342.323 47.0927 342.339 48.0045L342.406 51.8799L341.326 51.8988L341.261 48.1794C341.25 47.5235 341.077 47.0264 340.743 46.6882C340.409 46.3419 339.958 46.1738 339.39 46.1837C338.814 46.1938 338.358 46.3818 338.02 46.7477C337.69 47.1135 337.531 47.6404 337.543 48.3283L337.607 51.9637L336.515 51.9828L336.4 45.4078L337.492 45.3887L337.508 46.3246C337.719 45.9849 338.006 45.7198 338.371 45.5294C338.743 45.3389 339.154 45.2397 339.602 45.2319ZM350.127 48.2046C350.131 48.4126 350.122 48.6328 350.102 48.8652L344.847 48.9569C344.899 49.6041 345.127 50.1082 345.534 50.4691C345.948 50.822 346.443 50.9934 347.019 50.9833C347.491 50.9751 347.881 50.8602 348.189 50.6388C348.505 50.4093 348.724 50.1094 348.846 49.7392L350.021 49.7187C349.856 50.3537 349.513 50.8757 348.993 51.2849C348.471 51.6861 347.819 51.8935 347.035 51.9072C346.411 51.918 345.849 51.7878 345.348 51.5165C344.855 51.2451 344.464 50.8559 344.175 50.3488C343.886 49.8338 343.736 49.2363 343.724 48.5564C343.712 47.8765 343.838 47.2783 344.101 46.7616C344.364 46.2449 344.737 45.8463 345.22 45.5659C345.711 45.2773 346.277 45.1274 346.917 45.1162C347.54 45.1053 348.095 45.2316 348.579 45.4952C349.064 45.7588 349.439 46.1283 349.703 46.6038C349.975 47.0711 350.116 47.6047 350.127 48.2046ZM348.995 47.9964C348.988 47.5804 348.89 47.2261 348.701 46.9333C348.511 46.6326 348.255 46.409 347.933 46.2626C347.618 46.1081 347.269 46.0342 346.885 46.0409C346.333 46.0505 345.864 46.2347 345.478 46.5935C345.1 46.9522 344.889 47.4439 344.844 48.0688L348.995 47.9964Z" fill="#3874B9"/>
<path fill-rule="evenodd" clip-rule="evenodd" d="M162.104 231C161.629 231 161.234 230.623 161.21 230.139L152.001 38.9485C151.977 38.4497 152.359 38.0258 152.853 38.0008C153.327 37.9799 153.765 38.3609 153.79 38.8617L162.999 230.051C163.023 230.55 162.642 230.975 162.148 230.999L162.104 231Z" fill="#3874B9"/>
<path fill-rule="evenodd" clip-rule="evenodd" d="M310.103 231C309.629 231 309.234 230.623 309.21 230.139L300.001 38.9485C299.977 38.4497 300.358 38.0258 300.852 38.0008C301.319 37.9799 301.764 38.3609 301.79 38.8617L310.999 230.051C311.023 230.55 310.641 230.975 310.147 230.999L310.103 231Z" fill="#3874B9"/>
<path fill-rule="evenodd" clip-rule="evenodd" d="M236.104 231C235.629 231 235.234 230.623 235.21 230.139L226.001 38.9485C225.977 38.4497 226.358 38.0258 226.853 38.0008C227.34 37.9799 227.765 38.3619 227.79 38.8617L236.999 230.051C237.023 230.55 236.641 230.975 236.147 230.999L236.104 231Z" fill="#3874B9"/>
<path fill-rule="evenodd" clip-rule="evenodd" d="M367.093 59H88.9072C88.4061 59 88 58.5524 88 58C88 57.4476 88.4061 57 88.9072 57H367.093C367.594 57 368 57.4476 368 58C368 58.5524 367.594 59 367.093 59Z" fill="#3874B9"/>
<path fill-rule="evenodd" clip-rule="evenodd" d="M114.857 131.024C112.073 114.328 110.902 95.652 111.006 81.821L153.282 80.189L155.65 128.825L114.857 131.024ZM157.462 128.727L155.096 80.119L158.188 80C158.732 95.078 160.592 111.415 163.15 128.421L157.462 128.727Z" fill="#DADFE4"/>
<path fill-rule="evenodd" clip-rule="evenodd" d="M156.266 129L154 80.0704L155.736 80L158 128.901L156.266 129Z" fill="#B0C9DF"/>
<path fill-rule="evenodd" clip-rule="evenodd" d="M164 126.397L115.939 129C113.168 112.312 111.439 96.1381 111 80.6037L159.062 78C159.602 93.0716 161.453 109.401 164 126.397Z" fill="#12499A"/>
<path fill-rule="evenodd" clip-rule="evenodd" d="M224.998 146L176 143.074L176.002 95L225 97.9257L224.998 146Z" fill="#DADFE4"/>
<path fill-rule="evenodd" clip-rule="evenodd" d="M223.43 145L175 142.091L175.57 94L224 96.9082L223.43 145Z" fill="#FFFFFE"/>
<path fill-rule="evenodd" clip-rule="evenodd" d="M309.934 135.531C309.964 134.761 309.991 133.998 310.014 133.244L318.324 132.816C318.874 127.716 318.523 121.132 317.645 113.68C318.869 122.148 319.593 130.323 319.064 135.232L309.934 135.531ZM269.292 110.957L268.918 110.899C268.107 104.65 266.986 98.1141 265.535 91.4121C267.013 98.1541 268.303 104.708 269.292 110.957Z" fill="#DADFE4"/>
<path fill-rule="evenodd" clip-rule="evenodd" d="M271.719 135L318.736 132.575C319.942 121.364 316.822 103.006 313.309 84L265 87.0755C269.026 104.857 271.93 121.503 271.719 135Z" fill="#6D5DD3"/>
<path fill-rule="evenodd" clip-rule="evenodd" d="M137.554 211.401C136.176 197.946 135.968 182.069 131 164.551L157.622 161.388L159.946 209.125L137.554 211.401ZM161.754 208.941L159.429 161.173L177.717 159C181.162 168.833 186.972 195.069 187.1 206.366L161.754 208.941Z" fill="#DADFE4"/>
<path fill-rule="evenodd" clip-rule="evenodd" d="M160.25 209L158 161.215L159.749 161L162 208.816L160.25 209Z" fill="#B0C9DF"/>
<path fill-rule="evenodd" clip-rule="evenodd" d="M139.153 210L186.943 204.843C187.534 193.669 183.432 175.645 178.905 157L131 162.652C134.879 180.103 138.63 196.615 139.153 210Z" fill="#FDC748"/>
<path fill-rule="evenodd" clip-rule="evenodd" d="M306.088 166.388L258 157.37C261.146 144.436 263.079 127.978 262.982 110L269.067 110.953C270.291 120.379 270.809 129.155 270.688 136.873L294.895 136.082C295.509 136.919 296.106 137.664 296.755 138.422C297.464 139.255 298.185 140.084 298.948 140.88C300.475 142.471 302.116 143.983 303.94 145.393C304.321 145.68 304.709 145.965 305.107 146.246L306.088 166.388ZM307.633 160.817L306.983 147.474C307.696 147.902 308.445 148.306 309.246 148.675C308.84 153.106 308.307 157.309 307.633 160.817ZM309.913 139.292C309.414 139.062 308.912 138.811 308.413 138.545C307.774 138.21 307.135 137.852 306.496 137.474L306.41 135.705L310.083 135.585C310.035 136.806 309.978 138.046 309.913 139.292ZM304.623 136.316C304.354 136.143 304.085 135.967 303.816 135.79L304.596 135.764L304.623 136.316Z" fill="#DADFE4"/>
<path fill-rule="evenodd" clip-rule="evenodd" d="M306.624 166.708L306.492 166.683L305.511 146.541C306.112 146.964 306.734 147.377 307.387 147.769L308.037 161.112C307.621 163.279 307.151 165.18 306.624 166.708ZM306.9 137.769C306.275 137.399 305.65 137.012 305.027 136.611L305 136.059L306.814 136L306.9 137.769Z" fill="#B0C9DF"/>
<path fill-rule="evenodd" clip-rule="evenodd" d="M270.621 136.92C270.742 129.202 270.224 120.426 269 111L269.374 111.058C270.768 119.858 271.565 128.054 271.451 135.333L296.564 134.041L294.628 135.854C294.695 135.947 294.761 136.038 294.828 136.129L270.621 136.92ZM303.749 135.837C303.633 135.76 303.517 135.683 303.402 135.606C302.537 135.046 301.671 134.438 300.821 133.822L304.423 133.637L304.529 135.811L303.749 135.837ZM306.343 135.752L306.236 133.543L310.096 133.345C310.073 134.099 310.046 134.862 310.016 135.632L306.343 135.752Z" fill="#719CC6"/>
<path fill-rule="evenodd" clip-rule="evenodd" d="M304.11 135L304 133.083L305.889 133L306 134.948L304.11 135Z" fill="#83A9CE"/>
<path fill-rule="evenodd" clip-rule="evenodd" d="M271.085 135C271.199 127.803 270.399 119.7 269 111L309.785 117.29C310.03 120.855 310.074 126.612 309.872 133.035L305.998 133.23L304.178 133.323L300.563 133.506C299.794 132.956 299.038 132.401 298.305 131.864L296.29 133.723L271.085 135Z" fill="#3769A4"/>
<path fill-rule="evenodd" clip-rule="evenodd" d="M259 155.164L305.784 163C309.406 152.567 310.326 134.382 311 115.494L262.805 108C262.902 125.83 262.141 142.336 259 155.164Z" fill="#FFFFFE"/>
<path fill-rule="evenodd" clip-rule="evenodd" d="M372.861 112C373.807 113.013 374.605 113.911 375.421 114.898C376.233 115.862 377.024 116.838 377.803 117.828C379.355 119.808 380.841 121.847 382.246 123.96C383.637 126.088 385.007 128.236 386.221 130.526C387.456 132.803 388.614 135.146 389.563 137.668L389.928 138.604L390.019 138.842L390.133 139.186L390.351 139.877C390.466 140.315 390.561 140.739 390.647 141.158C390.711 141.557 390.785 141.967 390.832 142.353C391.01 143.899 391.022 145.31 390.979 146.675C390.899 149.397 390.537 151.951 390.121 154.461C389.232 159.477 387.959 164.241 386.308 169L381.111 167.788C381.497 163.058 381.851 158.236 381.98 153.592C382.059 151.274 382.025 148.972 381.874 146.837C381.794 145.773 381.652 144.755 381.453 143.903L381.303 143.308L381.138 142.83L380.576 141.668C378.686 137.777 376.183 133.949 373.517 130.237C372.177 128.379 370.767 126.554 369.342 124.742C368.632 123.835 367.905 122.938 367.169 122.057L365 119.488L372.861 112Z" fill="#BE5B52"/>
<path fill-rule="evenodd" clip-rule="evenodd" d="M381.714 166L378 169.86L385.247 174C385.247 174 387.754 170.772 386.772 167.472L381.714 166Z" fill="#BD5B52"/>
<path fill-rule="evenodd" clip-rule="evenodd" d="M373 175.631L380.017 178L385 174.089L377.795 170L373 175.631Z" fill="#BD5B52"/>
<path fill-rule="evenodd" clip-rule="evenodd" d="M392.973 192L347 181.973C349.454 165.844 352.73 150.46 357.027 136L403 146.026C398.94 160.086 395.731 175.645 392.973 192Z" fill="#3769A4"/>
<path fill-rule="evenodd" clip-rule="evenodd" d="M386.691 193L342 179.691L355.309 135L400 148.308L386.691 193Z" fill="#FFFFFE"/>
<path fill-rule="evenodd" clip-rule="evenodd" d="M345.998 82.0276C345.976 82.5798 345.735 83.0148 345.459 82.9996C345.184 82.9863 344.979 82.5265 345.002 81.9743C345.024 81.4221 345.265 80.9861 345.541 81.0003C345.816 81.0156 346.021 81.4754 345.998 82.0276Z" fill="#132529"/>
<path fill-rule="evenodd" clip-rule="evenodd" d="M346 83C346 83 344.52 86.5622 343 88.2449C343.964 89.3259 345.71 88.9288 345.71 88.9288L346 83Z" fill="#A92D2F"/>
<path fill-rule="evenodd" clip-rule="evenodd" d="M348.743 78.9971L348.933 78.9052C349.038 78.7981 349.017 78.6432 348.888 78.5586C347.589 77.7171 346.265 78.0716 346.208 78.0876C346.05 78.1317 345.964 78.2721 346.015 78.4009C346.067 78.5289 346.238 78.5969 346.394 78.5543C346.437 78.5434 347.475 78.2764 348.51 78.9471C348.578 78.9913 348.662 79.0072 348.743 78.9971Z" fill="#132529"/>
<path fill-rule="evenodd" clip-rule="evenodd" d="M364.166 91C363.059 96.1634 362.338 103.316 366 106.762C366 106.762 364.483 112 354.637 112C343.81 112 349.488 107.404 349.488 107.404C354.006 106.042 354.034 101.047 353.056 97.0355L364.166 91Z" fill="#BD5B52"/>
<path fill-rule="evenodd" clip-rule="evenodd" d="M340.089 353.338C339.969 353.338 339.858 353.349 339.759 353.377C339.601 353.419 339.491 353.497 339.422 353.615C339.299 353.826 339.341 353.931 339.384 353.992C339.713 354.457 341.532 354.468 342.872 354.278C342.209 353.936 340.93 353.338 340.089 353.338ZM341.212 354.733C340.289 354.733 339.398 354.605 339.105 354.191C339.002 354.046 338.923 353.799 339.129 353.446C339.244 353.248 339.427 353.114 339.674 353.048C340.875 352.721 343.372 354.155 343.477 354.216L343.559 354.391L343.422 354.531C342.962 354.623 342.072 354.733 341.212 354.733Z" fill="#3769A4"/>
<path fill-rule="evenodd" clip-rule="evenodd" d="M341.781 351.341L341.679 351.347C341.372 351.377 341.35 351.498 341.344 351.538C341.259 352.026 342.412 353.249 343.291 353.781C343.206 353.216 342.965 352.056 342.37 351.563C342.191 351.414 341.997 351.341 341.781 351.341ZM343.499 354.258L343.43 354.243C342.566 353.854 340.866 352.297 341.008 351.484C341.041 351.292 341.18 351.055 341.649 351.007C341.999 350.972 342.313 351.07 342.59 351.3C343.495 352.051 343.664 353.989 343.671 354.071L343.599 354.226L343.499 354.258Z" fill="#3769A4"/>
<path fill-rule="evenodd" clip-rule="evenodd" d="M352 354H344.524L344 337H351.477L352 354Z" fill="#BD5B52"/>
<path fill-rule="evenodd" clip-rule="evenodd" d="M344.287 353H352.054C352.345 353 352.594 353.2 352.653 353.481L353.977 359.736C354.115 360.384 353.609 360.998 352.938 360.986C350.137 360.939 346.09 360.777 342.57 360.777C338.452 360.777 335.855 361 331.026 361C328.107 361 327.334 358.079 328.559 357.815C334.139 356.61 337.722 356.482 342.568 353.549C343.094 353.23 343.674 353 344.287 353Z" fill="#0A1629"/>
<path fill-rule="evenodd" clip-rule="evenodd" d="M369.224 108C376.22 108.073 386 125.276 386 125.276L375.157 136C375.157 136 368.05 132.792 364.101 124.966C359.965 116.766 362.071 107.926 369.224 108Z" fill="#3769A4"/>
<path fill-rule="evenodd" clip-rule="evenodd" d="M375.376 136C375.619 130.863 376.053 125.456 376.772 119.965C376.84 119.448 376.873 118.935 376.874 118.428C376.875 114.551 374.961 111.044 372 109C378.153 112.751 385 125.737 385 125.737L383.493 127.343L375.376 136Z" fill="#3A81EB"/>
<path fill-rule="evenodd" clip-rule="evenodd" d="M336.443 115.018C334.885 122.739 333.767 138.595 337.603 170H375.798C376.091 164.912 373.636 142.71 376.896 118.872C377.776 112.438 372.959 106.617 366.481 106.26C366.341 106.252 366.202 106.245 366.062 106.238C361.186 106.003 354.122 105.848 349.826 106.239C348.033 106.402 346.271 106.661 344.701 106.938C340.552 107.672 337.277 110.886 336.443 115.018Z" fill="#3769A4"/>
<path fill-rule="evenodd" clip-rule="evenodd" d="M376.094 170.43H337.608C336.159 158.574 335.411 148.921 335.126 141.074C338.998 140.097 343.394 136.67 344.914 132.451C348.374 128.946 352.691 123.406 353.097 117.287C353.119 116.953 353.13 116.622 353.13 116.294C353.128 111.202 350.475 106.892 345.886 106.892C345.166 106.892 344.399 106.998 343.587 107.224C343.969 107.109 344.361 107.016 344.76 106.945C346.342 106.666 348.117 106.405 349.924 106.241C351.834 106.067 354.286 106 356.853 106C360.103 106 363.538 106.108 366.284 106.24C366.425 106.247 366.565 106.254 366.706 106.262C372.717 106.594 377.308 111.59 377.305 117.436C377.304 117.938 377.27 118.447 377.2 118.959C375.856 128.779 375.476 138.322 375.476 146.523C375.476 157.189 376.119 165.583 376.119 169.355C376.119 169.77 376.111 170.13 376.094 170.43ZM335.07 139.367C335.036 138.203 335.013 137.082 335 136C335.033 135.965 335.067 135.93 335.101 135.895C335.042 136.97 335.04 138.129 335.07 139.367Z" fill="#3874B9"/>
<path fill-rule="evenodd" clip-rule="evenodd" d="M334.528 142C334.505 141.316 334.485 140.648 334.472 140C334.488 140.655 334.507 141.323 334.528 142Z" fill="#9AA9B8"/>
<path fill-rule="evenodd" clip-rule="evenodd" d="M335.076 142C335.055 141.397 335.036 140.802 335.019 140.218C334.989 138.926 334.991 137.717 335.051 136.595C335.336 136.29 335.62 135.983 335.901 135.674C336.155 135.396 336.408 135.118 336.66 134.837L340.567 137.042C340.567 137.042 342.576 135.529 345 133C343.459 137.403 339.002 140.98 335.076 142Z" fill="#3576D6"/>
<path fill-rule="evenodd" clip-rule="evenodd" d="M351.198 345.589H351.195L350.936 337H350.94L351.198 345.589Z" fill="#BEBFBB"/>
<path fill-rule="evenodd" clip-rule="evenodd" d="M351 346H344.242V345.984L344 337H350.757L351 346Z" fill="#914642"/>
<path fill-rule="evenodd" clip-rule="evenodd" d="M365.931 81.7904C365.105 88.8503 364.987 93.0176 361.157 96.5053C355.398 101.75 346.699 98.1547 345.366 91.0224C344.167 84.6025 345.719 74.1374 352.91 71.6026C359.996 69.1056 366.758 74.7316 365.931 81.7904Z" fill="#BD5B52"/>
<path fill-rule="evenodd" clip-rule="evenodd" d="M351.07 84.3181C348.856 84.8133 347.854 79.6555 350.109 77.6748C348.104 76.6844 345.203 75.2503 344.237 73.0943C343.126 70.6184 346.141 67.6473 348.731 67.7711C347.895 66.1201 349.749 61.7021 355.028 63.3699C360.43 65.0753 362.807 67.6057 362.807 67.6057C362.807 67.6057 364.551 61.8843 368.227 66.5054C371.492 70.6124 370.2 74.1203 370.2 74.1203C370.2 74.1203 375.046 78.6651 373.793 82.0482C372.54 85.4323 369.783 86.6287 369.783 86.6287C369.783 86.6287 370.516 94.5813 364.62 96.4918C358.726 98.4032 355.014 94.4694 355.506 92.1995C351.696 92.4065 347.812 87.3715 351.07 84.3181Z" fill="#233862"/>
<path fill-rule="evenodd" clip-rule="evenodd" d="M353.965 84.2888C353.714 86.2465 352.688 88.0436 351.522 89.1894C349.77 90.9125 348.149 89.6799 348.013 87.4474C347.889 85.4379 348.654 82.1197 350.713 81.2339C352.741 80.3618 354.251 82.0499 353.965 84.2888Z" fill="#BD5B52"/>
<path fill-rule="evenodd" clip-rule="evenodd" d="M413 344.678L406.484 347L400 330.323L406.516 328L413 344.678Z" fill="#BD5B52"/>
<path fill-rule="evenodd" clip-rule="evenodd" d="M401.695 347.404C401.601 347.479 401.521 347.558 401.46 347.64C401.362 347.771 401.324 347.9 401.343 348.035C401.377 348.277 401.475 348.334 401.546 348.355C402.092 348.517 403.528 347.401 404.464 346.424C403.731 346.565 402.356 346.885 401.695 347.404ZM403.441 347.807C402.715 348.378 401.937 348.828 401.449 348.684C401.279 348.634 401.064 348.488 401.008 348.084C400.976 347.858 401.037 347.638 401.19 347.434C401.933 346.435 404.781 346.018 404.902 346L405.074 346.088L405.053 346.282C404.748 346.639 404.117 347.275 403.441 347.807Z" fill="#3769A4"/>
<path fill-rule="evenodd" clip-rule="evenodd" d="M401.583 345.533L401.506 345.601C401.284 345.815 401.342 345.923 401.361 345.958C401.596 346.395 403.259 346.643 404.279 346.518C403.862 346.125 402.955 345.363 402.183 345.344C401.951 345.337 401.753 345.4 401.583 345.533ZM404.737 346.764L404.673 346.795C403.754 347.023 401.455 346.851 401.064 346.123C400.972 345.952 400.934 345.68 401.273 345.353C401.526 345.108 401.834 344.991 402.193 345C403.37 345.031 404.701 346.45 404.757 346.511L404.796 346.677L404.737 346.764Z" fill="#3769A4"/>
<path fill-rule="evenodd" clip-rule="evenodd" d="M405.51 344.89L411.58 340.136C411.807 339.957 412.135 339.955 412.369 340.129L417.586 344.006C418.126 344.409 418.142 345.179 417.61 345.581C415.39 347.261 411.106 350.7 408.489 353.016C405.429 355.724 407.811 353.913 404.223 357.089C402.053 359.009 399.399 357.449 400.121 356.455C403.409 351.932 404.109 349.24 404.533 346.354C404.619 345.766 405.031 345.266 405.51 344.89Z" fill="#0A1629"/>
<path fill-rule="evenodd" clip-rule="evenodd" d="M300 132.815L297.314 127L290 131.552C290 131.552 292.41 136.504 297.4 135.958L300 132.815Z" fill="#BD5B52"/>
<path fill-rule="evenodd" clip-rule="evenodd" d="M290.626 125.599L288.876 127.077C287.74 128.035 287.704 129.746 288.796 130.751L290.155 132L298 127.248L293.293 125.21C292.402 124.826 291.364 124.976 290.626 125.599Z" fill="#BD5B52"/>
<path fill-rule="evenodd" clip-rule="evenodd" d="M403.105 339.625L403 339.354L403.105 339.625ZM409.499 337.331L407.826 333.001L407.829 333L409.502 337.33L409.499 337.331Z" fill="#BEBFBB"/>
<path fill-rule="evenodd" clip-rule="evenodd" d="M403.35 340L403.241 339.714L402 336.448L408.26 333L410 337.576L403.35 340Z" fill="#914642"/>
<path fill-rule="evenodd" clip-rule="evenodd" d="M351 171C351 171 363.066 226.417 367.681 246.988C372.735 269.516 399.326 338 399.326 338L411 331.687C411 331.687 398.512 277.957 389.384 248.646C386.074 224.417 375.955 171 375.955 171H351Z" fill="#0A1629"/>
<path fill-rule="evenodd" clip-rule="evenodd" d="M396 334.4L398.418 339L413 333.484L411.84 329L396 334.4Z" fill="#3874B9"/>
<path fill-rule="evenodd" clip-rule="evenodd" d="M367.614 248C367.539 247.657 367.461 247.324 367.385 247C367.387 247.001 367.388 247.001 367.39 247.002C367.461 247.3 367.536 247.606 367.615 247.919C367.614 247.946 367.614 247.974 367.614 248Z" fill="#A0A29F"/>
<path fill-rule="evenodd" clip-rule="evenodd" d="M367.568 247.795C367.567 247.794 367.565 247.794 367.563 247.793C367.518 247.593 367.473 247.397 367.431 247.205H367.433C367.477 247.398 367.521 247.595 367.568 247.795Z" fill="#939692"/>
<path fill-rule="evenodd" clip-rule="evenodd" d="M367.905 247H367.904C367.898 246.974 367.892 246.946 367.887 246.92C367.642 245.717 367.379 244.406 367.094 243H367.097C367.38 244.406 367.646 245.719 367.89 246.923C367.895 246.948 367.9 246.975 367.905 247Z" fill="#1D5697"/>
<path fill-rule="evenodd" clip-rule="evenodd" d="M367 243H366.998C366.69 241.457 366.355 239.781 366 238C366.355 239.782 366.69 241.456 367 243Z" fill="#8593A0"/>
<path fill-rule="evenodd" clip-rule="evenodd" d="M367.985 248C367.909 247.678 367.837 247.363 367.768 247.056C367.723 246.855 367.679 246.657 367.637 246.463C367.633 246.44 367.627 246.416 367.622 246.393C367.386 245.297 367.129 244.102 366.856 242.822C366.502 241.174 366.121 239.386 365.716 237.484C363.213 225.707 359.829 209.617 357 196.14C357.28 196.045 357.581 196 357.896 196C358.062 196 358.232 196.012 358.405 196.037C367.146 197.247 368.144 229.19 367.985 248Z" fill="black"/>
<path fill-rule="evenodd" clip-rule="evenodd" d="M337.621 171C337.621 171 334.552 224.707 335.056 246.613C335.579 269.397 342.009 344 342.009 344H354.237C354.237 344 356.236 270.728 357.068 248.351C357.976 223.957 363 171 363 171H337.621Z" fill="#0A1629"/>
<path fill-rule="evenodd" clip-rule="evenodd" d="M339 339L339.627 344H354.538L355 339.538L339 339Z" fill="#3874B9"/>
<path fill-rule="evenodd" clip-rule="evenodd" d="M348 119.367C346.343 122.325 344.444 125.126 342.448 127.827C340.425 130.509 338.241 133.047 335.948 135.455C333.662 137.871 331.257 140.15 328.789 142.314C326.355 144.48 323.729 146.546 321.408 148.441L320.584 149.112L319.911 149.354C318.117 149.993 316.294 150.103 314.734 149.921C313.163 149.743 311.79 149.336 310.554 148.851C308.083 147.866 306.094 146.546 304.252 145.171C302.427 143.771 300.784 142.271 299.256 140.692C298.493 139.902 297.771 139.079 297.062 138.253C296.342 137.419 295.687 136.602 295 135.658L298.947 131.993C300.487 133.128 302.134 134.355 303.781 135.412C305.42 136.497 307.076 137.516 308.728 138.375C310.366 139.24 312.038 139.941 313.501 140.3C314.229 140.484 314.895 140.555 315.396 140.527C315.905 140.494 316.199 140.386 316.346 140.274L314.85 141.187C317.292 138.918 319.501 136.9 321.705 134.764C323.885 132.639 325.976 130.465 327.972 128.23C329.951 125.982 331.861 123.695 333.618 121.319C335.394 118.954 336.99 116.488 338.522 114L348 119.367Z" fill="#BE5B52"/>
<path fill-rule="evenodd" clip-rule="evenodd" d="M352.967 117.242C352.281 127.438 340.409 136 340.409 136L325 127.677C325 127.677 330.676 115.662 338.321 109.99C347.766 102.984 353.489 109.482 352.967 117.242Z" fill="#3769A4"/>
<path fill-rule="evenodd" clip-rule="evenodd" d="M340.409 136L326.812 128.656L325 127.677C325 127.677 330.676 115.662 338.321 109.99C341.157 107.887 343.658 107 345.754 107C350.344 107 352.998 111.247 353 116.264C353 116.587 352.989 116.913 352.967 117.242C352.281 127.439 340.409 136 340.409 136Z" fill="#3874B9"/>
</g>
<defs>
<clipPath id="clip0_1421_19217">
<rect width="500" height="373" fill="white"/>
</clipPath>
</defs>
</svg>
