<svg width="403" height="366" viewBox="0 0 403 366" fill="none" xmlns="http://www.w3.org/2000/svg">
<path d="M344.323 226.35C344.573 222.579 345.163 218.833 346.089 215.15C346.813 211.716 348.323 208.458 350.521 205.585C351.54 204.286 352.833 203.183 354.325 202.34C355.817 201.497 357.478 200.93 359.213 200.671C362.619 200.297 365.814 201.671 368.356 203.619C371.512 206.019 373.93 209.211 376.194 212.315C378.683 215.774 380.945 219.363 382.968 223.063C382.976 223.087 382.976 223.112 382.965 223.135C382.955 223.158 382.936 223.177 382.912 223.189C382.888 223.2 382.86 223.204 382.833 223.198C382.806 223.193 382.782 223.179 382.766 223.159C381.008 220.027 378.984 217.023 376.712 214.176C374.639 211.445 372.305 208.885 369.738 206.524C367.397 204.454 364.432 202.524 361.046 202.428C359.386 202.445 357.754 202.812 356.279 203.5C354.803 204.189 353.525 205.179 352.545 206.393C350.272 209.002 349.12 212.315 348.257 215.515C347.364 219.036 346.78 222.615 346.511 226.22C345.849 233.628 345.667 241.081 345.484 248.516C345.382 252.719 345.312 256.922 345.273 261.125L345.216 267.516C345.304 269.574 345.214 271.636 344.947 273.681C344.87 274.099 344.122 274.055 344.045 273.681C343.767 271.744 343.661 269.79 343.729 267.838C343.729 265.82 343.703 263.791 343.652 261.751C343.614 257.82 343.598 253.893 343.604 249.968C343.633 242.107 343.738 234.211 344.323 226.35Z" fill="#263238"/>
<path d="M356.009 220.767C356.441 218.671 357.218 215.941 358.542 214.315C360.902 211.402 363.464 212.671 361.104 215.897C359.356 218.296 358.219 221.017 357.775 223.863C357.775 223.863 361.756 229.011 366.553 231.55C366.351 229.567 365.737 226.524 366.16 223.585C367.119 217.219 371.331 217.576 370.275 222.637C369.513 225.996 369.191 229.426 369.316 232.854C370.921 233.796 372.644 234.561 374.449 235.133C374.17 234.402 373.883 233.515 373.556 232.437C371.858 226.732 376.051 224.958 376.185 228.167C376.457 230.902 377.003 233.609 377.816 236.254C380.119 236.959 382.028 237.437 383.198 237.811C386.222 238.824 388.924 240.496 391.065 242.681C393.257 240.895 395.074 238.765 396.428 236.393C394.96 235.246 392.648 233.55 389.425 231.489C383.39 227.628 385.491 222.75 390.279 225.785C393.732 227.967 396.409 232.028 397.627 234.106C399.255 230.48 400.18 226.626 400.362 222.715C395.622 218.68 383.899 213.063 387.429 213.063C390.614 213.063 397.723 217.289 400.333 218.924C400.27 217.813 400.135 216.707 399.93 215.61C395.469 213.002 380.963 208.836 383.275 207.645C385.817 206.341 395.939 210.593 398.999 211.932C398.423 210.131 397.515 208.432 396.313 206.906C390.144 199.419 379.044 196.836 374.17 198.262C370.736 199.271 371.743 207.176 371.004 206.906C357.208 201.871 350.934 205.428 356.009 220.767ZM389.818 219.897C390.777 218.828 395.325 221.976 394.02 223.706C392.715 225.437 388.58 221.237 389.818 219.897ZM366.169 213.167C367.359 213.854 365.603 217.837 363.761 216.645C362.197 215.602 364.97 212.471 366.169 213.167Z" fill="#3874B9"/>
<path d="M367.972 214.384C368.596 213.271 369.248 212.158 369.958 211.089C370.609 210.028 371.371 209.026 372.232 208.097C372.04 207.871 371.848 207.654 371.647 207.436C371.445 207.219 371.704 207.228 371.791 207.315C372.021 207.549 372.242 207.793 372.462 208.036C372.486 208.047 372.506 208.061 372.523 208.079C372.539 208.097 372.551 208.118 372.558 208.141C373.412 209.063 374.218 210.019 374.985 210.993C376.34 211.273 377.676 211.625 378.986 212.045C380.339 212.454 381.682 212.915 382.996 213.384C383.14 213.437 383.063 213.645 382.929 213.584C381.624 213.063 380.31 212.558 378.957 212.15C377.605 211.741 376.377 211.454 375.12 211.123C375.542 211.663 375.954 212.202 376.357 212.758C378.791 213.453 381.159 214.325 383.438 215.367C385.836 216.393 388.139 217.593 390.432 218.793C390.556 218.863 390.432 219.045 390.307 218.976C388.05 217.784 385.729 216.696 383.351 215.715C381.135 214.776 378.842 213.976 376.636 213.106C382.267 221.071 385.654 230.263 390.163 238.776C390.23 238.907 390.019 239.002 389.962 238.88C388.58 235.898 386.997 232.985 385.491 230.054C384.148 227.445 382.833 224.767 381.481 222.124C381.087 221.358 380.675 220.584 380.262 219.819C380.512 224.071 380.416 228.402 381.221 232.611C381.221 232.638 381.209 232.665 381.188 232.685C381.166 232.704 381.137 232.715 381.106 232.715C381.076 232.715 381.047 232.704 381.025 232.685C381.003 232.665 380.991 232.638 380.991 232.611C380.665 228.063 379.782 223.593 379.811 219.019C379.811 219.019 379.811 218.976 379.811 218.958C378.852 217.219 377.892 215.48 376.741 213.837C374.87 217.819 372.904 221.863 372.04 226.141C372.04 226.272 371.781 226.211 371.819 226.072C373.086 221.784 374.266 217.497 376.54 213.532C375.346 211.716 374.023 209.973 372.577 208.315C371.944 209.376 371.148 210.376 370.438 211.384C369.728 212.393 369.056 213.367 368.414 214.384C367.027 216.54 365.849 218.801 364.893 221.141C364.835 221.263 364.605 221.202 364.662 221.071C365.651 218.871 366.744 216.593 367.972 214.384Z" fill="#263238"/>
<path d="M323.572 224.08C327.18 220.793 331.382 216.48 337.004 216.489C342.396 216.489 346.358 220.428 348.641 224.489C351.02 228.732 351.884 233.541 352.555 238.22C353.349 243.82 353.826 249.454 353.985 255.098C354.081 258.229 354.071 261.368 353.985 264.498C353.989 267.677 353.723 270.852 353.189 273.994C353.093 274.499 352.229 274.516 352.162 273.994C351.999 271.385 352.114 268.707 352.162 266.064C352.21 263.42 352.162 260.846 352.028 258.237C351.817 252.976 351.395 247.724 350.713 242.498C350.119 237.933 349.639 233.246 348.133 228.837C346.78 224.854 344.228 220.306 339.776 218.558C333.713 216.176 327.784 220.532 323.803 224.211C323.649 224.306 323.467 224.176 323.572 224.08Z" fill="#263238"/>
<path d="M305.114 231.42C305.114 232.089 305.191 232.75 305.239 233.402C306.978 232.228 309.012 231.463 311.158 231.176C316.291 230.68 315.955 234.22 312.54 234.367C310.125 234.394 307.737 234.827 305.498 235.646C306.332 241.785 308.194 246.724 308.481 246.785C313.034 246.552 317.563 246.035 322.037 245.237C320.761 242.768 317.855 239.498 319.332 239.237C320.809 238.976 322.431 241.846 323.256 245.011C326.607 244.431 329.902 243.608 333.109 242.55C330.854 240.811 327.352 238.576 328.705 237.637C330.058 236.698 332.802 239.802 334.461 242.055C335.974 241.501 337.405 240.779 338.721 239.907C335.68 235.854 328.273 235.028 329.242 232.08C330.211 229.133 337.138 233.211 340.256 238.628C343.911 235.15 344.976 230.333 344.593 226.176C341.407 225.837 335.287 226.446 335.728 224.376C336.169 222.306 340.602 222.698 344.218 223.906C343.886 222.263 343.163 220.705 342.098 219.341C338.74 215.437 328.494 220.402 328.494 220.402C328.494 220.402 329.588 211.071 325.683 209.454C323.438 208.532 319.466 208.541 315.475 210.663C317.711 210.837 320.416 211.471 321.5 212.88C322.891 214.671 320.694 215.654 319.303 214.819C318.344 214.237 316.492 212.393 313.182 212.15C311.77 213.225 310.527 214.472 309.489 215.854C309.105 216.341 308.76 216.845 308.405 217.402C310.295 216.631 312.351 216.248 314.424 216.281C316.498 216.314 318.537 216.762 320.397 217.593C324.839 219.593 322.316 223.776 318.536 222.15C314.756 220.524 311.081 218.932 307.023 219.845C305.599 223.167 304.946 226.72 305.104 230.28C307.082 228.968 309.31 227.998 311.676 227.42C316.089 226.367 317.432 228.759 312.578 229.202C309.949 229.473 307.409 230.228 305.114 231.42ZM310.486 224.993C310.179 223.698 313.317 223.324 313.835 224.376C314.276 225.272 310.793 226.289 310.496 224.993H310.486ZM337.272 232.176C337.57 231.463 339.661 232.272 339.469 233.15C339.22 234.333 336.994 232.88 337.282 232.176H337.272ZM322.488 236.724C324.014 236.168 326.393 239.611 324.733 240.394C323.074 241.176 321.251 237.176 322.498 236.724H322.488Z" fill="#3874B9"/>
<path d="M309.086 246.089C311.388 242.611 313.662 239.133 316.08 235.654C317.202 234.063 318.382 232.498 319.601 230.967L319.054 230.854L318.142 230.689C317.432 230.576 316.722 230.489 316.003 230.419C315.283 230.35 314.66 230.324 313.988 230.315C313.267 230.285 312.543 230.32 311.83 230.419C311.743 230.419 311.724 230.315 311.83 230.315C312.549 230.315 313.288 230.263 314.007 230.246C314.727 230.228 315.398 230.246 316.099 230.298C316.799 230.35 317.404 230.393 318.018 230.48C318.382 230.533 318.737 230.585 319.092 230.654C319.309 230.682 319.524 230.723 319.735 230.776C321.014 229.217 322.293 227.695 323.572 226.211C319.594 224.448 315.354 223.221 310.985 222.567C310.909 222.567 310.937 222.454 310.985 222.463C315.417 223.005 319.727 224.179 323.755 225.941C324.493 225.124 325.232 224.306 325.98 223.498C326.729 222.689 327.698 221.706 328.456 220.741C328.504 220.68 328.6 220.741 328.542 220.802C327.524 221.836 326.563 222.916 325.664 224.037C327.308 225.075 328.872 226.214 330.346 227.446C331.881 228.675 333.374 229.944 334.826 231.254C334.826 231.298 334.826 231.376 334.74 231.324C333.307 230.037 331.817 228.805 330.269 227.628C328.715 226.463 327.074 225.385 325.472 224.228C325.117 224.663 324.762 225.098 324.398 225.506L323.86 226.15V226.193C323.256 226.898 322.661 227.611 322.076 228.315C322.768 229.233 323.362 230.208 323.851 231.228C324.369 232.211 324.81 233.228 325.232 234.246C326.053 236.378 326.694 238.564 327.151 240.785C327.151 240.846 327.045 240.881 327.036 240.785C326.547 238.6 325.847 236.459 324.944 234.385C324.493 233.315 323.985 232.272 323.457 231.237C322.93 230.202 322.402 229.393 321.951 228.437C321.443 229.054 320.925 229.68 320.416 230.315C320.272 230.498 320.138 230.68 319.984 230.863C319.984 230.906 319.984 230.959 319.936 230.959C318.353 232.959 316.847 235.011 315.389 237.046C315.474 237.188 315.539 237.34 315.581 237.498C315.677 237.75 315.763 238.002 315.849 238.254C316.012 238.767 316.147 239.289 316.252 239.811C316.358 240.333 316.425 240.794 316.483 241.298C316.489 241.862 316.534 242.426 316.617 242.985C316.617 243.063 316.492 243.072 316.502 242.985C316.546 242.458 316.504 241.927 316.377 241.411C316.291 240.872 316.185 240.333 316.041 239.802C315.897 239.272 315.782 238.846 315.619 238.376C315.542 238.141 315.456 237.907 315.37 237.672C315.283 237.437 315.255 237.42 315.207 237.289C314.525 238.263 313.844 239.237 313.182 240.22C311.858 242.176 310.544 244.133 309.22 246.081C309.191 246.272 309.019 246.185 309.086 246.089Z" fill="#263238"/>
<path d="M344.564 272.864C344.631 270.89 344.976 268.899 345.207 266.933L345.926 261.012C346.211 257.174 346.772 253.357 347.605 249.585C348.339 246.336 350.126 243.36 352.738 241.037C354.092 239.816 355.865 239.049 357.765 238.863C359.679 238.816 361.557 239.342 363.109 240.359C364.869 241.54 366.389 242.991 367.599 244.646C368.898 246.288 370.068 248.011 371.1 249.803C371.1 249.872 371.024 249.907 370.976 249.803C369.035 246.811 366.463 244.196 363.406 242.107C362.037 241.093 360.368 240.467 358.609 240.307C356.897 240.307 355.254 240.923 354.043 242.02C351.5 244.029 350.032 246.976 349.159 249.846C348.257 253.322 347.615 256.849 347.24 260.403C346.933 262.49 346.636 264.586 346.339 266.672C346.041 268.759 345.84 270.89 345.379 272.942C345.374 272.991 345.357 273.038 345.332 273.081C345.306 273.123 345.271 273.161 345.229 273.192C345.187 273.223 345.139 273.246 345.088 273.259C345.036 273.273 344.982 273.278 344.928 273.273C344.875 273.267 344.823 273.253 344.776 273.23C344.728 273.206 344.687 273.175 344.653 273.137C344.619 273.099 344.594 273.055 344.578 273.008C344.563 272.962 344.558 272.912 344.564 272.864Z" fill="#263238"/>
<path d="M355.29 257.515C355.963 258.344 356.761 259.085 357.659 259.715C357.304 257.785 356.873 254.359 357.947 252.533C359.607 249.698 361.583 251.115 360.595 253.576C359.604 255.789 359.058 258.145 358.983 260.533C361.253 261.823 363.685 262.862 366.227 263.629C365.954 262.522 365.873 261.384 365.987 260.255C366.323 257.22 368.865 257.281 368.213 260.428C367.965 261.65 367.849 262.891 367.867 264.133C371.557 265.166 375.329 265.942 379.15 266.455C381.099 264.159 382.673 261.619 383.822 258.915C381.107 258.298 375.6 258.159 375.715 256.402C375.868 254.028 381.203 255.854 384.349 257.576C385.065 255.513 385.389 253.355 385.309 251.194C382.86 250.577 380.344 250.201 377.806 250.072C372.204 249.628 372.482 246.75 376.54 246.82C379.533 246.872 383.323 248.559 385.117 249.428C383.946 242.524 378.133 238.124 373.48 237.932C365.603 237.619 368.433 246.454 368.433 246.454C368.433 246.454 363.128 243.072 358.12 243.159C353.112 243.246 349.936 250.802 355.29 257.515ZM376.204 244.715C376.032 243.724 379.533 243.48 379.706 244.715C379.946 246.22 376.386 245.759 376.204 244.715ZM381.865 255.15C381.788 254.498 383.294 254.385 383.639 255.202C383.841 255.698 381.865 255.75 381.865 255.15ZM363.051 255.75C364.231 255.898 364.903 259.724 362.878 259.655C361.295 259.559 362.024 255.585 363.022 255.715L363.051 255.75Z" fill="#3874B9"/>
<path d="M364.663 259.968C364.855 259.49 365.027 259.003 365.19 258.516C365.037 259.011 364.902 259.507 364.807 260.003C364.787 260.098 364.595 260.055 364.663 259.968Z" fill="#263238"/>
<path d="M331.468 269.02L332.024 279.585L333.444 306.821H364.442L365.862 279.585L366.409 269.02H331.468Z" fill="#37474F"/>
<path d="M331.468 269.02L332.024 279.585H365.862L366.409 269.02H331.468Z" fill="#263238"/>
<path d="M329.261 273.29H368.605V264.742H329.261V273.29Z" fill="#37474F"/>
<path d="M361.929 306.821H356.489V311.29H361.929V306.821Z" fill="#37474F"/>
<path d="M361.929 306.821H356.489V309.056H361.929V306.821Z" fill="#263238"/>
<path d="M341.388 306.821H335.948V311.29H341.388V306.821Z" fill="#37474F"/>
<path d="M341.388 306.821H335.948V309.056H341.388V306.821Z" fill="#263238"/>
<path d="M0 311.29L50.3774 311.082L100.755 311.003L201.5 310.864L302.245 311.003L352.623 311.082L403 311.29L352.623 311.508L302.245 311.586L201.5 311.725L100.755 311.586L50.3774 311.508L0 311.29Z" fill="#263238"/>
<path d="M279.565 23.3374H123.022C120.922 23.3545 118.847 23.7464 116.914 24.4908C114.981 25.2352 113.229 26.3174 111.758 27.6757C110.287 29.0341 109.126 30.6418 108.341 32.4071C107.556 34.1723 107.162 36.0605 107.182 37.9637V330.047C107.147 333.889 108.795 337.586 111.765 340.327C114.735 343.068 118.784 344.628 123.022 344.665H279.565C283.804 344.628 287.854 343.068 290.826 340.328C293.797 337.587 295.447 333.89 295.414 330.047V37.9637C295.433 36.0601 295.038 34.1717 294.252 32.4064C293.466 30.6411 292.304 29.0334 290.832 27.6752C289.36 26.317 287.608 25.2349 285.674 24.4906C283.741 23.7463 281.665 23.3545 279.565 23.3374ZM285.504 321.012C285.504 328.699 279.152 334.926 271.324 334.926H131.253C123.406 334.926 117.054 328.699 117.054 321.012V49.0596C117.054 33.4071 123.406 32.6332 131.253 32.6332H159.315C160.946 32.6332 162.28 34.3115 162.28 36.3898V37.2594C162.28 42.129 165.225 42.1464 168.833 42.1464H233.706C237.352 42.1464 240.278 42.1464 240.278 37.2594V36.3898C240.278 34.3115 241.592 32.6332 243.252 32.6332H271.305C279.133 32.6332 285.484 34.7115 285.484 49.0596L285.504 321.012Z" fill="#263238"/>
<path d="M285.514 49.2682V321.238C285.514 328.925 279.162 335.152 271.334 335.152H131.263C123.416 335.152 117.064 328.934 117.064 321.238V49.2682C117.064 33.6157 123.416 32.8418 131.263 32.8418H159.325C160.956 32.8418 162.29 34.5288 162.29 36.6071V37.4767C162.29 42.355 165.235 42.3724 168.843 42.3724H233.735C237.381 42.3724 240.307 42.3724 240.307 37.4767V36.6071C240.307 34.5288 241.622 32.8418 243.281 32.8418H271.334C279.21 32.8418 285.514 34.9288 285.514 49.2682Z" fill="white"/>
<path d="M285.514 49.277V73.947H117.074V49.277C117.074 33.6245 123.425 32.8506 131.273 32.8506H159.335C160.966 32.8506 162.3 34.5289 162.3 36.6072V37.4768C162.3 42.3464 165.245 42.3638 168.852 42.3638H233.736C237.381 42.3638 240.307 42.3638 240.307 37.4768V36.6072C240.307 34.5289 241.622 32.8506 243.282 32.8506H271.334C279.211 32.8506 285.514 34.9289 285.514 49.277Z" fill="#3874B9"/>
<path d="M210.135 36.0681H192.443C192.155 36.0658 191.879 35.9603 191.676 35.7747C191.473 35.589 191.359 35.3382 191.359 35.0768C191.359 34.8154 191.473 34.5645 191.676 34.3789C191.879 34.1932 192.155 34.0877 192.443 34.0854H210.135C210.425 34.0854 210.703 34.1899 210.908 34.3758C211.113 34.5617 211.228 34.8139 211.228 35.0768C211.228 35.3397 211.113 35.5918 210.908 35.7777C210.703 35.9637 210.425 36.0681 210.135 36.0681Z" fill="white"/>
<path d="M154.49 38.7113L154.221 38.9635C154.166 39.0054 154.114 39.052 154.068 39.1026C153.725 38.791 153.317 38.5439 152.869 38.3752C152.42 38.2066 151.939 38.1197 151.454 38.1197C150.968 38.1197 150.487 38.2066 150.038 38.3752C149.59 38.5439 149.182 38.791 148.839 39.1026L148.695 38.9635L148.427 38.72L148.772 38.4417C149.015 38.265 149.279 38.1133 149.559 37.9895C149.893 37.8398 150.248 37.7315 150.614 37.6678L151.142 37.6069H151.612H151.967C152.296 37.6372 152.618 37.7074 152.926 37.8156C153.155 37.8853 153.374 37.9787 153.579 38.0939C153.8 38.2062 154.009 38.3372 154.202 38.4852L154.49 38.72V38.7113Z" fill="white"/>
<path d="M149.692 39.8676L149.261 39.485C149.728 39.0512 150.343 38.7725 151.007 38.6937C151.48 38.6306 151.964 38.6686 152.418 38.8044C152.873 38.9403 153.287 39.1703 153.626 39.4763L153.194 39.8676C152.728 39.4507 152.099 39.217 151.443 39.217C150.788 39.217 150.159 39.4507 149.692 39.8676Z" fill="white"/>
<path d="M152.773 40.2591L152.351 40.6417C152.232 40.5351 152.091 40.4509 151.937 40.3942C151.782 40.3375 151.616 40.3093 151.449 40.3113C151.283 40.3096 151.118 40.3388 150.964 40.3971C150.811 40.4555 150.672 40.5417 150.557 40.6504L150.125 40.2591C150.298 40.1003 150.504 39.9742 150.732 39.8882C150.959 39.8021 151.203 39.7578 151.449 39.7578C151.695 39.7578 151.939 39.8021 152.166 39.8882C152.394 39.9742 152.6 40.1003 152.773 40.2591Z" fill="white"/>
<path d="M151.841 40.9983C151.843 41.0692 151.822 41.139 151.78 41.1987C151.738 41.2585 151.677 41.3055 151.605 41.3339C151.534 41.3622 151.454 41.3705 151.377 41.3577C151.3 41.345 151.229 41.3117 151.173 41.2622C151.117 41.2127 151.079 41.1492 151.063 41.0798C151.047 41.0105 151.054 40.9383 151.084 40.8727C151.113 40.807 151.164 40.7508 151.228 40.7112C151.293 40.6717 151.37 40.6505 151.448 40.6505C151.499 40.6493 151.55 40.6575 151.598 40.6744C151.645 40.6914 151.689 40.7168 151.725 40.7493C151.762 40.7817 151.791 40.8204 151.811 40.8632C151.831 40.906 151.841 40.9519 151.841 40.9983Z" fill="white"/>
<path d="M128.059 39.4943C128.057 39.2924 128.121 39.0945 128.244 38.9258C128.366 38.7572 128.542 38.6255 128.747 38.5474C128.953 38.4693 129.179 38.4484 129.398 38.4874C129.616 38.5264 129.817 38.6234 129.975 38.7663C130.132 38.9091 130.239 39.0911 130.282 39.2893C130.325 39.4875 130.302 39.6928 130.216 39.879C130.13 40.0653 129.985 40.2241 129.799 40.3352C129.613 40.4463 129.394 40.5048 129.172 40.503C128.876 40.503 128.593 40.3968 128.385 40.2076C128.176 40.0184 128.059 39.7619 128.059 39.4943Z" fill="white"/>
<path d="M131.58 39.4941C131.58 39.2946 131.645 39.0995 131.768 38.9337C131.89 38.7678 132.064 38.6385 132.267 38.5621C132.47 38.4858 132.694 38.4658 132.91 38.5047C133.126 38.5437 133.324 38.6397 133.48 38.7808C133.636 38.9219 133.742 39.1016 133.784 39.2973C133.827 39.4929 133.805 39.6958 133.721 39.8801C133.637 40.0644 133.494 40.2219 133.311 40.3328C133.128 40.4436 132.913 40.5028 132.693 40.5028C132.398 40.5028 132.115 40.3965 131.906 40.2073C131.697 40.0182 131.58 39.7616 131.58 39.4941Z" fill="white"/>
<path d="M135.091 39.4943C135.089 39.2924 135.153 39.0945 135.276 38.9258C135.399 38.7572 135.574 38.6255 135.779 38.5474C135.985 38.4693 136.211 38.4484 136.43 38.4874C136.649 38.5264 136.849 38.6234 137.007 38.7663C137.165 38.9091 137.272 39.0911 137.315 39.2893C137.358 39.4875 137.335 39.6928 137.249 39.879C137.162 40.0653 137.017 40.2241 136.831 40.3352C136.645 40.4463 136.427 40.5048 136.204 40.503C135.909 40.503 135.626 40.3968 135.417 40.2076C135.208 40.0184 135.091 39.7619 135.091 39.4943Z" fill="white"/>
<path d="M138.603 39.4944C138.601 39.2928 138.665 39.0952 138.787 38.9268C138.909 38.7583 139.084 38.6266 139.289 38.5482C139.494 38.4699 139.72 38.4485 139.938 38.4868C140.156 38.525 140.357 38.6212 140.515 38.7632C140.673 38.9051 140.781 39.0864 140.825 39.284C140.869 39.4816 140.848 39.6866 140.763 39.873C140.678 40.0594 140.534 40.2188 140.35 40.331C140.165 40.4432 139.947 40.5031 139.725 40.5031C139.429 40.5031 139.145 40.3971 138.935 40.2082C138.724 40.0192 138.605 39.7627 138.603 39.4944Z" fill="white"/>
<path d="M142.124 39.4943C142.122 39.2924 142.187 39.0945 142.309 38.9258C142.432 38.7572 142.607 38.6255 142.813 38.5474C143.018 38.4693 143.245 38.4484 143.463 38.4874C143.682 38.5264 143.883 38.6234 144.04 38.7663C144.198 38.9091 144.305 39.0911 144.348 39.2893C144.391 39.4875 144.368 39.6928 144.282 39.879C144.196 40.0653 144.05 40.2241 143.864 40.3352C143.678 40.4463 143.46 40.5048 143.237 40.503C142.942 40.503 142.659 40.3968 142.45 40.2076C142.241 40.0184 142.124 39.7619 142.124 39.4943Z" fill="white"/>
<path d="M272.878 41.668H263.793V37.8506H272.878V41.668ZM264.244 41.2506H272.399V38.268H264.244V41.2506Z" fill="white"/>
<path d="M270.403 38.5029H264.541V41.0247H270.403V38.5029Z" fill="white"/>
<path d="M273.684 38.7378H272.878V40.7813H273.684V38.7378Z" fill="white"/>
<path d="M133.038 64.5119L128.059 60.2857L133.038 56.0596L133.805 56.7987L129.709 60.2857L133.805 63.7641L133.038 64.5119Z" fill="white"/>
<path d="M270.24 64.8164H266.882V63.7555C266.88 63.7123 266.866 63.6702 266.841 63.6335C266.816 63.5968 266.78 63.5669 266.738 63.5468C266.609 63.4873 266.484 63.4205 266.364 63.3468C266.32 63.323 266.271 63.3105 266.22 63.3105C266.169 63.3105 266.119 63.323 266.076 63.3468L265.069 63.8773L263.39 61.2685L264.407 60.7381C264.447 60.7131 264.479 60.6792 264.501 60.6396C264.523 60.6001 264.533 60.5562 264.531 60.512C264.531 60.4424 264.531 60.3815 264.531 60.3207C264.531 60.2598 264.531 60.1902 264.531 60.1294C264.534 60.0839 264.524 60.0385 264.502 59.9974C264.481 59.9563 264.448 59.921 264.407 59.8946L263.39 59.3641L265.069 56.7554L266.076 57.2858C266.118 57.3089 266.166 57.321 266.215 57.321C266.264 57.321 266.312 57.3089 266.354 57.2858L266.738 57.0945C266.781 57.073 266.817 57.0416 266.842 57.0034C266.867 56.9652 266.881 56.9217 266.882 56.8771V55.7554H270.24V56.8076C270.24 56.8521 270.254 56.8957 270.279 56.9338C270.305 56.972 270.341 57.0035 270.384 57.025C270.513 57.0817 270.637 57.1455 270.758 57.2163C270.801 57.2392 270.851 57.2512 270.902 57.2512C270.952 57.2512 271.002 57.2392 271.046 57.2163L272.053 56.6858L273.732 59.2946L272.715 59.8163C272.671 59.8399 272.635 59.8748 272.613 59.9166C272.591 59.9584 272.583 60.0052 272.59 60.0511V60.4337C272.584 60.4784 272.592 60.5238 272.614 60.564C272.637 60.6043 272.672 60.6377 272.715 60.6598L273.732 61.1903L272.053 63.799L271.036 63.2685C270.994 63.2455 270.946 63.2334 270.897 63.2334C270.848 63.2334 270.8 63.2455 270.758 63.2685C270.638 63.3422 270.513 63.409 270.384 63.4686C270.341 63.4886 270.306 63.5185 270.28 63.5552C270.255 63.5919 270.241 63.634 270.24 63.6773V64.8164ZM267.601 64.1642H269.52V63.7555C269.518 63.5911 269.567 63.4294 269.662 63.2894C269.757 63.1493 269.894 63.0365 270.057 62.9642C270.163 62.9143 270.265 62.8591 270.364 62.799C270.519 62.7091 270.699 62.6613 270.882 62.6613C271.066 62.6613 271.246 62.7091 271.401 62.799L271.784 62.999L272.744 61.4946L272.35 61.2946C272.184 61.2094 272.049 61.0812 271.964 60.9262C271.878 60.7713 271.846 60.5968 271.871 60.425V60.1033C271.847 59.9306 271.881 59.7554 271.968 59.6004C272.055 59.4454 272.192 59.3176 272.36 59.2337L272.744 59.0337L271.784 57.5293L271.401 57.7293C271.246 57.8192 271.066 57.867 270.882 57.867C270.699 57.867 270.519 57.8192 270.364 57.7293C270.269 57.667 270.166 57.6145 270.057 57.5728C269.893 57.4998 269.755 57.3857 269.66 57.244C269.565 57.1022 269.516 56.9387 269.52 56.7728V56.3728H267.601V56.7728C267.604 56.9396 267.555 57.1038 267.458 57.2456C267.361 57.3875 267.221 57.5011 267.054 57.5728C266.948 57.6183 266.846 57.6706 266.748 57.7293C266.594 57.8175 266.416 57.8642 266.234 57.8642C266.052 57.8642 265.874 57.8175 265.721 57.7293L265.328 57.5293L264.368 59.0337L264.752 59.2337C264.92 59.3176 265.057 59.4454 265.144 59.6004C265.231 59.7554 265.265 59.9306 265.241 60.1033V60.425C265.265 60.5977 265.231 60.7729 265.144 60.9279C265.057 61.0829 264.92 61.2107 264.752 61.2946L264.368 61.4946L265.328 62.999L265.721 62.799C265.876 62.7091 266.055 62.6613 266.239 62.6613C266.423 62.6613 266.602 62.7091 266.757 62.799C266.856 62.8591 266.958 62.9143 267.064 62.9642C267.227 63.0365 267.364 63.1493 267.459 63.2894C267.554 63.4294 267.604 63.5911 267.601 63.7555V64.1642ZM268.561 62.5642C268.061 62.5659 267.572 62.433 267.155 62.1824C266.739 61.9318 266.414 61.5747 266.222 61.1564C266.03 60.7382 265.979 60.2776 266.076 59.8332C266.173 59.3887 266.414 58.9804 266.767 58.6601C267.12 58.3397 267.571 58.1217 268.061 58.0337C268.552 57.9458 269.06 57.9918 269.521 58.166C269.983 58.3401 270.377 58.6346 270.653 59.012C270.93 59.3895 271.076 59.8328 271.074 60.2859C271.074 60.8901 270.81 61.4696 270.338 61.8969C269.867 62.3242 269.227 62.5642 268.561 62.5642ZM268.561 58.6511C268.204 58.6494 267.854 58.7438 267.556 58.9224C267.258 59.1009 267.026 59.3557 266.888 59.6542C266.75 59.9528 266.712 60.2818 266.781 60.5995C266.85 60.9172 267.021 61.2093 267.272 61.4388C267.524 61.6683 267.846 61.8248 268.196 61.8886C268.546 61.9524 268.909 61.9205 269.239 61.7971C269.569 61.6736 269.852 61.4641 270.05 61.195C270.249 60.926 270.355 60.6096 270.355 60.2859C270.359 60.0698 270.315 59.8551 270.227 59.6543C270.138 59.4535 270.007 59.2706 269.84 59.1161C269.673 58.9616 269.474 58.8387 269.255 58.7544C269.035 58.6701 268.799 58.6261 268.561 58.625V58.6511Z" fill="white"/>
<path d="M228.67 292.203H174.32V307.638H228.67V292.203Z" fill="#3874B9"/>
<path d="M190.275 303.464C189.723 303.472 189.178 303.362 188.682 303.142C188.21 302.93 187.789 302.634 187.445 302.273C187.097 301.918 186.823 301.508 186.639 301.064C186.457 300.622 186.363 300.153 186.36 299.681C186.356 299.196 186.457 298.714 186.658 298.264C186.851 297.819 187.13 297.41 187.483 297.055C187.833 296.695 188.256 296.4 188.73 296.186C189.221 295.982 189.754 295.878 190.294 295.881C190.848 295.873 191.397 295.983 191.896 296.203C192.362 296.42 192.779 296.715 193.124 297.073C193.467 297.426 193.737 297.832 193.92 298.273C194.102 298.712 194.197 299.177 194.199 299.647C194.201 300.131 194.103 300.612 193.911 301.064C193.721 301.505 193.441 301.909 193.086 302.255C192.735 302.603 192.311 302.884 191.839 303.081C191.356 303.315 190.821 303.446 190.275 303.464ZM187.675 299.707C187.672 300.051 187.734 300.392 187.857 300.716C187.973 301.033 188.152 301.328 188.385 301.586C188.606 301.836 188.884 302.041 189.2 302.186C189.542 302.331 189.916 302.407 190.294 302.407C190.672 302.407 191.045 302.331 191.388 302.186C191.702 302.031 191.977 301.818 192.194 301.56C192.421 301.301 192.594 301.006 192.702 300.69C192.816 300.373 192.874 300.041 192.875 299.707C192.878 299.361 192.817 299.017 192.692 298.69C192.576 298.374 192.397 298.079 192.165 297.82C191.94 297.575 191.663 297.374 191.349 297.229C191.012 297.077 190.641 296.998 190.265 296.998C189.889 296.998 189.518 297.077 189.181 297.229C188.867 297.381 188.59 297.587 188.366 297.838C188.14 298.099 187.965 298.393 187.848 298.707C187.732 299.03 187.673 299.368 187.675 299.707Z" fill="white"/>
<path d="M195.532 303.412V296.021H198.967C199.319 296.018 199.667 296.089 199.984 296.229C200.288 296.364 200.562 296.55 200.79 296.777C201.013 297.004 201.189 297.267 201.308 297.551C201.431 297.828 201.496 298.122 201.5 298.421C201.498 298.718 201.436 299.013 201.317 299.29C201.209 299.573 201.039 299.833 200.818 300.055C200.606 300.287 200.341 300.474 200.041 300.603C199.743 300.736 199.414 300.804 199.082 300.803H196.875V303.412H195.532ZM196.827 299.795H198.957C199.13 299.796 199.301 299.76 199.456 299.69C199.608 299.625 199.74 299.526 199.84 299.403C199.953 299.269 200.04 299.12 200.099 298.96C200.159 298.782 200.188 298.597 200.185 298.412C200.192 298.219 200.156 298.027 200.08 297.847C200.017 297.686 199.919 297.538 199.792 297.412C199.676 297.295 199.536 297.2 199.379 297.134C199.226 297.069 199.059 297.036 198.89 297.038H196.827V299.795Z" fill="white"/>
<path d="M208.312 302.377V303.412H202.709V296.021H208.216V297.055H203.995V299.16H207.65V300.134H203.995V302.395L208.312 302.377Z" fill="white"/>
<path d="M210.94 298.194V303.412H209.654V296.021H210.662L215.334 301.36V296.021H216.639V303.421H215.564L210.94 298.194Z" fill="white"/>
<path d="M273.78 269.142H128.826V158.001L201.289 116.287L273.78 158.001V269.142Z" fill="#3874B9"/>
<path opacity="0.2" d="M273.78 269.142H128.826V158.001L201.289 116.287L273.78 158.001V269.142Z" fill="black"/>
<path d="M265.606 111H137V260.637H265.606V111Z" fill="white"/>
<path d="M265.606 260.637L137.048 260.837H136.818V260.637L136.684 111V110.678H137.048L265.606 110.765H265.855V111L265.606 260.637ZM265.606 260.637L265.347 111L265.606 111.226L137.048 111.322L137.403 111L137.221 260.637L137 260.429L265.606 260.637Z" fill="#DBDBDB"/>
<path d="M260.434 203.323C260.556 207.7 260.649 212.071 260.713 216.437C260.713 220.784 260.857 225.185 260.857 229.559L260.914 242.672L260.857 255.794V256.176H260.434C255.388 256.176 250.342 256.107 245.295 256.055C240.249 256.002 235.203 255.907 230.156 255.794C235.203 255.681 240.249 255.576 245.295 255.533C250.342 255.489 255.388 255.411 260.434 255.411L260.012 255.794L259.955 242.672L260.012 229.559C260.012 225.211 260.108 220.811 260.156 216.437C260.204 212.063 260.31 207.697 260.434 203.323Z" fill="#3874B9"/>
<path d="M142.161 168.314C142.04 163.943 141.947 159.569 141.883 155.192C141.835 150.844 141.739 146.453 141.739 142.079L141.682 128.957L141.739 115.843V115.452H142.161C147.208 115.452 152.254 115.522 157.3 115.574C162.347 115.626 167.393 115.722 172.44 115.835C167.393 115.948 162.347 116.052 157.3 116.096C152.254 116.139 147.208 116.217 142.161 116.217L142.583 115.835L142.641 128.948L142.583 142.105C142.583 146.453 142.488 150.853 142.44 155.218C142.392 159.583 142.286 163.94 142.161 168.314Z" fill="#3874B9"/>
<path d="M201.375 115.843L216.14 115.626L230.905 115.504C235.827 115.452 240.748 115.504 245.67 115.443H260.435H260.915V115.878L260.867 128.991L260.799 142.105C260.723 150.853 260.636 159.592 260.435 168.34C260.233 159.592 260.147 150.853 260.07 142.105L260.022 128.957L259.974 115.843L260.454 116.278L245.632 116.235C240.71 116.235 235.788 116.235 230.867 116.174L216.14 116.017L201.375 115.843Z" fill="#3874B9"/>
<path d="M201.221 255.794C191.378 255.959 181.535 256.046 171.691 256.107C161.848 256.168 152.005 256.176 142.161 256.22H141.691V255.794V240.498L141.749 225.211L141.883 209.915L142.133 194.627L142.382 209.915L142.516 225.211L142.574 240.498V255.794L142.104 255.368C151.947 255.411 161.791 255.368 171.634 255.472C181.477 255.576 191.378 255.629 201.221 255.794Z" fill="#3874B9"/>
<path d="M169.024 130.2V129.818H175.855V130.2H173.677V144.914H175.855V145.288H169.024V144.914H170.943V130.2H169.024Z" fill="#3874B9"/>
<path d="M183.818 145.288H178.062V144.931H179.799V134.696H177.88V134.34H178.475C179.717 134.356 180.959 134.254 182.178 134.035V136.409H182.312C182.586 135.67 183.108 135.028 183.805 134.571C184.501 134.114 185.338 133.866 186.198 133.861C189.46 133.861 190.17 135.792 190.17 138.748V144.931H191.906V145.288H186.102V144.931H187.838V139.079C187.838 137.148 187.838 134.531 185.708 134.531C182.715 134.531 182.111 137.914 182.111 140.618V144.922H183.847L183.818 145.288Z" fill="#3874B9"/>
<path d="M203.994 137.67C203.994 136.009 203.543 134.296 201.922 134.296C201.759 134.296 201.653 134.366 201.653 134.505C201.653 134.644 201.74 134.696 201.893 134.722C202.108 134.768 202.299 134.88 202.433 135.038C202.568 135.196 202.638 135.392 202.632 135.592C202.627 135.75 202.587 135.905 202.514 136.049C202.44 136.192 202.335 136.321 202.205 136.426C202.074 136.531 201.921 136.611 201.756 136.66C201.59 136.71 201.415 136.728 201.241 136.713C201.049 136.718 200.858 136.688 200.68 136.623C200.502 136.559 200.34 136.462 200.205 136.34C200.069 136.217 199.963 136.07 199.892 135.908C199.821 135.747 199.787 135.574 199.792 135.4C199.798 135.181 199.853 134.965 199.954 134.765C200.055 134.566 200.199 134.387 200.379 134.24C200.558 134.093 200.769 133.98 200.998 133.909C201.227 133.838 201.47 133.81 201.711 133.826C203.889 133.826 204.493 135.566 204.493 137.54C204.493 141.47 202.133 145.731 199.37 145.731C196.377 145.731 194.573 141.8 194.573 135.992V134.661H192.712V134.305H193.259C194.502 134.321 195.743 134.219 196.962 134V135.453C196.962 139.4 197.777 144.661 200.301 144.661C202.028 144.714 203.994 140.957 203.994 137.67Z" fill="#3874B9"/>
<path d="M210.854 144.931H212.591V145.287H206.787V144.931H208.514V134.696H206.652V134.339H207.199C208.426 134.356 209.651 134.254 210.854 134.035V144.931ZM209.598 129.339C209.802 129.338 210.004 129.374 210.193 129.444C210.381 129.515 210.552 129.619 210.696 129.75C210.84 129.881 210.954 130.037 211.03 130.208C211.107 130.38 211.145 130.563 211.142 130.748C211.144 130.931 211.104 131.113 211.027 131.283C210.95 131.452 210.836 131.606 210.692 131.735C210.548 131.863 210.377 131.965 210.189 132.033C210.001 132.101 209.8 132.134 209.598 132.131C209.396 132.134 209.196 132.101 209.009 132.033C208.822 131.964 208.653 131.863 208.51 131.734C208.368 131.605 208.256 131.451 208.18 131.281C208.105 131.112 208.068 130.931 208.072 130.748C208.067 130.564 208.103 130.381 208.177 130.21C208.252 130.038 208.363 129.882 208.506 129.751C208.648 129.619 208.818 129.515 209.006 129.445C209.193 129.374 209.395 129.338 209.598 129.339Z" fill="#3874B9"/>
<path d="M218.577 142.792C218.577 144.409 218.577 145.122 219.287 145.122C220.247 145.122 221.206 143.766 221.58 142.931L221.993 143.079C221.417 144.409 220.285 145.766 218.712 145.766C216.457 145.766 216.246 144.314 216.246 142.288V134.713H214.385V134.357H214.567C216.687 134.357 217.848 133.122 218.242 131.218H218.577V134.357H221.762V134.713H218.577V142.792Z" fill="#3874B9"/>
<path d="M233.975 136.887C233.975 139.809 230.512 140.053 227.259 140.053H226.022V140.74C226.022 143.122 226.981 145.088 229.648 145.088C231.797 145.088 233.006 143.592 233.486 141.853L233.956 141.905C233.4 144.14 231.721 145.757 229.044 145.757C225.264 145.757 223.479 143.235 223.479 139.809C223.479 136.383 225.504 133.853 229.332 133.853C231.74 133.861 233.975 134.748 233.975 136.887ZM226.962 139.627C229.562 139.627 231.423 139.244 231.423 136.887C231.423 135.383 230.771 134.279 229.111 134.279C226.703 134.279 226.041 136.8 226.041 138.992V139.661L226.962 139.627Z" fill="#3874B9"/>
<path d="M247.502 157.044H155.507V157.818H247.502V157.044Z" fill="#EBEBEB"/>
<path d="M247.502 162.053H155.507V162.827H247.502V162.053Z" fill="#EBEBEB"/>
<path d="M247.502 167.07H155.507V167.844H247.502V167.07Z" fill="#EBEBEB"/>
<path d="M247.502 172.079H155.507V172.853H247.502V172.079Z" fill="#EBEBEB"/>
<path d="M247.502 177.088H155.507V177.862H247.502V177.088Z" fill="#EBEBEB"/>
<path d="M233.765 182.105H169.227V182.879H233.765V182.105Z" fill="#EBEBEB"/>
<path d="M247.502 192.132H155.507V192.906H247.502V192.132Z" fill="#EBEBEB"/>
<path d="M247.502 197.141H155.507V197.915H247.502V197.141Z" fill="#EBEBEB"/>
<path d="M247.502 202.158H155.507V202.932H247.502V202.158Z" fill="#EBEBEB"/>
<path d="M247.502 207.167H155.507V207.941H247.502V207.167Z" fill="#EBEBEB"/>
<path d="M247.502 212.185H155.507V212.959H247.502V212.185Z" fill="#EBEBEB"/>
<path d="M273.78 185.819V269.142H128.826V185.819C135.043 189.01 141.164 192.367 147.323 195.645C153.482 198.923 159.603 202.315 165.695 205.706C172.488 209.457 179.274 213.257 186.054 217.106L186.265 216.993C186.207 216.993 186.159 217.089 186.092 217.132C191.17 219.996 196.242 222.869 201.308 225.75C206.364 222.872 211.429 219.967 216.505 217.132C216.437 217.132 216.399 217.028 216.332 216.993C216.401 217.032 216.475 217.064 216.552 217.089C223.313 213.263 230.096 209.463 236.901 205.689C242.996 202.315 249.114 198.967 255.254 195.645C261.433 192.367 267.553 189.01 273.78 185.819Z" fill="#3874B9"/>
<g opacity="0.2">
<path d="M273.78 185.819C267.918 189.549 261.96 193.115 256.06 196.784C250.16 200.454 244.154 203.967 238.167 207.524C231.912 211.228 225.647 214.903 219.373 218.55L218.807 218.906C213.262 222.124 207.697 225.338 202.114 228.55L201.289 229.011L200.483 228.55C194.906 225.338 189.347 222.118 183.809 218.889C183.617 218.785 183.415 218.672 183.223 218.55C176.93 214.898 170.659 211.214 164.41 207.498C158.452 203.967 152.485 200.376 146.536 196.784C140.588 193.193 134.678 189.549 128.826 185.819C135.043 189.01 141.164 192.367 147.323 195.645C153.482 198.923 159.603 202.315 165.695 205.706C172.488 209.457 179.274 213.257 186.054 217.106C191.132 219.97 196.204 222.843 201.269 225.724C206.325 222.846 211.391 219.941 216.466 217.106C216.466 217.106 216.466 217.106 216.514 217.106C223.275 213.28 230.057 209.48 236.863 205.706C242.958 202.332 249.076 198.984 255.216 195.662C261.433 192.367 267.553 189.01 273.78 185.819Z" fill="black"/>
<path d="M186.265 216.993C186.207 216.993 186.159 217.089 186.092 217.132C185.334 217.724 184.567 218.315 183.809 218.871C180.173 221.654 176.45 224.315 172.661 226.898C168.046 230.098 163.326 233.15 158.577 236.194C153.828 239.237 148.983 242.133 144.129 244.976C139.274 247.82 134.285 250.594 129.172 253.142C133.566 249.663 138.142 246.394 142.757 243.22C147.371 240.046 152.111 236.959 156.841 233.924C161.57 230.889 166.434 227.967 171.318 225.124C175.213 222.854 179.175 220.628 183.224 218.532C184.183 218.037 185.142 217.567 186.102 217.089L186.265 216.993Z" fill="black"/>
<path d="M273.453 253.159C268.34 250.611 263.38 247.828 258.506 244.994C253.633 242.159 248.816 239.185 244.029 236.211C239.242 233.237 234.56 230.124 229.945 226.915C226.175 224.306 222.452 221.697 218.836 218.906L216.533 217.167C216.466 217.167 216.428 217.063 216.36 217.028C216.43 217.067 216.504 217.099 216.581 217.123C217.54 217.619 218.5 218.089 219.402 218.584C223.46 220.68 227.393 222.932 231.317 225.176C236.21 228.019 240.997 230.976 245.766 233.976C250.534 236.976 255.235 240.063 259.849 243.272C264.464 246.481 269.031 249.663 273.453 253.159Z" fill="black"/>
</g>
<path d="M265.53 105.887C265.192 105.269 265.028 104.585 265.05 103.896C265.03 103.206 265.194 102.523 265.53 101.904C265.861 102.524 266.026 103.207 266.009 103.896C266.022 104.584 265.858 105.266 265.53 105.887Z" fill="#263238"/>
<path d="M261.557 107.435C260.829 107.211 260.171 106.833 259.639 106.33C259.088 105.847 258.673 105.25 258.43 104.591C259.139 104.832 259.783 105.208 260.318 105.694C260.852 106.18 261.265 106.765 261.529 107.409L261.557 107.435Z" fill="#263238"/>
<path d="M259.965 111.07C259.276 111.356 258.527 111.505 257.768 111.505C257.01 111.505 256.261 111.356 255.571 111.07C256.254 110.765 257.008 110.616 257.768 110.635C258.528 110.62 259.281 110.769 259.965 111.07Z" fill="#263238"/>
<path d="M261.673 114.661C261.406 115.306 260.989 115.891 260.451 116.377C259.913 116.863 259.267 117.239 258.555 117.479C258.822 116.834 259.238 116.249 259.776 115.763C260.314 115.277 260.961 114.901 261.673 114.661Z" fill="#263238"/>
<path d="M265.682 116.104C266.012 116.728 266.173 117.413 266.152 118.105C266.173 118.794 266.008 119.477 265.673 120.096C265.346 119.474 265.182 118.793 265.193 118.105C265.18 117.412 265.348 116.727 265.682 116.104Z" fill="#263238"/>
<path d="M269.616 114.565C270.326 114.806 270.969 115.182 271.504 115.668C272.039 116.154 272.452 116.739 272.715 117.383C272.006 117.142 271.362 116.766 270.827 116.28C270.292 115.794 269.879 115.209 269.616 114.565Z" fill="#263238"/>
<path d="M271.237 110.93C271.927 110.644 272.676 110.495 273.434 110.495C274.193 110.495 274.942 110.644 275.631 110.93C274.949 111.235 274.195 111.384 273.434 111.365C272.675 111.376 271.923 111.227 271.237 110.93Z" fill="#263238"/>
<path d="M269.53 107.322C269.78 106.663 270.197 106.067 270.749 105.582C271.281 105.08 271.939 104.702 272.667 104.478C272.401 105.123 271.984 105.708 271.446 106.194C270.908 106.68 270.261 107.056 269.549 107.295L269.53 107.322Z" fill="#263238"/>
<path d="M148.283 191.436C147.95 190.814 147.785 190.128 147.803 189.436C147.792 188.748 147.956 188.066 148.283 187.445C148.619 188.066 148.784 188.753 148.762 189.445C148.773 190.133 148.609 190.815 148.283 191.436Z" fill="#263238"/>
<path d="M144.32 192.976C143.609 192.737 142.962 192.362 142.426 191.876C141.889 191.389 141.475 190.803 141.212 190.158C141.921 190.4 142.566 190.777 143.102 191.263C143.638 191.748 144.053 192.333 144.32 192.976Z" fill="#263238"/>
<path d="M142.718 196.61C142.034 196.911 141.281 197.06 140.521 197.045C139.762 197.056 139.01 196.907 138.324 196.61C139.007 196.306 139.761 196.157 140.521 196.175C141.281 196.164 142.033 196.313 142.718 196.61Z" fill="#263238"/>
<path d="M144.426 200.202C144.159 200.845 143.743 201.429 143.207 201.915C142.671 202.401 142.027 202.777 141.317 203.019C141.584 202.376 142 201.792 142.536 201.306C143.072 200.82 143.716 200.444 144.426 200.202Z" fill="#263238"/>
<path d="M148.437 201.654C148.765 202.275 148.929 202.957 148.916 203.645C148.93 204.335 148.762 205.017 148.427 205.636C148.099 205.016 147.938 204.333 147.957 203.645C147.935 202.956 148.1 202.272 148.437 201.654Z" fill="#263238"/>
<path d="M152.398 200.106C153.108 200.348 153.752 200.724 154.288 201.21C154.824 201.696 155.24 202.28 155.507 202.923C154.779 202.7 154.121 202.321 153.588 201.819C153.05 201.339 152.643 200.753 152.398 200.106Z" fill="#263238"/>
<path d="M153.991 196.471C154.68 196.174 155.435 196.026 156.198 196.036C156.959 196.024 157.712 196.176 158.395 196.48C157.707 196.779 156.951 196.925 156.188 196.906C155.428 196.924 154.674 196.775 153.991 196.471Z" fill="#263238"/>
<path d="M152.293 192.88C152.556 192.235 152.97 191.649 153.507 191.163C154.043 190.676 154.69 190.301 155.401 190.062C155.155 190.722 154.737 191.319 154.183 191.802C153.654 192.289 153.007 192.658 152.293 192.88Z" fill="#263238"/>
<path d="M248.51 256.281C248.355 256.148 248.233 255.988 248.15 255.81C248.068 255.631 248.027 255.44 248.031 255.246C248.027 255.054 248.068 254.864 248.15 254.687C248.233 254.51 248.356 254.351 248.51 254.22C248.661 254.354 248.781 254.513 248.864 254.69C248.946 254.866 248.989 255.055 248.99 255.246C248.989 255.439 248.946 255.63 248.864 255.807C248.782 255.985 248.661 256.146 248.51 256.281Z" fill="#263238"/>
<path d="M246.437 257.072C246.226 257.076 246.015 257.041 245.819 256.97C245.623 256.898 245.445 256.791 245.296 256.655C245.147 256.519 245.03 256.357 244.951 256.179C244.872 256.002 244.832 255.812 244.835 255.62C245.047 255.615 245.257 255.65 245.453 255.722C245.65 255.794 245.828 255.901 245.977 256.037C246.127 256.173 246.245 256.334 246.324 256.512C246.403 256.69 246.442 256.88 246.437 257.072Z" fill="#263238"/>
<path d="M245.631 258.951C245.485 259.088 245.309 259.198 245.114 259.273C244.92 259.348 244.711 259.386 244.499 259.386C244.288 259.386 244.079 259.348 243.884 259.273C243.69 259.198 243.514 259.088 243.367 258.951C243.512 258.81 243.687 258.699 243.882 258.625C244.077 258.55 244.288 258.513 244.499 258.516C244.71 258.516 244.92 258.554 245.114 258.629C245.309 258.704 245.484 258.813 245.631 258.951Z" fill="#263238"/>
<path d="M246.495 260.803C246.498 260.995 246.459 261.185 246.38 261.362C246.301 261.54 246.184 261.702 246.035 261.838C245.887 261.976 245.709 262.085 245.513 262.158C245.316 262.231 245.106 262.267 244.893 262.264C244.887 262.072 244.925 261.881 245.004 261.703C245.083 261.525 245.202 261.363 245.354 261.229C245.502 261.091 245.68 260.982 245.876 260.909C246.072 260.836 246.283 260.8 246.495 260.803Z" fill="#263238"/>
<path d="M248.568 261.551C248.719 261.686 248.839 261.847 248.922 262.025C249.004 262.202 249.047 262.393 249.047 262.586C249.046 262.777 249.004 262.966 248.921 263.142C248.839 263.318 248.719 263.478 248.568 263.612C248.414 263.48 248.292 263.321 248.21 263.144C248.127 262.968 248.086 262.777 248.088 262.586C248.087 262.393 248.128 262.201 248.211 262.024C248.293 261.846 248.415 261.685 248.568 261.551Z" fill="#263238"/>
<path d="M250.61 260.759C250.822 260.755 251.033 260.789 251.229 260.861C251.425 260.933 251.603 261.04 251.752 261.177C251.904 261.31 252.024 261.471 252.103 261.65C252.183 261.828 252.22 262.019 252.213 262.211C252.001 262.214 251.791 262.178 251.595 262.107C251.399 262.035 251.221 261.929 251.071 261.794C250.923 261.658 250.806 261.496 250.727 261.318C250.648 261.141 250.608 260.951 250.61 260.759Z" fill="#263238"/>
<path d="M251.436 258.881C251.582 258.743 251.758 258.633 251.952 258.559C252.147 258.484 252.356 258.446 252.568 258.446C252.662 258.363 252.782 258.306 252.912 258.283C253.042 258.261 253.176 258.274 253.298 258.32C253.42 258.366 253.524 258.444 253.597 258.544C253.67 258.644 253.709 258.761 253.709 258.881C253.709 259.001 253.67 259.118 253.597 259.218C253.524 259.318 253.42 259.396 253.298 259.442C253.176 259.489 253.042 259.502 252.912 259.479C252.782 259.457 252.662 259.4 252.568 259.316C252.142 259.312 251.735 259.156 251.436 258.881Z" fill="#263238"/>
<path d="M250.553 257.029C250.183 257.027 249.825 256.909 249.54 256.695C249.254 256.481 249.06 256.184 248.989 255.855C248.918 255.526 248.975 255.184 249.15 254.889C249.326 254.593 249.609 254.362 249.951 254.234C250.294 254.106 250.674 254.09 251.028 254.188C251.383 254.286 251.688 254.492 251.894 254.771C252.099 255.05 252.192 255.385 252.156 255.719C252.119 256.053 251.957 256.365 251.695 256.603C251.547 256.741 251.369 256.85 251.173 256.923C250.976 256.996 250.766 257.032 250.553 257.029Z" fill="#263238"/>
<path d="M131.868 365.196C129.709 365.822 68.2988 365.101 65.9771 363.727C65.0848 363.222 64.6819 355.1 64.4996 345.283V344.97C64.4996 342.952 64.4324 340.865 64.4229 338.752C64.4229 338.465 64.4229 338.17 64.4229 337.883L67.4065 309.004L108.487 309.378L104.429 337.987V339.117L104.18 345.039V345.648C104.18 345.648 127.55 355.457 129.93 357.205C132.309 358.953 134.017 364.57 131.868 365.196Z" fill="#EB9481"/>
<path d="M131.868 365.196C129.709 365.822 68.2988 365.101 65.9771 363.727C65.0848 363.222 64.6819 355.1 64.4996 345.283V344.97C64.4996 342.952 64.4324 340.865 64.4229 338.752C64.4229 338.465 64.4229 338.17 64.4229 337.883L104.429 337.987V339.118L104.18 345.039V345.648C104.18 345.648 127.55 355.457 129.93 357.205C132.309 358.953 134.017 364.57 131.868 365.196Z" fill="#EBEBEB"/>
<path d="M131.868 365.188C130.764 365.518 114.08 365.483 97.7709 365.188C94.4898 365.127 91.2279 365.066 88.1195 364.988C76.4917 364.701 66.8786 364.266 65.9864 363.735C65.0942 363.205 64.7008 355.335 64.5186 345.7C64.5186 345.561 64.5186 345.422 64.5186 345.292C64.5186 345.161 64.5186 345.074 64.5186 344.979L104.103 345.039V345.657C104.103 345.657 127.474 355.457 129.843 357.214C132.213 358.97 134.026 364.57 131.868 365.188Z" fill="#3874B9"/>
<path d="M131.206 363.031C120.854 362.674 79.0731 362.161 68.846 362.509C68.7597 362.509 68.7597 362.561 68.846 362.561C79.1019 363.118 120.883 363.344 131.206 363.178C131.465 363.178 131.465 363.031 131.206 363.031Z" fill="#263238"/>
<path d="M108.536 345.196C104.478 344.457 99.4795 344.961 96.3327 347.561C96.208 347.657 96.3327 347.813 96.5054 347.778C100.414 346.685 104.441 345.974 108.517 345.657C108.577 345.648 108.631 345.622 108.671 345.581C108.711 345.54 108.734 345.488 108.737 345.433C108.739 345.379 108.72 345.325 108.684 345.282C108.647 345.238 108.595 345.208 108.536 345.196Z" fill="#263238"/>
<path d="M111.452 346.831C107.394 346.091 102.405 346.604 99.2488 349.196C99.124 349.3 99.2488 349.457 99.4215 349.422C103.33 348.334 107.358 347.631 111.433 347.326C111.505 347.329 111.576 347.305 111.629 347.26C111.682 347.215 111.713 347.153 111.716 347.087C111.719 347.021 111.692 346.957 111.643 346.909C111.593 346.861 111.525 346.833 111.452 346.831Z" fill="#263238"/>
<path d="M114.369 348.474C110.311 347.735 105.322 348.248 102.165 350.839C102.05 350.944 102.165 351.092 102.338 351.057C106.248 349.967 110.274 349.258 114.35 348.944C114.418 348.946 114.485 348.923 114.536 348.881C114.586 348.839 114.616 348.78 114.618 348.718C114.621 348.655 114.596 348.595 114.549 348.549C114.502 348.503 114.438 348.476 114.369 348.474Z" fill="#263238"/>
<path d="M97.7709 365.179C94.4898 365.118 91.2279 365.057 88.1195 364.979C76.4917 364.692 66.8786 364.257 65.9864 363.727C65.0942 363.196 64.7008 355.326 64.5186 345.691C64.5186 345.552 64.5186 345.413 64.5186 345.283C64.5186 345.152 64.5186 345.065 64.5186 344.97C69.9679 348.413 89.0789 359.944 97.7709 365.179Z" fill="#263238"/>
<path d="M106.828 345.161H62.5908C62.5908 345.161 71.5035 251.525 71.1485 249.933C70.7072 247.838 68.0976 238.359 64.6247 225.976C63.531 222.107 62.3605 217.95 61.1325 213.637C57.8418 201.993 54.2057 189.289 51.0397 178.184C46.2428 161.584 42.5684 148.688 42.5684 148.688H80.0612C80.0612 148.688 84.4552 161.236 89.9333 177.532C98.9036 204.072 110.896 240.611 112.076 249.49C113.995 263.847 106.828 345.161 106.828 345.161Z" fill="#37474F"/>
<path d="M104.861 338.317C98.1458 338.195 100.065 338.143 93.2913 338.082C89.991 338.082 68.2609 337.882 65.1716 338.352C65.1538 338.352 65.1368 338.358 65.1242 338.37C65.1116 338.381 65.1045 338.397 65.1045 338.413C65.1045 338.429 65.1116 338.444 65.1242 338.456C65.1368 338.467 65.1538 338.474 65.1716 338.474C68.2609 338.935 89.991 338.761 93.2913 338.735C100.007 338.674 98.0882 338.63 104.861 338.5C104.877 338.504 104.894 338.505 104.91 338.503C104.927 338.5 104.942 338.494 104.955 338.486C104.969 338.477 104.98 338.465 104.987 338.452C104.995 338.438 104.998 338.423 104.998 338.408C104.998 338.393 104.995 338.379 104.987 338.365C104.98 338.352 104.969 338.34 104.955 338.331C104.942 338.323 104.927 338.317 104.91 338.314C104.894 338.312 104.877 338.313 104.861 338.317Z" fill="#263238"/>
<path d="M79.4763 244.168C78.0276 238.368 75.8594 232.689 73.9694 227.002C70.1319 215.443 66.2751 203.892 62.3992 192.349C60.4804 186.552 58.5361 180.778 56.5661 175.027C55.6067 172.123 54.5898 169.201 53.5824 166.332C52.5751 163.462 51.4814 160.627 50.5891 157.757C50.2246 156.592 50.0327 157.236 50.4932 158.714C51.4526 161.705 52.3448 164.697 53.3138 167.679C55.2326 173.593 57.1514 179.497 59.0701 185.393C62.9077 197.144 66.7772 208.88 70.6787 220.602C72.5975 226.492 74.5482 232.373 76.531 238.246C77.5182 241.046 78.316 243.897 78.9198 246.785C79.4439 249.804 79.5759 252.869 79.3132 255.916C78.8911 262.046 78.1044 268.168 77.4808 274.29C76.8572 280.412 76.224 286.56 75.562 292.69C74.2828 304.864 73.0484 317.068 71.8588 329.3C71.7053 330.847 71.5518 332.395 71.4174 333.943C71.4174 334.465 71.782 334.526 71.8396 334.03C73.2978 321.96 74.8808 309.751 76.128 297.664C77.3752 285.577 78.6128 273.612 79.8504 261.585C80.167 258.568 80.522 255.542 80.522 252.507C80.5153 249.701 80.1646 246.904 79.4763 244.168Z" fill="#263238"/>
<path d="M75.8199 148.645C73.22 166.906 68.2599 201.115 64.643 225.933C56.1813 195.854 42.5771 148.645 42.5771 148.645H75.8199Z" fill="#263238"/>
<path d="M85.0116 365.726C82.853 366.37 21.4426 365.848 19.1209 364.483C18.2287 363.979 17.7874 355.857 17.5667 346.039V345.735C17.5092 343.709 17.4804 341.622 17.4612 339.509C17.4612 339.222 17.4612 338.935 17.4612 338.639C17.3173 324.465 18.4206 309.76 18.4206 309.76L58.5709 309.995L57.458 338.63V339.761L57.2278 345.683V346.291C57.2278 346.291 80.6176 356.022 82.9585 357.761C85.2994 359.5 87.1606 365.1 85.0116 365.726Z" fill="#EB9481"/>
<path d="M85.0114 365.727C82.8527 366.37 21.4424 365.848 19.1207 364.483C18.2285 363.979 17.7871 355.857 17.5665 346.039V345.735C17.5089 343.709 17.4801 341.622 17.4609 339.509C17.4609 339.222 17.4609 338.935 17.4609 338.639H57.4674V339.77L57.2371 345.691V346.3C57.2371 346.3 80.6174 356.022 82.9583 357.761C85.2992 359.5 87.1604 365.1 85.0114 365.727Z" fill="#EBEBEB"/>
<path d="M85.0113 365.726C82.8527 366.37 21.4423 365.848 19.1206 364.483C18.2284 363.978 17.7871 355.857 17.5664 346.039V345.735L57.1891 345.665V346.274C57.1891 346.274 80.6173 356.022 82.9582 357.761C85.2991 359.5 87.1603 365.1 85.0113 365.726Z" fill="#3874B9"/>
<path d="M84.3405 363.57C73.9888 363.248 32.2075 362.848 21.9804 363.248C21.9037 363.248 21.9037 363.3 21.9804 363.309C32.2363 363.831 74.0175 363.918 84.3405 363.718C84.5516 363.718 84.5516 363.57 84.3405 363.57Z" fill="#263238"/>
<path d="M61.602 345.804C57.5342 345.083 52.5454 345.604 49.4082 348.213C49.2834 348.309 49.4082 348.465 49.5713 348.431C53.4791 347.327 57.5057 346.604 61.5828 346.274C61.6515 346.276 61.7184 346.254 61.7688 346.211C61.8191 346.169 61.8489 346.11 61.8514 346.048C61.854 345.986 61.8291 345.925 61.7823 345.879C61.7355 345.834 61.6707 345.807 61.602 345.804Z" fill="#263238"/>
<path d="M64.529 347.439C60.4612 346.709 55.4724 347.239 52.3256 349.839C52.2105 349.944 52.3256 350.1 52.4983 350.065C56.4011 348.953 60.4252 348.228 64.5003 347.9C64.5602 347.893 64.6156 347.867 64.6568 347.827C64.698 347.787 64.7224 347.735 64.7259 347.68C64.7293 347.626 64.7115 347.572 64.6755 347.528C64.6396 347.484 64.5878 347.452 64.529 347.439Z" fill="#263238"/>
<path d="M67.4452 349.065C63.387 348.343 58.3982 348.865 55.2514 351.474C55.1363 351.578 55.2514 351.726 55.4241 351.691C59.3284 350.586 63.352 349.863 67.426 349.535C67.4947 349.537 67.5616 349.515 67.612 349.472C67.6624 349.43 67.6921 349.371 67.6947 349.309C67.6972 349.246 67.6724 349.186 67.6256 349.14C67.5788 349.094 67.5139 349.067 67.4452 349.065Z" fill="#263238"/>
<path d="M78.8429 148.645C78.8429 148.645 77.9794 164.906 73.8733 177.775C73.5471 178.845 73.1921 179.889 72.8083 180.897C69.0438 182.27 65.4275 183.955 62.0056 185.932C62.0056 185.932 61.5643 198.976 61.1326 213.594C60.6529 229.907 60.1732 248.09 60.2596 251.951C60.6433 266.386 58.2736 345.752 58.2736 345.752L14.0459 345.909C14.0459 345.909 22.0472 257.281 21.9896 251.994C21.9033 243.498 24.1291 205.906 25.8272 178.541C26.8825 161.662 27.7459 148.645 27.7459 148.645H78.8429Z" fill="#37474F"/>
<path d="M56.7578 338.63C50.0421 338.526 51.9608 338.465 45.1876 338.439C41.8777 338.439 20.1476 338.335 17.0679 338.804C17.0008 338.804 17.0008 338.926 17.0679 338.935C20.1572 339.387 41.8777 339.126 45.1876 339.091C51.9033 339.004 49.9845 338.961 56.7578 338.804C56.7832 338.804 56.8076 338.795 56.8256 338.779C56.8436 338.763 56.8537 338.74 56.8537 338.717C56.8537 338.694 56.8436 338.672 56.8256 338.656C56.8076 338.64 56.7832 338.63 56.7578 338.63Z" fill="#263238"/>
<path d="M31.4776 154.453C30.6718 176.819 29.8083 199.184 28.705 221.532C27.6017 243.881 21.7878 324.247 20.3008 336.726C20.3008 336.804 20.4255 336.839 20.4351 336.726C23.6586 314.543 25.4527 281.707 27.0357 259.385C28.6187 237.063 29.6932 214.706 30.5374 192.349C31.0075 179.706 31.3721 167.062 31.7846 154.418C31.7942 154.279 31.4872 154.279 31.4776 154.453Z" fill="#263238"/>
<path d="M74.6402 179.923C70.245 181.592 66.0175 183.602 62.0051 185.932C61.9726 185.948 61.9481 185.975 61.9367 186.007C61.9253 186.038 61.9279 186.073 61.9439 186.103C61.96 186.134 61.9882 186.157 62.0229 186.169C62.0575 186.181 62.0958 186.18 62.1298 186.167C66.3991 184.289 70.7643 182.48 74.8993 180.393C74.9333 180.377 74.9636 180.356 74.9885 180.33C75.0135 180.304 75.0325 180.274 75.0445 180.241C75.0565 180.208 75.0613 180.174 75.0586 180.139C75.0559 180.105 75.0458 180.071 75.0288 180.041C75.0118 180.01 74.9882 179.982 74.9595 179.96C74.9308 179.937 74.8974 179.92 74.8613 179.909C74.8253 179.898 74.7872 179.894 74.7492 179.896C74.7113 179.899 74.6743 179.908 74.6402 179.923Z" fill="#263238"/>
<path d="M74.8614 166.131C74.5736 167.558 74.1898 168.966 73.902 170.384C73.6142 171.801 73.3456 173.071 72.9426 174.384C72.6221 175.655 71.9063 176.817 70.88 177.732C70.3139 178.219 69.6711 178.645 69.0667 179.088C68.7309 179.332 68.376 179.558 68.0306 179.801C68.0799 179.612 68.1183 179.42 68.1457 179.227C68.2512 178.688 68.3568 178.149 68.4527 177.61C68.6734 176.41 68.894 175.21 69.0955 174.001C69.4888 171.636 69.8534 169.253 70.4003 166.914C70.4025 166.896 70.3975 166.877 70.3863 166.862C70.3751 166.847 70.3582 166.836 70.3388 166.83C70.3194 166.825 70.2985 166.826 70.2799 166.834C70.2614 166.841 70.2462 166.854 70.2372 166.871C69.5944 169.192 68.8748 171.488 68.3184 173.827C68.0402 174.975 67.052 180.636 67.004 181.036C66.9561 181.436 66.9177 181.862 66.9081 182.28C66.8457 182.701 66.8457 183.128 66.9081 183.549C66.9081 183.654 67.0712 183.636 67.1192 183.549C67.311 183.155 67.4464 182.74 67.5221 182.314C67.6372 181.914 67.7332 181.506 67.8195 181.088C67.8195 180.94 67.8195 180.793 67.8867 180.645C68.5103 180.306 69.0763 179.853 69.6519 179.48C70.2276 179.106 70.9087 178.671 71.494 178.227C72.5763 177.394 73.3582 176.285 73.7389 175.045C74.1169 173.711 74.361 172.349 74.4681 170.975C74.6695 169.366 74.8134 167.749 75.0629 166.149C75.0725 166.079 74.9094 166.036 74.8614 166.131Z" fill="#263238"/>
<path d="M54.6089 105.174C61.6508 113.87 83.6304 128.453 92.8213 128.131C99.4699 127.905 120.125 108.635 125.68 102.322C131.034 96.235 109.217 84.6 105.946 88.0957C100.669 93.748 92.0922 106.444 89.5786 107.061C87.8229 107.496 76.7995 104.348 60.0774 98.4785C49.86 94.9045 50.3972 100.009 54.6089 105.174Z" fill="#EB9481"/>
<path d="M134.621 93.8173C132.012 98.0348 122.936 104.774 120.058 105.635C117.18 106.496 104.036 92.8956 104.631 90.1303C105.226 87.365 115.242 73.7735 120.298 71.9213C125.354 70.0691 137.336 89.4433 134.621 93.8173Z" fill="#EB9481"/>
<path d="M105.888 87.5474C106.45 83.6695 106.382 79.7377 105.686 75.8777C104.727 71.3037 102.616 64.5731 105.312 64.0253C110.838 62.8339 115.98 79.5125 115.98 79.5125C115.98 79.5125 116.94 87.2083 111.586 88.8257C110.599 89.1102 109.544 89.1414 108.538 88.9158C107.532 88.6902 106.615 88.2165 105.888 87.5474Z" fill="#EB9481"/>
<path d="M113.16 76.1821C113.247 78.7909 116.528 77.1821 116.528 77.1821C116.528 77.1821 112.402 80.4691 113.649 83.0779C114.897 85.6866 118.725 83.5735 119.003 83.4257C118.782 83.6083 115.089 86.7127 116.614 89.2171C118.139 91.7215 121.718 89.2171 121.948 89.0258C121.795 89.2432 119.905 92.2346 121.545 93.9042C124.356 96.7651 129.422 89.2432 132.78 88.6345C132.78 88.6345 134.564 93.6781 134.641 93.852C134.641 93.852 139.62 86.7823 138.478 82.7214C138.321 82.1285 137.946 81.6019 137.414 81.2288C136.881 80.8556 136.225 80.6582 135.552 80.6692C135.552 80.6692 137.471 78.5561 136.301 76.5473C135.715 75.5125 133.422 75.443 133.422 75.443C133.821 74.9444 134.06 74.3557 134.112 73.7418C134.165 73.128 134.029 72.5129 133.72 71.9646C132.818 70.582 130.611 70.7298 130.611 70.7298C130.611 70.7298 131.13 68.4689 129.7 67.3211C126.774 64.9819 112.968 70.6951 113.16 76.1821Z" fill="#EB9481"/>
<path d="M133.384 75.3561C133.441 75.3561 133.384 75.2604 133.384 75.2691C127.609 76.307 122.434 79.1814 118.792 83.3736C118.667 83.5214 118.724 83.7736 118.878 83.6084C121.478 80.8692 128.788 76.8865 133.384 75.3561Z" fill="#263238"/>
<path d="M121.794 89.4085C125.392 85.3388 130.074 82.7214 135.302 80.6605C135.37 80.6605 135.302 80.5562 135.302 80.5562C132.424 80.9388 129.249 82.5649 126.898 84.0345C124.677 85.3467 122.874 87.1636 121.67 89.3041C121.583 89.3737 121.718 89.4954 121.794 89.4085Z" fill="#263238"/>
<path d="M116.431 77.1733C116.297 77.3038 116.662 77.3386 116.527 77.4777C115.961 78.0603 112.891 81.8256 113.985 83.1821C114.858 84.2604 117.065 83.9387 117.823 83.5126L119.818 82.443L118.35 84.0778C117.696 84.8003 117.174 85.6136 116.806 86.4865C116.609 86.8814 116.507 87.3098 116.507 87.7431C116.507 88.1764 116.609 88.6047 116.806 88.9996C116.988 89.3681 117.306 89.6676 117.705 89.8469C118.104 90.0262 118.559 90.0741 118.993 89.9823C119.959 89.7647 120.85 89.3312 121.583 88.7214L123.665 87.0866L122.293 89.2344C121.908 89.8311 121.611 90.4715 121.411 91.1388C121.2 91.7652 121.2 92.4342 121.411 93.0606C121.514 93.3396 121.7 93.5873 121.949 93.7761C122.198 93.9649 122.5 94.0875 122.821 94.1302C123.557 94.1258 124.277 93.9296 124.893 93.5649C126.248 92.7901 127.531 91.9177 128.731 90.9562C129.364 90.4953 129.988 90.0344 130.65 89.5996C131.276 89.1303 132.005 88.7865 132.789 88.5909C132.045 88.8611 131.365 89.2565 130.784 89.7562C130.179 90.2344 129.594 90.7301 129.009 91.2345C127.854 92.2743 126.595 93.2146 125.248 94.0432C124.527 94.504 123.674 94.7639 122.792 94.791C122.31 94.7567 121.85 94.5951 121.468 94.3262C121.086 94.0573 120.799 93.6929 120.643 93.278C120.375 92.5024 120.375 91.6709 120.643 90.8953C120.857 90.1498 121.18 89.4334 121.603 88.7649L122.303 89.2779C121.454 90.0181 120.405 90.543 119.262 90.7997C118.613 90.9325 117.933 90.8524 117.343 90.5736C116.783 90.2918 116.329 89.8649 116.038 89.3475C115.789 88.8473 115.66 88.3049 115.66 87.7561C115.66 87.2074 115.789 86.665 116.038 86.1648C116.457 85.2138 117.047 84.3323 117.784 83.5561L118.321 84.1213C117.285 84.6343 114.868 85.2344 113.275 83.7126C111.5 81.4865 115.626 77.7994 116.431 77.1733Z" fill="#263238"/>
<path d="M116.527 77.1824C115.97 77.3315 115.391 77.4047 114.81 77.3998C114.577 77.3996 114.348 77.3442 114.146 77.2389C113.944 77.1336 113.776 76.9822 113.658 76.7997C113.468 76.3631 113.422 75.8859 113.524 75.4258C113.606 74.8899 113.721 74.3585 113.869 73.8345C113.44 74.2546 113.113 74.7525 112.91 75.2954C112.642 75.8828 112.642 76.5427 112.91 77.1302C113.094 77.4346 113.379 77.6783 113.726 77.8259C114.06 77.9576 114.429 78.0028 114.79 77.9563C115.448 77.8791 116.058 77.6069 116.527 77.1824Z" fill="#263238"/>
<path d="M84.0714 105.661L78.8523 126.401C78.8523 126.401 65.6607 116.783 57.151 108.887C48.6412 100.992 46.6745 94.1741 58.7052 97.4872C70.7359 100.8 84.0714 105.661 84.0714 105.661Z" fill="#3874B9"/>
<path opacity="0.1" d="M68.9036 100.53L64.8838 115.574L65.6417 116.191L69.7479 100.8L68.9036 100.53ZM73.1633 101.904L68.6926 118.626L69.4505 119.226L73.998 102.165L73.1633 101.904ZM77.4038 103.33L72.5109 121.592L73.2688 122.174L78.2385 103.582L77.4038 103.33ZM81.6347 104.791L76.3581 124.548L77.116 125.122L82.4694 105.122L81.6347 104.791Z" fill="#030402"/>
<path d="M79.2843 105.348C78.7758 106.809 78.4496 108.331 78.0851 109.826C77.7205 111.322 77.3847 112.765 77.0489 114.235C76.3678 117.209 75.677 120.174 75.2549 123.192C75.2549 123.279 75.3604 123.296 75.3892 123.192C76.3486 120.27 76.953 117.296 77.6246 114.313C77.9508 112.844 78.2769 111.374 78.5839 109.896C78.891 108.418 79.2555 106.878 79.4186 105.348C79.4186 105.332 79.4115 105.316 79.399 105.305C79.3864 105.294 79.3693 105.287 79.3515 105.287C79.3336 105.287 79.3166 105.294 79.304 105.305C79.2914 105.316 79.2843 105.332 79.2843 105.348Z" fill="#263238"/>
<path opacity="0.1" d="M81.1838 117.122L78.8525 126.392C78.8525 126.392 65.661 116.783 57.1512 108.887C50.3779 102.6 47.7492 97.0001 53.0258 96.6436L81.1838 117.122Z" fill="black"/>
<path d="M23.1594 172.801C23.3129 172.94 88.1195 168.923 88.6567 168.279C89.4146 167.41 68.9125 107.696 63.7702 98.9304C61.5732 95.1912 51.0967 94.6521 46.9618 98.1826C36.5908 107.026 29.3666 135.575 27.8508 144.175C25.3372 158.297 22.5742 172.28 23.1594 172.801Z" fill="#3874B9"/>
<path opacity="0.1" d="M63.8471 99.0522L44.8704 100.27C45.1391 99.9739 45.3981 99.687 45.6667 99.4L63.2715 98.2695C63.4647 98.469 63.6321 98.6878 63.7704 98.9217C63.7918 98.9671 63.8175 99.0107 63.8471 99.0522ZM65.4013 102.226L42.2993 103.704C42.1074 103.983 41.9251 104.27 41.7524 104.574L65.7371 103.035C65.6316 102.739 65.5164 102.478 65.4013 102.226ZM67.0994 106.191L39.7857 107.931L39.354 108.8L67.4256 107C67.3201 106.722 67.1858 106.452 67.0994 106.191ZM68.7016 110.174L37.723 112.157L37.3489 113.026L69.0086 110.992C68.9127 110.696 68.8071 110.435 68.7016 110.174ZM70.2462 114.157L35.9386 116.357C35.8234 116.635 35.7179 116.913 35.6124 117.226L70.5532 114.983C70.4477 114.679 70.3518 114.418 70.2462 114.157ZM71.7525 118.139L34.3364 120.539C34.2309 120.809 34.1349 121.087 34.039 121.409L72.0307 118.966C71.9827 118.67 71.858 118.4 71.7525 118.139ZM73.2299 122.105L32.9357 124.713C32.8397 124.992 32.7534 125.261 32.667 125.54L73.5369 122.931C73.4314 122.653 73.3355 122.392 73.2299 122.105ZM74.6882 126.087L31.6309 128.853C31.5446 129.131 31.4582 129.409 31.3815 129.722L74.9856 126.931C74.8609 126.644 74.7937 126.383 74.6882 126.114V126.087ZM76.1273 130.079L30.4413 133.035C30.3645 133.314 30.2974 133.592 30.2206 133.905L76.4151 130.94L76.1273 130.079ZM77.5568 134.07L29.3668 137.157C29.2996 137.435 29.2324 137.714 29.1749 137.983L77.835 134.861C77.739 134.627 77.6431 134.357 77.5568 134.096V134.07ZM78.967 138.062L28.417 141.305C28.3498 141.592 28.2922 141.862 28.2443 142.122L79.2357 138.853C79.1397 138.627 79.0534 138.349 78.967 138.088V138.062ZM80.3486 142.062L27.5823 145.444L27.4384 146.253L80.5884 142.844C80.5309 142.609 80.4445 142.349 80.3486 142.105V142.062ZM81.7301 146.053L26.8915 149.601L26.7476 150.41L82.0083 146.862C81.9124 146.589 81.8196 146.328 81.7301 146.079V146.053ZM83.0828 150.044L26.124 153.697C26.124 153.966 26.0281 154.244 25.9705 154.514L83.3514 150.836C83.2651 150.601 83.1692 150.34 83.0828 150.07V150.044ZM84.4164 154.044L25.3661 157.827L25.2222 158.645L84.7042 154.827C84.5986 154.592 84.5123 154.331 84.4547 154.071L84.4164 154.044ZM85.7307 158.036L24.6274 161.958L24.4835 162.775L85.9898 158.827L85.7307 158.036ZM87.0067 162.036L23.9078 166.088C23.9078 166.366 23.8215 166.636 23.7735 166.897L87.2561 162.827C87.1698 162.601 87.0931 162.34 87.0067 162.105V162.036ZM88.1963 166.045L23.2747 170.21C23.2747 170.506 23.2075 170.775 23.1787 171.019L88.417 166.836C88.3595 166.627 88.2923 166.366 88.1963 166.071V166.045Z" fill="#030402"/>
<path d="M45.2541 113.479C46.6452 124.357 56.3926 157.592 66.1304 160.558C74.7649 163.166 97.3105 158.932 107.576 157.192C111.318 156.558 106.617 127.966 102.952 129.54C98.5385 131.427 74.7745 134.983 73.6232 134.462C72.4719 133.94 64.1157 121.966 53.9654 107.505C44.3907 93.8174 44.3907 106.661 45.2541 113.479Z" fill="#EB9481"/>
<path d="M99.3545 131.487C99.3545 131.487 109.265 126.07 115.933 122.792C119.646 120.974 126.332 118.365 129.738 118.157C134.833 117.852 156.361 119.522 156.025 124.244C155.728 128.531 137.433 124.974 137.433 124.974C137.433 124.974 156.237 127.087 154.826 132.192C153.416 137.296 133.384 130.8 133.384 130.8C133.384 130.8 152.572 133.409 150.24 138.435C148.446 142.262 129.892 137.288 129.892 137.288C129.892 137.288 146.441 139.592 144.781 143.592C142.949 148.018 125.507 144.401 125.507 144.401C119.406 153.966 112.498 156.653 106.857 157.271C105.562 157.41 99.3545 131.487 99.3545 131.487Z" fill="#EB9481"/>
<path d="M131.858 124.027C145.846 124.618 152.504 128.801 152.303 128.722C147.506 126.861 139.706 125.488 137.509 125.131C135.312 124.774 134.036 124.453 131.839 124.096C131.791 124.087 131.811 124.018 131.858 124.027Z" fill="#263238"/>
<path d="M129.422 131.062C135.093 131.068 140.717 131.993 146.029 133.792C146.221 133.87 146.134 133.931 145.923 133.888C143.141 133.366 132.204 131.514 129.412 131.114C129.364 131.114 129.383 131.062 129.422 131.062Z" fill="#263238"/>
<path d="M126.869 136.983C131.263 137.079 135.6 137.913 139.658 139.444C139.859 139.514 139.725 139.601 139.504 139.557C135.273 138.688 131.954 137.94 126.86 137.123C126.773 137.105 126.773 136.983 126.869 136.983Z" fill="#263238"/>
<path d="M67.7328 126.018L49.5045 139.392C49.5045 139.392 45.6669 124.444 44.4006 113.47C43.1342 102.496 46.2138 96.026 53.3996 105.383C60.5854 114.739 67.7328 126.018 67.7328 126.018Z" fill="#3874B9"/>
<path opacity="0.1" d="M59.1276 113.227L45.9072 123.14L46.0799 124.062L59.6073 113.914L59.1276 113.227ZM61.5452 116.705L46.8186 127.749C46.8762 128.053 46.9434 128.357 47.0105 128.618L62.0153 117.366L61.5452 116.705ZM63.9245 120.183L47.8068 132.27C47.8644 132.575 47.9315 132.87 47.9987 133.14L64.385 120.853L63.9245 120.183ZM66.2558 123.705L48.8429 136.749C48.9197 137.07 48.9869 137.366 49.054 137.618L66.7067 124.375L66.2558 123.705Z" fill="#030402"/>
<path d="M64.6818 123.218C63.2619 124.035 61.9284 125.009 60.5948 125.948C59.2613 126.887 57.9757 127.783 56.6805 128.722C54.0422 130.609 51.4039 132.47 48.9479 134.54C48.9339 134.55 48.925 134.565 48.9232 134.581C48.9214 134.598 48.9268 134.614 48.9383 134.627C48.9497 134.639 48.9663 134.647 48.9842 134.649C49.0022 134.651 49.0202 134.646 49.0342 134.635C51.8068 132.896 54.4164 131.027 57.0355 129.131C58.3147 128.198 59.5939 127.256 60.873 126.305C62.1778 125.34 63.5209 124.383 64.7106 123.313C64.7174 123.306 64.7221 123.297 64.7243 123.288C64.7265 123.278 64.7262 123.268 64.7234 123.259C64.7206 123.25 64.7153 123.241 64.7081 123.234C64.7009 123.227 64.6918 123.221 64.6818 123.218Z" fill="#263238"/>
<path d="M51.7303 137.757C51.03 138.357 50.3009 138.931 49.5813 139.497L49.3894 139.644L49.3223 139.418C48.8234 137.775 48.3629 136.123 47.9216 134.462C47.4803 132.801 47.0869 131.14 46.7703 129.462C46.4537 127.783 46.0987 126.105 45.8109 124.418C45.5231 122.731 45.3312 121.035 45.1777 119.331C45.5903 121.001 45.9452 122.67 46.3098 124.34L47.4035 129.34L49.5909 139.349L49.3319 139.271C50.157 138.766 50.9341 138.236 51.7303 137.757Z" fill="#263238"/>
<path d="M44.5635 122.427C44.9472 123.131 45.283 123.827 45.6188 124.522C45.9546 125.218 46.2808 125.914 46.5782 126.67C45.9972 126.091 45.5241 125.431 45.1775 124.714C45.0086 124.356 44.8707 123.987 44.7649 123.609C44.6387 123.225 44.5709 122.827 44.5635 122.427Z" fill="#263238"/>
<path d="M57.918 111.522C58.8774 112.635 59.8367 113.792 60.7002 114.957C61.5636 116.122 62.4463 117.313 63.2809 118.513C64.1156 119.713 64.9215 120.931 65.689 122.174C66.4606 123.415 67.1588 124.692 67.7805 126L67.2816 126.34L67.7037 125.931V125.992C66.8882 124.774 66.0536 123.583 65.1997 122.392L62.6957 118.8C61.8802 117.6 61.0456 116.392 60.2589 115.166C59.4722 113.939 58.6567 112.774 57.918 111.522Z" fill="#263238"/>
<path d="M60.4033 113.322C60.8815 113.832 61.2435 114.423 61.4682 115.061C61.7108 115.685 61.8024 116.35 61.7369 117.009C61.5834 116.704 61.4778 116.4 61.3531 116.096L61.0077 115.226C60.7967 114.565 60.5664 113.974 60.4033 113.322Z" fill="#263238"/>
<path d="M61.7274 106.8C58.4846 107.513 52.1335 102.687 49.9077 99.0524C49.7542 98.8002 50.1572 96.1567 50.4738 92.9653C50.6656 91.0001 50.8191 88.8174 50.7999 86.8087C50.7999 86.4 52.3446 87.1478 52.3446 87.1478L55.2227 87.7478L64.711 89.7652C63.9433 92.2801 63.5149 94.8701 63.4351 97.4784C63.4443 97.7531 63.4796 98.0266 63.5406 98.2958C63.5406 98.2958 63.5406 98.3828 63.5406 98.435C63.8476 99.9567 64.8645 106.096 61.7274 106.8Z" fill="#EB9481"/>
<path d="M63.5307 98.2607C63.5307 98.2607 63.5307 98.3476 63.5307 98.3998C63.0608 98.4629 62.5857 98.4891 62.1108 98.4781C52.7664 98.3563 51.5 87.5996 51.5 87.5996L55.1936 87.7126L64.682 89.7301C63.9143 92.2449 63.4858 94.8349 63.406 97.4433C63.4215 97.7185 63.4632 97.992 63.5307 98.2607Z" fill="#263238"/>
<path d="M48.3629 73.4082C47.1541 77.9474 50.6079 90.6607 54.2919 93.339C59.6261 97.2173 67.944 97.1652 71.4745 91.4346C74.8996 85.878 70.0738 69.3734 66.006 66.982C60.0003 63.4863 50.1378 66.7385 48.3629 73.4082Z" fill="#EB9481"/>
<path d="M61.9003 81.6084C61.9003 81.6084 61.8331 81.6606 61.8427 81.6954C62.1018 82.5649 62.2361 83.565 61.459 84.0345C61.459 84.0345 61.459 84.0867 61.459 84.078C62.4855 83.7215 62.2936 82.3736 61.9003 81.6084Z" fill="#263238"/>
<path d="M60.816 80.8951C59.2618 81.1212 59.8566 83.9126 61.3148 83.7039C62.7731 83.4952 62.1111 80.7038 60.816 80.8951Z" fill="#263238"/>
<path d="M67.6279 80.3647C67.6279 80.3647 67.7047 80.3647 67.7143 80.4343C67.8774 81.3039 68.2228 82.2778 69.1438 82.4083V82.4517C68.0692 82.5126 67.6279 81.2343 67.6279 80.3647Z" fill="#263238"/>
<path d="M68.2794 79.3126C69.7857 78.93 70.5244 81.6953 69.1237 82.0518C67.723 82.4083 67.0131 79.6344 68.2794 79.3126Z" fill="#263238"/>
<path d="M59.3188 79.8343C59.6972 79.654 60.0654 79.4567 60.4221 79.243C60.8281 79.072 61.1639 78.7889 61.3815 78.4343C61.4277 78.3086 61.4275 78.1726 61.3807 78.0471C61.334 77.9215 61.2433 77.8132 61.1224 77.7386C60.8545 77.6276 60.559 77.5828 60.2658 77.6087C59.9726 77.6347 59.6922 77.7305 59.4531 77.8865C58.9177 78.1324 58.5035 78.5512 58.2923 79.0604C58.2427 79.1848 58.2366 79.32 58.2748 79.4477C58.313 79.5754 58.3937 79.6892 58.5059 79.7738C58.6181 79.8584 58.7564 79.9096 58.9018 79.9204C59.0473 79.9313 59.1929 79.9012 59.3188 79.8343Z" fill="#263238"/>
<path d="M69.1622 77.6864C68.7327 77.688 68.3035 77.6677 67.8766 77.6255C67.4178 77.6573 66.9601 77.5536 66.5718 77.3299C66.4655 77.2374 66.3957 77.1158 66.3731 76.9838C66.3506 76.8518 66.3766 76.7167 66.4471 76.5994C66.6283 76.3895 66.8674 76.2266 67.1403 76.1274C67.4133 76.0281 67.7103 75.996 68.0013 76.0342C68.6033 76.0335 69.1843 76.2349 69.6323 76.5994C69.7258 76.6881 69.7894 76.7992 69.8156 76.9196C69.8418 77.04 69.8295 77.1647 69.7801 77.2789C69.7307 77.3932 69.6462 77.4923 69.5368 77.5644C69.4273 77.6366 69.2973 77.6789 69.1622 77.6864Z" fill="#263238"/>
<path d="M62.6957 89.4347C62.954 89.6606 63.2962 89.7909 63.6551 89.7999C64.0012 89.7261 64.3274 89.5901 64.6144 89.3999C64.6144 89.3999 64.6816 89.3999 64.6144 89.3999C64.5153 89.5935 64.3606 89.7594 64.1665 89.8802C63.9724 90.0011 63.7461 90.0724 63.5111 90.0869C63.2999 90.0836 63.0947 90.0219 62.9233 89.91C62.7518 89.7981 62.6222 89.6414 62.5518 89.4608C62.5805 89.4434 62.6477 89.4086 62.6957 89.4347Z" fill="#263238"/>
<path d="M63.1275 86.6691C63.4445 86.9675 63.8266 87.2029 64.2495 87.3601C64.6723 87.5173 65.1267 87.5929 65.5836 87.5822C65.9837 87.579 66.3811 87.5233 66.7636 87.4169C66.8399 87.4059 66.9141 87.3854 66.9843 87.3561L67.1858 87.3213C67.2335 87.3028 67.2734 87.2708 67.2993 87.23C67.3253 87.1892 67.3359 87.1419 67.3297 87.0952C67.3326 87.0663 67.3326 87.0372 67.3297 87.0082V86.93C67.2049 86.2604 66.9075 85.2604 66.9075 85.2604C67.2049 85.3299 68.692 85.643 68.5961 85.2604C67.8519 82.2696 66.7718 79.3558 65.3725 76.5646C65.3604 76.55 65.3436 76.5392 65.3244 76.5337C65.3051 76.5283 65.2845 76.5285 65.2654 76.5342C65.2463 76.54 65.2297 76.5511 65.2179 76.5659C65.2062 76.5807 65.1998 76.5985 65.1998 76.6167C65.881 79.382 67.1186 82.0168 67.8094 84.7821C67.2757 84.6662 66.7266 84.6193 66.1784 84.643C66.0825 84.643 66.7828 86.5647 66.8116 86.8691C66.2203 87.0317 65.5991 87.0854 64.9845 87.0272C64.37 86.969 63.7745 86.7999 63.2331 86.53C63.118 86.5387 63.0508 86.6082 63.1275 86.6691Z" fill="#263238"/>
<path d="M66.2269 87.165C65.9275 87.7111 65.4781 88.1782 64.9221 88.5215C64.6113 88.7028 64.2455 88.791 63.8764 88.7737C63.0801 88.7737 62.917 88.1041 62.917 87.5302C62.9353 87.2358 62.9901 86.9441 63.0801 86.6606C64.0433 87.1274 65.1455 87.3041 66.2269 87.165Z" fill="#263238"/>
<path d="M64.9504 88.5216C64.6396 88.7028 64.2738 88.791 63.9047 88.7737C63.1084 88.7737 62.9453 88.1042 62.9453 87.5302C63.3538 87.4669 63.774 87.5303 64.1378 87.7102C64.5017 87.8901 64.788 88.176 64.9504 88.5216Z" fill="#FF98B9"/>
<path d="M49.6962 84.5212C49.6962 84.5212 44.6786 77.3472 45.0336 73.1384C45.1967 71.2341 47.9981 69.9297 47.9981 69.9297C47.7604 69.1587 47.7657 68.3428 48.0132 67.5744C48.2608 66.8059 48.7408 66.1157 49.3988 65.5818C51.8261 63.4252 57.8318 63.7817 57.8318 63.7817C57.8318 63.7817 61.6022 58.6164 67.1475 60.5295C72.6927 62.4426 69.2485 68.1644 69.2485 68.1644C69.2485 68.1644 71.3208 70.721 66.4375 72.8515C61.5542 74.9819 51.8261 73.1558 51.8261 73.1558C52.3494 76.2088 52.3688 79.3153 51.8836 82.3734C51.7716 82.8789 51.5083 83.3467 51.1225 83.7255C50.7366 84.1044 50.2432 84.3797 49.6962 84.5212Z" fill="#263238"/>
<path d="M58.8008 63.8427C57.5641 63.408 56.2399 63.2154 54.9153 63.2775C53.7307 63.2786 52.5554 63.4669 51.4423 63.834C50.4374 64.1108 49.5353 64.6314 48.8335 65.3395C48.1317 66.0477 47.657 66.9164 47.4608 67.8515C47.391 68.3355 47.4288 68.8272 47.5722 69.2977C47.7155 69.7682 47.9615 70.2078 48.2955 70.5907C48.2955 70.5907 48.3722 70.5907 48.2955 70.5907C46.9907 69.1907 47.6047 66.9558 48.8903 65.7384C50.4689 64.4401 52.5153 63.7075 54.6466 63.6775C56.0115 63.634 57.3772 63.7391 58.7144 63.9906C58.7251 63.9957 58.7369 63.9989 58.7489 63.9999C58.761 64.0009 58.7732 63.9998 58.7847 63.9966C58.7963 63.9933 58.8071 63.9881 58.8164 63.9811C58.8258 63.9741 58.8335 63.9655 58.8391 63.9558C58.8448 63.9461 58.8483 63.9354 58.8495 63.9245C58.8506 63.9136 58.8494 63.9025 58.8458 63.892C58.8422 63.8816 58.8364 63.8718 58.8287 63.8633C58.821 63.8549 58.8115 63.8479 58.8008 63.8427Z" fill="#263238"/>
<path d="M71.158 62.8341C70.8858 62.179 70.441 61.5941 69.8625 61.1303C69.284 60.6666 68.5891 60.338 67.8385 60.1732C66.1169 59.7389 64.285 59.8337 62.629 60.4427C60.9692 61.069 59.5225 62.0832 58.4365 63.3819C58.4365 63.3819 58.4365 63.4515 58.4941 63.3819C59.4706 62.2352 60.7701 61.3481 62.2558 60.814C63.7414 60.28 65.3584 60.1187 66.9367 60.3471C67.6653 60.3919 68.3698 60.6021 68.9853 60.9583C69.6008 61.3144 70.1077 61.8052 70.4593 62.3853C70.8108 62.9655 70.9958 63.6165 70.9972 64.2784C70.9986 64.9403 70.8164 65.5919 70.4672 66.1733C69.674 67.5383 68.474 68.6741 67.0038 69.4516C67.0038 69.4516 67.0038 69.5125 67.0038 69.4516C68.4012 68.803 69.5932 67.8423 70.4672 66.6603C70.8723 66.1022 71.1432 65.4731 71.2622 64.8139C71.3812 64.1546 71.3457 63.4801 71.158 62.8341Z" fill="#263238"/>
<path d="M67.6564 73.0342C65.4831 73.883 63.1338 74.2982 60.768 74.2516C58.3075 74.2411 55.8558 73.9845 53.4574 73.4864C52.0663 73.2081 50.6752 72.8864 49.3033 72.5386C49.3033 72.5386 49.2361 72.5907 49.3033 72.5994C51.7181 73.4863 54.2297 74.1392 56.7961 74.5473C59.1859 74.9073 61.6305 74.8393 63.9915 74.3473C65.283 74.0672 66.5305 73.6406 67.7043 73.0777C67.7043 73.0777 67.6851 73.0255 67.6564 73.0342Z" fill="#263238"/>
<path d="M61.3437 86.4522C60.562 86.5146 59.7767 86.3769 59.0771 86.0548C58.3775 85.7327 57.7916 85.2391 57.3862 84.6302C56.9808 84.0213 56.772 83.3214 56.7837 82.6102C56.7953 81.8991 57.027 81.2052 57.4522 80.6074C57.8775 80.0097 58.4793 79.5321 59.1892 79.229C59.899 78.9259 60.6885 78.8095 61.4678 78.893C62.247 78.9764 62.9848 79.2565 63.5972 79.7012C64.2096 80.1459 64.672 80.7375 64.9318 81.4086C65.1413 81.9549 65.2108 82.5374 65.135 83.1117C65.0591 83.686 64.84 84.2371 64.4942 84.7232C64.1483 85.2093 63.6849 85.6176 63.139 85.9172C62.5932 86.2168 61.9792 86.3997 61.3437 86.4522ZM60.6529 79.3825C60.3517 79.4061 60.0551 79.4645 59.7703 79.5564C58.9001 79.8344 58.1796 80.4026 57.7555 81.1453C57.3313 81.8879 57.2354 82.7492 57.4872 83.5537C57.7391 84.3582 58.3198 85.0455 59.1111 85.4755C59.9024 85.9056 60.8448 86.0461 61.7464 85.8684C62.6479 85.6908 63.4409 85.2083 63.9638 84.5193C64.4867 83.8303 64.7002 82.9866 64.5608 82.1599C64.4215 81.3332 63.9397 80.5858 63.2137 80.0698C62.4876 79.5538 61.5719 79.308 60.6529 79.3825Z" fill="#3874B9"/>
<path d="M70.7549 84.5912C69.1623 84.7216 67.5601 83.3564 67.1188 81.4085C66.8836 80.4842 66.9777 79.5161 67.3874 78.6432C67.5308 78.2554 67.7826 77.908 68.1183 77.6347C68.454 77.3615 68.8621 77.1718 69.3028 77.0842C69.7436 76.9966 70.2018 77.0141 70.6329 77.1349C71.0639 77.2557 71.453 77.4758 71.7622 77.7736C72.5227 78.4281 73.0363 79.2831 73.2301 80.2172C73.7002 82.2694 72.712 84.1912 71.0331 84.5129L70.7549 84.5912ZM69.642 77.5823H69.4309C69.0835 77.6623 68.7625 77.8171 68.4953 78.0336C68.228 78.2501 68.0224 78.5219 67.8959 78.8258C67.5418 79.6021 67.4614 80.4587 67.6657 81.2781C68.0782 83.0172 69.5269 84.2955 70.918 84.0346C72.3091 83.7738 73.0862 82.1129 72.6833 80.3389C72.5117 79.5122 72.0588 78.7551 71.3881 78.1737C71.1583 77.9707 70.8843 77.8133 70.5837 77.7114C70.2831 77.6096 69.9624 77.5657 69.642 77.5823Z" fill="#3874B9"/>
<path d="M64.8935 81.826L64.4521 81.513C64.9702 80.9216 66.2558 80.0086 67.4838 80.7912L67.1864 81.2347C66.0639 80.5042 64.9414 81.7738 64.8935 81.826Z" fill="#3874B9"/>
<path d="M46.8185 86.2348L46.2812 86.1044C46.3484 85.8696 47.0008 83.8609 48.2 83.4435C49.3993 83.0261 56.8345 82.3043 57.1319 82.2695L57.1895 82.7739C55.0405 82.9913 49.2553 83.6435 48.4015 83.9217C47.5476 84.2 47.0392 85.687 46.8185 86.2348Z" fill="#3874B9"/>
<path d="M52.0848 83.7476C52.0848 83.7476 48.5158 79.8345 46.5299 81.0171C44.544 82.1997 47.4893 88.052 50.0029 88.6955C50.3187 88.7984 50.6542 88.8423 50.9892 88.8244C51.3242 88.8066 51.6518 88.7275 51.9521 88.5918C52.2525 88.456 52.5194 88.2666 52.7367 88.0349C52.9541 87.8031 53.1174 87.5338 53.2168 87.2433L52.0848 83.7476Z" fill="#EB9481"/>
<path d="M47.4227 82.6777C47.4227 82.6777 47.3747 82.7212 47.4227 82.7386C49.188 83.243 50.2145 84.6082 50.982 86.0604C50.8692 85.9117 50.722 85.787 50.5507 85.6951C50.3794 85.6031 50.188 85.546 49.9899 85.5278C49.7919 85.5096 49.5918 85.5307 49.4036 85.5897C49.2154 85.6486 49.0436 85.7439 48.9001 85.8691C48.9001 85.8691 48.9001 85.956 48.9577 85.9474C49.2495 85.8385 49.5713 85.8143 49.8789 85.8782C50.1864 85.942 50.4646 86.0908 50.675 86.3039C51.0394 86.6636 51.3609 87.0571 51.6344 87.4778C51.7303 87.6082 51.999 87.4778 51.9318 87.3648C51.7207 85.3473 49.7828 82.7038 47.4227 82.6777Z" fill="#263238"/>
<path d="M105.973 182.001L105.475 181.532L106.875 180.332L107.365 180.81L105.973 182.001Z" fill="#263238"/>
<path d="M112.277 250.924C110.972 250.924 109.667 250.828 108.439 250.707L108.516 250.063C109.763 250.176 111.039 250.246 112.353 250.272L112.277 250.924ZM117.074 250.854V250.202C118.321 250.133 119.606 250.037 120.911 249.898L120.997 250.55C119.693 250.681 118.398 250.802 117.131 250.854H117.074ZM103.642 250.046C102.357 249.802 101.09 249.498 99.8814 249.176L100.102 248.559C101.282 248.889 102.52 249.185 103.786 249.428L103.642 250.046ZM125.775 249.889L125.651 249.246C126.879 249.037 128.145 248.802 129.392 248.533L129.565 249.167C128.289 249.437 127.013 249.681 125.766 249.933L125.775 249.889ZM134.227 248.046L134.026 247.42C135.244 247.098 136.472 246.741 137.681 246.367L137.911 246.985C136.683 247.324 135.446 247.715 134.218 248.046H134.227ZM95.3531 247.567C94.1812 247.065 93.0439 246.499 91.9473 245.872L92.331 245.324C93.4021 245.936 94.5139 246.488 95.6601 246.976L95.3531 247.567ZM142.449 245.489L142.19 244.88C143.361 244.463 144.56 244.011 145.74 243.559L146.018 244.159C144.829 244.62 143.62 245.072 142.44 245.489H142.449ZM88.0714 243.202C87.1104 242.409 86.2128 241.554 85.3851 240.646L85.9415 240.228C86.7468 241.116 87.6221 241.951 88.5606 242.724L88.0714 243.202ZM150.431 242.333L150.124 241.75C151.257 241.254 152.408 240.733 153.559 240.193L153.885 240.776C152.705 241.324 151.544 241.846 150.403 242.341L150.431 242.333ZM158.107 238.698L157.752 238.132C158.871 237.553 159.974 236.973 161.062 236.393L161.436 236.95C160.342 237.55 159.229 238.132 158.107 238.706V238.698ZM82.67 236.959C82.0537 235.921 81.5246 234.842 81.087 233.732L81.7682 233.515C82.1973 234.593 82.7103 235.642 83.3032 236.654L82.67 236.959ZM165.523 234.628L165.129 234.08C166.21 233.448 167.275 232.805 168.324 232.15L168.727 232.689C167.672 233.359 166.607 234.002 165.523 234.637V234.628ZM172.651 230.158L172.229 229.637C173.265 228.941 174.282 228.245 175.289 227.532L175.731 228.045C174.714 228.767 173.677 229.471 172.651 230.167V230.158ZM79.859 229.463C79.6419 228.312 79.5073 227.151 79.4561 225.984H80.166C80.2213 227.133 80.3558 228.277 80.5689 229.411L79.859 229.463ZM179.491 225.324L179.031 224.819C179.99 224.08 181.007 223.332 181.976 222.576L182.446 223.071C181.468 223.845 180.489 224.593 179.491 225.332V225.324ZM80.3003 221.619L79.5808 221.558C79.7055 220.419 79.8878 219.254 80.1468 218.08L80.8472 218.202C80.6169 219.367 80.4154 220.515 80.3003 221.628V221.619ZM186.063 220.184L185.583 219.706C186.543 218.923 187.502 218.141 188.404 217.35L188.893 217.828C187.953 218.628 187.013 219.419 186.063 220.193V220.184ZM192.376 214.828L191.877 214.358L194.621 211.923L195.129 212.384L192.376 214.828ZM82.0464 214.002L81.3556 213.81C81.7298 212.723 82.1519 211.61 82.6316 210.497L83.2936 210.732C82.7947 211.836 82.3726 212.941 82.008 214.01L82.0464 214.002ZM198.564 209.289L198.046 208.836C198.948 208.01 199.84 207.175 200.732 206.341L201.25 206.793L198.564 209.289ZM85.2028 206.758L84.56 206.471C85.1068 205.445 85.7017 204.393 86.3349 203.358L86.968 203.671C86.2965 204.714 85.7113 205.749 85.1644 206.767L85.2028 206.758ZM204.589 203.654L204.071 203.201L206.728 200.68L207.246 201.132L204.589 203.654ZM89.4625 199.941L88.858 199.593C89.5296 198.627 90.2588 197.654 91.0071 196.68L91.5923 197.062C90.7672 198.027 90.0477 198.993 89.3761 199.949L89.4625 199.941ZM210.614 197.967L210.086 197.523L212.744 194.993L213.262 195.445L210.614 197.967ZM94.4513 193.566L93.8852 193.166C94.6527 192.297 95.4682 191.358 96.3125 190.445L96.8593 190.862C95.9671 191.775 95.1228 192.688 94.3649 193.575L94.4513 193.566ZM216.591 192.297L216.073 191.845C216.955 191.01 217.848 190.175 218.749 189.34L219.267 189.792C218.295 190.633 217.374 191.471 216.504 192.306L216.591 192.297ZM100.025 187.592L99.4976 187.158C100.351 186.288 101.234 185.462 102.146 184.61L102.654 185.062C101.666 185.914 100.764 186.766 99.939 187.601L100.025 187.592ZM222.625 186.723L222.117 186.271C223.019 185.445 223.92 184.618 224.842 183.792L225.34 184.262L222.625 186.723ZM228.775 181.21L228.276 180.74C229.188 179.931 230.118 179.123 231.049 178.323L231.548 178.792C230.521 179.566 229.6 180.366 228.689 181.175L228.775 181.21ZM235.049 175.818L234.57 175.34C235.529 174.557 236.488 173.775 237.448 172.983L237.937 173.47L235.049 175.818ZM241.496 170.601L241.017 170.105C241.976 169.349 242.936 168.592 243.895 167.836L244.365 168.331C243.338 169.062 242.37 169.801 241.41 170.557L241.496 170.601ZM248.107 165.549L247.656 165.044C248.615 164.314 249.642 163.583 250.659 162.862L251.1 163.366L248.107 165.549ZM254.899 160.705L254.458 160.183C255.475 159.488 256.501 158.783 257.547 158.088L257.969 158.618C256.847 159.27 255.82 159.966 254.813 160.662L254.899 160.705ZM261.864 156.07L261.452 155.531C262.488 154.87 263.543 154.201 264.608 153.54L265.011 154.07C263.86 154.696 262.814 155.357 261.778 156.018L261.864 156.07ZM269.002 151.644L268.609 151.105C269.664 150.47 270.748 149.835 271.842 149.2L272.226 149.748C271.046 150.34 269.971 150.966 268.916 151.601L269.002 151.644ZM276.303 147.444L275.919 146.887C277.003 146.287 278.107 145.687 279.22 145.087L279.584 145.653C278.395 146.2 277.291 146.8 276.217 147.4L276.303 147.444ZM283.738 143.461L283.383 142.896C284.496 142.322 285.609 141.757 286.751 141.157L287.096 141.722C285.926 142.279 284.755 142.853 283.652 143.418L283.738 143.461ZM291.327 139.696L290.982 139.113C292.114 138.574 293.246 138.035 294.407 137.505L294.733 138.087C293.495 138.574 292.354 139.113 291.241 139.652L291.327 139.696ZM299.002 136.131L298.686 135.548C299.827 135.035 300.978 134.531 302.149 134.026L302.465 134.609C301.276 135.07 300.077 135.583 298.935 136.087L299.002 136.131ZM306.812 132.765L306.514 132.174L310.025 130.739L310.323 131.331L306.812 132.765ZM314.726 129.591L314.439 128.991C315.619 128.539 316.799 128.122 317.998 127.644L318.267 128.244L314.726 129.591Z" fill="#263238"/>
<path d="M322.891 126.452L322.622 125.844L324.407 125.209L324.675 125.809L322.891 126.452Z" fill="#263238"/>
<path d="M320.608 115.583L314.267 131.366L327.583 121.948L378.469 105.217L320.608 115.583Z" fill="#3874B9"/>
<path opacity="0.1" d="M320.608 115.583L314.267 131.366L327.583 121.948L378.469 105.217L320.608 115.583Z" fill="black"/>
<path d="M329.281 125.627L314.267 131.366L327.583 121.948L329.281 125.627Z" fill="#263238"/>
<path d="M327.582 121.948L378.468 105.217L336.725 142.14L327.582 121.948Z" fill="#3874B9"/>
<path d="M320.608 115.583L299.463 103.208L378.468 105.217L320.608 115.583Z" fill="#3874B9"/>
</svg>
