<svg width="404" height="366" viewBox="0 0 404 366" fill="none" xmlns="http://www.w3.org/2000/svg">
<path d="M403.018 341.558C403.018 341.675 312.799 341.774 201.509 341.774C90.2187 341.774 0 341.675 0 341.558C0 341.442 90.2013 341.343 201.509 341.343C312.817 341.343 403.018 341.442 403.018 341.558Z" fill="#263238"/>
<path d="M338.657 0.414551H64.405C60.9464 0.414551 58.1426 3.09177 58.1426 6.39429V199.853C58.1426 203.155 60.9464 205.832 64.405 205.832H338.657C342.116 205.832 344.919 203.155 344.919 199.853V6.39429C344.919 3.09177 342.116 0.414551 338.657 0.414551Z" fill="white"/>
<path d="M338.657 205.833C339.61 205.824 340.549 205.608 341.402 205.201C342.255 204.794 343.001 204.208 343.581 203.486C344.471 202.377 344.928 201.008 344.876 199.612C344.876 193.293 344.876 183.979 344.832 171.986C344.832 147.993 344.789 113.275 344.754 70.3803C344.754 59.6538 344.754 48.4297 344.754 36.708C344.754 30.8527 344.754 24.884 344.754 18.8019V7.25714C344.8 6.49486 344.736 5.73015 344.563 4.98467C344.368 4.24503 344.022 3.54937 343.545 2.93745C343.068 2.32553 342.469 1.80934 341.783 1.41839C341.092 1.0234 340.324 0.766632 339.525 0.663669C338.708 0.599667 337.887 0.577517 337.067 0.597318H257.671H64.4306C63.3876 0.590875 62.3603 0.84078 61.4476 1.323C60.5349 1.80522 59.7675 2.50354 59.2192 3.35082C58.6799 4.19142 58.3805 5.15214 58.3506 6.13749C58.3506 7.14103 58.3506 8.16944 58.3506 9.18127V45.4246C58.3506 61.3651 58.3506 77.0595 58.3506 92.5079C58.3506 123.377 58.3506 153.151 58.3506 181.516V192.082C58.3506 193.832 58.3506 195.582 58.3506 197.315C58.3506 198.186 58.3506 199.057 58.3506 199.919C58.3674 200.759 58.5749 201.585 58.9586 202.341C59.3421 203.091 59.8905 203.754 60.5665 204.284C61.2425 204.813 62.0302 205.197 62.8759 205.41C63.7315 205.585 64.608 205.649 65.4816 205.6H78.7968H119.733H193.214L299.623 205.667L328.555 205.708H336.077C337.771 205.708 338.639 205.708 338.639 205.708H336.077H328.555H299.623L193.214 205.783H119.733H65.499C64.5843 205.828 63.6673 205.759 62.7716 205.576C61.4096 205.233 60.2014 204.477 59.3301 203.42C58.4587 202.364 57.9715 201.065 57.9424 199.72V181.308C57.9424 152.944 57.9424 123.17 57.9424 92.3005V9.22274C57.9424 8.20262 57.9424 7.19908 57.9424 6.16237C57.9831 5.10323 58.3092 4.07201 58.8891 3.16836C59.4733 2.26157 60.2908 1.51266 61.2638 0.992931C62.2369 0.473202 63.3331 0.199961 64.448 0.199222H257.688H301.117H337.006C337.844 0.172041 338.682 0.194197 339.517 0.26557C340.366 0.385289 341.181 0.66737 341.914 1.09494C342.642 1.50887 343.278 2.056 343.785 2.70496C344.292 3.35393 344.659 4.09199 344.867 4.87686C345.045 5.65257 345.112 6.44766 345.067 7.24055V18.8019C345.067 24.884 345.067 30.8527 345.067 36.708C345.067 48.4187 345.067 59.6428 345.067 70.3803C345.067 113.275 345.015 147.993 344.997 171.986C344.997 183.979 344.997 193.293 344.997 199.612C345.041 200.824 344.701 202.021 344.023 203.046C343.344 204.071 342.358 204.878 341.193 205.36C340.6 205.597 339.973 205.751 339.334 205.816L338.657 205.833Z" fill="#263238"/>
<path d="M324.265 31.6982H212.783C208.845 31.6982 205.652 34.7468 205.652 38.5074V79.1713C205.652 82.9318 208.845 85.9804 212.783 85.9804H324.265C328.203 85.9804 331.396 82.9318 331.396 79.1713V38.5074C331.396 34.7468 328.203 31.6982 324.265 31.6982Z" fill="#1C61B0"/>
<g opacity="0.2">
<path d="M273.505 56.563V58.7194H271.49V56.6211C269.707 56.5766 267.972 56.0597 266.479 55.1282L267.59 52.7811C268.744 53.5521 270.088 54.0237 271.49 54.1496V50.9316C269.258 50.4174 266.765 49.7042 266.765 46.959C266.765 44.9187 268.311 43.1687 271.49 42.8121V40.6475H273.505V42.7458C274.946 42.8222 276.348 43.2229 277.596 43.9152L276.589 46.2789C275.64 45.7565 274.592 45.4183 273.505 45.2836V48.5513C275.738 49.049 278.196 49.7622 278.196 52.466C278.196 54.473 276.667 56.1981 273.505 56.563ZM271.49 48.0703V45.3417C270.422 45.5656 270.005 46.1711 270.005 46.7599C270.005 47.3488 270.604 47.7966 271.49 48.0703ZM274.964 52.6982C274.964 52.0264 274.383 51.6615 273.514 51.3712V54.0252C274.513 53.8178 274.956 53.3119 274.956 52.6982H274.964Z" fill="white"/>
</g>
<g opacity="0.2">
<path d="M283.155 70.1398V71.7985H281.592V70.1398C280.21 70.0982 278.867 69.6873 277.718 68.9538L278.586 67.1375C279.481 67.7326 280.523 68.0955 281.609 68.1908V65.7027C279.872 65.2963 277.952 64.7489 277.952 62.6174C277.952 61.0416 279.151 59.6898 281.609 59.4161V57.7573H283.155V59.4161C284.27 59.4706 285.354 59.7807 286.317 60.3201L285.535 62.153C284.805 61.7435 283.995 61.481 283.155 61.3817V63.9112C284.892 64.2927 286.786 64.8484 286.786 66.9467C286.786 68.5142 285.604 69.8578 283.155 70.1398ZM281.592 63.5629V61.448C280.766 61.6222 280.445 62.0534 280.445 62.5511C280.445 63.0487 280.905 63.3556 281.592 63.5629ZM284.276 67.1458C284.276 66.6233 283.824 66.3164 283.155 66.1174V68.1742C283.937 68.0083 284.276 67.6268 284.276 67.1458Z" fill="white"/>
</g>
<path d="M295.088 54.5724C295.102 54.6854 295.102 54.7994 295.088 54.9124C295.088 55.1695 295.088 55.4929 295.088 55.891C295.088 56.7868 295.088 58.0142 295.088 59.5486V72.3955V72.2711C295.82 72.9189 296.72 73.3685 297.694 73.5732C298.756 73.8127 299.843 73.9297 300.934 73.9215C303.248 73.9806 305.521 73.3326 307.422 72.072L307.344 72.2379C307.344 65.661 307.344 59.5734 307.344 54.5889V54.6553C307.097 54.2734 306.754 53.9568 306.345 53.7347C305.935 53.5126 305.501 53.3319 305.051 53.1956C304.202 52.9619 303.328 52.82 302.445 52.7726C301.017 52.6672 299.58 52.7424 298.172 52.9966C297.274 53.1605 296.419 53.4901 295.653 53.9669C295.46 54.1045 295.278 54.2541 295.106 54.4148C295.002 54.5309 294.949 54.5972 294.941 54.5889C295.089 54.3059 295.31 54.0634 295.584 53.884C296.343 53.3564 297.21 52.9864 298.128 52.7975C299.555 52.5075 301.015 52.4015 302.471 52.4823C303.376 52.5185 304.274 52.6549 305.147 52.8887C306.178 53.1172 307.081 53.7098 307.674 54.5475C307.674 59.5237 307.674 65.6195 307.674 72.1964V72.3125L307.596 72.3706C305.616 73.7047 303.235 74.3887 300.812 74.3196C299.685 74.3282 298.562 74.2 297.468 73.9381C296.391 73.7159 295.399 73.2136 294.602 72.4867L294.559 72.4452V72.3623C294.628 67.1207 294.689 62.6753 294.732 59.4822C294.732 57.9562 294.793 56.7287 294.819 55.833C294.819 55.4432 294.819 55.128 294.819 54.8792C294.898 54.7685 294.988 54.6657 295.088 54.5724Z" fill="white"/>
<path d="M307.649 54.6056C307.171 55.0459 306.611 55.3975 305.999 55.6423C304.537 56.2802 302.941 56.5867 301.334 56.538C299.731 56.6022 298.131 56.3363 296.644 55.7584C296.025 55.5291 295.457 55.1916 294.968 54.7631C294.968 54.6968 295.654 55.07 296.766 55.4764C298.235 55.9524 299.784 56.166 301.334 56.1067C302.883 56.1514 304.425 55.8975 305.868 55.3603C306.971 54.929 307.606 54.5392 307.649 54.6056Z" fill="white"/>
<path d="M307.649 59.0098C307.173 59.4547 306.613 59.8093 305.999 60.0548C304.536 60.6899 302.94 60.9936 301.334 60.9422C299.73 61.0106 298.13 60.7446 296.644 60.1626C296.021 59.9408 295.452 59.6025 294.968 59.1674C294.968 59.101 295.654 59.4742 296.766 59.8806C298.235 60.3566 299.784 60.5702 301.334 60.5109C302.882 60.5578 304.424 60.3068 305.868 59.7728C306.971 59.3332 307.606 58.9517 307.649 59.0098Z" fill="white"/>
<path d="M307.649 63.422C307.171 63.8623 306.611 64.2139 305.999 64.4587C304.536 65.0943 302.94 65.4008 301.334 65.3544C299.731 65.4186 298.131 65.1527 296.644 64.5748C296.025 64.3455 295.457 64.008 294.968 63.5795C294.968 63.5132 295.654 63.8864 296.766 64.2928C298.236 64.7648 299.784 64.9783 301.334 64.9231C302.883 64.9678 304.425 64.7139 305.868 64.1767C306.971 63.7454 307.606 63.3556 307.649 63.422Z" fill="white"/>
<path d="M307.649 67.8257C307.173 68.2686 306.613 68.6205 305.999 68.8624C304.539 69.5059 302.941 69.8127 301.334 69.7581C299.731 69.8223 298.131 69.5564 296.644 68.9785C296.023 68.7531 295.454 68.4151 294.968 67.9833C294.968 67.9169 295.654 68.2901 296.766 68.6965C298.235 69.1725 299.784 69.3862 301.334 69.3268C302.882 69.3697 304.423 69.1188 305.868 68.5887C306.971 68.1491 307.606 67.7676 307.649 67.8257Z" fill="white"/>
<path d="M307.7 45.5404C307.721 45.7112 307.721 45.8838 307.7 46.0546C307.7 46.4306 307.7 46.9282 307.7 47.5475C307.7 48.8827 307.7 50.7654 307.7 53.1125V72.3953L307.648 72.2709C308.411 72.9288 309.343 73.3811 310.349 73.5813C311.413 73.8253 312.504 73.9395 313.598 73.9214C315.889 73.9692 318.136 73.3216 320.017 72.0719L319.939 72.2377C319.939 61.937 319.982 52.5568 319.991 45.557V45.615C319.741 45.2194 319.384 44.8956 318.957 44.6779C318.544 44.4462 318.104 44.2625 317.645 44.1305C316.795 43.9017 315.922 43.7627 315.04 43.7158C313.61 43.6124 312.172 43.6961 310.766 43.9646C309.878 44.1296 309.034 44.4623 308.282 44.9433C308.093 45.0724 307.919 45.2197 307.761 45.3828C307.648 45.4906 307.605 45.557 307.596 45.557C307.587 45.557 307.596 45.474 307.718 45.3496C307.869 45.171 308.04 45.0096 308.23 44.8686C308.971 44.343 309.821 43.9753 310.723 43.7904C312.148 43.4883 313.609 43.3767 315.066 43.4587C315.976 43.4918 316.88 43.6254 317.758 43.8568C318.817 44.0726 319.749 44.6659 320.364 45.5155V45.5819C320.364 52.5817 320.364 61.9619 320.425 72.2626V72.3787L320.347 72.4368C318.385 73.757 316.032 74.4429 313.633 74.3941C312.501 74.4026 311.372 74.2801 310.271 74.0292C309.171 73.8103 308.157 73.3018 307.344 72.5612L307.301 72.5114V72.4285C307.37 64.6159 307.431 57.9063 307.475 53.1125C307.475 50.7654 307.544 48.891 307.561 47.5558C307.561 46.942 307.561 46.4527 307.605 46.0795C307.618 45.8972 307.65 45.7166 307.7 45.5404Z" fill="white"/>
<path d="M320.26 54.6056C319.782 55.0459 319.223 55.3975 318.61 55.6423C317.149 56.2825 315.552 56.5892 313.946 56.538C312.342 56.6022 310.742 56.3363 309.255 55.7584C308.637 55.5291 308.068 55.1916 307.579 54.7631C307.579 54.6968 308.265 55.07 309.377 55.4764C310.847 55.9524 312.395 56.166 313.946 56.1067C315.494 56.1514 317.036 55.8975 318.48 55.3603C319.583 54.929 320.217 54.5392 320.26 54.6056Z" fill="white"/>
<path d="M320.26 59.0098C319.784 59.4547 319.224 59.8093 318.61 60.0548C317.148 60.6922 315.552 60.996 313.946 60.9422C312.342 61.0106 310.741 60.7446 309.255 60.1626C308.633 59.9408 308.063 59.6025 307.579 59.1674C307.579 59.101 308.265 59.4742 309.377 59.8806C310.847 60.3566 312.395 60.5702 313.946 60.5109C315.494 60.5578 317.036 60.3068 318.48 59.7728C319.583 59.3332 320.217 58.9517 320.26 59.0098Z" fill="white"/>
<path d="M320.26 50.0855C319.784 50.5303 319.224 50.885 318.61 51.1305C317.148 51.7679 315.552 52.0717 313.946 52.0179C312.342 52.0863 310.741 51.8203 309.255 51.2383C308.635 51.0128 308.065 50.6749 307.579 50.243C307.579 50.1767 308.265 50.5499 309.377 50.9563C310.847 51.4323 312.395 51.6459 313.946 51.5866C315.494 51.6335 317.036 51.3824 318.48 50.8485C319.583 50.4089 320.217 50.0274 320.26 50.0855Z" fill="white"/>
<path d="M320.26 45.5406C319.782 45.981 319.223 46.3326 318.61 46.5773C317.148 47.2138 315.552 47.5203 313.946 47.473C312.342 47.5372 310.742 47.2714 309.255 46.6934C308.637 46.4642 308.068 46.1266 307.579 45.6982C307.579 45.6318 308.265 45.9968 309.377 46.4032C310.846 46.8823 312.395 47.0988 313.946 47.0418C315.494 47.0864 317.036 46.8326 318.48 46.2953C319.583 45.8641 320.217 45.4743 320.26 45.5406Z" fill="white"/>
<path d="M320.26 63.422C319.782 63.8623 319.223 64.2139 318.61 64.4587C317.148 65.0952 315.552 65.4017 313.946 65.3544C312.342 65.4186 310.742 65.1527 309.255 64.5748C308.637 64.3455 308.068 64.008 307.579 63.5795C307.579 63.5132 308.265 63.8864 309.377 64.2928C310.848 64.7648 312.395 64.9783 313.946 64.9231C315.494 64.9678 317.036 64.7139 318.48 64.1767C319.583 63.7454 320.217 63.3556 320.26 63.422Z" fill="white"/>
<path d="M320.26 67.8257C319.784 68.2686 319.224 68.6205 318.61 68.8624C317.151 69.5068 315.553 69.8136 313.946 69.7581C312.342 69.8223 310.742 69.5564 309.255 68.9785C308.635 68.7531 308.065 68.4151 307.579 67.9833C307.579 67.9169 308.265 68.2901 309.377 68.6965C310.847 69.1725 312.395 69.3862 313.946 69.3268C315.493 69.3697 317.034 69.1188 318.48 68.5887C319.583 68.1491 320.217 67.7676 320.26 67.8257Z" fill="white"/>
<path d="M193.162 31.6982H81.6983C77.7551 31.6982 74.5586 34.7505 74.5586 38.5156V79.163C74.5586 82.9281 77.7551 85.9804 81.6983 85.9804H193.162C197.105 85.9804 200.302 82.9281 200.302 79.163V38.5156C200.302 34.7505 197.105 31.6982 193.162 31.6982Z" fill="#E0E0E0"/>
<path d="M133.169 56.5215V58.6779H131.154V56.5796C129.366 56.5262 127.63 55.9946 126.143 55.0453L127.246 52.6981C128.402 53.4686 129.75 53.9374 131.154 54.0583V50.8486C128.922 50.3344 126.421 49.6212 126.421 46.876C126.421 44.8357 127.975 43.0858 131.154 42.7291V40.606H133.169V42.6877C134.608 42.7629 136.007 43.1637 137.252 43.8571L136.244 46.2208C135.3 45.6938 134.254 45.3552 133.169 45.2255V48.4932C135.402 48.9909 137.86 49.7041 137.86 52.4079C137.86 54.4315 136.366 56.1566 133.169 56.5215ZM131.154 48.0288V45.3002C130.086 45.5241 129.66 46.0881 129.66 46.7184C129.66 47.3487 130.286 47.7551 131.154 48.0288ZM134.629 52.6567C134.629 51.9849 134.038 51.62 133.178 51.3297V53.9837C134.177 53.7763 134.629 53.2704 134.629 52.6401V52.6567Z" fill="#EBEBEB"/>
<path d="M142.819 70.0978V71.7565H141.256V70.0978C139.871 70.056 138.526 69.6452 137.373 68.9118L138.242 67.0955C139.137 67.6906 140.178 68.0535 141.264 68.1488V65.6607C139.527 65.2626 137.599 64.7152 137.599 62.5837C137.599 61.0079 138.806 59.6561 141.264 59.3824V57.7236H142.828V59.3824C143.942 59.4369 145.027 59.747 145.989 60.2864L145.208 62.1193C144.477 61.7108 143.668 61.4484 142.828 61.348V63.8361C144.565 64.2176 146.458 64.7733 146.458 66.8716C146.45 68.4722 145.26 69.8158 142.819 70.0978ZM141.256 63.5209V61.406C140.43 61.5802 140.1 62.0115 140.1 62.5091C140.1 63.0067 140.569 63.3136 141.256 63.5209ZM143.939 67.1038C143.939 66.5813 143.488 66.2744 142.819 66.0754V68.1322C143.592 67.9663 143.939 67.5682 143.939 67.1038Z" fill="#EBEBEB"/>
<path d="M85.7972 50.8898H84.3467V50.5332H87.7254V50.8898H86.2749V54.4644H85.8406L85.7972 50.8898Z" fill="#263238"/>
<path d="M87.6481 52.9884C87.6464 52.6896 87.7376 52.3969 87.9103 52.1476C88.0829 51.8983 88.3292 51.7035 88.6179 51.588C88.9066 51.4725 89.2247 51.4414 89.5319 51.4987C89.8392 51.556 90.1216 51.6991 90.3436 51.9099C90.5655 52.1206 90.717 52.3896 90.7787 52.6826C90.8404 52.9756 90.8096 53.2796 90.6902 53.5559C90.5708 53.8322 90.3682 54.0684 90.1081 54.2346C89.8479 54.4009 89.5419 54.4896 89.2289 54.4896C89.0201 54.4965 88.812 54.4624 88.6176 54.3895C88.4231 54.3166 88.2463 54.2065 88.0982 54.0658C87.95 53.9251 87.8337 53.7569 87.7563 53.5716C87.6789 53.3863 87.642 53.1879 87.6481 52.9884ZM90.3754 52.9884C90.3669 52.7719 90.2917 52.5625 90.1593 52.3865C90.0269 52.2105 89.8432 52.0756 89.631 51.9987C89.4188 51.9218 89.1876 51.9062 88.9662 51.9541C88.7448 52.0019 88.5431 52.1109 88.3862 52.2675C88.2294 52.4241 88.1243 52.6214 88.0841 52.8346C88.0439 53.0479 88.0704 53.2678 88.1603 53.4668C88.2502 53.6658 88.3995 53.8351 88.5895 53.9536C88.7796 54.0721 89.002 54.1345 89.2289 54.133C89.3847 54.1356 89.5393 54.1073 89.6831 54.05C89.8269 53.9928 89.9567 53.9077 90.0644 53.8002C90.1721 53.6927 90.2553 53.5651 90.3088 53.4254C90.3624 53.2857 90.385 53.1369 90.3754 52.9884Z" fill="#263238"/>
<path d="M93.2848 54.2988C93.0974 54.4405 92.8635 54.5139 92.6247 54.5061C92.5086 54.5135 92.3923 54.497 92.2834 54.4579C92.1745 54.4189 92.0757 54.358 91.9934 54.2795C91.9112 54.201 91.8475 54.1066 91.8065 54.0026C91.7656 53.8987 91.7484 53.7876 91.7561 53.6768V51.8107H91.2002V51.4706H91.7561V50.8237H92.173V51.4706H93.1197V51.8107H92.173V53.5772C92.1621 53.6483 92.1683 53.7208 92.1911 53.7892C92.2139 53.8576 92.2527 53.9202 92.3046 53.9722C92.3565 54.0241 92.4201 54.0641 92.4906 54.0891C92.5611 54.1141 92.6367 54.1234 92.7115 54.1163C92.8784 54.119 93.0411 54.0662 93.1719 53.967L93.2848 54.2988Z" fill="#263238"/>
<path d="M96.4115 52.64V54.4729H96.0119V54.0085C95.8961 54.1739 95.7358 54.3066 95.5479 54.3927C95.3599 54.4787 95.1512 54.5151 94.9436 54.4978C94.2487 54.4978 93.8145 54.1495 93.8145 53.6684C93.8145 53.1874 94.1185 52.8391 95.0131 52.8391H95.9946V52.64C95.9946 52.1341 95.6906 51.8604 95.126 51.8604C94.7489 51.8544 94.382 51.978 94.0924 52.2088L93.91 51.9102C94.2673 51.6394 94.7135 51.4984 95.1694 51.5121C95.3326 51.4902 95.4989 51.5038 95.6558 51.5519C95.8127 51.6 95.9562 51.6813 96.0756 51.7897C96.195 51.8982 96.2873 52.031 96.3454 52.1782C96.4036 52.3254 96.4262 52.4833 96.4115 52.64ZM95.9946 53.5855V53.0962H95.0218C94.4225 53.0962 94.2314 53.3284 94.2314 53.627C94.2314 53.9255 94.518 54.1826 95.0131 54.1826C95.2167 54.1859 95.4165 54.1297 95.5857 54.0215C95.7549 53.9133 95.8855 53.7582 95.9598 53.5772L95.9946 53.5855Z" fill="#263238"/>
<path d="M97.5146 50.293H97.9316V54.4398H97.5146V50.293Z" fill="#263238"/>
<path d="M100.355 52.4991C100.341 52.0885 100.456 51.6832 100.684 51.3352C100.913 50.9871 101.245 50.7122 101.638 50.5454C102.032 50.3787 102.468 50.3277 102.892 50.3991C103.316 50.4704 103.707 50.6609 104.017 50.946C104.327 51.2312 104.541 51.5981 104.631 51.9998C104.721 52.4016 104.684 52.8199 104.524 53.2012C104.364 53.5826 104.088 53.9097 103.732 54.1407C103.376 54.3717 102.956 54.496 102.526 54.4979C102.244 54.5103 101.962 54.4677 101.698 54.3726C101.434 54.2775 101.193 54.132 100.99 53.9449C100.786 53.7578 100.625 53.5331 100.516 53.2845C100.407 53.0359 100.352 52.7687 100.355 52.4991ZM104.246 52.4991C104.246 52.1711 104.144 51.8504 103.953 51.5776C103.762 51.3048 103.491 51.0922 103.173 50.9667C102.856 50.8411 102.507 50.8083 102.17 50.8723C101.833 50.9363 101.523 51.0942 101.28 51.3262C101.037 51.5582 100.872 51.8538 100.805 52.1755C100.738 52.4973 100.772 52.8308 100.904 53.1339C101.035 53.437 101.258 53.6961 101.544 53.8783C101.829 54.0606 102.165 54.1579 102.509 54.1579C102.738 54.1637 102.965 54.1246 103.178 54.0431C103.391 53.9616 103.583 53.8393 103.745 53.6839C103.906 53.5285 104.032 53.3431 104.115 53.1394C104.198 52.9356 104.237 52.7177 104.228 52.4991H104.246Z" fill="#263238"/>
<path d="M107.13 51.4869V51.8684H107.034C106.887 51.8609 106.74 51.8846 106.603 51.9379C106.467 51.9912 106.344 52.0727 106.245 52.1765C106.145 52.2804 106.071 52.4041 106.027 52.5387C105.983 52.6732 105.971 52.8154 105.992 52.9549V54.4643H105.575V51.5035H105.966V52.084C106.073 51.8828 106.242 51.7176 106.45 51.6109C106.658 51.5041 106.895 51.4608 107.13 51.4869Z" fill="#263238"/>
<path d="M110.674 50.2929V54.4398H110.309V53.8509C110.186 54.045 110.01 54.2041 109.801 54.312C109.592 54.4199 109.357 54.4726 109.119 54.4647C108.702 54.4647 108.302 54.3065 108.007 54.025C107.713 53.7435 107.547 53.3616 107.547 52.9635C107.547 52.5654 107.713 52.1836 108.007 51.902C108.302 51.6205 108.702 51.4624 109.119 51.4624C109.35 51.454 109.58 51.503 109.786 51.6048C109.991 51.7066 110.165 51.8575 110.292 52.0429V50.2681L110.674 50.2929ZM110.266 52.9884C110.257 52.7718 110.182 52.5625 110.049 52.3864C109.917 52.2104 109.733 52.0755 109.521 51.9986C109.309 51.9217 109.078 51.9062 108.856 51.954C108.635 52.0018 108.433 52.1108 108.276 52.2674C108.119 52.424 108.014 52.6213 107.974 52.8346C107.934 53.0479 107.96 53.2678 108.05 53.4668C108.14 53.6658 108.29 53.8351 108.48 53.9535C108.67 54.072 108.892 54.1344 109.119 54.1329C109.278 54.1414 109.438 54.1176 109.587 54.063C109.736 54.0083 109.871 53.9242 109.983 53.816C110.096 53.7079 110.183 53.5782 110.239 53.4355C110.295 53.2929 110.319 53.1405 110.309 52.9884H110.266Z" fill="#263238"/>
<path d="M114.538 53.1041H111.933C111.94 53.2484 111.978 53.3897 112.044 53.5198C112.109 53.65 112.201 53.7663 112.314 53.8621C112.428 53.9578 112.56 54.0311 112.703 54.0775C112.846 54.124 112.998 54.1427 113.149 54.1326C113.326 54.1382 113.502 54.1071 113.666 54.0412C113.829 53.9753 113.976 53.8763 114.095 53.751L114.33 54.0082C114.108 54.2303 113.823 54.3851 113.509 54.4531C113.196 54.5211 112.868 54.4993 112.568 54.3904C112.268 54.2814 112.007 54.0903 111.82 53.8408C111.633 53.5914 111.527 53.2947 111.516 52.988C111.516 52.6075 111.674 52.2425 111.956 51.9735C112.238 51.7044 112.62 51.5532 113.018 51.5532C113.417 51.5532 113.799 51.7044 114.081 51.9735C114.363 52.2425 114.521 52.6075 114.521 52.988L114.538 53.1041ZM111.933 52.8139H114.121C114.121 52.5367 114.006 52.2709 113.801 52.0749C113.596 51.879 113.317 51.7689 113.027 51.7689C112.737 51.7689 112.458 51.879 112.253 52.0749C112.048 52.2709 111.933 52.5367 111.933 52.8139Z" fill="#263238"/>
<path d="M116.953 51.487V51.8685H116.858C116.71 51.861 116.563 51.8847 116.427 51.938C116.29 51.9913 116.167 52.0728 116.068 52.1766C115.968 52.2805 115.894 52.4042 115.85 52.5388C115.806 52.6733 115.795 52.8155 115.815 52.9549V54.4644H115.398V51.5036H115.798V52.0841C115.904 51.8843 116.072 51.7202 116.278 51.6135C116.484 51.5068 116.72 51.4627 116.953 51.487Z" fill="#263238"/>
<path d="M89.9671 59.4575V71.6575H87.0139V61.7632H84.4082V59.499L89.9671 59.4575Z" fill="#263238"/>
<path d="M101.745 69.36V71.6573H92.0688V69.8327L97.0023 65.3873C98.1314 64.3506 98.3312 63.7285 98.3312 63.1314C98.3312 62.1776 97.6363 61.6137 96.2901 61.6137C95.7842 61.6023 95.2831 61.7081 94.8293 61.9218C94.3756 62.1355 93.9827 62.451 93.6843 62.8411L91.5303 61.5141C92.1148 60.7662 92.8835 60.1675 93.7683 59.7711C94.6531 59.3747 95.6267 59.1928 96.6027 59.2417C99.4517 59.2417 101.354 60.6433 101.354 62.8577C101.354 64.0437 101.006 65.1219 99.2171 66.706L96.2814 69.36H101.745Z" fill="#263238"/>
<path d="M102.935 65.5615C102.935 61.5308 105.271 59.2417 108.415 59.2417C111.56 59.2417 113.887 61.5308 113.887 65.5615C113.887 69.5922 111.568 71.873 108.415 71.873C105.262 71.873 102.935 69.5839 102.935 65.5615ZM110.917 65.5615C110.917 62.7831 109.892 61.6303 108.415 61.6303C106.939 61.6303 105.931 62.7831 105.931 65.5615C105.931 68.3399 106.947 69.4844 108.415 69.4844C109.883 69.4844 110.917 68.3316 110.917 65.5615Z" fill="#263238"/>
<path d="M187.472 48.6675H156.143C154.622 48.6675 153.39 49.8446 153.39 51.2966V68.6221C153.39 70.0741 154.622 71.2512 156.143 71.2512H187.472C188.993 71.2512 190.226 70.0741 190.226 68.6221V51.2966C190.226 49.8446 188.993 48.6675 187.472 48.6675Z" fill="#F5F5F5"/>
<path d="M163.569 52.8223H157.567V54.904H163.569V52.8223Z" fill="#E0E0E0"/>
<path d="M164.821 59.184C163.418 59.4072 161.993 59.4823 160.573 59.408C159.15 59.4821 157.723 59.407 156.317 59.184C157.724 58.9715 159.151 58.8992 160.573 58.9684C161.993 58.899 163.417 58.9712 164.821 59.184Z" fill="#E0E0E0"/>
<path d="M170.64 59.1838C169.241 59.4823 167.791 59.4823 166.393 59.1838C167.792 58.8964 169.24 58.8964 170.64 59.1838Z" fill="#E0E0E0"/>
<path d="M186.457 59.1839C184.352 59.4825 182.212 59.4825 180.107 59.1839C182.213 58.8964 184.351 58.8964 186.457 59.1839Z" fill="#E0E0E0"/>
<path d="M178.605 59.1834C176.573 59.482 174.505 59.482 172.473 59.1834C174.506 58.8959 176.572 58.8959 178.605 59.1834Z" fill="#E0E0E0"/>
<path d="M162.762 64.2513C160.68 64.5388 158.565 64.5388 156.482 64.2513C158.565 63.9638 160.68 63.9638 162.762 64.2513Z" fill="#E0E0E0"/>
<path d="M168.095 66.3991C166.167 66.6172 164.224 66.6893 162.284 66.6147C160.348 66.6895 158.407 66.6174 156.482 66.3991C158.408 66.1858 160.348 66.1137 162.284 66.1835C164.224 66.1139 166.167 66.186 168.095 66.3991Z" fill="#E0E0E0"/>
<path d="M186.456 66.3989C184.834 66.6864 183.171 66.6864 181.549 66.3989C182.345 66.1885 183.175 66.1155 183.998 66.1833C184.824 66.1145 185.657 66.1875 186.456 66.3989Z" fill="#E0E0E0"/>
<path d="M216.9 52.7975H215.449V52.4326H218.785V52.7975H217.334V56.3721H216.9V52.7975Z" fill="white"/>
<path d="M218.75 54.8879C218.75 54.5893 218.843 54.2975 219.016 54.0493C219.19 53.801 219.437 53.6076 219.726 53.4933C220.015 53.3791 220.332 53.3492 220.639 53.4074C220.946 53.4657 221.227 53.6094 221.449 53.8205C221.67 54.0316 221.82 54.3006 221.881 54.5934C221.942 54.8862 221.911 55.1897 221.791 55.4655C221.672 55.7413 221.469 55.9771 221.209 56.1429C220.949 56.3088 220.643 56.3973 220.331 56.3973C220.121 56.4043 219.912 56.37 219.717 56.2966C219.522 56.2232 219.345 56.1122 219.197 55.9707C219.049 55.8291 218.932 55.6599 218.855 55.4736C218.779 55.2873 218.743 55.088 218.75 54.8879ZM221.477 54.8879C221.467 54.6717 221.39 54.4633 221.257 54.2884C221.124 54.1135 220.939 53.9799 220.727 53.9042C220.515 53.8286 220.284 53.8142 220.063 53.8629C219.842 53.9116 219.642 54.0212 219.486 54.1781C219.33 54.335 219.225 54.5322 219.186 54.7452C219.146 54.9582 219.173 55.1777 219.263 55.3762C219.353 55.5747 219.503 55.7435 219.692 55.8617C219.882 55.9798 220.104 56.0421 220.331 56.0407C220.488 56.0445 220.644 56.0169 220.79 55.9597C220.935 55.9024 221.067 55.8168 221.175 55.7082C221.284 55.5997 221.368 55.4707 221.421 55.3294C221.475 55.1881 221.497 55.0377 221.486 54.8879H221.477Z" fill="white"/>
<path d="M224.379 56.1895C224.195 56.3312 223.963 56.4049 223.727 56.3968C223.611 56.4041 223.495 56.3877 223.386 56.3486C223.277 56.3095 223.178 56.2487 223.096 56.1702C223.014 56.0916 222.95 55.9973 222.909 55.8933C222.868 55.7894 222.851 55.6783 222.859 55.5674V53.7843H222.303V53.4443H222.859V52.7974H223.223V53.4443H224.161V53.7843H223.223V55.5509C223.213 55.6219 223.219 55.6944 223.241 55.7628C223.264 55.8313 223.303 55.8938 223.355 55.9458C223.407 55.9978 223.471 56.0377 223.541 56.0627C223.612 56.0877 223.687 56.097 223.762 56.09C223.928 56.0952 224.09 56.0387 224.214 55.9324L224.379 56.1895Z" fill="white"/>
<path d="M227.479 54.5392V56.3721H227.079V55.9077C226.963 56.0731 226.803 56.2058 226.615 56.2918C226.427 56.3779 226.219 56.4142 226.011 56.397C225.307 56.397 224.882 56.0486 224.882 55.5676C224.882 55.0866 225.186 54.7382 226.072 54.7382H227.062V54.5641C227.08 54.4513 227.069 54.3361 227.032 54.2278C226.994 54.1196 226.931 54.0212 226.846 53.9405C226.762 53.8599 226.659 53.7993 226.546 53.7635C226.432 53.7278 226.312 53.7179 226.193 53.7347C225.817 53.7316 225.451 53.8548 225.16 54.083L224.969 53.7928C225.326 53.5209 225.771 53.3771 226.228 53.3864C226.394 53.3657 226.562 53.381 226.721 53.431C226.879 53.481 227.024 53.5645 227.144 53.6752C227.264 53.786 227.357 53.9212 227.415 54.0707C227.473 54.2203 227.495 54.3804 227.479 54.5392ZM227.062 55.4847V54.9953H226.089C225.49 54.9953 225.29 55.2193 225.29 55.5261C225.29 55.833 225.577 56.0818 226.072 56.0818C226.282 56.0945 226.49 56.0436 226.668 55.9363C226.846 55.8291 226.984 55.6711 227.062 55.4847Z" fill="white"/>
<path d="M228.608 52.2007H229.025V56.3475H228.608V52.2007Z" fill="white"/>
<path d="M234.636 56.3721L233.698 55.1281H233.368H232.257V56.3804H231.822V52.4409H233.368C234.411 52.4409 235.045 52.9468 235.045 53.7928C235.059 54.07 234.974 54.3435 234.803 54.5682C234.633 54.7929 234.387 54.9553 234.107 55.0285L235.114 56.3804L234.636 56.3721ZM234.636 53.7845C234.636 53.1542 234.202 52.7975 233.377 52.7975H232.257V54.7631H233.351C234.176 54.7631 234.61 54.3982 234.61 53.7845H234.636Z" fill="white"/>
<path d="M238.684 55.0121H236.078C236.086 55.1563 236.124 55.2976 236.189 55.4277C236.255 55.5579 236.347 55.6742 236.46 55.77C236.573 55.8658 236.705 55.939 236.849 55.9854C236.992 56.0319 237.143 56.0506 237.294 56.0405C237.471 56.0462 237.648 56.015 237.811 55.9491C237.975 55.8833 238.121 55.7843 238.241 55.659L238.475 55.9161C238.327 56.0753 238.143 56.201 237.937 56.2841C237.731 56.3673 237.509 56.4059 237.285 56.3971C237.073 56.4087 236.86 56.3779 236.66 56.3067C236.46 56.2355 236.278 56.1254 236.126 55.9835C235.973 55.8416 235.853 55.6708 235.773 55.4822C235.693 55.2935 235.655 55.0911 235.661 54.8877C235.651 54.6927 235.682 54.4978 235.753 54.3149C235.825 54.132 235.934 53.965 236.076 53.8243C236.218 53.6836 236.388 53.5721 236.577 53.4968C236.765 53.4215 236.968 53.384 237.173 53.3865C237.377 53.3826 237.58 53.4194 237.769 53.4943C237.957 53.5693 238.128 53.6808 238.269 53.822C238.41 53.9631 238.519 54.1307 238.589 54.3141C238.659 54.4976 238.688 54.6929 238.675 54.8877C238.675 54.8877 238.684 54.9706 238.684 55.0121ZM236.078 54.7135H238.276C238.251 54.4513 238.125 54.2074 237.922 54.0298C237.718 53.8521 237.453 53.7536 237.177 53.7536C236.901 53.7536 236.636 53.8521 236.432 54.0298C236.229 54.2074 236.103 54.4513 236.078 54.7135Z" fill="white"/>
<path d="M242.08 53.4111L240.708 56.372H240.274L238.91 53.4111H239.344L240.5 55.8992L241.672 53.4111H242.08Z" fill="white"/>
<path d="M245.277 55.0121H242.671C242.68 55.1559 242.718 55.2967 242.784 55.4263C242.85 55.5559 242.942 55.6718 243.055 55.7674C243.168 55.8629 243.3 55.9362 243.443 55.9831C243.585 56.03 243.736 56.0495 243.887 56.0405C244.064 56.0473 244.241 56.0166 244.405 55.9507C244.569 55.8848 244.715 55.7851 244.834 55.659L245.077 55.9161C244.853 56.1376 244.567 56.2914 244.252 56.3585C243.938 56.4256 243.61 56.4029 243.309 56.2933C243.008 56.1836 242.748 55.9919 242.56 55.742C242.373 55.4921 242.266 55.195 242.254 54.8877C242.243 54.6927 242.275 54.4978 242.346 54.3149C242.417 54.132 242.527 53.965 242.669 53.8243C242.811 53.6836 242.981 53.5721 243.17 53.4968C243.358 53.4215 243.561 53.384 243.765 53.3865C243.97 53.3826 244.173 53.4194 244.361 53.4943C244.55 53.5693 244.721 53.6808 244.862 53.822C245.003 53.9631 245.112 54.1307 245.182 54.3141C245.252 54.4976 245.281 54.6929 245.268 54.8877C245.268 54.8877 245.277 54.9706 245.277 55.0121ZM242.671 54.7135H244.868C244.844 54.4513 244.718 54.2074 244.514 54.0298C244.311 53.8521 244.045 53.7536 243.77 53.7536C243.494 53.7536 243.228 53.8521 243.025 54.0298C242.822 54.2074 242.695 54.4513 242.671 54.7135Z" fill="white"/>
<path d="M248.986 54.6556V56.3724H248.569V54.7137C248.569 54.0834 248.23 53.7682 247.639 53.7682C247.491 53.7577 247.342 53.7784 247.203 53.829C247.064 53.8795 246.938 53.9586 246.834 54.0606C246.731 54.1627 246.652 54.2852 246.604 54.4196C246.555 54.5539 246.538 54.6968 246.554 54.8381V56.389H246.137V53.4282H246.536V53.9755C246.663 53.7892 246.839 53.6382 247.046 53.5377C247.254 53.4372 247.485 53.3908 247.718 53.4033C247.891 53.3915 248.065 53.4161 248.228 53.4754C248.39 53.5348 248.537 53.6274 248.658 53.7468C248.779 53.8662 248.871 54.0095 248.927 54.1665C248.984 54.3235 249.004 54.4905 248.986 54.6556Z" fill="white"/>
<path d="M252.911 53.4111V56.372H252.511V55.8329C252.395 56.0129 252.231 56.1602 252.036 56.2593C251.84 56.3585 251.621 56.4059 251.399 56.3968C251.221 56.4141 251.041 56.3929 250.873 56.335C250.704 56.2771 250.551 56.1838 250.426 56.0621C250.3 55.9404 250.204 55.7933 250.146 55.6316C250.087 55.4699 250.067 55.2978 250.088 55.1279V53.4111H250.505V55.0699C250.485 55.1938 250.494 55.3204 250.533 55.4403C250.571 55.5602 250.638 55.6702 250.727 55.762C250.817 55.8538 250.927 55.925 251.049 55.9704C251.172 56.0157 251.303 56.0339 251.434 56.0236C251.581 56.0305 251.728 56.0068 251.865 55.9541C252.001 55.9014 252.124 55.821 252.225 55.7185C252.326 55.6159 252.402 55.4937 252.448 55.3602C252.495 55.2267 252.51 55.0852 252.494 54.9454V53.3945L252.911 53.4111Z" fill="white"/>
<path d="M256.777 55.0121H254.171C254.179 55.1563 254.216 55.2976 254.282 55.4278C254.347 55.5579 254.44 55.6743 254.553 55.77C254.666 55.8658 254.798 55.939 254.941 55.9854C255.084 56.0319 255.236 56.0506 255.387 56.0405C255.564 56.0462 255.741 56.015 255.904 55.9491C256.068 55.8833 256.214 55.7843 256.334 55.659L256.568 55.9161C256.345 56.1376 256.058 56.2915 255.744 56.3585C255.429 56.4256 255.101 56.4029 254.8 56.2933C254.5 56.1837 254.239 55.9919 254.051 55.742C253.864 55.4921 253.757 55.195 253.745 54.8877C253.734 54.692 253.766 54.4964 253.838 54.3129C253.91 54.1294 254.02 53.9621 254.163 53.8212C254.306 53.6804 254.477 53.5691 254.667 53.4943C254.856 53.4195 255.06 53.3828 255.265 53.3865C255.469 53.3826 255.672 53.4193 255.86 53.4943C256.049 53.5694 256.219 53.6811 256.359 53.8223C256.5 53.9636 256.608 54.1313 256.677 54.3147C256.746 54.4982 256.774 54.6933 256.759 54.8877L256.777 55.0121ZM254.171 54.7135H256.36C256.36 54.4364 256.244 54.1706 256.039 53.9746C255.834 53.7786 255.555 53.6685 255.265 53.6685C254.975 53.6685 254.697 53.7786 254.491 53.9746C254.286 54.1706 254.171 54.4364 254.171 54.7135Z" fill="white"/>
<path d="M220.305 71.7569V73.1419H219.01V71.7983C217.861 71.7631 216.745 71.4213 215.788 70.8114L216.5 69.3019C217.245 69.7941 218.109 70.0967 219.01 70.1811V68.1159C217.577 67.7759 215.97 67.2866 215.97 65.5532C215.97 64.2428 216.969 63.1148 219.01 62.8909V61.5225H220.305V62.866C221.223 62.9198 222.116 63.1783 222.91 63.6208L222.268 65.1468C221.655 64.8091 220.98 64.5894 220.279 64.4999V66.6065C221.72 66.9216 223.301 67.3861 223.301 69.0946C223.327 70.4133 222.355 71.5246 220.305 71.7569ZM219.01 66.2913V64.5414C218.324 64.6906 218.055 65.0473 218.055 65.4537C218.055 65.8601 218.446 66.1255 219.01 66.2913ZM221.243 69.277C221.243 68.8458 220.869 68.6053 220.305 68.4477V70.1562C220.956 69.9903 221.243 69.6669 221.243 69.277Z" fill="white"/>
<path d="M227.566 63.0068V71.6571H225.464V64.6158H223.657V63.0068H227.566Z" fill="white"/>
<path d="M235.982 68.9368C235.982 70.4711 234.801 71.8064 232.213 71.8064C230.985 71.828 229.778 71.5082 228.738 70.8858L229.607 69.3515C230.365 69.8721 231.279 70.1455 232.213 70.1311C233.264 70.1311 233.95 69.7081 233.95 69.0032C233.95 68.2982 233.481 67.8752 231.839 67.8752H229.52L229.98 63.0068H235.513V64.6158H231.648L231.5 66.2745H232.239C234.923 66.258 235.982 67.4108 235.982 68.9368Z" fill="white"/>
<path d="M239.283 70.546C239.265 70.9786 239.143 71.4015 238.926 71.7818L238.188 73.5649H236.911L237.485 71.5993C237.267 71.5163 237.081 71.3699 236.955 71.1809C236.829 70.9919 236.768 70.7698 236.781 70.546C236.776 70.3876 236.805 70.2299 236.867 70.0828C236.929 69.9356 237.022 69.8022 237.14 69.6909C237.258 69.5796 237.399 69.4928 237.554 69.4359C237.709 69.3789 237.875 69.3531 238.04 69.36C238.206 69.353 238.37 69.3788 238.524 69.4359C238.678 69.493 238.818 69.5801 238.935 69.6917C239.052 69.8033 239.143 69.9368 239.203 70.0839C239.263 70.231 239.29 70.3884 239.283 70.546Z" fill="white"/>
<path d="M240.056 67.3365C240.056 64.4752 241.715 62.8579 243.938 62.8579C246.162 62.8579 247.829 64.5166 247.829 67.3365C247.829 70.1563 246.179 71.8068 243.938 71.8068C241.697 71.8068 240.056 70.1895 240.056 67.3365ZM245.719 67.3365C245.719 65.3709 244.989 64.5498 243.982 64.5498C242.974 64.5498 242.244 65.3792 242.244 67.3365C242.244 69.2938 242.965 70.1149 243.982 70.1149C244.998 70.1149 245.719 69.3021 245.719 67.3365Z" fill="white"/>
<path d="M248.847 67.3365C248.847 64.4752 250.506 62.8579 252.729 62.8579C254.953 62.8579 256.612 64.5166 256.612 67.3365C256.612 70.1563 254.97 71.8068 252.729 71.8068C250.488 71.8068 248.847 70.1895 248.847 67.3365ZM254.501 67.3365C254.501 65.3709 253.78 64.5498 252.764 64.5498C251.748 64.5498 251.027 65.3792 251.027 67.3365C251.027 69.2938 251.756 70.1149 252.764 70.1149C253.771 70.1149 254.492 69.3021 254.492 67.3365H254.501Z" fill="white"/>
<path d="M257.627 67.3365C257.627 64.4752 259.286 62.8579 261.518 62.8579C263.75 62.8579 265.401 64.5166 265.401 67.3365C265.401 70.1563 263.759 71.8068 261.518 71.8068C259.277 71.8068 257.627 70.1895 257.627 67.3365ZM263.29 67.3365C263.29 65.3709 262.569 64.5498 261.553 64.5498C260.537 64.5498 259.816 65.3792 259.816 67.3365C259.816 69.2938 260.545 70.1149 261.553 70.1149C262.56 70.1149 263.29 69.3021 263.29 67.3365Z" fill="white"/>
<path d="M322.362 193.442H322.823C323.272 193.42 323.72 193.364 324.16 193.276C326.058 192.908 327.773 191.945 329.032 190.54C330.291 189.135 331.022 187.369 331.109 185.521C331.161 184.767 331.109 183.979 331.109 183.158C331.109 179.879 331.109 176.111 331.109 171.853C331.109 163.344 331.109 152.936 331.109 140.852C331.109 134.814 331.109 128.361 331.109 121.494C331.109 118.072 331.109 114.55 331.109 110.928C331.109 109.12 331.109 107.287 331.109 105.429C331.109 104.509 331.109 103.563 331.065 102.651C330.962 101.726 330.698 100.823 330.284 99.9804C329.444 98.2514 327.996 96.8576 326.193 96.0409C325.285 95.6252 324.31 95.3615 323.309 95.2613C322.302 95.1867 321.251 95.2613 320.217 95.2613H280.245H220.435H83.3918C81.9044 95.2639 80.4424 95.6293 79.1444 96.3229C77.8579 97.0211 76.7811 98.0236 76.0176 99.234C75.2523 100.442 74.8302 101.82 74.7929 103.232C74.7929 104.658 74.7929 106.101 74.7929 107.528C74.7929 113.256 74.7929 118.948 74.7929 124.604V184.261C74.7721 184.912 74.804 185.563 74.8884 186.21C75.0783 187.49 75.5877 188.707 76.3737 189.759C77.1442 190.811 78.1645 191.673 79.3511 192.276C80.5377 192.878 81.8569 193.204 83.2007 193.226H107.321L219.254 193.276L294.716 193.342L315.231 193.384L294.716 193.425L219.254 193.492L107.304 193.633H83.1746C81.768 193.607 80.3874 193.267 79.1444 192.637C77.897 192.002 76.8207 191.099 76.0002 190C75.1748 188.894 74.6414 187.613 74.4455 186.268C74.3503 185.603 74.3155 184.931 74.3412 184.261V182.27C74.3412 179.605 74.3412 176.932 74.3412 174.25V107.511C74.3412 106.076 74.3412 104.65 74.3412 103.198C74.38 101.717 74.8231 100.27 75.6267 99.0018C76.4321 97.7229 77.5707 96.6649 78.9315 95.931C80.2922 95.197 81.8289 94.812 83.3918 94.8135H220.435H280.245H320.13C321.172 94.8135 322.197 94.8135 323.248 94.8632C324.795 95.0172 326.274 95.5491 327.543 96.4076C328.812 97.2661 329.827 98.4224 330.492 99.7648C330.916 100.64 331.186 101.576 331.291 102.535C331.369 103.497 331.291 104.418 331.335 105.346V110.845C331.335 114.461 331.335 117.983 331.335 121.411C331.335 128.273 331.335 134.725 331.335 140.769C331.335 152.853 331.335 163.261 331.291 171.771C331.291 176.028 331.291 179.796 331.291 183.075C331.291 183.904 331.291 184.684 331.291 185.438C331.246 186.166 331.106 186.884 330.874 187.578C330.458 188.779 329.77 189.878 328.859 190.796C327.614 192.033 326.006 192.883 324.247 193.235C323.8 193.314 323.347 193.364 322.892 193.384L322.362 193.442Z" fill="#E0E0E0"/>
<path d="M161.355 156.286H153.017V187.893H161.355V156.286Z" fill="#EBEBEB"/>
<path d="M173.845 165.849H165.507V187.893H173.845V165.849Z" fill="#EBEBEB"/>
<path d="M149.386 165.849H141.048V187.893H149.386V165.849Z" fill="#EBEBEB"/>
<path d="M124.927 184.958H116.589V187.893H124.927V184.958Z" fill="#EBEBEB"/>
<path d="M137.322 180.528H128.983V187.893H137.322V180.528Z" fill="#EBEBEB"/>
<path d="M112.984 185.446H104.646V187.893H112.984V185.446Z" fill="#EBEBEB"/>
<path d="M100.459 185.446H92.1211V187.893H100.459V185.446Z" fill="#EBEBEB"/>
<path d="M186.995 170.286H178.656V187.893H186.995V170.286Z" fill="#EBEBEB"/>
<path d="M200.154 175.121H191.815V187.893H200.154V175.121Z" fill="#EBEBEB"/>
<path d="M213.304 165.849H204.966V187.893H213.304V165.849Z" fill="#EBEBEB"/>
<path d="M226.455 152.081H218.116V187.893H226.455V152.081Z" fill="#EBEBEB"/>
<path d="M239.605 141.482H231.267V187.893H239.605V141.482Z" fill="#EBEBEB"/>
<path d="M252.763 156.286H244.425V187.893H252.763V156.286Z" fill="#EBEBEB"/>
<path d="M265.914 127.914H257.575V187.893H265.914V127.914Z" fill="#EBEBEB"/>
<path d="M279.064 156.286H270.726V187.893H279.064V156.286Z" fill="#EBEBEB"/>
<path d="M292.214 165.849H283.876V187.893H292.214V165.849Z" fill="#EBEBEB"/>
<path d="M305.372 169.987H297.034V187.893H305.372V169.987Z" fill="#EBEBEB"/>
<path d="M318.523 175.121H310.185V187.893H318.523V175.121Z" fill="#EBEBEB"/>
<path d="M99.0176 187.893H99.834H102.24H111.482H114.652C115.813 187.911 116.974 187.853 118.126 187.719C120.748 187.416 123.269 186.567 125.509 185.231C126.745 184.483 127.852 183.557 128.792 182.486C129.719 181.288 130.483 179.984 131.068 178.604C132.371 175.784 133.552 172.724 134.759 169.481C135.967 166.238 137.174 162.846 138.468 159.321C139.12 157.555 139.78 155.755 140.544 153.947C141.314 152.095 142.268 150.317 143.393 148.639C144.567 146.862 146.003 145.256 147.658 143.87C149.365 142.483 151.314 141.394 153.416 140.652C155.59 139.906 157.881 139.522 160.191 139.516C162.557 139.476 164.917 139.755 167.201 140.345C168.363 140.651 169.492 141.065 170.571 141.581C171.658 142.124 172.68 142.777 173.619 143.53C175.498 145.095 177.035 146.997 178.145 149.128C179.212 151.31 180.083 153.574 180.75 155.896C181.515 158.202 182.279 160.532 183.13 162.854C184.729 167.619 186.962 172.168 189.775 176.39C191.217 178.524 193.103 180.354 195.316 181.764C196.442 182.444 197.691 182.917 198.999 183.157C199.655 183.279 200.32 183.343 200.988 183.348C201.666 183.348 202.343 183.348 203.012 183.249C204.83 183.121 206.603 182.644 208.223 181.847C209.799 180.986 211.15 179.795 212.175 178.364C213.226 176.945 214.104 175.419 214.998 173.918C215.88 172.419 216.68 170.877 217.395 169.299C220.244 163.02 222.016 156.477 224.674 150.439C225.862 147.415 227.263 144.473 228.869 141.631C230.456 138.869 232.47 136.353 234.845 134.167C235.989 133.087 237.263 132.14 238.641 131.347C240.006 130.57 241.464 129.952 242.984 129.506C245.918 128.663 248.982 128.306 252.043 128.452C254.969 128.568 257.859 129.108 260.616 130.053C263.238 130.976 265.654 132.364 267.738 134.142C271.812 137.575 274.765 141.606 278.161 144.791C281.336 147.735 285.21 149.9 289.452 151.102C292.969 152.164 296.604 152.827 300.283 153.076L315.544 153.126H319.479C320.347 153.126 320.816 153.126 320.816 153.126H319.479H315.544L300.283 153.176C296.58 152.945 292.918 152.297 289.374 151.243C285.098 150.076 281.178 147.945 277.944 145.031C274.539 141.822 271.568 137.808 267.521 134.424C265.462 132.678 263.078 131.317 260.494 130.41C257.774 129.479 254.921 128.953 252.034 128.85C249.02 128.709 246.003 129.062 243.114 129.895C240.118 130.79 237.392 132.36 235.166 134.473C232.829 136.635 230.841 139.117 229.269 141.838C227.68 144.668 226.293 147.597 225.117 150.605C222.468 156.626 220.705 163.153 217.838 169.481C217.122 171.071 216.319 172.624 215.432 174.134C214.563 175.676 213.609 177.174 212.575 178.621C211.513 180.105 210.111 181.339 208.475 182.228C206.795 183.064 204.953 183.56 203.064 183.688C202.378 183.779 201.683 183.755 200.997 183.788C200.3 183.783 199.605 183.717 198.921 183.589C197.56 183.339 196.26 182.847 195.09 182.137C192.819 180.699 190.885 178.827 189.41 176.639C186.578 172.385 184.327 167.803 182.713 163.004C181.845 160.673 181.098 158.334 180.342 156.029C179.67 153.73 178.798 151.488 177.736 149.327C176.656 147.242 175.153 145.381 173.315 143.854C172.405 143.115 171.412 142.475 170.354 141.946C169.3 141.442 168.197 141.036 167.062 140.735C164.816 140.148 162.494 139.868 160.165 139.906C157.903 139.909 155.659 140.282 153.529 141.009C149.465 142.5 146.011 145.202 143.68 148.714C141.369 152.031 140.092 155.805 138.772 159.313C137.452 162.821 136.227 166.238 135.037 169.473C133.847 172.707 132.623 175.759 131.302 178.596C130.701 179.993 129.919 181.314 128.975 182.527C128.01 183.615 126.877 184.555 125.613 185.314C123.34 186.652 120.787 187.501 118.135 187.802C116.982 187.93 115.821 187.98 114.661 187.951H111.438L102.197 187.91H99.7906C99.2521 187.91 99.0176 187.893 99.0176 187.893Z" fill="#1C61B0"/>
<path d="M179.794 114.494H132.891C132.539 114.494 132.201 114.628 131.952 114.866C131.703 115.104 131.563 115.427 131.563 115.763V131.164C131.561 131.331 131.595 131.497 131.661 131.651C131.728 131.806 131.826 131.946 131.949 132.064C132.073 132.182 132.22 132.276 132.382 132.339C132.543 132.402 132.717 132.434 132.891 132.433H156.621C156.806 132.433 156.989 132.47 157.158 132.541C157.327 132.613 157.478 132.717 157.602 132.848C158.349 133.636 159.339 134.656 160.069 135.402C160.194 135.532 160.346 135.635 160.515 135.705C160.684 135.776 160.866 135.812 161.051 135.812C161.235 135.812 161.417 135.776 161.586 135.705C161.755 135.635 161.907 135.532 162.032 135.402L164.447 132.856C164.571 132.725 164.722 132.621 164.891 132.549C165.06 132.478 165.243 132.441 165.428 132.442H179.794C180.147 132.442 180.485 132.308 180.734 132.07C180.983 131.832 181.123 131.509 181.123 131.173V115.763C181.121 115.427 180.98 115.106 180.732 114.868C180.483 114.631 180.146 114.496 179.794 114.494Z" fill="#1C61B0"/>
<path d="M128.358 158.351H89.2718C89.0622 158.351 88.8612 158.431 88.7129 158.572C88.5647 158.714 88.4814 158.906 88.4814 159.106V168.229C88.4814 168.429 88.5647 168.621 88.7129 168.763C88.8612 168.904 89.0622 168.984 89.2718 168.984H103.36C103.47 168.983 103.579 169.005 103.679 169.048C103.78 169.091 103.869 169.154 103.942 169.232C104.385 169.697 104.976 170.311 105.41 170.75C105.484 170.827 105.574 170.888 105.674 170.93C105.774 170.972 105.882 170.994 105.992 170.994C106.101 170.994 106.209 170.972 106.31 170.93C106.41 170.888 106.5 170.827 106.574 170.75L108.016 169.241C108.089 169.162 108.178 169.099 108.279 169.056C108.379 169.013 108.488 168.991 108.598 168.992H128.323C128.533 168.992 128.734 168.912 128.882 168.771C129.03 168.629 129.113 168.437 129.113 168.237V159.114C129.116 158.918 129.038 158.729 128.897 158.587C128.756 158.444 128.563 158.36 128.358 158.351Z" fill="#F5F5F5"/>
<path d="M162.623 139.582C162.623 139.927 162.516 140.264 162.315 140.55C162.115 140.837 161.83 141.06 161.497 141.192C161.163 141.323 160.797 141.358 160.443 141.291C160.089 141.223 159.764 141.058 159.509 140.814C159.254 140.57 159.08 140.26 159.01 139.922C158.939 139.584 158.975 139.234 159.113 138.916C159.252 138.598 159.485 138.326 159.785 138.134C160.085 137.943 160.438 137.841 160.799 137.841C161.282 137.841 161.746 138.024 162.088 138.351C162.43 138.678 162.623 139.121 162.623 139.582Z" fill="#1C61B0"/>
<path d="M160.799 141.382C160.433 141.382 160.076 141.279 159.771 141.085C159.467 140.89 159.23 140.615 159.09 140.292C158.95 139.969 158.913 139.614 158.985 139.271C159.056 138.928 159.232 138.614 159.491 138.367C159.75 138.119 160.079 137.951 160.438 137.883C160.797 137.815 161.169 137.85 161.507 137.984C161.845 138.117 162.134 138.344 162.338 138.634C162.541 138.925 162.649 139.266 162.649 139.616C162.647 140.084 162.451 140.532 162.105 140.862C161.758 141.193 161.289 141.38 160.799 141.382ZM160.799 137.891C160.442 137.891 160.093 137.992 159.796 138.181C159.498 138.371 159.267 138.64 159.13 138.956C158.993 139.271 158.958 139.618 159.027 139.952C159.097 140.287 159.269 140.594 159.522 140.835C159.774 141.077 160.096 141.241 160.447 141.308C160.797 141.374 161.161 141.34 161.491 141.209C161.821 141.079 162.103 140.858 162.301 140.574C162.5 140.29 162.606 139.957 162.606 139.616C162.611 139.386 162.567 139.158 162.478 138.945C162.39 138.732 162.257 138.538 162.089 138.374C161.921 138.211 161.72 138.081 161.499 137.992C161.277 137.903 161.039 137.857 160.799 137.857V137.891Z" fill="#263238"/>
<path d="M143.766 126.346V127.175H142.975V126.346C142.265 126.324 141.576 126.111 140.986 125.732L141.421 124.803C141.881 125.109 142.417 125.298 142.975 125.35V124.073C142.107 123.866 141.099 123.584 141.099 122.497C141.099 121.668 141.707 120.996 142.975 120.839V120.009H143.766V120.839C144.339 120.863 144.897 121.023 145.39 121.303L144.99 122.24C144.615 122.028 144.198 121.893 143.766 121.842V123.136C144.634 123.335 145.625 123.617 145.625 124.687C145.625 125.516 145.051 126.205 143.766 126.346ZM142.975 122.978V121.9C142.55 121.991 142.385 122.207 142.385 122.464C142.385 122.721 142.619 122.871 142.975 122.978ZM144.348 124.811C144.348 124.546 144.113 124.405 143.766 124.289V125.342C144.183 125.259 144.348 125.06 144.348 124.795V124.811Z" fill="white"/>
<path d="M148.239 120.955V126.288H146.945V121.942H145.824V120.955H148.239Z" fill="white"/>
<path d="M153.433 124.613C153.433 125.558 152.704 126.379 151.106 126.379C150.353 126.39 149.614 126.191 148.978 125.807L149.49 124.861C149.953 125.179 150.51 125.347 151.079 125.342C151.722 125.342 152.122 125.085 152.122 124.646C152.122 124.206 151.835 123.957 150.819 123.957H149.394L149.681 120.955H153.086V121.942H150.758L150.671 122.954H151.132C152.773 122.954 153.433 123.667 153.433 124.613Z" fill="white"/>
<path d="M155.475 125.624C155.462 125.891 155.388 126.151 155.257 126.387L154.797 127.482H154.015L154.363 126.271C154.229 126.22 154.115 126.13 154.038 126.014C153.96 125.898 153.922 125.762 153.929 125.624C153.926 125.526 153.945 125.429 153.983 125.338C154.022 125.247 154.08 125.165 154.153 125.097C154.226 125.028 154.314 124.975 154.41 124.94C154.505 124.905 154.608 124.89 154.71 124.894C154.812 124.891 154.913 124.907 155.007 124.943C155.101 124.978 155.187 125.032 155.259 125.1C155.331 125.169 155.387 125.251 155.424 125.341C155.461 125.431 155.478 125.527 155.475 125.624Z" fill="white"/>
<path d="M155.943 123.617C155.943 121.859 156.96 120.864 158.332 120.864C159.704 120.864 160.729 121.859 160.729 123.617C160.729 125.376 159.713 126.379 158.332 126.379C156.951 126.379 155.943 125.376 155.943 123.617ZM159.418 123.617C159.418 122.406 158.975 121.909 158.323 121.909C157.672 121.909 157.238 122.406 157.238 123.617C157.238 124.828 157.689 125.334 158.323 125.334C158.957 125.334 159.426 124.795 159.426 123.617H159.418Z" fill="white"/>
<path d="M161.354 123.617C161.354 121.859 162.379 120.864 163.752 120.864C165.124 120.864 166.149 121.859 166.149 123.617C166.149 125.376 165.133 126.379 163.752 126.379C162.371 126.379 161.354 125.376 161.354 123.617ZM164.829 123.617C164.829 122.406 164.377 121.909 163.734 121.909C163.092 121.909 162.649 122.406 162.649 123.617C162.649 124.828 163.092 125.334 163.734 125.334C164.377 125.334 164.846 124.795 164.846 123.617H164.829Z" fill="white"/>
<path d="M166.766 123.617C166.766 121.859 167.782 120.864 169.154 120.864C170.527 120.864 171.551 121.859 171.551 123.617C171.551 125.376 170.535 126.379 169.154 126.379C167.773 126.379 166.766 125.376 166.766 123.617ZM170.24 123.617C170.24 122.406 169.797 121.909 169.146 121.909C168.494 121.909 168.06 122.406 168.06 123.617C168.06 124.828 168.511 125.334 169.146 125.334C169.78 125.334 170.24 124.795 170.24 123.617Z" fill="white"/>
<path d="M63.1278 0H339.89C341.272 0 342.598 0.52428 343.575 1.4575C344.552 2.39072 345.101 3.65643 345.101 4.97621V15.4511H57.9424V4.95133C57.9492 3.64017 58.4977 2.38458 59.4687 1.45744C60.4397 0.530297 61.7546 0.00653956 63.1278 0Z" fill="#263238"/>
<path d="M68.3475 10.1432C69.6235 10.1432 70.6579 9.15548 70.6579 7.93707C70.6579 6.71867 69.6235 5.73096 68.3475 5.73096C67.0715 5.73096 66.0371 6.71867 66.0371 7.93707C66.0371 9.15548 67.0715 10.1432 68.3475 10.1432Z" fill="#F5F5F5"/>
<path d="M75.5487 10.1432C76.8247 10.1432 77.8591 9.15548 77.8591 7.93707C77.8591 6.71867 76.8247 5.73096 75.5487 5.73096C74.2727 5.73096 73.2383 6.71867 73.2383 7.93707C73.2383 9.15548 74.2727 10.1432 75.5487 10.1432Z" fill="#F5F5F5"/>
<path d="M82.7489 10.1432C84.0249 10.1432 85.0593 9.15548 85.0593 7.93707C85.0593 6.71867 84.0249 5.73096 82.7489 5.73096C81.4729 5.73096 80.4385 6.71867 80.4385 7.93707C80.4385 9.15548 81.4729 10.1432 82.7489 10.1432Z" fill="#F5F5F5"/>
<path d="M367.285 341.559C371.2 341.589 375.004 340.313 378.039 337.951C381.075 335.589 383.151 332.289 383.909 328.621C386.671 315.235 390.224 296.507 390.337 275.475C390.406 262.578 387.384 246.248 383.206 234.006C377.126 216.092 364.045 200.309 345.076 195.142C320.434 188.424 311.514 190.995 294.038 199.753C275.034 209.266 269.892 227.123 250.106 235.068C230.902 242.773 207.737 240.144 190.226 250.925C174.826 260.413 167.313 278.635 166.705 296.126C166.249 305.421 167.194 314.73 169.511 323.769C171.899 333.315 180.924 341.501 191.225 341.584L367.285 341.559Z" fill="#1C61B0"/>
<g opacity="0.4">
<path d="M367.285 341.559C371.2 341.589 375.004 340.313 378.039 337.951C381.075 335.589 383.151 332.289 383.909 328.621C386.671 315.235 390.224 296.507 390.337 275.475C390.406 262.578 387.384 246.248 383.206 234.006C377.126 216.092 364.045 200.309 345.076 195.142C320.434 188.424 311.514 190.995 294.038 199.753C275.034 209.266 269.892 227.123 250.106 235.068C230.902 242.773 207.737 240.144 190.226 250.925C174.826 260.413 167.313 278.635 166.705 296.126C166.249 305.421 167.194 314.73 169.511 323.769C171.899 333.315 180.924 341.501 191.225 341.584L367.285 341.559Z" fill="black"/>
</g>
<path d="M354.621 198.311C354.692 198.416 354.753 198.527 354.803 198.642C354.925 198.891 355.09 199.223 355.307 199.646C355.75 200.558 356.376 201.86 357.183 203.519L358.53 206.322C359.016 207.359 359.398 208.512 359.945 209.739C360.493 210.967 360.97 212.285 361.535 213.67C362.1 215.055 362.621 216.565 363.15 218.141C363.68 219.717 364.228 221.384 364.801 223.117C365.113 223.946 365.348 224.875 365.591 225.787C365.834 226.7 366.086 227.62 366.338 228.566L367.111 231.452C367.241 231.933 367.38 232.431 367.511 232.92C367.641 233.409 367.728 233.932 367.832 234.438C368.266 236.478 368.701 238.585 369.152 240.724C370.872 250.104 371.891 259.588 372.201 269.105C372.401 278.616 372.006 288.129 371.02 297.594C370.473 301.948 370.03 306.095 369.283 309.935C368.961 311.859 368.692 313.725 368.353 315.5C368.014 317.275 367.65 318.984 367.32 320.609C366.703 323.877 365.947 326.788 365.339 329.351C365.027 330.636 364.74 331.839 364.471 332.925L363.602 335.911C363.098 337.677 362.734 339.063 362.438 340.058L362.117 341.128C362.091 341.251 362.05 341.37 361.995 341.484C362.01 341.358 362.036 341.233 362.073 341.111C362.134 340.846 362.23 340.489 362.343 340.033C362.595 339.063 362.951 337.669 363.411 335.886C363.646 334.99 363.915 333.987 364.201 332.9C364.488 331.814 364.731 330.603 365.07 329.317C365.652 326.746 366.382 323.835 366.972 320.568C367.296 318.942 367.632 317.242 367.98 315.467C368.301 313.684 368.562 311.818 368.848 309.902C369.526 306.062 369.951 301.915 370.49 297.578C371.449 288.127 371.826 278.631 371.619 269.139C371.314 259.653 370.313 250.2 368.622 240.849C368.188 238.698 367.757 236.608 367.328 234.579L367.016 233.069L366.625 231.593C366.364 230.623 366.112 229.661 365.86 228.715C365.609 227.77 365.365 226.849 365.131 225.937C364.896 225.024 364.662 224.129 364.358 223.274L362.734 218.298C362.23 216.722 361.752 215.213 361.161 213.828C360.571 212.443 360.093 211.116 359.615 209.889C359.138 208.661 358.703 207.5 358.243 206.463L356.984 203.585C356.219 201.927 355.62 200.6 355.194 199.679L354.743 198.659C354.688 198.548 354.648 198.431 354.621 198.311Z" fill="#263238"/>
<path d="M192.701 341.426L176.268 366L144.131 346.626C146.259 343.814 166.766 347.953 166.766 347.953L176.624 331.797L192.701 341.426Z" fill="#455A64"/>
<g opacity="0.6">
<path d="M177.597 352.615C177.845 352.892 177.977 353.246 177.969 353.61C177.961 353.973 177.813 354.322 177.554 354.589C177.278 354.84 176.91 354.98 176.529 354.98C176.147 354.98 175.78 354.84 175.504 354.589C175.239 354.295 175.098 353.917 175.108 353.53C175.118 353.142 175.277 352.772 175.556 352.49C175.876 352.261 176.276 352.159 176.673 352.205C177.069 352.252 177.432 352.443 177.684 352.739" fill="white"/>
</g>
<g opacity="0.6">
<path d="M176.268 366L177.823 363.462L146.45 345.838C146.45 345.838 144.626 345.573 144.148 346.668L176.268 366Z" fill="white"/>
</g>
<path d="M166.366 347.48C166.27 347.638 167.009 348.177 167.46 349.139C167.912 350.101 167.912 350.964 168.094 350.989C168.277 351.014 168.615 350.01 168.051 348.874C167.486 347.738 166.418 347.323 166.366 347.48Z" fill="#263238"/>
<path d="M162.119 346.784C161.989 346.908 162.493 347.572 162.605 348.526C162.718 349.48 162.432 350.243 162.605 350.325C162.779 350.408 163.422 349.629 163.257 348.443C163.092 347.257 162.215 346.643 162.119 346.784Z" fill="#263238"/>
<path d="M157.654 349.479C157.776 349.595 158.523 348.982 158.627 347.912C158.731 346.842 158.253 346.079 158.106 346.17C157.958 346.261 158.106 346.999 157.993 347.829C157.88 348.658 157.507 349.371 157.654 349.479Z" fill="#263238"/>
<path d="M169.041 344.039C169.041 344.213 169.866 344.445 170.717 345.034C171.569 345.623 172.081 346.311 172.246 346.228C172.411 346.145 172.107 345.216 171.091 344.57C170.075 343.923 169.041 343.873 169.041 344.039Z" fill="#263238"/>
<path d="M172.212 340.862C172.169 340.92 172.725 341.384 173.828 341.824C174.472 342.076 175.145 342.252 175.834 342.347C176.243 342.4 176.655 342.428 177.068 342.429C177.31 342.446 177.554 342.423 177.789 342.363C177.962 342.319 178.115 342.221 178.224 342.084C178.332 341.947 178.39 341.78 178.388 341.608C178.379 341.457 178.333 341.309 178.253 341.178C178.173 341.047 178.061 340.936 177.928 340.854C177.726 340.73 177.506 340.635 177.276 340.572C176.208 340.229 175.068 340.147 173.958 340.331C173.322 340.385 172.717 340.619 172.221 341.003C172.221 341.102 172.933 340.845 174.054 340.762C174.704 340.714 175.357 340.744 175.999 340.854C176.375 340.922 176.744 341.019 177.102 341.144C177.502 341.26 177.789 341.434 177.78 341.633C177.771 341.832 177.78 341.733 177.632 341.783C177.458 341.819 177.28 341.836 177.102 341.832C176.703 341.832 176.312 341.832 175.947 341.783C175.291 341.717 174.642 341.592 174.01 341.409C173.426 341.185 172.825 341.002 172.212 340.862Z" fill="#263238"/>
<path d="M172.273 341.202C172.273 341.252 172.977 340.904 173.68 339.975C174.074 339.42 174.368 338.806 174.549 338.158C174.656 337.773 174.726 337.379 174.757 336.981C174.803 336.725 174.779 336.463 174.688 336.219C174.596 335.975 174.441 335.757 174.236 335.587C174.094 335.498 173.928 335.451 173.758 335.451C173.588 335.451 173.422 335.498 173.281 335.587C173.083 335.719 172.905 335.875 172.751 336.052C171.995 336.892 171.617 337.983 171.7 339.087C171.804 340.265 172.334 340.837 172.386 340.796C172.277 340.228 172.199 339.655 172.151 339.079C172.166 338.471 172.32 337.874 172.603 337.329C172.765 337.025 172.973 336.746 173.22 336.5C173.48 336.201 173.784 336.019 173.889 336.126C173.993 336.234 174.158 336.632 174.123 336.956C174.107 337.316 174.055 337.675 173.967 338.026C173.821 338.628 173.584 339.206 173.263 339.743C172.742 340.663 172.203 341.128 172.273 341.202Z" fill="#263238"/>
<path d="M215.693 264.958L205.852 292.535L169.832 281.015C171.196 277.797 192.146 277.158 192.146 277.158L197.687 259.228L215.693 264.958Z" fill="#455A64"/>
<g opacity="0.6">
<path d="M203.802 279.232C204.112 279.443 204.331 279.755 204.415 280.11C204.5 280.465 204.446 280.837 204.262 281.156C204.054 281.461 203.73 281.679 203.357 281.762C202.985 281.845 202.594 281.789 202.265 281.604C201.934 281.38 201.703 281.048 201.615 280.671C201.526 280.294 201.588 279.899 201.787 279.563C202.039 279.265 202.404 279.072 202.802 279.026C203.201 278.979 203.603 279.083 203.924 279.314" fill="white"/>
</g>
<g opacity="0.6">
<path d="M205.852 292.535L206.72 289.715L171.864 279.721C171.864 279.721 170.023 279.87 169.832 281.015L205.852 292.535Z" fill="white"/>
</g>
<path d="M191.616 276.794C191.563 276.968 192.423 277.325 193.092 278.137C193.761 278.95 193.961 279.796 194.169 279.796C194.378 279.796 194.43 278.726 193.596 277.747C192.762 276.769 191.633 276.628 191.616 276.794Z" fill="#263238"/>
<path d="M187.316 277.075C187.22 277.224 187.881 277.755 188.228 278.659C188.575 279.563 188.489 280.368 188.662 280.418C188.836 280.467 189.288 279.547 188.836 278.435C188.384 277.324 187.377 276.918 187.316 277.075Z" fill="#263238"/>
<path d="M183.66 280.716C183.807 280.808 184.346 280.045 184.216 278.983C184.085 277.921 183.347 277.324 183.269 277.399C183.191 277.473 183.486 278.17 183.573 279.058C183.66 279.945 183.486 280.642 183.66 280.716Z" fill="#263238"/>
<path d="M193.362 272.846C193.362 273.02 194.23 273.045 195.238 273.426C196.245 273.808 196.879 274.355 197.018 274.256C197.157 274.156 196.628 273.302 195.481 272.862C194.334 272.423 193.318 272.68 193.362 272.846Z" fill="#263238"/>
<path d="M195.646 269.039C196.185 269.376 196.808 269.571 197.452 269.603C198.142 269.705 198.843 269.722 199.537 269.653C199.946 269.615 200.352 269.552 200.753 269.462C200.996 269.419 201.23 269.341 201.448 269.23C201.596 269.149 201.714 269.025 201.785 268.876C201.855 268.727 201.874 268.56 201.838 268.4C201.788 268.257 201.705 268.126 201.596 268.017C201.486 267.908 201.352 267.824 201.204 267.77C200.974 267.697 200.734 267.655 200.492 267.646C200.076 267.612 199.658 267.612 199.241 267.646C198.543 267.716 197.86 267.889 197.218 268.16C196.123 268.633 195.611 269.163 195.663 269.221C195.715 269.279 196.314 268.906 197.4 268.566C198.019 268.374 198.661 268.254 199.311 268.21C199.69 268.181 200.07 268.181 200.449 268.21C200.866 268.21 201.196 268.334 201.23 268.525C201.265 268.715 201.23 268.624 201.126 268.707C200.967 268.785 200.798 268.841 200.622 268.873C200.248 268.966 199.868 269.038 199.485 269.089C198.834 269.175 198.177 269.203 197.522 269.172C196.901 269.083 196.273 269.038 195.646 269.039Z" fill="#263238"/>
<path d="M195.794 269.354C195.846 269.395 196.41 268.906 196.853 267.836C197.107 267.208 197.248 266.544 197.27 265.871C197.28 265.473 197.248 265.076 197.175 264.685C197.155 264.423 197.064 264.171 196.912 263.953C196.76 263.735 196.551 263.559 196.306 263.441C196.145 263.391 195.972 263.387 195.808 263.429C195.644 263.472 195.497 263.56 195.385 263.681C195.224 263.854 195.087 264.047 194.977 264.253C194.779 264.618 194.642 265.01 194.569 265.415C194.44 266.09 194.49 266.786 194.716 267.438C195.107 268.558 195.767 268.989 195.802 268.939C195.553 268.415 195.336 267.878 195.151 267.33C195.016 266.735 195.016 266.118 195.151 265.522C195.23 265.181 195.359 264.852 195.533 264.544C195.715 264.195 195.967 263.947 196.098 264.029C196.228 264.112 196.48 264.452 196.532 264.792C196.603 265.148 196.641 265.509 196.645 265.871C196.651 266.49 196.566 267.107 196.393 267.704C196.115 268.724 195.707 269.296 195.794 269.354Z" fill="#263238"/>
<path d="M275.338 257.063C275.338 257.063 248.23 215.52 240.795 203.983C232.178 190.656 214.512 192.372 210.273 204.382C211.22 201.678 206.972 213.588 192.667 258.067L216.77 264.652L232.274 252.078L238.423 268.873L275.338 257.063Z" fill="#263238"/>
<path d="M271.776 210.776L261.909 243.005L225.403 246.746V252.933L279.046 253.638L286.351 211.672L271.776 210.776Z" fill="#FFBE9D"/>
<path d="M280.471 254.89H230.641C226.761 254.89 222.925 255.675 219.387 257.195C215.849 258.715 212.689 260.934 210.116 263.706C208.391 265.601 207.111 267.826 206.364 270.233L169.884 335.223L193.188 347.514L236.755 288.181L261.075 288.463L315.292 256.142L280.471 254.89Z" fill="#263238"/>
<path d="M230.988 275.475C231.493 275.954 231.926 276.498 232.274 277.092C233.191 278.477 233.974 279.94 234.61 281.463C235.242 282.983 235.731 284.554 236.069 286.157C236.242 286.816 236.324 287.493 236.313 288.172C236.165 288.172 235.678 285.137 234.185 281.62C232.691 278.104 230.867 275.549 230.988 275.475Z" fill="#455A64"/>
<path d="M179.508 216.805L199.772 254.89H263.751L261.145 249.914L242.61 249.383L227.566 217.286C227.108 216.3 226.36 215.462 225.414 214.874C224.467 214.285 223.362 213.971 222.233 213.969H181.323C180.973 213.967 180.628 214.051 180.322 214.214C180.016 214.377 179.759 214.612 179.577 214.897C179.394 215.183 179.292 215.508 179.28 215.843C179.267 216.177 179.346 216.509 179.508 216.805Z" fill="#E0E0E0"/>
<path d="M212.245 233.658C212.245 234.15 212.092 234.631 211.806 235.04C211.519 235.449 211.112 235.768 210.636 235.957C210.16 236.145 209.636 236.194 209.131 236.098C208.625 236.002 208.161 235.765 207.796 235.417C207.432 235.069 207.184 234.626 207.083 234.143C206.983 233.661 207.034 233.16 207.232 232.706C207.429 232.251 207.763 231.863 208.191 231.589C208.62 231.316 209.124 231.17 209.639 231.17C210.33 231.17 210.993 231.432 211.481 231.899C211.97 232.365 212.245 232.998 212.245 233.658Z" fill="#263238"/>
<path d="M341.932 189.643C339.804 180.446 325.429 176.954 318.949 176.937C309.907 176.937 310.724 176.39 301.838 177.916H300.666C273.653 176.871 270.544 212.302 270.544 212.302L282.86 213.255L279.603 237.664L270.179 254.939L322.059 254.865L324.96 214.533L346.674 213.985C346.674 213.985 344.086 198.94 341.932 189.643Z" fill="#1C61B0"/>
<path d="M284.353 197.298C284.492 197.298 283.58 205.915 282.312 216.515C281.044 227.114 279.915 235.681 279.776 235.673C279.637 235.665 280.549 227.056 281.817 216.457C283.085 205.857 284.214 197.282 284.353 197.298Z" fill="#263238"/>
<g opacity="0.2">
<path d="M323.978 197.298C321.763 207.4 318.879 217.775 316.673 227.877C316.196 230.025 315.692 232.248 314.319 233.998C313.413 235.064 312.352 235.999 311.166 236.776C306.824 239.895 302.211 242.822 297.087 244.605C304.489 244.008 311.822 242.79 319.001 240.965C320.255 240.76 321.409 240.179 322.293 239.306C322.906 238.411 323.249 237.372 323.283 236.303C324.873 223.357 324.412 210.303 323.978 197.265" fill="black"/>
</g>
<path d="M252.321 242.234L268.389 240.392L279.724 247.484L323.109 237.589L324.377 214.5L343.833 214.035L343.373 241.139C343.323 243.211 342.846 245.254 341.969 247.15C341.091 249.046 339.83 250.758 338.258 252.188C336.686 253.618 334.835 254.737 332.809 255.483C330.783 256.228 328.623 256.585 326.453 256.532L262.978 254.873L260.277 249.715L246.675 249.283L252.321 242.234Z" fill="#FFBE9D"/>
<path d="M323.11 237.589C322.844 237.69 322.571 237.77 322.293 237.83L319.939 238.41L311.254 240.484L282.521 247.119L279.846 247.724H279.742L279.646 247.666L268.355 240.558H268.502L252.416 242.333L252.521 242.275L248.273 247.426L247.127 248.786C247.002 248.95 246.86 249.1 246.701 249.234C246.805 249.059 246.924 248.892 247.057 248.736L248.134 247.326L252.269 242.093L252.312 242.043H252.373L268.389 240.169H268.476H268.546L279.889 247.251H279.69L282.365 246.638L311.141 240.127L319.87 238.203L322.25 237.705C322.533 237.644 322.82 237.605 323.11 237.589Z" fill="#EB996E"/>
<path d="M261.658 246.638C259.586 246.877 257.498 246.958 255.413 246.878H254.266L254.431 246.82C253.172 247.919 251.818 248.915 250.384 249.798C251.521 248.589 252.768 247.479 254.11 246.48L254.179 246.422H255.413C257.497 246.334 259.586 246.406 261.658 246.638Z" fill="#EB996E"/>
<path d="M330.657 241.429C329.832 240.189 328.757 239.118 327.495 238.278C325.341 236.951 323.152 237.075 323.152 236.926C323.599 236.769 324.083 236.731 324.551 236.818C325.691 236.93 326.789 237.291 327.759 237.873C328.729 238.456 329.545 239.244 330.144 240.177C330.429 240.543 330.606 240.976 330.657 241.429Z" fill="#EB996E"/>
<path d="M346.682 214.143L341.948 214.309C337.953 214.425 332.394 214.558 326.314 214.674L324.36 214.715H324.108V214.483C323.891 209.076 323.986 204.257 324.108 200.798C324.16 199.065 324.23 197.68 324.29 196.718C324.295 196.22 324.344 195.723 324.438 195.233C324.493 195.729 324.508 196.228 324.481 196.726C324.481 197.763 324.481 199.131 324.481 200.807C324.481 204.265 324.421 209.1 324.655 214.458L324.395 214.234H326.358C332.438 214.118 337.996 214.043 341.992 214.01H346.734C347.803 213.961 344.945 214.077 346.682 214.143Z" fill="#263238"/>
<path d="M313.259 214.284C313.085 214.697 312.876 215.097 312.634 215.478C312.426 215.859 312.165 216.307 311.818 216.83C311.47 217.352 311.114 217.95 310.645 218.572C309.58 220.054 308.419 221.472 307.171 222.818C305.629 224.458 303.972 225.996 302.211 227.421C300.43 228.822 298.553 230.108 296.591 231.269C294.983 232.197 293.315 233.028 291.597 233.757C290.868 234.089 290.181 234.33 289.591 234.587C289 234.844 288.479 234.993 288.053 235.117C287.622 235.285 287.174 235.41 286.716 235.491C287.126 235.281 287.553 235.104 287.993 234.96C288.41 234.811 288.922 234.62 289.495 234.371C290.068 234.122 290.746 233.865 291.458 233.542C293.143 232.772 294.781 231.914 296.366 230.971C300.257 228.661 303.789 225.842 306.858 222.594C308.111 221.274 309.288 219.889 310.384 218.447C310.862 217.833 311.253 217.253 311.609 216.747C311.965 216.241 312.252 215.81 312.478 215.445C312.704 215.037 312.965 214.649 313.259 214.284Z" fill="#263238"/>
<path d="M340.984 187.935C340.773 187.955 340.561 187.955 340.35 187.935L338.535 187.877L331.873 187.628C326.244 187.446 318.471 187.305 309.889 187.412C301.308 187.52 293.534 187.885 287.914 188.242L281.261 188.657L279.454 188.764C279.243 188.783 279.031 188.783 278.82 188.764C279.024 188.71 279.234 188.679 279.446 188.673L281.244 188.482C282.816 188.325 285.083 188.134 287.888 187.927C293.508 187.512 301.282 187.097 309.88 186.998C318.479 186.898 326.262 187.081 331.89 187.346C334.696 187.471 336.971 187.603 338.543 187.719L340.35 187.86C340.563 187.866 340.776 187.891 340.984 187.935Z" fill="#FAFAFA"/>
<path d="M283.259 204.804C279.466 205.092 275.656 205.092 271.863 204.804C275.656 204.517 279.466 204.517 283.259 204.804Z" fill="#FAFAFA"/>
<path d="M323.891 206.679C323.763 206.726 323.628 206.754 323.491 206.762L322.319 206.928C321.302 207.06 319.835 207.226 317.976 207.409C314.328 207.765 309.29 208.155 303.679 208.362C298.068 208.57 293.022 208.562 289.356 208.47C287.524 208.429 286.038 208.371 285.013 208.313L283.841 208.238C283.703 208.238 283.565 208.218 283.433 208.18C283.568 208.16 283.706 208.16 283.841 208.18H285.022H289.365C293.03 208.18 298.094 208.18 303.67 207.948C309.247 207.716 314.302 207.4 317.95 207.118L322.293 206.778L323.474 206.695C323.611 206.667 323.752 206.661 323.891 206.679Z" fill="#FAFAFA"/>
<path d="M344.824 203.286C344.824 203.402 340.203 203.9 334.479 204.389C328.755 204.879 324.108 205.169 324.056 205.053C324.004 204.937 328.677 204.439 334.401 203.958C340.125 203.477 344.772 203.17 344.824 203.286Z" fill="#FAFAFA"/>
<path d="M299.736 228.532C298.836 228.683 297.923 228.752 297.009 228.74C295.315 228.806 292.978 228.839 290.39 228.781C287.802 228.723 285.474 228.582 283.789 228.441C282.874 228.408 281.964 228.297 281.07 228.109C281.981 228.04 282.896 228.04 283.806 228.109C285.5 228.176 287.828 228.259 290.407 228.317C292.987 228.375 295.315 228.4 297 228.416C297.914 228.387 298.828 228.426 299.736 228.532Z" fill="#FAFAFA"/>
<path d="M323.595 229.246C323.277 229.348 322.948 229.415 322.614 229.445C321.98 229.553 321.059 229.677 319.913 229.818C317.628 230.084 314.449 230.366 310.932 230.498C307.414 230.631 304.226 230.581 301.925 230.498C300.769 230.449 299.84 230.39 299.197 230.332C298.863 230.328 298.53 230.284 298.207 230.2C298.539 230.164 298.874 230.164 299.206 230.2H301.933C304.235 230.2 307.414 230.2 310.914 230.092C314.415 229.984 317.585 229.727 319.878 229.536L322.597 229.304C322.926 229.244 323.261 229.225 323.595 229.246Z" fill="#FAFAFA"/>
<path d="M285.952 245.12C284.416 245.034 282.91 244.674 281.513 244.058C280.057 243.569 278.709 242.826 277.535 241.869C277.613 241.761 279.359 242.773 281.678 243.66C283.997 244.548 285.978 244.995 285.952 245.12Z" fill="#FAFAFA"/>
<path d="M307.614 132.077H306.745C302.805 132.059 299 133.45 296.081 135.977C293.161 138.504 291.339 141.983 290.972 145.729C290.364 152.886 289.799 160.798 289.86 164.638C289.982 172.592 298.546 173.811 298.546 173.811L298.224 180.869C298.136 183.401 299.084 185.866 300.868 187.742C302.652 189.617 305.131 190.754 307.779 190.913C309.123 190.988 310.469 190.807 311.74 190.382C313.011 189.956 314.18 189.294 315.181 188.434C316.182 187.574 316.994 186.533 317.571 185.371C318.148 184.209 318.477 182.95 318.54 181.665L320.277 148.084C321.05 139.824 316.508 132.542 307.614 132.077Z" fill="#FFBE9D"/>
<path d="M298.433 173.794C302.392 173.792 306.271 172.729 309.629 170.726C309.629 170.726 307.023 176.457 298.467 175.752L298.433 173.794Z" fill="#EB996E"/>
<path d="M293.969 150.663C293.971 150.963 294.096 151.251 294.316 151.464C294.537 151.678 294.836 151.801 295.15 151.808C295.304 151.82 295.458 151.803 295.605 151.758C295.752 151.713 295.888 151.641 296.005 151.545C296.122 151.449 296.218 151.332 296.288 151.201C296.357 151.069 296.398 150.926 296.409 150.779C296.394 150.487 296.264 150.211 296.045 150.007C295.826 149.802 295.534 149.684 295.228 149.676C294.925 149.651 294.623 149.74 294.387 149.924C294.152 150.109 294.002 150.374 293.969 150.663Z" fill="#263238"/>
<path d="M292.787 149.61C292.935 149.759 293.856 149.121 295.176 149.121C296.496 149.121 297.452 149.734 297.591 149.585C297.73 149.436 297.513 149.253 297.087 148.963C296.518 148.603 295.85 148.411 295.167 148.411C294.485 148.411 293.817 148.603 293.248 148.963C292.848 149.278 292.709 149.544 292.787 149.61Z" fill="#263238"/>
<path d="M306.232 151.037C306.237 151.336 306.362 151.622 306.582 151.835C306.802 152.049 307.1 152.173 307.414 152.181C307.567 152.193 307.722 152.177 307.869 152.132C308.016 152.086 308.151 152.014 308.269 151.918C308.386 151.823 308.482 151.706 308.551 151.574C308.621 151.443 308.662 151.299 308.673 151.153C308.669 150.85 308.541 150.562 308.317 150.348C308.093 150.134 307.791 150.012 307.474 150.008C307.167 149.988 306.864 150.084 306.631 150.277C306.398 150.47 306.255 150.743 306.232 151.037Z" fill="#263238"/>
<path d="M305.051 149.817C305.199 149.967 306.128 149.328 307.44 149.328C308.751 149.328 309.715 149.934 309.863 149.784C310.011 149.635 309.776 149.452 309.351 149.17C308.779 148.802 308.103 148.611 307.414 148.623C306.732 148.618 306.066 148.818 305.511 149.195C305.112 149.486 304.973 149.751 305.051 149.817Z" fill="#263238"/>
<path d="M300.952 158.882C300.257 158.683 299.539 158.566 298.815 158.534C298.485 158.534 298.163 158.443 298.103 158.227C298.075 157.902 298.153 157.578 298.329 157.298L299.319 154.926C300.682 151.542 301.673 148.756 301.534 148.706C301.395 148.656 300.152 151.36 298.78 154.744C298.45 155.573 298.137 156.402 297.833 157.132C297.627 157.51 297.569 157.945 297.668 158.36C297.72 158.469 297.795 158.566 297.89 158.645C297.984 158.724 298.095 158.782 298.216 158.816C298.403 158.862 298.595 158.887 298.789 158.89C299.507 158.975 300.234 158.972 300.952 158.882Z" fill="#263238"/>
<path d="M304.817 159.72C304.608 159.72 304.608 161.039 303.384 161.984C302.159 162.93 300.648 162.813 300.639 162.971C300.63 163.129 300.978 163.228 301.62 163.236C302.453 163.251 303.264 162.987 303.913 162.49C304.529 162.023 304.928 161.344 305.025 160.599C305.077 160.043 304.921 159.712 304.817 159.72Z" fill="#263238"/>
<path d="M305.347 145.032C305.477 145.363 306.789 145.206 308.335 145.372C309.881 145.538 311.123 145.927 311.323 145.629C311.418 145.488 311.201 145.181 310.697 144.858C310.023 144.462 309.263 144.215 308.476 144.136C307.688 144.057 306.892 144.148 306.146 144.401C305.581 144.609 305.295 144.874 305.347 145.032Z" fill="#263238"/>
<path d="M293.256 146.077C293.49 146.351 294.394 146.077 295.479 146.077C296.565 146.077 297.494 146.259 297.703 145.969C297.798 145.828 297.651 145.546 297.251 145.289C296.707 144.973 296.078 144.814 295.441 144.834C294.804 144.853 294.186 145.048 293.664 145.397C293.282 145.654 293.16 145.944 293.256 146.077Z" fill="#263238"/>
<path d="M319.027 153.973C319.174 153.915 324.898 152.314 324.724 157.779C324.551 163.245 318.714 161.926 318.714 161.777C318.714 161.628 319.027 153.973 319.027 153.973Z" fill="#FFBE9D"/>
<path d="M320.052 159.761C320.052 159.761 320.147 159.836 320.321 159.911C320.564 160.002 320.834 160.002 321.077 159.911C321.458 159.704 321.774 159.404 321.991 159.04C322.208 158.677 322.318 158.264 322.31 157.846C322.344 157.377 322.261 156.908 322.067 156.477C322.017 156.304 321.924 156.146 321.795 156.016C321.666 155.886 321.506 155.788 321.328 155.731C321.214 155.699 321.091 155.706 320.981 155.75C320.87 155.793 320.779 155.871 320.72 155.971C320.634 156.12 320.668 156.237 320.634 156.245C320.599 156.253 320.512 156.145 320.573 155.921C320.607 155.788 320.69 155.67 320.807 155.59C320.977 155.493 321.176 155.455 321.372 155.482C321.603 155.528 321.818 155.627 321.998 155.772C322.178 155.917 322.318 156.102 322.405 156.311C322.638 156.788 322.743 157.312 322.709 157.837C322.715 158.326 322.569 158.805 322.291 159.215C322.013 159.625 321.615 159.947 321.146 160.143C320.989 160.182 320.825 160.187 320.666 160.159C320.507 160.13 320.356 160.068 320.225 159.977C320.052 159.894 320.026 159.77 320.052 159.761Z" fill="#EB996E"/>
<path d="M315.196 137.816L290.815 138.314C291.658 136.765 292.891 135.439 294.403 134.458C297.597 132.172 301.452 130.884 305.442 130.767C309.412 130.7 317.507 135.204 320.382 137.75C322.692 139.79 322.675 141.557 322.675 141.557C323.039 144.501 321.276 147.835 320.573 150.68C320.208 152.173 319.504 156.668 319.504 156.668C318.158 156.668 317.663 155.673 317.871 154.437L318.115 149.593C316.78 148.624 315.821 147.26 315.387 145.713C314.953 144.167 315.069 142.527 315.717 141.051C316.065 140.653 316.803 138.638 315.196 137.816Z" fill="#263238"/>
<path d="M310.081 155.001C310.1 155.004 310.119 155.004 310.138 155C310.157 154.996 310.175 154.988 310.19 154.978C310.206 154.967 310.219 154.953 310.228 154.937C310.238 154.921 310.244 154.903 310.246 154.885C310.251 154.867 310.252 154.848 310.25 154.83C310.248 154.811 310.241 154.793 310.232 154.777C310.222 154.761 310.209 154.747 310.194 154.735C310.178 154.724 310.16 154.715 310.142 154.711C310.101 154.706 310.061 154.716 310.028 154.739C309.996 154.763 309.974 154.797 309.968 154.835C309.96 154.871 309.968 154.909 309.989 154.94C310.01 154.971 310.043 154.993 310.081 155.001Z" fill="#EB996E"/>
<path d="M307.561 154.478C307.583 154.481 307.605 154.479 307.626 154.473C307.647 154.467 307.666 154.457 307.683 154.444C307.7 154.431 307.714 154.415 307.725 154.396C307.735 154.378 307.742 154.358 307.744 154.337C307.755 154.299 307.75 154.258 307.731 154.222C307.712 154.187 307.679 154.16 307.64 154.146C307.618 154.144 307.596 154.146 307.575 154.152C307.554 154.158 307.535 154.167 307.518 154.181C307.501 154.194 307.487 154.21 307.476 154.228C307.466 154.247 307.459 154.267 307.457 154.287C307.446 154.326 307.451 154.367 307.47 154.402C307.489 154.438 307.522 154.465 307.561 154.478Z" fill="#EB996E"/>
<path d="M305.877 154.445C305.955 154.445 306.033 154.362 306.05 154.238C306.068 154.113 306.05 154.014 305.929 154.005C305.807 153.997 305.772 154.088 305.764 154.204C305.755 154.321 305.799 154.437 305.877 154.445Z" fill="#EB996E"/>
<path d="M308.847 156.469C308.925 156.469 308.995 156.427 308.986 156.386C308.977 156.344 308.925 156.294 308.847 156.294C308.769 156.294 308.699 156.336 308.699 156.386C308.699 156.435 308.769 156.469 308.847 156.469Z" fill="#EB996E"/>
<path d="M306.545 155.979C306.585 155.979 306.623 155.965 306.652 155.938C306.682 155.912 306.699 155.876 306.701 155.838C306.706 155.8 306.695 155.761 306.671 155.73C306.647 155.699 306.611 155.679 306.571 155.672C306.531 155.672 306.492 155.687 306.463 155.713C306.434 155.739 306.417 155.775 306.415 155.813C306.411 155.833 306.411 155.852 306.416 155.871C306.421 155.89 306.429 155.908 306.442 155.924C306.454 155.939 306.469 155.952 306.487 155.962C306.505 155.971 306.525 155.977 306.545 155.979Z" fill="#EB996E"/>
<path d="M294.558 154.652C294.589 154.66 294.621 154.659 294.65 154.649C294.68 154.639 294.706 154.621 294.724 154.597C294.743 154.573 294.754 154.544 294.755 154.514C294.756 154.485 294.748 154.455 294.732 154.43C294.715 154.404 294.691 154.384 294.662 154.372C294.634 154.36 294.602 154.356 294.571 154.361C294.54 154.366 294.512 154.38 294.49 154.401C294.467 154.422 294.452 154.449 294.446 154.478C294.438 154.516 294.445 154.554 294.466 154.587C294.487 154.619 294.52 154.643 294.558 154.652Z" fill="#EB996E"/>
<path d="M292.848 154.528C292.926 154.528 292.996 154.462 293.013 154.37C293.009 154.344 292.998 154.319 292.981 154.299C292.963 154.279 292.94 154.263 292.914 154.255C292.888 154.246 292.86 154.245 292.833 154.251C292.806 154.257 292.782 154.27 292.762 154.288C292.742 154.307 292.729 154.331 292.723 154.356C292.716 154.382 292.718 154.409 292.727 154.434C292.736 154.459 292.752 154.481 292.773 154.497C292.795 154.514 292.82 154.525 292.848 154.528Z" fill="#EB996E"/>
<path d="M296.07 154.71C296.105 154.716 296.14 154.71 296.17 154.694C296.2 154.677 296.223 154.651 296.235 154.619C296.239 154.603 296.239 154.586 296.235 154.569C296.231 154.553 296.224 154.537 296.213 154.524C296.202 154.51 296.189 154.499 296.173 154.491C296.157 154.483 296.14 154.479 296.122 154.478C296.088 154.47 296.051 154.473 296.019 154.489C295.987 154.504 295.962 154.53 295.949 154.561C295.946 154.596 295.957 154.631 295.979 154.658C296.002 154.686 296.034 154.704 296.07 154.71Z" fill="#EB996E"/>
<path d="M294.802 156.311C294.842 156.322 294.884 156.319 294.921 156.302C294.958 156.285 294.987 156.256 295.002 156.22C295.013 156.203 295.019 156.185 295.022 156.165C295.025 156.146 295.023 156.126 295.017 156.108C295.012 156.089 295.002 156.072 294.989 156.057C294.976 156.042 294.96 156.029 294.941 156.021C294.922 156.014 294.901 156.011 294.881 156.012C294.86 156.013 294.84 156.018 294.822 156.027C294.803 156.035 294.786 156.047 294.773 156.062C294.759 156.076 294.748 156.093 294.742 156.112C294.723 156.146 294.719 156.186 294.73 156.223C294.741 156.26 294.767 156.292 294.802 156.311Z" fill="#EB996E"/>
<path d="M293.343 156.029C293.36 156.027 293.376 156.022 293.391 156.013C293.406 156.005 293.418 155.994 293.428 155.981C293.438 155.967 293.445 155.952 293.448 155.936C293.451 155.92 293.451 155.904 293.447 155.888C293.434 155.857 293.408 155.832 293.376 155.818C293.344 155.804 293.307 155.802 293.274 155.813C293.241 155.819 293.211 155.838 293.192 155.864C293.172 155.89 293.164 155.923 293.169 155.954C293.175 155.971 293.184 155.985 293.196 155.998C293.208 156.011 293.223 156.021 293.239 156.028C293.256 156.035 293.273 156.038 293.291 156.039C293.309 156.039 293.327 156.036 293.343 156.029Z" fill="#EB996E"/>
<path d="M320.547 138.065C320.82 137.063 320.838 136.013 320.599 135.003C320.361 133.993 319.872 133.052 319.175 132.259C318.468 131.446 317.575 130.798 316.564 130.367C315.554 129.935 314.453 129.732 313.346 129.771C312.219 129.931 311.081 130.009 309.942 130.004C307.831 129.788 306.207 128.22 304.252 127.457C302.714 126.892 301.023 126.824 299.439 127.264C297.856 127.705 296.468 128.629 295.489 129.896C294.742 130.924 294.255 132.201 293.126 132.848C292.145 133.412 290.902 133.363 289.799 133.678C288.709 134.018 287.764 134.688 287.106 135.585C286.448 136.482 286.113 137.559 286.151 138.654C286.26 139.745 286.682 140.787 287.37 141.665C288.058 142.542 288.985 143.222 290.051 143.63C291.139 144.032 292.305 144.201 293.468 144.125C294.631 144.049 295.763 143.73 296.783 143.191C298.624 142.237 300.257 140.62 302.376 140.702C304.496 140.785 306.459 142.676 308.595 142.278C309.684 141.957 310.656 141.351 311.401 140.528C312.148 139.703 313.175 139.154 314.302 138.977C315.448 138.911 316.039 140.371 315.631 141.366L320.547 138.115" fill="#263238"/>
<path d="M291.293 135.436V135.519C291.293 135.569 291.371 135.643 291.441 135.735C291.634 136.011 291.868 136.26 292.135 136.473C292.987 137.165 294.085 137.517 295.202 137.455C296.318 137.393 297.367 136.923 298.129 136.141C298.733 135.373 299.295 134.576 299.814 133.753C300.122 133.339 300.527 132.998 300.995 132.757C301.499 132.529 302.052 132.415 302.61 132.426C303.19 132.442 303.758 132.587 304.269 132.848C304.788 133.116 305.214 133.522 305.494 134.018C305.756 134.54 306.046 135.05 306.363 135.544C306.532 135.796 306.761 136.007 307.031 136.16C307.301 136.313 307.604 136.403 307.917 136.423C308.531 136.441 309.136 136.282 309.655 135.967C310.133 135.695 310.569 135.36 310.949 134.972C311.585 134.237 312.421 133.684 313.363 133.371C313.789 133.295 314.226 133.304 314.647 133.397C315.068 133.489 315.465 133.664 315.813 133.91C316.395 134.303 316.859 134.835 317.159 135.453C317.388 135.918 317.558 136.408 317.663 136.912C317.75 137.327 317.793 137.659 317.828 137.874C317.829 137.99 317.846 138.104 317.88 138.214V138.123C317.88 138.074 317.88 137.982 317.88 137.874C317.858 137.546 317.817 137.22 317.758 136.896C317.669 136.381 317.512 135.879 317.289 135.403C316.986 134.762 316.517 134.206 315.926 133.786C315.559 133.519 315.137 133.329 314.688 133.228C314.239 133.126 313.773 133.116 313.32 133.197C312.333 133.511 311.46 134.087 310.801 134.856C310.427 135.227 310.004 135.551 309.542 135.818C309.07 136.097 308.525 136.244 307.97 136.241C307.687 136.217 307.414 136.129 307.174 135.985C306.934 135.841 306.733 135.644 306.589 135.411C306.259 134.963 306.041 134.416 305.72 133.902C305.418 133.373 304.963 132.938 304.408 132.649C303.873 132.375 303.278 132.224 302.671 132.21C302.071 132.194 301.475 132.316 300.934 132.567C300.436 132.822 300.008 133.186 299.683 133.628C299.041 134.457 298.658 135.361 298.033 136.008C297.436 136.616 296.661 137.038 295.81 137.219C295.101 137.368 294.365 137.336 293.673 137.128C293.152 136.971 292.666 136.724 292.24 136.398C291.882 136.117 291.564 135.794 291.293 135.436Z" fill="#455A64"/>
<path d="M286.872 135.519C286.811 135.655 286.779 135.802 286.777 135.95C286.74 136.36 286.781 136.773 286.898 137.169C287.078 137.759 287.389 138.305 287.81 138.77C288.345 139.335 289.003 139.779 289.738 140.072C291.091 140.578 292.559 140.732 293.995 140.52C294.425 140.463 294.851 140.383 295.271 140.28C295.429 140.257 295.582 140.21 295.723 140.139C295.723 140.139 295.054 140.255 293.986 140.363C292.584 140.53 291.16 140.362 289.843 139.873C289.138 139.593 288.504 139.171 287.984 138.637C287.574 138.2 287.264 137.686 287.072 137.128C286.91 136.607 286.842 136.062 286.872 135.519Z" fill="#455A64"/>
<path d="M350.461 216.026C350.313 226.692 343.512 236.52 334.618 242.997C325.724 249.474 314.954 253.065 304.218 256.018C293.482 258.971 282.504 261.417 272.393 265.97C258.409 272.29 245.468 280.957 237.546 293.663C229.625 306.369 226.828 323.064 227.714 337.81L346.561 326.481L353.067 261.998L350.461 216.026Z" fill="#1C61B0"/>
<path d="M243.991 284.623C243.905 284.786 243.803 284.942 243.687 285.087L242.74 286.364C242.323 286.912 241.802 287.575 241.272 288.388C240.743 289.201 240.065 290.088 239.457 291.158C238.849 292.228 238.102 293.331 237.451 294.616C236.799 295.902 236.096 297.254 235.418 298.714C234.006 301.911 232.845 305.204 231.944 308.566C231.115 311.939 230.523 315.361 230.172 318.809C230.016 320.401 229.877 321.919 229.833 323.337C229.79 324.756 229.747 326.083 229.729 327.294C229.712 328.504 229.729 329.599 229.781 330.561C229.833 331.523 229.842 332.353 229.886 333.049C229.929 333.746 229.938 334.21 229.955 334.609C229.978 334.79 229.978 334.974 229.955 335.156C229.905 334.98 229.876 334.799 229.868 334.617C229.825 334.219 229.773 333.705 229.712 333.066C229.651 332.427 229.564 331.565 229.529 330.578C229.495 329.591 229.399 328.521 229.408 327.302C229.416 326.083 229.408 324.764 229.451 323.329C229.495 321.894 229.616 320.385 229.755 318.776C230.104 315.304 230.708 311.859 231.562 308.467C232.453 305.086 233.615 301.775 235.036 298.564C235.731 297.105 236.391 295.711 237.121 294.459C237.85 293.207 238.528 292.045 239.179 291C239.831 289.955 240.508 289.068 241.064 288.263C241.62 287.459 242.158 286.804 242.601 286.265L243.609 285.046C243.72 284.892 243.848 284.75 243.991 284.623Z" fill="#263238"/>
<g opacity="0.4">
<path d="M350.461 216.026C350.313 226.692 343.512 236.52 334.618 242.997C325.724 249.474 314.954 253.065 304.218 256.018C293.482 258.971 282.504 261.417 272.393 265.97C258.409 272.29 245.468 280.957 237.546 293.663C229.625 306.369 226.828 323.064 227.714 337.81L346.561 326.481L353.067 261.998L350.461 216.026Z" fill="black"/>
</g>
<path d="M76.2514 264.004C71.041 259.032 64.5662 255.439 57.4626 253.578C50.3589 251.717 42.8706 251.652 35.7324 253.388C47.8257 261.256 62.0962 265.511 76.7291 265.613" fill="#1C61B0"/>
<path d="M62.537 217.535C64.2741 206.131 59.5838 193.309 50.6462 185.023C50.3509 196.319 55.3452 209.034 62.537 217.535Z" fill="#1C61B0"/>
<path d="M69.6507 239.073C63.1938 227.363 52.9146 217.981 40.3711 212.351C42.3327 218.914 46.0896 224.86 51.2554 229.577C56.4213 234.294 62.8096 237.612 69.7636 239.189" fill="#1C61B0"/>
<path d="M71.1361 243.229C63.9183 243.42 56.6223 243.179 49.6476 241.412C42.673 239.646 35.9937 236.262 31.3555 230.996C45.4832 231.035 59.2835 235.06 71.0232 242.565" fill="#1C61B0"/>
<path d="M67.4707 229.536C71.1361 216.44 77.1727 207.375 87.9603 200.035C88.786 206.477 87.1755 212.989 83.419 218.397C79.6624 223.806 74.0068 227.756 67.4707 229.536Z" fill="#1C61B0"/>
<path d="M94.6736 252.128C94.7 248.307 93.5433 244.564 91.3488 241.37C89.1544 238.175 86.0202 235.671 82.3398 234.172C82.9392 240.931 88.5067 248.76 94.6736 252.128Z" fill="#1C61B0"/>
<path d="M98.1484 241.089C98.6487 235.604 100.78 230.369 104.292 226.002C107.803 221.635 112.549 218.318 117.969 216.44C115.485 227.388 108.849 236.502 98.1484 241.089Z" fill="#1C61B0"/>
<path d="M92.9365 260.687C95.4814 257.211 99.6332 255.055 103.924 253.977C108.215 252.899 112.705 252.808 117.144 252.725C114.119 255.858 110.419 258.329 106.298 259.966C102.178 261.604 97.7353 262.371 93.2753 262.213" fill="#1C61B0"/>
<path d="M87.7949 288.612C95.8873 286.23 104.62 286.83 112.273 290.292C119.926 293.753 125.943 299.826 129.139 307.314C114.121 304.593 99.3035 298.191 87.7949 288.612Z" fill="#1C61B0"/>
<path d="M71.3097 278.908C73.8025 285.949 73.3247 294.458 67.7746 300.529C66.6714 296.898 66.4162 293.08 67.027 289.344C67.6379 285.608 69.0998 282.045 71.3097 278.908Z" fill="#1C61B0"/>
<path d="M61.564 274.994C61.1534 279.528 59.5285 283.886 56.8453 287.647C54.1621 291.409 50.5109 294.449 46.2424 296.474C46.0437 296.596 45.8211 296.678 45.5882 296.715C45.3552 296.752 45.1167 296.744 44.8874 296.69C44.2099 296.424 44.1491 295.545 44.236 294.849C45.3217 285.825 52.3224 277.1 61.564 274.944" fill="#1C61B0"/>
<path d="M55.1974 274.081C53.0807 276.264 50.5168 278.009 47.6647 279.207C44.8127 280.405 41.7333 281.031 38.6174 281.046C35.5016 281.061 32.4158 280.464 29.5515 279.293C26.6871 278.122 24.1052 276.402 21.9658 274.239C32.5277 273.136 44.7224 272.397 55.1974 274.081Z" fill="#1C61B0"/>
<path d="M53.6162 193.425C53.6452 193.523 53.6799 193.62 53.7204 193.715C53.7986 193.931 53.9028 194.213 54.0418 194.544C54.3371 195.316 54.7627 196.411 55.3099 197.812C55.8571 199.214 56.5346 200.972 57.299 202.996L58.5236 206.23C58.9406 207.383 59.3922 208.602 59.8439 209.879C61.7113 214.988 63.7872 221.126 66.0368 227.951C68.2864 234.777 70.5534 242.341 72.829 250.303C75.1047 258.265 77.0677 265.92 78.7614 272.895C80.4551 279.87 81.8275 286.165 82.8437 291.498C83.113 292.825 83.3562 294.093 83.5994 295.288C83.8426 296.482 84.0076 297.627 84.1987 298.688C84.5808 300.803 84.9109 302.628 85.128 304.129C85.3452 305.63 85.5536 306.766 85.6839 307.571C85.7534 307.952 85.7969 308.251 85.8403 308.466C85.8837 308.682 85.9011 308.773 85.9011 308.773C85.9107 308.671 85.9107 308.568 85.9011 308.466C85.9011 308.242 85.8316 307.944 85.7795 307.562C85.6666 306.733 85.5102 305.589 85.3018 304.104C85.0933 302.619 84.798 300.786 84.4332 298.647C84.2508 297.585 84.0597 296.449 83.8599 295.246L83.139 291.448C82.1488 286.115 80.7591 279.837 79.1349 272.812C77.5107 265.787 75.4782 258.19 73.2286 250.203C70.979 242.216 68.6252 234.686 66.4016 227.81C64.1781 220.935 62.0587 214.856 60.1218 209.763C59.6441 208.486 59.2011 207.275 58.7755 206.114C58.3499 204.953 57.907 203.9 57.5161 202.888C56.7344 200.873 56.0569 199.131 55.4663 197.729C54.8756 196.328 54.4414 195.241 54.12 194.486C53.9723 194.13 53.8507 193.856 53.7639 193.657C53.7208 193.576 53.6715 193.499 53.6162 193.425Z" fill="#263238"/>
<path d="M111.655 222.279L111.472 222.445L110.969 222.951C110.526 223.398 109.892 224.07 109.093 224.958C106.828 227.456 104.75 230.102 102.874 232.878C100.073 236.993 97.8837 241.459 96.368 246.148C94.6309 251.431 93.5365 257.444 92.4594 263.731C90.3141 276.312 87.6823 287.575 85.7714 295.728L83.4784 305.373C83.2178 306.493 83.018 307.38 82.8704 308.002C82.8096 308.284 82.7662 308.508 82.7227 308.691C82.7148 308.768 82.7148 308.846 82.7227 308.923C82.7588 308.852 82.7851 308.776 82.8009 308.699C82.8009 308.525 82.9051 308.301 82.9833 308.019L83.6695 305.406C84.2427 303.109 85.0679 299.833 86.0841 295.786C88.0645 287.65 90.7483 276.387 92.8937 263.797C93.9707 257.51 95.0391 251.514 96.7589 246.248C98.2426 241.567 100.391 237.102 103.143 232.978C104.988 230.199 107.019 227.537 109.223 225.007C109.996 224.103 110.621 223.423 111.038 222.959L111.516 222.42C111.611 222.353 111.664 222.287 111.655 222.279Z" fill="#263238"/>
<path d="M52.0449 273.65C52.1684 273.689 52.2971 273.711 52.4271 273.716L53.5215 273.832L54.3119 273.907L55.2413 274.039C55.9188 274.131 56.6831 274.23 57.5169 274.404L58.8285 274.653L60.2269 274.993C61.2084 275.2 62.2159 275.549 63.293 275.823C65.6002 276.587 67.8396 277.528 69.9897 278.634C72.1163 279.775 74.1233 281.108 75.9828 282.615C76.7912 283.278 77.5597 283.984 78.2845 284.73C78.9307 285.363 79.5397 286.031 80.1085 286.729C80.6644 287.342 81.0553 287.981 81.4548 288.504C81.7918 288.955 82.0993 289.426 82.3755 289.913L82.9401 290.809C82.9981 290.92 83.0711 291.023 83.1572 291.116C83.1572 291.116 83.1572 290.992 83.0096 290.776C82.8619 290.56 82.7142 290.212 82.5145 289.839C82.2597 289.337 81.9695 288.852 81.6459 288.387C81.2429 287.757 80.8051 287.148 80.3344 286.563C79.776 285.843 79.1727 285.156 78.5277 284.506C77.8037 283.746 77.0352 283.026 76.226 282.35C74.3488 280.807 72.3116 279.45 70.146 278.302C67.9777 277.182 65.7143 276.239 63.3798 275.482C62.2854 275.184 61.2692 274.852 60.279 274.653L58.8545 274.33L57.5256 274.106C56.6571 273.94 55.9188 273.865 55.2413 273.791L54.2945 273.691L53.4954 273.65H52.3924C52.2772 273.633 52.1601 273.633 52.0449 273.65Z" fill="#263238"/>
<path d="M49.0391 222.527C49.268 222.781 49.5209 223.014 49.7947 223.224L51.9748 225.024C53.8162 226.533 56.3872 228.598 59.2448 230.829C62.1024 233.06 64.6994 235.125 66.5929 236.577L68.8512 238.285C69.1167 238.51 69.4081 238.705 69.7198 238.866C69.4889 238.611 69.233 238.378 68.9554 238.169L66.784 236.369C64.934 234.86 62.363 232.795 59.5141 230.564C56.6651 228.333 54.0594 226.268 52.1659 224.816L49.9076 223.108C49.6422 222.883 49.3508 222.689 49.0391 222.527Z" fill="#263238"/>
<path d="M46.4424 235.872C46.4424 235.972 51.9578 237.631 58.8282 239.563C65.6987 241.495 71.3009 242.997 71.3357 242.88C71.3704 242.764 65.8203 241.122 58.9412 239.181C52.0621 237.241 46.4684 235.764 46.4424 235.872Z" fill="#263238"/>
<path d="M66.9229 230.556C67.1436 230.323 67.3359 230.067 67.4961 229.793L68.9553 227.636C70.1974 225.845 71.9606 223.398 74.0451 220.794C76.1297 218.19 78.1361 215.926 79.6127 214.308L81.3499 212.392C81.5822 212.171 81.7889 211.926 81.9665 211.663C81.6999 211.847 81.4552 212.058 81.2369 212.293C80.7853 212.708 80.1512 213.338 79.3782 214.126C77.8495 215.702 75.7997 217.949 73.7064 220.562C71.6131 223.174 69.8847 225.654 68.7034 227.487C68.1128 228.408 67.6438 229.146 67.3398 229.685C67.166 229.959 67.0261 230.251 66.9229 230.556Z" fill="#263238"/>
<path d="M86.1885 237.962C86.5768 238.67 87.0119 239.355 87.4913 240.01C88.3599 241.255 89.4456 242.98 90.6095 244.937C91.7734 246.894 92.7549 248.694 93.4497 250.013C93.7922 250.743 94.1869 251.449 94.631 252.128C94.396 251.359 94.0878 250.612 93.7103 249.897C93.0763 248.545 92.1295 246.712 90.9656 244.746C89.8017 242.781 88.6205 241.064 87.7258 239.853C87.2788 239.176 86.7639 238.543 86.1885 237.962Z" fill="#263238"/>
<path d="M92.7803 261.052C92.7803 261.102 93.866 260.612 95.6031 259.866C97.3403 259.119 99.7549 258.149 102.482 257.228C105.21 256.308 107.746 255.636 109.587 255.188C111.429 254.74 112.575 254.5 112.566 254.442C112.288 254.428 112.01 254.456 111.741 254.525C111.211 254.599 110.456 254.732 109.518 254.923C107.09 255.434 104.697 256.085 102.352 256.872C100.005 257.652 97.7107 258.569 95.4815 259.617C94.613 260.023 93.9442 260.372 93.4838 260.621C93.2315 260.736 92.9952 260.881 92.7803 261.052Z" fill="#263238"/>
<path d="M87.5957 288.653C87.7029 288.704 87.8169 288.74 87.9344 288.761L88.9333 289.001L92.6247 289.831C96.6916 290.651 100.712 291.667 104.672 292.874C108.63 294.127 112.419 295.819 115.963 297.917C117.31 298.746 118.352 299.451 119.055 299.974C119.412 300.257 119.786 300.521 120.176 300.762C120.105 300.67 120.023 300.587 119.933 300.513C119.75 300.363 119.507 300.131 119.16 299.858C118.19 299.079 117.175 298.354 116.12 297.685C112.601 295.509 108.807 293.77 104.828 292.509C100.844 291.284 96.7824 290.301 92.6682 289.565L88.9507 288.877C88.5052 288.771 88.0524 288.696 87.5957 288.653Z" fill="#263238"/>
<path d="M68.8249 295.454C68.9378 295.454 69.5979 291.755 70.3015 287.16C71.005 282.566 71.4914 278.825 71.3785 278.809C71.2656 278.792 70.6055 282.508 69.9019 287.102C69.1984 291.697 68.712 295.437 68.8249 295.454Z" fill="#263238"/>
<path d="M49.291 288.678C49.9171 288.05 50.4975 287.382 51.0282 286.679C52.0878 285.427 53.547 283.702 55.206 281.819C56.865 279.936 58.3937 278.269 59.5489 277.058C60.1725 276.429 60.7528 275.761 61.286 275.06C61.286 275.06 61.0689 275.201 60.7301 275.516C60.3914 275.831 59.8616 276.287 59.323 276.868C58.1505 278.037 56.5783 279.687 54.9194 281.57C53.2604 283.453 51.8359 285.219 50.8284 286.546C50.3333 287.202 49.9598 287.732 49.6732 288.106C49.5173 288.278 49.3886 288.47 49.291 288.678Z" fill="#263238"/>
<path d="M100.998 305.979V315.201H98.5831L90.0016 341.061H70.9712L62.6589 315.458L59.4365 315.201V305.979H100.998Z" fill="#455A64"/>
<path d="M61.043 315.458C61.043 315.566 69.4508 315.649 79.8128 315.649C90.1749 315.649 98.5827 315.566 98.5827 315.458C98.5827 315.351 90.1749 315.268 79.8128 315.268C69.4508 315.268 61.043 315.351 61.043 315.458Z" fill="#263238"/>
<path d="M47.3633 256.158C47.7561 256.303 48.1636 256.409 48.5793 256.473L51.9233 257.245C54.7375 257.908 58.6026 258.903 62.7978 260.264C66.993 261.624 70.7105 263.042 73.3684 264.137L76.5213 265.447C76.8973 265.632 77.2897 265.785 77.6939 265.903C77.3434 265.679 76.9745 265.482 76.5908 265.314C75.8699 264.958 74.8102 264.485 73.49 263.888C70.0417 262.383 66.5133 261.052 62.9194 259.899C59.3292 258.747 55.6792 257.773 51.9841 256.979C50.5683 256.681 49.3784 256.457 48.614 256.332C48.2022 256.245 47.7841 256.187 47.3633 256.158Z" fill="#263238"/>
<path d="M67.3662 329.815C67.3662 329.923 73.2638 330.014 80.5338 330.014C87.8037 330.014 93.7014 329.923 93.7014 329.815C93.7014 329.707 87.8037 329.624 80.5338 329.624C73.2638 329.624 67.3662 329.715 67.3662 329.815Z" fill="#FAFAFA"/>
<path d="M66.6279 327.683C66.6279 327.782 72.873 327.874 80.5772 327.874C88.2815 327.874 94.5352 327.782 94.5352 327.683C94.5352 327.583 88.2815 327.484 80.5772 327.484C72.873 327.484 66.6279 327.575 66.6279 327.683Z" fill="#FAFAFA"/>
</svg>
