<svg width="403" height="366" viewBox="0 0 403 366" fill="none" xmlns="http://www.w3.org/2000/svg">
<path d="M201.5 366C287.808 366 357.775 361.021 357.775 354.879C357.775 348.738 287.808 343.759 201.5 343.759C115.191 343.759 45.2246 348.738 45.2246 354.879C45.2246 361.021 115.191 366 201.5 366Z" fill="#F5F5F5"/>
<path d="M297.559 77.0391H153.357C150.099 77.0391 147.458 80.2586 147.458 84.2302V300.032C147.458 304.004 150.099 307.223 153.357 307.223H297.559C300.817 307.223 303.459 304.004 303.459 300.032V84.2302C303.459 80.2586 300.817 77.0391 297.559 77.0391Z" fill="#1C61B0"/>
<path opacity="0.6" d="M297.559 77.0391H153.357C150.099 77.0391 147.458 80.2586 147.458 84.2302V300.032C147.458 304.004 150.099 307.223 153.357 307.223H297.559C300.817 307.223 303.459 304.004 303.459 300.032V84.2302C303.459 80.2586 300.817 77.0391 297.559 77.0391Z" fill="white"/>
<path d="M278.183 218.847H172.726V240.853H278.183V218.847Z" fill="white"/>
<g opacity="0.4">
<path d="M178.045 229.418C178.041 228.987 178.108 228.56 178.243 228.161C178.379 227.763 178.579 227.403 178.833 227.102C179.086 226.802 179.387 226.567 179.717 226.413C180.048 226.259 180.4 226.188 180.753 226.206C181.105 226.19 181.454 226.265 181.78 226.424C182.107 226.583 182.402 226.823 182.648 227.129L182.301 227.552C182.102 227.305 181.863 227.112 181.599 226.984C181.336 226.855 181.053 226.794 180.77 226.805C180.201 226.805 179.656 227.08 179.254 227.57C178.851 228.06 178.626 228.725 178.626 229.418C178.626 230.111 178.851 230.776 179.254 231.266C179.656 231.756 180.201 232.031 180.77 232.031C181.054 232.042 181.337 231.981 181.601 231.851C181.865 231.72 182.103 231.524 182.301 231.275L182.648 231.697C182.401 232.005 182.104 232.246 181.777 232.405C181.449 232.564 181.098 232.637 180.745 232.621C180.393 232.64 180.041 232.57 179.711 232.417C179.381 232.264 179.081 232.03 178.828 231.73C178.575 231.43 178.375 231.07 178.24 230.673C178.106 230.275 178.039 229.848 178.045 229.418Z" fill="#263238"/>
<path d="M183.139 230.204C183.137 229.725 183.252 229.257 183.469 228.859C183.686 228.46 183.995 228.149 184.357 227.964C184.72 227.78 185.119 227.73 185.504 227.823C185.889 227.915 186.243 228.144 186.521 228.482C186.799 228.819 186.989 229.25 187.066 229.719C187.143 230.188 187.104 230.674 186.954 231.117C186.805 231.559 186.55 231.937 186.224 232.203C185.898 232.469 185.514 232.611 185.122 232.611C184.86 232.622 184.599 232.567 184.354 232.45C184.11 232.333 183.889 232.156 183.703 231.931C183.517 231.705 183.371 231.435 183.274 231.138C183.177 230.841 183.131 230.523 183.139 230.204ZM186.565 230.204C186.552 229.857 186.456 229.523 186.289 229.243C186.121 228.962 185.89 228.748 185.624 228.626C185.357 228.505 185.068 228.481 184.79 228.559C184.513 228.637 184.261 228.812 184.064 229.063C183.868 229.314 183.737 229.63 183.687 229.971C183.637 230.313 183.67 230.664 183.783 230.983C183.896 231.301 184.083 231.572 184.321 231.762C184.559 231.952 184.837 232.052 185.122 232.051C185.319 232.055 185.514 232.01 185.696 231.918C185.877 231.825 186.041 231.688 186.177 231.514C186.312 231.341 186.417 231.134 186.484 230.909C186.55 230.683 186.578 230.443 186.565 230.204Z" fill="#263238"/>
<path d="M191.748 229.821V232.572H191.224V229.88C191.247 229.682 191.234 229.481 191.185 229.29C191.136 229.099 191.052 228.925 190.939 228.779C190.827 228.634 190.689 228.521 190.536 228.45C190.383 228.378 190.218 228.35 190.055 228.367C189.869 228.352 189.682 228.386 189.507 228.468C189.333 228.549 189.175 228.677 189.046 228.84C188.916 229.004 188.817 229.2 188.756 229.416C188.695 229.631 188.674 229.86 188.693 230.086V232.572H188.169V227.827H188.669V228.701C188.826 228.401 189.046 228.158 189.308 227.999C189.569 227.84 189.861 227.77 190.152 227.797C190.371 227.777 190.592 227.815 190.798 227.911C191.003 228.006 191.189 228.156 191.342 228.35C191.494 228.543 191.61 228.776 191.68 229.03C191.75 229.284 191.773 229.554 191.748 229.821Z" fill="#263238"/>
<path d="M194.44 225.842C194.728 225.824 195.013 225.928 195.246 226.137L195.068 226.618C194.905 226.457 194.699 226.373 194.488 226.382C194.045 226.382 193.803 226.687 193.803 227.276V227.827H195.004V228.367H193.819V232.571H193.295V228.367H192.602V227.827H193.295V227.247C193.283 227.06 193.305 226.871 193.358 226.695C193.411 226.518 193.495 226.358 193.603 226.225C193.712 226.091 193.843 225.988 193.987 225.922C194.132 225.856 194.286 225.829 194.44 225.842ZM196.922 226.323C196.923 226.386 196.914 226.448 196.895 226.506C196.876 226.563 196.847 226.616 196.811 226.66C196.775 226.704 196.732 226.739 196.685 226.762C196.637 226.785 196.586 226.796 196.535 226.795C196.481 226.805 196.427 226.8 196.374 226.782C196.322 226.763 196.274 226.731 196.233 226.688C196.191 226.644 196.158 226.591 196.136 226.53C196.113 226.47 196.101 226.405 196.101 226.338C196.101 226.272 196.113 226.206 196.136 226.146C196.158 226.086 196.191 226.032 196.233 225.989C196.274 225.945 196.322 225.913 196.374 225.895C196.427 225.876 196.481 225.872 196.535 225.881C196.585 225.879 196.634 225.888 196.68 225.909C196.727 225.93 196.769 225.962 196.805 226.003C196.841 226.044 196.87 226.094 196.89 226.149C196.91 226.204 196.921 226.263 196.922 226.323ZM196.269 227.827H196.793V232.571H196.269V227.827Z" fill="#263238"/>
<path d="M200.218 227.797V228.416H200.089C199.904 228.405 199.719 228.444 199.548 228.53C199.377 228.617 199.223 228.748 199.098 228.915C198.974 229.082 198.881 229.281 198.826 229.497C198.772 229.713 198.757 229.941 198.784 230.165V232.581H198.276V227.836H198.776V228.77C198.908 228.45 199.117 228.186 199.374 228.013C199.632 227.839 199.926 227.764 200.218 227.797Z" fill="#263238"/>
<path d="M207.577 229.821V232.571H207.053V229.88C207.053 228.897 206.642 228.367 205.941 228.367C205.758 228.357 205.576 228.395 205.407 228.48C205.237 228.564 205.085 228.693 204.961 228.857C204.836 229.02 204.743 229.215 204.687 229.428C204.63 229.64 204.613 229.865 204.635 230.086V232.571H204.112V229.88C204.112 228.897 203.701 228.367 202.991 228.367C202.809 228.358 202.627 228.398 202.458 228.483C202.29 228.568 202.138 228.697 202.014 228.86C201.89 229.024 201.796 229.218 201.74 229.429C201.683 229.641 201.664 229.865 201.686 230.086V232.571H201.162V227.826H201.669V228.691C201.822 228.403 202.035 228.169 202.285 228.012C202.535 227.856 202.815 227.781 203.096 227.797C203.381 227.769 203.665 227.848 203.912 228.024C204.158 228.2 204.355 228.463 204.474 228.779C204.634 228.461 204.862 228.202 205.133 228.029C205.404 227.856 205.708 227.776 206.014 227.797C206.232 227.777 206.451 227.817 206.654 227.913C206.858 228.009 207.042 228.16 207.192 228.354C207.342 228.548 207.454 228.78 207.521 229.034C207.587 229.288 207.607 229.557 207.577 229.821Z" fill="#263238"/>
<path d="M215.379 226.265V232.572H214.928L211.599 227.453V232.572H211.051V226.265H211.503L214.839 231.383V226.265H215.379Z" fill="#263238"/>
<path d="M220.336 230.401H217.112C217.123 230.632 217.17 230.859 217.253 231.068C217.336 231.276 217.452 231.463 217.595 231.617C217.737 231.77 217.903 231.888 218.083 231.962C218.263 232.037 218.454 232.067 218.644 232.051C218.867 232.06 219.089 232.008 219.294 231.899C219.499 231.791 219.682 231.628 219.829 231.422L220.127 231.845C219.847 232.2 219.488 232.448 219.094 232.556C218.7 232.664 218.289 232.629 217.912 232.454C217.534 232.279 217.207 231.972 216.972 231.572C216.737 231.172 216.603 230.696 216.588 230.204C216.574 229.892 216.612 229.579 216.702 229.286C216.791 228.992 216.928 228.724 217.106 228.499C217.284 228.273 217.497 228.094 217.734 227.973C217.971 227.853 218.226 227.793 218.483 227.797C218.739 227.791 218.994 227.85 219.231 227.97C219.468 228.091 219.682 228.269 219.859 228.496C220.037 228.722 220.173 228.991 220.261 229.285C220.349 229.579 220.385 229.892 220.369 230.204C220.344 230.253 220.336 230.322 220.336 230.401ZM217.112 229.919H219.869C219.869 229.474 219.724 229.046 219.465 228.731C219.207 228.416 218.856 228.239 218.491 228.239C218.125 228.239 217.774 228.416 217.516 228.731C217.258 229.046 217.112 229.474 217.112 229.919Z" fill="#263238"/>
<path d="M227.05 227.827L225.575 232.572H225.084L223.858 228.691L222.633 232.572H222.134L220.675 227.827H221.175L222.392 231.854L223.641 227.827H224.068L225.309 231.854L226.542 227.827H227.05Z" fill="#263238"/>
<path d="M233.941 228.426C233.941 229.771 233.135 230.577 231.822 230.577H230.435V232.542H229.887V226.235H231.822C233.143 226.264 233.941 227.07 233.941 228.426ZM233.393 228.426C233.393 227.443 232.845 226.844 231.781 226.844H230.435V229.997H231.814C232.845 229.997 233.393 229.418 233.393 228.426Z" fill="#263238"/>
<path d="M237.907 229.634V232.581H237.407V231.845C237.26 232.107 237.059 232.317 236.824 232.454C236.589 232.59 236.328 232.648 236.069 232.621C235.19 232.621 234.65 232.061 234.65 231.245C234.65 230.43 235.029 229.88 236.158 229.88H237.391V229.595C237.391 228.789 237.012 228.347 236.287 228.347C235.817 228.34 235.36 228.535 234.997 228.897L234.763 228.426C235.222 227.988 235.793 227.761 236.375 227.787C236.581 227.758 236.789 227.785 236.985 227.867C237.18 227.949 237.358 228.084 237.506 228.262C237.653 228.439 237.765 228.655 237.835 228.892C237.904 229.13 237.929 229.383 237.907 229.634ZM237.383 231.147V230.371H236.158C235.4 230.371 235.158 230.735 235.158 231.216C235.158 231.697 235.521 232.11 236.141 232.11C236.405 232.13 236.668 232.048 236.891 231.875C237.114 231.702 237.286 231.447 237.383 231.147Z" fill="#263238"/>
<path d="M238.793 232.031L239.035 231.52C239.435 231.875 239.919 232.061 240.414 232.051C241.155 232.051 241.453 231.746 241.453 231.285C241.453 230.047 238.939 231.019 238.939 229.143C238.939 228.367 239.487 227.797 240.47 227.797C240.954 227.784 241.432 227.937 241.848 228.239L241.623 228.75C241.28 228.478 240.879 228.338 240.47 228.347C239.769 228.347 239.462 228.681 239.462 229.123C239.462 230.41 241.985 229.448 241.985 231.265C241.985 232.08 241.389 232.611 240.373 232.611C239.809 232.63 239.255 232.427 238.793 232.031Z" fill="#263238"/>
<path d="M242.413 232.031L242.646 231.52C243.05 231.873 243.536 232.059 244.033 232.051C244.766 232.051 245.072 231.746 245.072 231.284C245.072 230.047 242.55 231.019 242.55 229.143C242.55 228.367 243.098 227.797 244.089 227.797C244.571 227.785 245.045 227.939 245.459 228.239L245.234 228.75C244.894 228.478 244.495 228.338 244.089 228.347C243.388 228.347 243.073 228.681 243.073 229.123C243.073 230.41 245.596 229.447 245.596 231.265C245.596 232.08 245.008 232.611 243.984 232.611C243.423 232.631 242.871 232.428 242.413 232.031Z" fill="#263238"/>
<path d="M252.197 227.827L250.723 232.572H250.231L249.006 228.691L247.781 232.572H247.281L245.83 227.827H246.33L247.547 231.854L248.796 227.827H249.248L250.489 231.854L251.722 227.827H252.197Z" fill="#263238"/>
<path d="M252.487 230.204C252.487 229.728 252.603 229.263 252.82 228.868C253.036 228.472 253.344 228.163 253.705 227.981C254.065 227.799 254.462 227.75 254.844 227.842C255.227 227.934 255.579 228.163 255.856 228.498C256.132 228.834 256.321 229.262 256.398 229.728C256.475 230.194 256.437 230.678 256.289 231.118C256.141 231.558 255.889 231.935 255.565 232.2C255.241 232.466 254.86 232.609 254.47 232.611C254.208 232.623 253.946 232.569 253.702 232.453C253.457 232.336 253.235 232.16 253.049 231.934C252.863 231.708 252.717 231.438 252.62 231.14C252.524 230.842 252.478 230.524 252.487 230.204ZM255.905 230.204C255.891 229.86 255.794 229.529 255.627 229.251C255.459 228.974 255.229 228.762 254.964 228.643C254.699 228.523 254.411 228.501 254.136 228.58C253.861 228.658 253.611 228.833 253.416 229.083C253.222 229.333 253.092 229.647 253.043 229.986C252.994 230.325 253.028 230.675 253.14 230.991C253.252 231.307 253.438 231.576 253.675 231.764C253.911 231.952 254.188 232.052 254.47 232.051C254.666 232.054 254.861 232.008 255.041 231.915C255.222 231.822 255.385 231.684 255.52 231.511C255.655 231.337 255.758 231.131 255.825 230.906C255.891 230.681 255.918 230.442 255.905 230.204Z" fill="#263238"/>
<path d="M259.467 227.797V228.416H259.346C259.161 228.405 258.976 228.444 258.805 228.53C258.634 228.617 258.48 228.748 258.355 228.915C258.231 229.082 258.138 229.281 258.083 229.497C258.029 229.713 258.014 229.941 258.041 230.165V232.581H257.509V227.836H258.017V228.77C258.15 228.448 258.36 228.183 258.619 228.01C258.878 227.836 259.173 227.762 259.467 227.797Z" fill="#263238"/>
<path d="M263.925 225.882V232.572H263.425V231.589C263.27 231.901 263.049 232.157 262.785 232.33C262.522 232.502 262.225 232.586 261.926 232.572C261.402 232.572 260.9 232.318 260.53 231.867C260.159 231.415 259.951 230.803 259.951 230.165C259.951 229.526 260.159 228.914 260.53 228.463C260.9 228.012 261.402 227.758 261.926 227.758C262.217 227.746 262.505 227.825 262.764 227.989C263.022 228.152 263.242 228.394 263.401 228.691V225.842L263.925 225.882ZM263.409 230.204C263.395 229.861 263.298 229.53 263.131 229.252C262.964 228.975 262.734 228.763 262.47 228.644C262.205 228.524 261.918 228.502 261.643 228.579C261.368 228.657 261.118 228.831 260.923 229.08C260.729 229.329 260.598 229.642 260.548 229.981C260.498 230.319 260.531 230.668 260.642 230.984C260.753 231.3 260.937 231.57 261.173 231.76C261.408 231.949 261.684 232.051 261.966 232.051C262.163 232.056 262.358 232.01 262.54 231.918C262.722 231.826 262.885 231.688 263.021 231.515C263.157 231.341 263.261 231.135 263.328 230.909C263.395 230.683 263.422 230.443 263.409 230.204Z" fill="#263238"/>
</g>
<path opacity="0.2" d="M278.183 261.916H172.726V283.921H278.183V261.916Z" fill="black"/>
<g opacity="0.5">
<path d="M173.379 166.81V168.284H174.991V168.628H173.379V170.229H173.048V166.466H175.168V166.81H173.379Z" fill="black"/>
<path d="M175.466 168.814C175.466 168.529 175.536 168.249 175.666 168.012C175.796 167.774 175.981 167.589 176.197 167.48C176.414 167.371 176.652 167.342 176.882 167.398C177.112 167.454 177.323 167.591 177.489 167.793C177.654 167.995 177.767 168.252 177.813 168.533C177.859 168.813 177.835 169.103 177.746 169.367C177.656 169.631 177.504 169.856 177.309 170.015C177.114 170.174 176.885 170.258 176.651 170.258C176.494 170.265 176.337 170.233 176.191 170.162C176.045 170.092 175.912 169.986 175.801 169.851C175.689 169.715 175.602 169.553 175.545 169.375C175.487 169.197 175.46 169.006 175.466 168.814ZM177.513 168.814C177.507 168.606 177.45 168.404 177.351 168.235C177.251 168.065 177.112 167.936 176.952 167.862C176.792 167.788 176.618 167.773 176.451 167.819C176.284 167.865 176.132 167.97 176.014 168.121C175.896 168.271 175.817 168.461 175.787 168.667C175.756 168.872 175.777 169.084 175.845 169.275C175.912 169.466 176.025 169.629 176.169 169.743C176.312 169.857 176.48 169.916 176.651 169.915C176.768 169.918 176.885 169.891 176.993 169.836C177.102 169.781 177.2 169.699 177.281 169.596C177.362 169.492 177.425 169.369 177.465 169.235C177.505 169.1 177.521 168.957 177.513 168.814Z" fill="black"/>
<path d="M179.641 167.38V167.753H179.569C179.456 167.741 179.343 167.761 179.237 167.81C179.132 167.859 179.037 167.936 178.959 168.037C178.882 168.137 178.824 168.257 178.79 168.388C178.756 168.519 178.746 168.658 178.763 168.795V170.239H178.448V167.4H178.746V167.989C178.825 167.786 178.953 167.618 179.113 167.509C179.274 167.4 179.458 167.355 179.641 167.38Z" fill="black"/>
<path d="M182.333 167.4V169.885C182.358 170.078 182.345 170.275 182.296 170.46C182.246 170.646 182.161 170.814 182.048 170.952C181.935 171.09 181.797 171.193 181.645 171.254C181.492 171.314 181.331 171.33 181.173 171.3C180.782 171.32 180.398 171.167 180.093 170.867L180.254 170.573C180.508 170.835 180.832 170.975 181.165 170.966C181.753 170.966 182.019 170.632 182.019 169.934V169.571C181.919 169.748 181.784 169.892 181.626 169.988C181.468 170.084 181.293 170.13 181.116 170.121C180.961 170.137 180.804 170.113 180.656 170.052C180.508 169.99 180.373 169.892 180.258 169.763C180.142 169.634 180.051 169.478 179.988 169.303C179.925 169.129 179.893 168.941 179.893 168.75C179.893 168.56 179.925 168.372 179.988 168.197C180.051 168.023 180.142 167.866 180.258 167.738C180.373 167.609 180.508 167.51 180.656 167.449C180.804 167.387 180.961 167.364 181.116 167.38C181.296 167.371 181.474 167.418 181.635 167.516C181.795 167.614 181.933 167.76 182.035 167.94V167.4H182.333ZM182.027 168.745C182.032 168.532 181.984 168.323 181.891 168.143C181.797 167.963 181.662 167.821 181.502 167.735C181.342 167.65 181.164 167.624 180.992 167.662C180.82 167.7 180.662 167.8 180.536 167.948C180.411 168.097 180.325 168.288 180.289 168.496C180.253 168.704 180.269 168.921 180.335 169.119C180.4 169.316 180.513 169.485 180.658 169.604C180.803 169.723 180.974 169.787 181.148 169.787C181.264 169.8 181.381 169.782 181.491 169.735C181.601 169.688 181.701 169.612 181.785 169.513C181.868 169.414 181.933 169.294 181.975 169.162C182.017 169.029 182.035 168.887 182.027 168.745Z" fill="black"/>
<path d="M182.962 168.814C182.962 168.529 183.031 168.249 183.161 168.012C183.292 167.774 183.477 167.589 183.693 167.48C183.91 167.371 184.148 167.342 184.378 167.398C184.607 167.454 184.819 167.591 184.984 167.793C185.15 167.995 185.263 168.252 185.309 168.533C185.354 168.813 185.331 169.103 185.241 169.367C185.151 169.631 185 169.856 184.805 170.015C184.61 170.174 184.381 170.258 184.146 170.258C183.989 170.265 183.833 170.233 183.687 170.162C183.54 170.092 183.407 169.986 183.296 169.851C183.185 169.715 183.098 169.553 183.04 169.375C182.983 169.197 182.956 169.006 182.962 168.814ZM185.009 168.814C185.001 168.609 184.944 168.411 184.844 168.244C184.745 168.078 184.608 167.951 184.45 167.879C184.291 167.807 184.119 167.793 183.955 167.839C183.79 167.885 183.64 167.988 183.524 168.137C183.407 168.286 183.329 168.473 183.299 168.676C183.269 168.878 183.288 169.087 183.354 169.276C183.421 169.465 183.531 169.627 183.672 169.74C183.813 169.854 183.978 169.914 184.146 169.915C184.265 169.92 184.384 169.896 184.494 169.842C184.604 169.788 184.704 169.707 184.787 169.603C184.87 169.499 184.934 169.376 184.975 169.24C185.016 169.104 185.033 168.959 185.025 168.814H185.009Z" fill="black"/>
<path d="M187.21 170.062C187.068 170.192 186.895 170.261 186.718 170.258C186.627 170.271 186.534 170.258 186.447 170.221C186.361 170.184 186.282 170.124 186.217 170.044C186.152 169.965 186.102 169.869 186.072 169.763C186.041 169.657 186.031 169.545 186.041 169.433V167.724H185.622V167.4H186.041V166.781H186.356V167.4H187.057V167.724H186.356V169.414C186.356 169.748 186.493 169.924 186.75 169.924C186.875 169.927 186.997 169.879 187.097 169.787L187.21 170.062Z" fill="black"/>
<path d="M191.425 167.753C191.425 168.559 190.941 169.04 190.159 169.04H189.353V170.229H189.023V166.466H190.184C190.941 166.466 191.425 166.948 191.425 167.753ZM191.094 167.753C191.094 167.154 190.772 166.771 190.151 166.771H189.345V168.647H190.151C190.772 168.687 191.094 168.343 191.094 167.753Z" fill="black"/>
<path d="M193.795 168.48V170.229H193.496V169.786C193.409 169.946 193.288 170.074 193.146 170.157C193.004 170.239 192.847 170.274 192.69 170.258C192.158 170.258 191.836 169.924 191.836 169.433C191.836 168.942 192.07 168.627 192.739 168.627H193.472V168.46C193.479 168.356 193.467 168.251 193.436 168.153C193.405 168.055 193.356 167.967 193.293 167.895C193.231 167.823 193.155 167.77 193.073 167.738C192.991 167.707 192.904 167.698 192.819 167.714C192.526 167.696 192.238 167.816 192.013 168.048L191.868 167.763C192.136 167.504 192.47 167.369 192.811 167.38C192.939 167.343 193.073 167.344 193.2 167.385C193.328 167.425 193.445 167.503 193.542 167.612C193.639 167.72 193.713 167.856 193.757 168.008C193.801 168.159 193.814 168.321 193.795 168.48ZM193.48 169.384V168.912H192.755C192.303 168.912 192.158 169.128 192.158 169.423C192.158 169.718 192.376 169.953 192.747 169.953C192.903 169.965 193.057 169.916 193.189 169.813C193.321 169.711 193.423 169.561 193.48 169.384Z" fill="black"/>
<path d="M194.327 169.954L194.472 169.659C194.707 169.864 194.989 169.974 195.278 169.973C195.721 169.973 195.898 169.787 195.898 169.512C195.898 168.775 194.391 169.354 194.391 168.234C194.391 167.773 194.722 167.429 195.31 167.429C195.594 167.424 195.873 167.516 196.116 167.694L195.979 167.999C195.777 167.831 195.538 167.745 195.294 167.753C194.875 167.753 194.689 167.95 194.689 168.225C194.689 168.991 196.197 168.411 196.197 169.502C196.197 169.993 195.842 170.307 195.237 170.307C194.911 170.311 194.592 170.187 194.327 169.954Z" fill="black"/>
<path d="M196.487 169.954L196.632 169.659C196.868 169.862 197.149 169.972 197.438 169.973C197.881 169.973 198.059 169.787 198.059 169.512C198.059 168.775 196.559 169.354 196.559 168.234C196.559 167.773 196.882 167.429 197.47 167.429C197.754 167.424 198.033 167.516 198.276 167.694L198.139 167.999C197.938 167.831 197.698 167.745 197.454 167.753C197.035 167.753 196.85 167.95 196.85 168.225C196.85 168.991 198.357 168.411 198.357 169.502C198.357 169.993 198.002 170.307 197.398 170.307C197.071 170.311 196.752 170.187 196.487 169.954Z" fill="black"/>
<path d="M202.306 167.399L201.5 170.229H201.202L200.468 167.91L199.735 170.229H199.436L198.566 167.399H198.864L199.59 169.806L200.339 167.399H200.605L201.347 169.806L202.088 167.399H202.306Z" fill="black"/>
<path d="M202.508 168.814C202.508 168.529 202.577 168.249 202.707 168.012C202.837 167.774 203.022 167.589 203.239 167.48C203.455 167.371 203.694 167.342 203.924 167.398C204.153 167.454 204.364 167.591 204.53 167.793C204.696 167.995 204.809 168.252 204.854 168.533C204.9 168.813 204.877 169.103 204.787 169.367C204.697 169.631 204.545 169.856 204.351 170.015C204.156 170.174 203.927 170.258 203.692 170.258C203.535 170.265 203.379 170.233 203.232 170.162C203.086 170.092 202.953 169.986 202.842 169.851C202.731 169.715 202.644 169.553 202.586 169.375C202.529 169.197 202.502 169.006 202.508 168.814ZM204.555 168.814C204.547 168.609 204.49 168.411 204.39 168.244C204.291 168.078 204.154 167.951 203.995 167.879C203.837 167.807 203.665 167.793 203.501 167.839C203.336 167.885 203.186 167.988 203.07 168.137C202.953 168.286 202.875 168.473 202.845 168.676C202.815 168.878 202.834 169.087 202.9 169.276C202.966 169.465 203.077 169.627 203.218 169.74C203.359 169.854 203.524 169.914 203.692 169.915C203.81 169.918 203.926 169.891 204.035 169.836C204.143 169.781 204.241 169.699 204.322 169.596C204.403 169.492 204.466 169.369 204.506 169.235C204.546 169.1 204.563 168.957 204.555 168.814Z" fill="black"/>
<path d="M206.682 167.38V167.753H206.61C206.497 167.742 206.384 167.761 206.279 167.81C206.173 167.859 206.078 167.936 206 168.037C205.923 168.137 205.865 168.257 205.831 168.388C205.797 168.519 205.788 168.658 205.804 168.795V170.239H205.53V167.4H205.828V167.989C205.904 167.795 206.026 167.633 206.178 167.524C206.331 167.415 206.506 167.365 206.682 167.38Z" fill="black"/>
<path d="M209.351 166.24V170.229H209.044V169.669C208.953 169.856 208.821 170.01 208.664 170.114C208.506 170.218 208.329 170.268 208.15 170.258C207.853 170.228 207.577 170.064 207.376 169.797C207.174 169.531 207.062 169.181 207.062 168.819C207.062 168.457 207.174 168.107 207.376 167.841C207.577 167.574 207.853 167.41 208.15 167.38C208.324 167.373 208.498 167.421 208.653 167.519C208.808 167.617 208.94 167.762 209.036 167.94V166.24H209.351ZM209.036 168.814C209.028 168.609 208.971 168.41 208.872 168.244C208.772 168.078 208.635 167.951 208.477 167.879C208.319 167.807 208.147 167.793 207.982 167.839C207.818 167.885 207.668 167.988 207.551 168.137C207.435 168.286 207.356 168.473 207.326 168.676C207.296 168.878 207.315 169.087 207.382 169.276C207.448 169.465 207.558 169.627 207.699 169.74C207.84 169.854 208.005 169.914 208.174 169.914C208.291 169.917 208.408 169.891 208.516 169.836C208.625 169.781 208.723 169.699 208.804 169.596C208.885 169.492 208.947 169.369 208.987 169.235C209.028 169.1 209.044 168.957 209.036 168.814Z" fill="black"/>
<path d="M211.631 167.429C211.631 167.036 211.373 166.771 210.922 166.771C210.763 166.757 210.604 166.79 210.457 166.865C210.31 166.94 210.179 167.056 210.076 167.203L209.842 166.987C209.979 166.797 210.149 166.648 210.341 166.551C210.532 166.454 210.739 166.412 210.946 166.427C211.559 166.427 211.962 166.79 211.962 167.409C211.962 168.323 211.156 168.392 211.156 169.138H210.833C210.825 168.215 211.631 168.126 211.631 167.429ZM210.761 169.954C210.771 169.888 210.799 169.829 210.841 169.787C210.883 169.745 210.936 169.721 210.99 169.721C211.045 169.721 211.098 169.745 211.14 169.787C211.182 169.829 211.21 169.888 211.22 169.954C211.226 169.995 211.225 170.037 211.217 170.078C211.208 170.118 211.192 170.156 211.17 170.188C211.148 170.22 211.121 170.246 211.09 170.264C211.059 170.282 211.025 170.291 210.99 170.291C210.956 170.291 210.922 170.282 210.891 170.264C210.86 170.246 210.832 170.22 210.81 170.188C210.788 170.156 210.773 170.118 210.764 170.078C210.755 170.037 210.754 169.995 210.761 169.954Z" fill="black"/>
</g>
<path d="M278.183 260.56H172.726V282.565H278.183V260.56Z" fill="#1C61B0"/>
<path d="M195.721 274.087L196.051 273.242C196.625 273.818 197.347 274.127 198.09 274.117C199.154 274.117 199.614 273.616 199.614 272.958C199.614 271.12 195.874 272.28 195.874 269.48C195.874 268.321 196.615 267.328 198.235 267.328C198.938 267.312 199.629 267.544 200.226 267.996L199.936 268.851C199.427 268.458 198.838 268.247 198.235 268.242C197.188 268.242 196.736 268.782 196.736 269.441C196.736 271.278 200.484 270.128 200.484 272.889C200.484 274.048 199.678 275.03 198.066 275.03C197.218 275.057 196.389 274.723 195.721 274.087Z" fill="white"/>
<path d="M205.86 272.476H202.064C202.124 272.964 202.332 273.406 202.647 273.716C202.962 274.025 203.361 274.179 203.765 274.146C204.016 274.156 204.267 274.099 204.499 273.981C204.731 273.862 204.94 273.684 205.111 273.458L205.578 274.126C205.234 274.554 204.796 274.852 204.316 274.983C203.837 275.114 203.337 275.073 202.876 274.865C202.415 274.658 202.013 274.292 201.719 273.812C201.425 273.332 201.25 272.759 201.218 272.162C201.201 271.777 201.25 271.392 201.361 271.031C201.471 270.67 201.642 270.341 201.863 270.064C202.083 269.787 202.347 269.569 202.64 269.423C202.933 269.277 203.247 269.206 203.563 269.214C203.878 269.204 204.192 269.274 204.483 269.42C204.775 269.566 205.038 269.785 205.256 270.063C205.474 270.34 205.642 270.67 205.749 271.032C205.855 271.394 205.899 271.778 205.876 272.162C205.876 272.25 205.868 272.378 205.86 272.476ZM202.064 271.739H205.07C205.024 271.293 204.845 270.883 204.569 270.586C204.292 270.289 203.936 270.125 203.567 270.125C203.198 270.125 202.842 270.289 202.565 270.586C202.289 270.883 202.11 271.293 202.064 271.739Z" fill="white"/>
<path d="M209.689 274.657C209.394 274.927 209.033 275.066 208.665 275.05C208.466 275.078 208.265 275.051 208.076 274.971C207.886 274.892 207.714 274.761 207.572 274.589C207.43 274.418 207.321 274.21 207.253 273.98C207.186 273.75 207.161 273.505 207.182 273.262V270.158H206.376V269.313H207.182V268.065H208.028V269.313H209.374V270.158H208.028V273.252C208.009 273.379 208.014 273.509 208.043 273.633C208.072 273.756 208.124 273.87 208.195 273.965C208.266 274.06 208.354 274.134 208.453 274.181C208.551 274.228 208.657 274.246 208.762 274.235C209.001 274.242 209.234 274.149 209.423 273.97L209.689 274.657Z" fill="white"/>
<path d="M218.208 270.079C218.208 271.72 217.233 272.702 215.629 272.702H214.098V274.991H213.219V267.456H215.637C217.233 267.456 218.208 268.438 218.208 270.079ZM217.322 270.079C217.322 268.998 216.733 268.389 215.605 268.389H214.098V271.769H215.605C216.733 271.769 217.322 271.14 217.322 270.079Z" fill="white"/>
<path d="M223.052 271.543V274.991H222.246V274.235C222.066 274.517 221.831 274.74 221.562 274.882C221.293 275.025 220.999 275.082 220.707 275.05C219.651 275.05 218.982 274.362 218.982 273.37C218.982 272.378 219.466 271.7 220.86 271.7H222.206V271.504C222.206 270.629 221.787 270.119 220.949 270.119C220.412 270.118 219.89 270.336 219.466 270.737L219.111 269.961C219.671 269.461 220.351 269.202 221.045 269.225C222.327 269.225 223.052 269.981 223.052 271.543ZM222.206 273.243V272.447H220.892C220.086 272.447 219.82 272.85 219.82 273.331C219.82 273.812 220.207 274.254 220.852 274.254C221.136 274.28 221.42 274.195 221.662 274.014C221.905 273.832 222.095 273.563 222.206 273.243Z" fill="white"/>
<path d="M224.068 274.382L224.423 273.566C224.903 273.946 225.462 274.151 226.035 274.156C226.841 274.156 227.147 273.871 227.147 273.38C227.147 272.103 224.189 273.213 224.189 270.943C224.189 269.961 224.938 269.224 226.139 269.224C226.737 269.211 227.326 269.391 227.848 269.745L227.485 270.56C227.081 270.25 226.609 270.093 226.131 270.108C225.39 270.108 225.027 270.442 225.027 270.894C225.027 272.24 228.001 271.14 228.001 273.36C228.001 274.392 227.195 275.05 225.978 275.05C225.3 275.069 224.634 274.836 224.068 274.382Z" fill="white"/>
<path d="M228.461 274.382L228.816 273.567C229.296 273.947 229.855 274.151 230.428 274.156C231.234 274.156 231.54 273.871 231.54 273.38C231.54 272.103 228.582 273.213 228.582 270.944C228.582 269.961 229.331 269.225 230.532 269.225C231.127 269.213 231.713 269.393 232.233 269.745L231.87 270.561C231.468 270.252 231 270.095 230.524 270.109C229.783 270.109 229.42 270.443 229.42 270.895C229.42 272.241 232.386 271.14 232.386 273.361C232.386 274.392 231.58 275.05 230.363 275.05C229.688 275.067 229.025 274.834 228.461 274.382Z" fill="white"/>
<path d="M240.47 269.283L238.721 274.991H237.915L236.561 270.659L235.191 274.991H234.385L232.652 269.283H233.458L234.82 273.822L236.23 269.283H236.964L238.35 273.842L239.745 269.283H240.47Z" fill="white"/>
<path d="M240.768 272.122C240.768 271.54 240.91 270.97 241.176 270.485C241.442 270 241.819 269.623 242.261 269.4C242.703 269.177 243.189 269.118 243.658 269.232C244.127 269.346 244.558 269.626 244.896 270.039C245.234 270.451 245.465 270.976 245.558 271.548C245.651 272.119 245.603 272.712 245.42 273.25C245.237 273.789 244.927 274.249 244.53 274.573C244.132 274.897 243.665 275.07 243.186 275.07C242.865 275.085 242.545 275.019 242.246 274.876C241.947 274.734 241.676 274.517 241.449 274.24C241.222 273.963 241.044 273.632 240.927 273.268C240.81 272.904 240.756 272.514 240.768 272.122ZM244.798 272.122C244.79 271.734 244.688 271.357 244.504 271.04C244.32 270.722 244.064 270.478 243.766 270.339C243.469 270.199 243.144 270.17 242.833 270.255C242.522 270.341 242.239 270.537 242.019 270.818C241.799 271.1 241.653 271.454 241.599 271.837C241.544 272.22 241.584 272.614 241.713 272.969C241.843 273.324 242.055 273.625 242.325 273.832C242.594 274.04 242.908 274.146 243.227 274.136C243.44 274.14 243.652 274.089 243.848 273.988C244.045 273.886 244.222 273.736 244.368 273.546C244.514 273.357 244.626 273.133 244.698 272.888C244.769 272.642 244.798 272.382 244.782 272.122H244.798Z" fill="white"/>
<path d="M249.328 269.225V270.207H249.135C248.925 270.189 248.715 270.229 248.52 270.324C248.324 270.419 248.149 270.566 248.008 270.755C247.866 270.944 247.761 271.17 247.7 271.415C247.64 271.66 247.626 271.919 247.66 272.172V275.021H246.854V269.313H247.66V270.295C247.828 269.945 248.074 269.66 248.369 269.47C248.663 269.281 248.996 269.196 249.328 269.225Z" fill="white"/>
<path d="M254.744 267.004V274.991H253.938V274.087C253.747 274.404 253.495 274.66 253.204 274.831C252.913 275.002 252.593 275.084 252.27 275.07C251.699 274.963 251.179 274.61 250.803 274.076C250.427 273.541 250.22 272.861 250.22 272.157C250.22 271.453 250.427 270.773 250.803 270.238C251.179 269.704 251.699 269.351 252.27 269.244C252.579 269.235 252.886 269.314 253.165 269.474C253.445 269.634 253.691 269.872 253.882 270.168V267.024L254.744 267.004ZM253.89 272.123C253.882 271.734 253.78 271.357 253.596 271.04C253.412 270.722 253.155 270.478 252.858 270.339C252.56 270.199 252.235 270.17 251.924 270.256C251.613 270.341 251.33 270.537 251.111 270.818C250.891 271.1 250.745 271.454 250.69 271.837C250.636 272.22 250.676 272.614 250.805 272.969C250.934 273.324 251.147 273.625 251.416 273.833C251.686 274.04 252 274.146 252.318 274.137C252.533 274.143 252.746 274.094 252.945 273.994C253.143 273.893 253.322 273.744 253.47 273.554C253.618 273.364 253.732 273.139 253.804 272.892C253.877 272.646 253.906 272.384 253.89 272.123Z" fill="white"/>
<g opacity="0.6">
<path d="M192.158 111.177L190.7 108.642C190.563 108.642 190.417 108.642 190.272 108.642H188.604V111.148H187.637V102.896H190.272C192.029 102.896 193.093 103.986 193.093 105.774C193.116 106.346 192.982 106.912 192.714 107.382C192.446 107.853 192.058 108.203 191.61 108.377L193.222 111.148L192.158 111.177ZM192.158 105.803C192.158 104.625 191.514 103.956 190.272 103.956H188.66V107.67H190.272C191.481 107.67 192.126 106.982 192.126 105.803H192.158Z" fill="#263238"/>
<path d="M199.138 108.436H194.987C195.046 108.971 195.271 109.459 195.616 109.797C195.961 110.135 196.4 110.299 196.841 110.254C197.117 110.266 197.391 110.206 197.646 110.077C197.9 109.948 198.129 109.754 198.316 109.507L198.832 110.234C198.454 110.703 197.972 111.027 197.445 111.169C196.919 111.311 196.37 111.263 195.865 111.033C195.36 110.802 194.921 110.398 194.6 109.869C194.28 109.34 194.093 108.709 194.06 108.053C194.046 107.635 194.102 107.217 194.226 106.826C194.349 106.435 194.537 106.079 194.779 105.781C195.02 105.482 195.309 105.247 195.627 105.091C195.946 104.934 196.288 104.859 196.631 104.87C196.974 104.86 197.314 104.936 197.631 105.095C197.947 105.253 198.234 105.49 198.472 105.79C198.71 106.09 198.894 106.447 199.013 106.838C199.132 107.229 199.182 107.646 199.162 108.063C199.163 108.188 199.155 108.313 199.138 108.436ZM194.987 107.621H198.276C198.276 107.091 198.103 106.582 197.795 106.207C197.488 105.832 197.071 105.622 196.635 105.622C196.2 105.622 195.783 105.832 195.476 106.207C195.168 106.582 194.995 107.091 194.995 107.621H194.987Z" fill="#263238"/>
<path d="M199.799 110.519L200.186 109.625C200.722 110.046 201.346 110.271 201.984 110.273C202.846 110.273 203.201 109.949 203.201 109.419C203.201 108.024 199.977 109.232 199.977 106.746C199.977 105.627 200.783 104.87 202.113 104.87C202.763 104.858 203.405 105.055 203.974 105.44L203.579 106.334C203.137 105.999 202.625 105.829 202.104 105.843C201.298 105.843 200.895 106.206 200.895 106.697C200.895 108.171 204.119 106.972 204.119 109.399C204.119 110.529 203.265 111.246 201.903 111.246C201.158 111.267 200.424 111.014 199.799 110.519Z" fill="#263238"/>
<path d="M209.907 108.436H205.748C205.81 108.969 206.036 109.454 206.38 109.791C206.724 110.128 207.161 110.294 207.601 110.254C207.878 110.266 208.154 110.206 208.41 110.077C208.666 109.949 208.896 109.754 209.084 109.507L209.6 110.234C209.342 110.567 209.027 110.827 208.677 110.996C208.328 111.166 207.953 111.241 207.577 111.216C207.22 111.249 206.861 111.191 206.523 111.044C206.186 110.898 205.877 110.667 205.617 110.366C205.358 110.065 205.153 109.701 205.015 109.298C204.878 108.894 204.812 108.46 204.821 108.024C204.807 107.605 204.865 107.188 204.989 106.798C205.113 106.408 205.301 106.053 205.542 105.754C205.783 105.456 206.071 105.221 206.389 105.064C206.707 104.907 207.049 104.831 207.392 104.841C207.737 104.829 208.08 104.905 208.399 105.064C208.718 105.224 209.006 105.463 209.244 105.767C209.483 106.07 209.666 106.432 209.783 106.827C209.9 107.223 209.948 107.644 209.923 108.063C209.923 108.181 209.915 108.328 209.907 108.436ZM205.748 107.621H209.036C208.996 107.123 208.805 106.662 208.501 106.327C208.197 105.991 207.802 105.806 207.392 105.806C206.982 105.806 206.587 105.991 206.283 106.327C205.979 106.662 205.788 107.123 205.748 107.621Z" fill="#263238"/>
<path d="M214.097 110.814C213.776 111.11 213.38 111.263 212.977 111.246C212.76 111.274 212.54 111.242 212.334 111.153C212.128 111.064 211.941 110.92 211.787 110.732C211.632 110.544 211.514 110.316 211.441 110.065C211.368 109.814 211.342 109.546 211.365 109.281V105.853H210.495V104.919H211.365V103.554H212.292V104.919H213.759V105.853H212.292V109.232C212.276 109.369 212.285 109.508 212.319 109.64C212.353 109.771 212.411 109.892 212.489 109.993C212.566 110.094 212.661 110.172 212.766 110.222C212.872 110.272 212.985 110.293 213.098 110.283C213.36 110.285 213.615 110.181 213.823 109.988L214.097 110.814Z" fill="#263238"/>
<path d="M223.415 105.803C223.415 107.591 222.351 108.682 220.594 108.682H218.926V111.177H217.958V102.925H220.594C222.351 102.925 223.415 104.015 223.415 105.803ZM222.448 105.803C222.448 104.624 221.803 103.956 220.562 103.956H218.95V107.65H220.562C221.803 107.65 222.456 106.982 222.456 105.803H222.448Z" fill="#263238"/>
<path d="M228.718 107.405V111.177H227.84V110.352C227.644 110.662 227.387 110.907 227.092 111.063C226.797 111.219 226.475 111.282 226.155 111.246C224.995 111.246 224.261 110.489 224.261 109.409C224.261 108.328 224.793 107.581 226.317 107.581H227.792V107.355C227.792 106.373 227.332 105.852 226.413 105.852C225.829 105.846 225.261 106.082 224.801 106.52L224.414 105.676C225.027 105.126 225.774 104.843 226.534 104.87C227.929 104.87 228.718 105.695 228.718 107.405ZM227.792 109.271V108.397H226.357C225.438 108.397 225.18 108.829 225.18 109.379C225.18 109.929 225.607 110.362 226.308 110.362C226.618 110.392 226.928 110.303 227.194 110.108C227.46 109.912 227.669 109.619 227.792 109.271Z" fill="#263238"/>
<path d="M229.791 110.519L230.177 109.625C230.713 110.046 231.337 110.271 231.975 110.273C232.837 110.273 233.2 109.949 233.2 109.418C233.2 108.023 229.976 109.232 229.976 106.746C229.976 105.626 230.782 104.87 232.112 104.87C232.763 104.857 233.405 105.053 233.974 105.44L233.579 106.334C233.137 105.998 232.624 105.827 232.104 105.842C231.298 105.842 230.895 106.206 230.895 106.697C230.895 108.171 234.119 106.972 234.119 109.399C234.119 110.528 233.264 111.245 231.902 111.245C231.154 111.267 230.419 111.014 229.791 110.519Z" fill="#263238"/>
<path d="M234.643 110.519L235.029 109.625C235.565 110.047 236.189 110.273 236.827 110.273C237.681 110.273 238.044 109.949 238.044 109.419C238.044 108.024 234.82 109.232 234.82 106.746C234.82 105.627 235.626 104.87 236.956 104.87C237.609 104.859 238.254 105.055 238.826 105.44L238.423 106.334C237.981 105.998 237.468 105.828 236.948 105.843C236.142 105.843 235.739 106.206 235.739 106.697C235.739 108.171 238.963 106.972 238.963 109.399C238.963 110.529 238.108 111.246 236.746 111.246C236.001 111.269 235.267 111.016 234.643 110.519Z" fill="#263238"/>
<path d="M247.788 104.929L245.878 111.177H245.024L243.549 106.442L242.05 111.177H241.155L239.253 104.929H240.131L241.623 109.909L243.17 104.929H243.976L245.491 109.929L247.023 104.929H247.788Z" fill="#263238"/>
<path d="M248.111 108.063C248.101 107.417 248.249 106.783 248.537 106.24C248.824 105.698 249.237 105.272 249.724 105.017C250.21 104.762 250.748 104.689 251.269 104.807C251.789 104.926 252.269 105.231 252.647 105.683C253.025 106.136 253.284 106.715 253.391 107.347C253.498 107.98 253.448 108.636 253.248 109.234C253.047 109.832 252.705 110.343 252.266 110.703C251.826 111.063 251.308 111.255 250.779 111.255C250.428 111.274 250.078 111.205 249.751 111.052C249.423 110.899 249.125 110.666 248.875 110.366C248.625 110.067 248.428 109.708 248.296 109.311C248.165 108.915 248.102 108.49 248.111 108.063ZM252.503 108.063C252.488 107.652 252.373 107.255 252.174 106.923C251.976 106.59 251.701 106.336 251.385 106.192C251.069 106.048 250.725 106.02 250.395 106.112C250.066 106.203 249.767 106.411 249.533 106.709C249.3 107.006 249.144 107.381 249.083 107.786C249.023 108.19 249.062 108.608 249.194 108.986C249.327 109.365 249.548 109.688 249.829 109.915C250.111 110.142 250.441 110.263 250.779 110.263C251.014 110.271 251.248 110.218 251.465 110.109C251.683 110 251.879 109.836 252.041 109.629C252.204 109.422 252.329 109.175 252.408 108.905C252.488 108.636 252.52 108.349 252.503 108.063Z" fill="#263238"/>
<path d="M257.485 104.87V105.97H257.267C257.041 105.952 256.815 105.994 256.605 106.096C256.395 106.197 256.206 106.354 256.051 106.555C255.897 106.756 255.782 106.997 255.713 107.259C255.644 107.522 255.625 107.8 255.655 108.072V111.187H254.696V104.939H255.582V105.99C255.779 105.602 256.063 105.291 256.4 105.092C256.737 104.894 257.113 104.817 257.485 104.87Z" fill="#263238"/>
<path d="M263.409 102.434V111.177H262.522V110.195C262.311 110.54 262.034 110.817 261.715 111.002C261.396 111.186 261.045 111.274 260.693 111.256C260.024 111.21 259.395 110.855 258.935 110.262C258.475 109.669 258.218 108.884 258.218 108.068C258.218 107.252 258.475 106.466 258.935 105.874C259.395 105.281 260.024 104.925 260.693 104.88C261.033 104.863 261.372 104.943 261.682 105.113C261.993 105.284 262.267 105.54 262.482 105.862V102.424L263.409 102.434ZM262.49 108.063C262.474 107.651 262.359 107.255 262.16 106.922C261.961 106.589 261.686 106.335 261.369 106.191C261.053 106.047 260.708 106.02 260.379 106.113C260.05 106.205 259.75 106.414 259.517 106.712C259.284 107.011 259.128 107.386 259.069 107.792C259.01 108.197 259.049 108.615 259.183 108.993C259.317 109.372 259.539 109.694 259.822 109.919C260.104 110.145 260.435 110.265 260.773 110.263C261.008 110.27 261.241 110.216 261.457 110.106C261.674 109.996 261.869 109.833 262.03 109.625C262.192 109.418 262.316 109.172 262.396 108.903C262.475 108.634 262.507 108.348 262.49 108.063Z" fill="#263238"/>
</g>
<path d="M278.183 185.829H172.726V207.835H278.183V185.829Z" fill="white"/>
<g opacity="0.4">
<path d="M182.825 193.247V199.554H182.374L179.045 194.435V199.554H178.497V193.247H178.932L182.269 198.365V193.247H182.825Z" fill="#263238"/>
<path d="M187.798 197.382H184.574C184.584 197.614 184.632 197.84 184.715 198.049C184.798 198.258 184.914 198.444 185.056 198.598C185.199 198.752 185.365 198.869 185.545 198.944C185.725 199.018 185.916 199.048 186.106 199.033C186.328 199.041 186.55 198.99 186.754 198.883C186.959 198.776 187.142 198.616 187.29 198.414L187.589 198.826C187.309 199.182 186.95 199.429 186.556 199.537C186.162 199.646 185.751 199.61 185.373 199.435C184.996 199.26 184.669 198.953 184.434 198.553C184.199 198.153 184.065 197.678 184.05 197.186C184.036 196.873 184.074 196.561 184.163 196.267C184.252 195.974 184.39 195.706 184.568 195.48C184.745 195.254 184.959 195.075 185.196 194.955C185.433 194.834 185.688 194.774 185.944 194.779C186.201 194.773 186.456 194.832 186.693 194.952C186.93 195.072 187.144 195.251 187.321 195.477C187.499 195.703 187.635 195.972 187.723 196.266C187.811 196.56 187.847 196.873 187.83 197.186C187.798 197.245 187.798 197.313 187.798 197.382ZM184.574 196.911H187.331C187.331 196.465 187.186 196.038 186.927 195.723C186.669 195.408 186.318 195.231 185.952 195.231C185.587 195.231 185.236 195.408 184.978 195.723C184.719 196.038 184.574 196.465 184.574 196.911Z" fill="#263238"/>
<path d="M194.496 194.818L193.029 199.553H192.529L191.304 195.673L190.079 199.553H189.579L188.121 194.818H188.604L189.821 198.846L191.071 194.818H191.522L192.763 198.846L193.996 194.818H194.496Z" fill="#263238"/>
<path d="M201.387 195.407C201.387 196.753 200.581 197.569 199.275 197.569H197.881V199.534H197.333V193.227H199.275C200.589 193.246 201.387 194.062 201.387 195.407ZM200.839 195.407C200.839 194.425 200.291 193.826 199.227 193.826H197.849V196.979H199.227C200.291 196.979 200.839 196.4 200.839 195.407Z" fill="#263238"/>
<path d="M205.353 196.616V199.563H204.853V198.826C204.709 199.092 204.509 199.306 204.273 199.444C204.037 199.582 203.776 199.64 203.515 199.612C202.637 199.612 202.097 199.052 202.097 198.237C202.097 197.422 202.484 196.891 203.596 196.891H204.829V196.606C204.843 196.43 204.824 196.252 204.773 196.086C204.722 195.92 204.64 195.771 204.534 195.649C204.428 195.528 204.301 195.438 204.162 195.386C204.023 195.334 203.876 195.321 203.733 195.349C203.259 195.339 202.798 195.538 202.435 195.909L202.201 195.427C202.66 194.989 203.231 194.763 203.813 194.789C204.018 194.758 204.226 194.784 204.421 194.864C204.617 194.945 204.795 195.077 204.942 195.253C205.09 195.428 205.204 195.642 205.275 195.878C205.346 196.114 205.373 196.366 205.353 196.616ZM204.829 198.129V197.353H203.612C202.854 197.353 202.613 197.716 202.613 198.208C202.613 198.699 202.975 199.102 203.596 199.102C203.86 199.12 204.121 199.036 204.343 198.861C204.565 198.686 204.735 198.43 204.829 198.129Z" fill="#263238"/>
<path d="M206.239 199.013L206.481 198.512C206.883 198.862 207.365 199.048 207.859 199.043C208.601 199.043 208.907 198.738 208.907 198.266C208.907 197.029 206.384 198.011 206.384 196.135C206.384 195.359 206.932 194.779 207.924 194.779C208.405 194.773 208.878 194.925 209.294 195.221L209.068 195.732C208.728 195.461 208.33 195.321 207.924 195.329C207.215 195.329 206.908 195.663 206.908 196.115C206.908 197.392 209.431 196.429 209.431 198.247C209.431 199.072 208.835 199.603 207.819 199.603C207.254 199.619 206.7 199.412 206.239 199.013Z" fill="#263238"/>
<path d="M209.858 199.013L210.092 198.512C210.499 198.858 210.983 199.043 211.478 199.043C212.212 199.043 212.518 198.738 212.518 198.266C212.518 197.029 209.995 198.011 209.995 196.135C209.995 195.359 210.544 194.779 211.535 194.779C212.018 194.774 212.494 194.926 212.913 195.221L212.679 195.732C212.34 195.459 211.941 195.318 211.535 195.329C210.834 195.329 210.519 195.663 210.519 196.115C210.519 197.392 213.042 196.429 213.042 198.247C213.042 199.072 212.454 199.602 211.43 199.602C210.867 199.62 210.316 199.413 209.858 199.013Z" fill="#263238"/>
<path d="M219.643 194.818L218.176 199.553H217.677L216.452 195.673L215.202 199.553H214.703L213.244 194.818H213.743L214.96 198.846L216.21 194.818H216.661L217.902 198.846L219.136 194.818H219.643Z" fill="#263238"/>
<path d="M219.934 197.186C219.935 196.71 220.052 196.246 220.27 195.852C220.487 195.458 220.796 195.151 221.156 194.97C221.517 194.789 221.913 194.742 222.295 194.835C222.678 194.928 223.029 195.158 223.305 195.494C223.58 195.83 223.768 196.257 223.845 196.723C223.921 197.189 223.883 197.673 223.734 198.112C223.586 198.551 223.334 198.927 223.01 199.193C222.687 199.458 222.306 199.6 221.916 199.602C221.653 199.615 221.391 199.561 221.146 199.444C220.9 199.327 220.678 199.149 220.492 198.922C220.305 198.695 220.16 198.424 220.064 198.125C219.968 197.826 219.923 197.506 219.934 197.186ZM223.351 197.186C223.337 196.842 223.24 196.51 223.073 196.233C222.906 195.955 222.675 195.744 222.41 195.625C222.145 195.505 221.857 195.483 221.582 195.562C221.307 195.64 221.057 195.815 220.862 196.065C220.668 196.315 220.538 196.629 220.489 196.968C220.44 197.307 220.474 197.657 220.586 197.973C220.698 198.289 220.884 198.557 221.121 198.746C221.357 198.934 221.634 199.034 221.916 199.032C222.112 199.036 222.307 198.989 222.488 198.897C222.668 198.804 222.831 198.666 222.966 198.492C223.101 198.319 223.204 198.113 223.271 197.888C223.337 197.663 223.364 197.424 223.351 197.186Z" fill="#263238"/>
<path d="M226.921 194.779V195.408H226.792C226.607 195.395 226.423 195.433 226.251 195.518C226.08 195.603 225.926 195.733 225.801 195.9C225.676 196.066 225.583 196.264 225.529 196.48C225.474 196.696 225.46 196.923 225.487 197.146V199.563H224.955V194.828H225.462V195.751C225.596 195.428 225.807 195.162 226.068 194.989C226.328 194.815 226.626 194.742 226.921 194.779Z" fill="#263238"/>
<path d="M231.37 192.873V199.553H230.871V198.62C230.716 198.932 230.495 199.188 230.231 199.36C229.967 199.533 229.671 199.617 229.372 199.602C228.869 199.563 228.397 199.292 228.052 198.844C227.707 198.396 227.515 197.805 227.515 197.191C227.515 196.576 227.707 195.985 228.052 195.537C228.397 195.089 228.869 194.818 229.372 194.779C229.666 194.771 229.958 194.857 230.217 195.03C230.476 195.202 230.693 195.454 230.847 195.761V192.912L231.37 192.873ZM230.855 197.186C230.84 196.842 230.744 196.511 230.577 196.234C230.41 195.957 230.18 195.745 229.916 195.626C229.651 195.506 229.363 195.483 229.089 195.561C228.814 195.638 228.563 195.812 228.369 196.062C228.174 196.311 228.044 196.624 227.994 196.962C227.944 197.301 227.976 197.65 228.087 197.966C228.198 198.282 228.383 198.552 228.618 198.741C228.854 198.931 229.13 199.032 229.412 199.033C229.609 199.037 229.804 198.992 229.986 198.9C230.167 198.807 230.331 198.67 230.467 198.496C230.602 198.323 230.707 198.116 230.774 197.891C230.84 197.665 230.868 197.425 230.855 197.186Z" fill="#263238"/>
</g>
<path d="M278.183 136.11H172.726V158.116H278.183V136.11Z" fill="white"/>
<g opacity="0.4">
<path d="M178.045 146.68C178.028 146.021 178.172 145.371 178.459 144.813C178.747 144.254 179.165 143.813 179.659 143.546C180.154 143.279 180.702 143.197 181.235 143.313C181.768 143.428 182.26 143.734 182.649 144.193C183.037 144.651 183.305 145.241 183.417 145.886C183.53 146.531 183.481 147.202 183.278 147.813C183.076 148.424 182.728 148.948 182.279 149.317C181.831 149.685 181.303 149.883 180.762 149.883C180.408 149.902 180.056 149.833 179.725 149.68C179.394 149.527 179.093 149.293 178.839 148.994C178.584 148.694 178.383 148.334 178.247 147.937C178.11 147.539 178.042 147.111 178.045 146.68ZM182.93 146.68C182.936 146.154 182.814 145.637 182.578 145.195C182.343 144.754 182.005 144.408 181.607 144.201C181.21 143.995 180.771 143.937 180.346 144.036C179.922 144.134 179.531 144.385 179.224 144.755C178.916 145.125 178.707 145.599 178.621 146.115C178.535 146.631 178.577 147.167 178.742 147.654C178.907 148.141 179.188 148.556 179.547 148.849C179.907 149.141 180.33 149.296 180.762 149.294C181.05 149.311 181.338 149.256 181.607 149.132C181.877 149.008 182.123 148.817 182.329 148.572C182.536 148.327 182.699 148.032 182.808 147.707C182.916 147.381 182.969 147.032 182.962 146.68H182.93Z" fill="#263238"/>
<path d="M184.574 143.144H185.098V149.834H184.574V143.144Z" fill="#263238"/>
<path d="M190.127 143.144V149.834H189.628V148.852C189.471 149.162 189.25 149.417 188.987 149.589C188.723 149.762 188.427 149.846 188.129 149.834C187.605 149.834 187.103 149.581 186.732 149.129C186.362 148.678 186.154 148.066 186.154 147.427C186.154 146.789 186.362 146.177 186.732 145.725C187.103 145.274 187.605 145.02 188.129 145.02C188.423 145.013 188.714 145.1 188.973 145.273C189.232 145.445 189.449 145.697 189.603 146.003V143.154L190.127 143.144ZM189.612 147.457C189.599 147.11 189.503 146.776 189.336 146.496C189.168 146.215 188.937 146.001 188.671 145.879C188.404 145.758 188.115 145.734 187.837 145.812C187.56 145.89 187.308 146.065 187.111 146.316C186.915 146.567 186.784 146.883 186.734 147.224C186.684 147.566 186.717 147.917 186.83 148.236C186.943 148.554 187.13 148.825 187.368 149.015C187.606 149.205 187.884 149.305 188.169 149.304C188.365 149.307 188.56 149.261 188.741 149.168C188.922 149.075 189.085 148.937 189.221 148.764C189.356 148.591 189.461 148.385 189.528 148.16C189.595 147.935 189.624 147.696 189.612 147.457Z" fill="#263238"/>
<path d="M197.687 145.689C197.687 147.025 196.881 147.84 195.576 147.84H194.189V149.805H193.641V143.527H195.576C196.889 143.527 197.687 144.333 197.687 145.689ZM197.139 145.689C197.139 144.706 196.591 144.097 195.527 144.097H194.157V147.251H195.527C196.591 147.251 197.139 146.681 197.139 145.689Z" fill="#263238"/>
<path d="M201.661 146.897V149.844H201.153V149.097C201.009 149.363 200.808 149.576 200.573 149.715C200.337 149.853 200.075 149.911 199.815 149.883C198.937 149.883 198.396 149.323 198.396 148.508C198.396 147.692 198.783 147.162 199.896 147.162H201.137V146.877C201.137 146.062 200.758 145.62 200.033 145.62C199.559 145.613 199.1 145.811 198.735 146.179L198.501 145.708C198.958 145.265 199.53 145.038 200.113 145.069C200.318 145.039 200.526 145.065 200.722 145.145C200.918 145.226 201.096 145.358 201.245 145.533C201.393 145.708 201.507 145.922 201.579 146.158C201.651 146.393 201.679 146.646 201.661 146.897ZM201.137 148.41V147.633H199.888C199.138 147.633 198.888 147.997 198.888 148.478C198.888 148.96 199.251 149.372 199.871 149.372C200.139 149.399 200.407 149.32 200.635 149.146C200.863 148.973 201.039 148.715 201.137 148.41Z" fill="#263238"/>
<path d="M202.548 149.323L202.782 148.813C203.185 149.165 203.671 149.351 204.168 149.343C204.901 149.343 205.208 149.039 205.208 148.577C205.208 147.339 202.685 148.312 202.685 146.435C202.685 145.659 203.233 145.089 204.224 145.089C204.708 145.08 205.185 145.233 205.603 145.531L205.369 146.042C205.03 145.769 204.631 145.629 204.224 145.639C203.523 145.639 203.209 145.964 203.209 146.416C203.209 147.702 205.732 146.73 205.732 148.557C205.732 149.373 205.143 149.903 204.12 149.903C203.558 149.924 203.006 149.72 202.548 149.323Z" fill="#263238"/>
<path d="M206.159 149.323L206.4 148.812C206.801 149.167 207.284 149.353 207.779 149.343C208.52 149.343 208.818 149.038 208.818 148.577C208.818 147.339 206.304 148.311 206.304 146.435C206.304 145.659 206.852 145.089 207.835 145.089C208.319 145.076 208.797 145.229 209.213 145.531L208.988 146.042C208.645 145.77 208.244 145.63 207.835 145.639C207.134 145.639 206.828 145.963 206.828 146.415C206.828 147.702 209.35 146.73 209.35 148.557C209.35 149.372 208.754 149.903 207.738 149.903C207.174 149.922 206.62 149.719 206.159 149.323Z" fill="#263238"/>
<path d="M215.944 145.089L214.477 149.834H213.985L212.752 145.905L211.527 149.834H211.035L209.56 145.089H210.06L211.285 149.117L212.534 145.089H212.986L214.227 149.117L215.46 145.089H215.944Z" fill="#263238"/>
<path d="M216.233 147.457C216.233 146.979 216.35 146.512 216.568 146.114C216.785 145.717 217.095 145.407 217.457 145.224C217.82 145.041 218.218 144.993 218.603 145.086C218.988 145.18 219.341 145.41 219.618 145.748C219.895 146.086 220.084 146.516 220.161 146.985C220.237 147.454 220.198 147.94 220.048 148.382C219.898 148.823 219.644 149.201 219.318 149.466C218.992 149.732 218.608 149.873 218.216 149.873C217.953 149.886 217.691 149.832 217.445 149.715C217.2 149.598 216.978 149.42 216.791 149.193C216.605 148.966 216.46 148.695 216.364 148.396C216.267 148.097 216.223 147.777 216.233 147.457ZM219.659 147.457C219.646 147.11 219.55 146.776 219.383 146.496C219.216 146.215 218.985 146.001 218.718 145.879C218.452 145.758 218.162 145.734 217.885 145.812C217.607 145.89 217.355 146.065 217.159 146.316C216.963 146.567 216.831 146.883 216.781 147.224C216.731 147.566 216.765 147.917 216.877 148.236C216.99 148.554 217.177 148.825 217.415 149.015C217.653 149.205 217.932 149.305 218.216 149.304C218.413 149.308 218.608 149.263 218.79 149.171C218.971 149.078 219.135 148.941 219.271 148.767C219.407 148.593 219.511 148.387 219.578 148.162C219.645 147.936 219.672 147.696 219.659 147.457Z" fill="#263238"/>
<path d="M223.262 145.06V145.679H223.133C222.948 145.668 222.763 145.707 222.591 145.793C222.42 145.88 222.267 146.011 222.142 146.178C222.017 146.345 221.924 146.544 221.87 146.76C221.815 146.976 221.801 147.204 221.827 147.428V149.844H221.303V145.099H221.803V146.033C221.938 145.71 222.149 145.445 222.409 145.272C222.669 145.098 222.967 145.024 223.262 145.06Z" fill="#263238"/>
<path d="M227.679 143.144V149.834H227.179V148.852C227.021 149.163 226.799 149.418 226.534 149.59C226.269 149.763 225.972 149.847 225.672 149.834C225.148 149.834 224.646 149.581 224.276 149.129C223.905 148.678 223.697 148.066 223.697 147.427C223.697 146.789 223.905 146.177 224.276 145.725C224.646 145.274 225.148 145.02 225.672 145.02C225.968 145.015 226.26 145.102 226.519 145.274C226.779 145.446 226.998 145.697 227.155 146.003V143.154L227.679 143.144ZM227.163 147.457C227.15 147.11 227.054 146.776 226.887 146.496C226.72 146.215 226.489 146.001 226.222 145.879C225.956 145.758 225.666 145.734 225.389 145.812C225.112 145.89 224.859 146.065 224.663 146.316C224.467 146.567 224.336 146.883 224.286 147.224C224.235 147.566 224.269 147.917 224.382 148.236C224.494 148.554 224.681 148.825 224.919 149.015C225.157 149.205 225.436 149.305 225.72 149.304C225.917 149.307 226.112 149.261 226.293 149.168C226.474 149.075 226.637 148.937 226.772 148.764C226.908 148.591 227.012 148.385 227.08 148.16C227.147 147.935 227.175 147.696 227.163 147.457Z" fill="#263238"/>
</g>
<path d="M321.239 315.535C321.239 315.535 316.258 316.34 314.13 315.535C312.003 314.729 312.801 302.96 310.632 302.714C305.627 302.154 306.482 317.784 308.609 321.075C310.737 324.366 321.691 322.971 321.691 322.971L321.239 315.535Z" fill="#1C61B0"/>
<path opacity="0.2" d="M321.239 315.535C321.239 315.535 316.258 316.34 314.13 315.535C312.003 314.729 312.801 302.96 310.632 302.714C305.627 302.154 306.482 317.784 308.609 321.075C310.737 324.366 321.691 322.971 321.691 322.971L321.239 315.535Z" fill="white"/>
<path d="M321.65 343.248C321.65 343.248 314.276 263.438 323.077 262.524C331.879 261.611 334.006 289.747 330.605 342.236L321.65 343.248Z" fill="#1C61B0"/>
<path opacity="0.3" d="M321.65 343.248C321.65 343.248 314.276 263.438 323.077 262.524C331.879 261.611 334.006 289.747 330.605 342.236L321.65 343.248Z" fill="white"/>
<path d="M311.31 333.591H340.269L337.851 356.166H313.728L311.31 333.591Z" fill="#263238"/>
<path d="M330.395 288.686C330.395 288.686 338.455 289.206 338.657 288.686C338.858 288.165 338.899 276.897 342.3 277.535C345.701 278.174 344.21 291.8 342.3 293.381C340.39 294.963 330.395 295.818 330.395 295.818C330.395 295.818 329.057 290.788 330.395 288.686Z" fill="#1C61B0"/>
<path opacity="0.4" d="M330.395 288.686C330.395 288.686 338.455 289.206 338.657 288.686C338.858 288.165 338.899 276.897 342.3 277.535C345.701 278.174 344.21 291.8 342.3 293.381C340.39 294.963 330.395 295.818 330.395 295.818C330.395 295.818 329.057 290.788 330.395 288.686Z" fill="white"/>
<path d="M325.31 335.978C323.528 314.69 321.594 293.293 322.037 271.867C322.166 270.227 322.255 262.191 324.496 263.419C324.783 263.711 325.003 264.091 325.132 264.519C325.818 267.103 326.251 269.778 326.422 272.486C328.115 293.824 327.986 315.299 327.897 336.705C327.567 315.318 327.542 293.863 325.826 272.574C325.6 269.971 324.31 258.546 322.996 267.378C322.564 271.916 322.405 276.486 322.521 281.052C322.819 299.394 324.036 317.696 325.31 335.978Z" fill="#1C61B0"/>
<path d="M331.403 291.367C333.757 291.092 337.948 290.916 339.963 290.277C339.963 286.907 340.938 282.329 341.929 278.744C341.647 280.345 341.373 282.673 341.123 284.353C340.804 286.376 340.61 288.425 340.543 290.483C340.414 290.965 339.922 291.053 339.608 291.151C336.881 291.601 334.12 291.674 331.379 291.367H331.403Z" fill="#1C61B0"/>
<path d="M331.403 293.971C334.764 293.214 338.512 292.92 341.808 291.957C342.663 290.307 342.614 287.978 342.856 286.063C343.05 283.921 343.195 281.77 343.364 279.618C343.457 281.781 343.457 283.949 343.364 286.112C343.333 288.042 343.089 289.959 342.638 291.81C342.545 292.16 342.354 292.459 342.098 292.654C338.583 293.496 335.01 293.937 331.427 293.971H331.403Z" fill="#1C61B0"/>
<path d="M318.757 317.715C316.436 317.774 314.034 317.912 311.785 316.969C311.23 316.374 310.879 315.546 310.802 314.65C310.513 312.864 310.368 311.048 310.366 309.227C310.333 307.421 310.384 305.614 310.52 303.814C310.632 305.612 310.721 307.41 310.85 309.198C310.947 310.972 311.136 312.738 311.414 314.483C311.584 315.289 311.745 316.301 312.285 316.448C314.401 317.094 316.558 317.524 318.733 317.735L318.757 317.715Z" fill="#1C61B0"/>
<path d="M309.036 305.239L309.56 311.516C309.883 314.257 309.826 317.244 310.721 319.778C310.862 319.908 311.016 320.013 311.18 320.093C313.598 321.075 316.234 321.144 318.757 321.507C317.026 321.617 315.292 321.574 313.566 321.38C312.373 321.134 310.342 321.183 309.931 319.415C308.932 314.788 308.988 309.945 309.036 305.2V305.239Z" fill="#1C61B0"/>
<path d="M290.966 83.0808C293.479 77.7422 297.628 73.8375 302.502 72.224C307.375 70.6105 312.575 71.4201 316.959 74.475L316.153 76.1353L321.553 74.3473L320.087 67.7653L319.281 69.4157C314.387 65.9977 308.658 64.8062 303.112 66.0532C297.566 67.3001 292.562 70.9047 288.991 76.2257C285.421 81.5467 283.515 88.239 283.612 95.1121C283.709 101.985 285.804 108.593 289.523 113.761L293.118 109.92C290.51 106.277 288.9 101.732 288.515 96.9204C288.129 92.1086 288.986 87.2701 290.966 83.0808Z" fill="#263238"/>
<path d="M325.624 75.8306L321.997 79.5735C324.897 83.7385 326.499 89.0168 326.522 94.4798C326.544 99.9427 324.985 105.24 322.119 109.44C319.252 113.64 315.263 116.473 310.852 117.442C306.44 118.41 301.89 117.451 298.002 114.733L298.808 113.073L293.384 114.94L294.851 121.522L295.657 119.861C300.524 123.237 306.212 124.415 311.721 123.189C317.23 121.963 322.209 118.412 325.785 113.159C329.361 107.905 331.304 101.285 331.275 94.4588C331.245 87.6331 329.245 81.038 325.624 75.8306Z" fill="#263238"/>
<g opacity="0.6">
<path d="M290.966 83.0808C293.479 77.7422 297.628 73.8375 302.502 72.224C307.375 70.6105 312.575 71.4201 316.959 74.475L316.153 76.1353L321.553 74.3473L320.087 67.7653L319.281 69.4157C314.387 65.9977 308.658 64.8062 303.112 66.0532C297.566 67.3001 292.562 70.9047 288.991 76.2257C285.421 81.5467 283.515 88.239 283.612 95.1121C283.709 101.985 285.804 108.593 289.523 113.761L293.118 109.92C290.51 106.277 288.9 101.732 288.515 96.9204C288.129 92.1086 288.986 87.2701 290.966 83.0808Z" fill="white"/>
<path d="M325.624 75.8306L321.997 79.5735C324.897 83.7385 326.499 89.0168 326.522 94.4798C326.544 99.9427 324.985 105.24 322.119 109.44C319.252 113.64 315.263 116.473 310.852 117.442C306.44 118.41 301.89 117.451 298.002 114.733L298.808 113.073L293.384 114.94L294.851 121.522L295.657 119.861C300.524 123.237 306.212 124.415 311.721 123.189C317.23 121.963 322.209 118.412 325.785 113.159C329.361 107.905 331.304 101.285 331.275 94.4588C331.245 87.6331 329.245 81.038 325.624 75.8306Z" fill="white"/>
</g>
<path d="M304.039 67.0875H298.784V47.4397C298.784 43.8259 297.606 40.3601 295.51 37.8048C293.413 35.2495 290.57 33.8139 287.605 33.8139C284.64 33.8139 281.796 35.2495 279.7 37.8048C277.603 40.3601 276.426 43.8259 276.426 47.4397V67.0875H271.17V47.4397C271.17 42.1271 272.902 37.0322 275.984 33.2756C279.066 29.5191 283.246 27.4087 287.605 27.4087C291.963 27.4087 296.144 29.5191 299.226 33.2756C302.308 37.0322 304.039 42.1271 304.039 47.4397V67.0875Z" fill="#263238"/>
<g opacity="0.3">
<path d="M304.039 67.0875H298.784V47.4397C298.784 43.8259 297.606 40.3601 295.51 37.8048C293.413 35.2495 290.57 33.8139 287.605 33.8139C284.64 33.8139 281.796 35.2495 279.7 37.8048C277.603 40.3601 276.426 43.8259 276.426 47.4397V67.0875H271.17V47.4397C271.17 42.1271 272.902 37.0322 275.984 33.2756C279.066 29.5191 283.246 27.4087 287.605 27.4087C291.963 27.4087 296.144 29.5191 299.226 33.2756C302.308 37.0322 304.039 42.1271 304.039 47.4397V67.0875Z" fill="white"/>
</g>
<path d="M310.06 62.0872V94.2409C310.06 94.7311 309.981 95.2166 309.827 95.6695C309.673 96.1224 309.448 96.5339 309.163 96.8806C308.879 97.2272 308.541 97.5022 308.17 97.6898C307.798 97.8774 307.4 97.974 306.997 97.974H268.197C267.795 97.9727 267.398 97.8751 267.028 97.6868C266.658 97.4985 266.322 97.2232 266.039 96.8765C265.756 96.5299 265.532 96.1187 265.379 95.6665C265.227 95.2142 265.149 94.7298 265.15 94.2409V62.0872C265.149 61.5982 265.227 61.1138 265.379 60.6616C265.532 60.2094 265.756 59.7982 266.039 59.4516C266.322 59.1049 266.658 58.8296 267.028 58.6413C267.398 58.453 267.795 58.3554 268.197 58.3541H306.997C307.505 58.3497 308.005 58.5054 308.448 58.806C308.936 59.1224 309.345 59.5952 309.629 60.1734C309.913 60.7515 310.062 61.4133 310.06 62.0872Z" fill="#1C61B0"/>
<path opacity="0.2" d="M308.448 58.806V90.3113C308.448 90.8011 308.369 91.286 308.215 91.7384C308.061 92.1908 307.835 92.6017 307.551 92.9475C307.266 93.2934 306.928 93.5674 306.557 93.754C306.185 93.9405 305.787 94.0359 305.385 94.0346H266.585C266.083 94.0365 265.59 93.8844 265.15 93.5925V62.0872C265.149 61.5982 265.227 61.1138 265.379 60.6616C265.532 60.2094 265.756 59.7982 266.039 59.4516C266.322 59.1049 266.658 58.8296 267.028 58.6413C267.398 58.453 267.795 58.3554 268.197 58.3541H306.997C307.505 58.3497 308.005 58.5054 308.448 58.806Z" fill="white"/>
<path opacity="0.5" d="M293.384 74.1313C293.369 72.8492 293.068 71.5963 292.512 70.5077C291.956 69.4191 291.167 68.5361 290.23 67.9539C289.292 67.3717 288.242 67.1124 287.193 67.204C286.144 67.2956 285.135 67.7346 284.275 68.4736C283.415 69.2126 282.737 70.2237 282.314 71.3977C281.891 72.5718 281.739 73.8643 281.875 75.1359C282.01 76.4075 282.428 77.61 283.082 78.6136C283.737 79.6173 284.604 80.384 285.59 80.8312L285.324 89.3977H289.943L289.257 80.9982C290.459 80.545 291.509 79.6326 292.252 78.396C292.995 77.1594 293.392 75.6642 293.384 74.1313Z" fill="black"/>
<path d="M102.66 83.0806L105.336 93.5627L108.004 83.0806H102.66Z" fill="#1C61B0"/>
<path d="M127.211 58.0396H83.4533C79.6296 58.0396 76.5298 61.8177 76.5298 66.4783V77.8446C76.5298 82.5052 79.6296 86.2833 83.4533 86.2833H127.211C131.035 86.2833 134.135 82.5052 134.135 77.8446V66.4783C134.135 61.8177 131.035 58.0396 127.211 58.0396Z" fill="#1C61B0"/>
<path d="M90.0707 72.1465L91.5859 73.1879L91.191 74.0327L89.6515 72.9325V75.0446H88.8455V72.9325L87.3061 74.0327L86.9111 73.1879L88.4425 72.1465L86.9111 71.1641L87.3061 70.2996L88.8455 71.3999V69.2583H89.6515V71.3508L91.191 70.2505L91.5859 71.115L90.0707 72.1465Z" fill="white"/>
<path d="M95.4227 72.1465L96.938 73.1879L96.543 74.0327L95.0036 72.9325V75.0446H94.2459V72.9325L92.6903 74.0327L92.2954 73.1879L93.8268 72.1465L92.2954 71.1641L92.6903 70.2996L94.2298 71.3999V69.2583H94.9874V71.3508L96.5269 70.2505L96.9218 71.115L95.4227 72.1465Z" fill="white"/>
<path d="M100.75 72.1467L102.266 73.1881L101.871 74.0329L100.331 72.9326V75.0448H99.5252V72.9326L97.9858 74.0329L97.5908 73.1881L99.1142 72.1467L97.5908 71.1643L97.9858 70.2998L99.5252 71.4001V69.3076H100.331V71.4001L101.871 70.2998L102.266 71.1643L100.75 72.1467Z" fill="white"/>
<path d="M106.126 72.1467L107.641 73.1881L107.246 74.0329L105.707 72.9326V75.0448H104.941V72.9326L103.402 74.0329L103.007 73.1881L104.53 72.1467L103.007 71.1643L103.402 70.2998L104.941 71.4001V69.3076H105.707V71.4001L107.246 70.2998L107.641 71.1643L106.126 72.1467Z" fill="white"/>
<path d="M111.478 72.1467L112.993 73.1881L112.598 74.0329L111.051 72.9326V75.0448H110.245V72.9326L108.81 74.0329L108.407 73.1881L109.939 72.1467L108.407 71.1643L108.81 70.2998L110.35 71.4001V69.3076H111.156V71.4001L112.703 70.2998L113.098 71.1643L111.478 72.1467Z" fill="white"/>
<path d="M116.822 72.1467L118.345 73.1881L117.95 74.0329L116.402 72.9326V75.0448H115.637V72.9326L114.089 74.0329L113.694 73.1881L115.226 72.1467L113.694 71.1643L114.089 70.2998L115.637 71.4001V69.3076H116.402V71.4001L117.95 70.2998L118.345 71.1643L116.822 72.1467Z" fill="white"/>
<path d="M122.174 72.1465L123.689 73.1879L123.294 74.0327L121.755 72.9325V75.0446H120.949V72.9325L119.409 74.0327L119.014 73.1879L120.546 72.1465L119.014 71.1641L119.409 70.2996L120.949 71.3999V69.2583H121.755V71.3508L123.294 70.2505L123.689 71.115L122.174 72.1465Z" fill="white"/>
<path d="M140.3 156.269L145.217 152.388L139.679 148.243C139.679 148.243 135.464 152.025 137.157 154.589L140.3 156.269Z" fill="#B55B52"/>
<path d="M147.74 146.013L141.985 144.421L139.68 148.243L145.217 152.389L147.74 146.013Z" fill="#B55B52"/>
<path d="M120.094 143.675C123.205 149.412 126.325 156.387 130.572 160.857C130.653 160.935 130.62 160.857 130.306 160.857C130.145 160.906 130.226 161.004 130.556 160.857C131.523 160.185 132.375 159.291 133.063 158.224C134.639 155.895 136.042 153.4 137.254 150.768C137.31 150.66 137.254 150.768 137.254 150.886C137.233 151.065 137.233 151.247 137.254 151.426C137.326 151.514 137.068 151.259 137.568 152.605C137.804 153.034 138.139 153.369 138.53 153.566C138.922 153.764 139.353 153.816 139.769 153.715C140.035 153.645 140.286 153.508 140.507 153.314C140.727 153.119 140.912 152.871 141.05 152.585C140.924 152.766 140.811 152.96 140.712 153.165L137.101 151.288C137.188 150.663 137.398 150.074 137.713 149.569C138.005 149.169 138.39 148.888 138.817 148.764C139.236 148.664 139.67 148.717 140.064 148.916C140.459 149.115 140.796 149.452 141.034 149.884C141.534 151.239 141.284 150.984 141.356 151.082C141.365 151.396 141.341 151.709 141.284 152.015C140.018 158.568 136.714 169.364 129.863 169.423C125.027 168.883 121.36 162.409 118.643 158.322C116.716 155.176 114.939 151.896 113.324 148.498L120.054 143.685L120.094 143.675Z" fill="#B55B52"/>
<path d="M117.611 139.362C120.835 140.659 127.372 158.764 127.372 158.764L116.265 165.189C116.265 165.189 114.008 150.964 114.452 146.376C114.73 143.631 115.86 141.121 117.611 139.362Z" fill="#1C61B0"/>
<path opacity="0.7" d="M117.611 139.362C120.835 140.659 127.372 158.764 127.372 158.764L116.265 165.189C116.265 165.189 114.008 150.964 114.452 146.376C114.73 143.631 115.86 141.121 117.611 139.362Z" fill="white"/>
<path d="M130.669 349.27L125.01 351.225L123.664 340.487L122.939 334.75L128.597 332.795L129.564 340.487L130.669 349.27Z" fill="#B55B52"/>
<path d="M98.1387 349.83L92.3033 350.773L92.2468 340.487L92.2065 334.092L98.05 333.168L98.0903 340.487L98.1387 349.83Z" fill="#B55B52"/>
<path opacity="0.2" d="M98.05 333.168L98.0903 340.487H92.2468L92.2065 334.092L98.05 333.168Z" fill="black"/>
<path opacity="0.2" d="M129.564 340.487H123.664L122.939 334.75L128.597 332.795L129.564 340.487Z" fill="black"/>
<path d="M130.572 348.189L124.124 347.983C124.007 347.978 123.892 348.022 123.798 348.108C123.704 348.194 123.637 348.316 123.608 348.454L122.262 354.761C122.22 354.913 122.209 355.076 122.23 355.234C122.251 355.393 122.303 355.542 122.383 355.67C122.462 355.798 122.566 355.9 122.686 355.968C122.805 356.036 122.936 356.067 123.068 356.058C125.389 356.058 128.71 356.058 131.652 356.127C135.061 356.245 137.229 356.038 141.227 356.127C143.645 356.205 144.395 353.268 143.395 352.963C138.825 351.588 135.843 351.863 131.95 348.759C131.542 348.418 131.065 348.221 130.572 348.189Z" fill="#263238"/>
<path d="M131.063 349.064C131.059 349.029 131.063 348.992 131.076 348.961C131.089 348.929 131.11 348.903 131.136 348.887C131.41 348.73 133.82 347.344 134.521 347.855C134.588 347.902 134.643 347.969 134.681 348.05C134.719 348.131 134.739 348.223 134.739 348.317C134.746 348.471 134.724 348.625 134.674 348.767C134.623 348.909 134.546 349.034 134.449 349.132C133.788 349.8 132.111 349.466 131.168 349.201C131.141 349.195 131.116 349.178 131.097 349.153C131.078 349.129 131.066 349.097 131.063 349.064ZM131.636 348.985C132.933 349.289 133.901 349.25 134.271 348.867C134.337 348.805 134.388 348.724 134.421 348.631C134.453 348.538 134.466 348.437 134.457 348.337C134.459 348.299 134.453 348.262 134.439 348.229C134.424 348.196 134.403 348.168 134.376 348.15H134.328C133.884 347.924 132.587 348.474 131.636 348.985Z" fill="#1C61B0"/>
<path d="M131.112 349.171C131.092 349.156 131.077 349.133 131.069 349.107C131.06 349.081 131.058 349.052 131.064 349.024C131.148 348.011 131.495 347.058 132.055 346.303C132.166 346.19 132.295 346.108 132.434 346.063C132.573 346.017 132.719 346.008 132.861 346.037C133.24 346.096 133.345 346.332 133.369 346.529C133.449 347.334 131.999 348.837 131.273 349.201C131.241 349.211 131.208 349.211 131.176 349.201L131.112 349.171ZM132.797 346.371C132.695 346.355 132.592 346.364 132.494 346.398C132.395 346.431 132.304 346.489 132.224 346.568C131.778 347.173 131.496 347.931 131.418 348.739C132.16 348.238 133.151 347.059 133.095 346.568C133.095 346.568 133.095 346.46 132.974 346.411L132.797 346.371Z" fill="#1C61B0"/>
<path d="M97.905 348.189L91.457 347.983C91.3399 347.978 91.2249 348.022 91.1312 348.108C91.0374 348.194 90.9704 348.316 90.9412 348.454L89.5871 354.761C89.554 354.913 89.5497 355.072 89.5745 355.226C89.5993 355.379 89.6526 355.524 89.7303 355.649C89.808 355.774 89.9081 355.876 90.023 355.947C90.1378 356.018 90.2644 356.056 90.3931 356.058C92.7063 356.058 96.0351 356.058 98.977 356.127C102.386 356.245 104.546 356.038 108.544 356.127C110.962 356.205 111.72 353.268 110.712 352.963C106.15 351.588 103.16 351.863 99.2752 348.759C98.8692 348.421 98.3956 348.224 97.905 348.189Z" fill="#263238"/>
<path d="M98.332 349.064C98.3277 349.027 98.3333 348.99 98.3478 348.959C98.3624 348.927 98.3851 348.901 98.4126 348.887C98.6866 348.73 101.088 347.344 101.79 347.855C101.856 347.902 101.911 347.969 101.949 348.05C101.988 348.131 102.008 348.223 102.007 348.317C102.016 348.47 101.995 348.624 101.946 348.766C101.897 348.907 101.821 349.033 101.725 349.132C101.056 349.8 99.3798 349.466 98.4368 349.201C98.4105 349.192 98.3867 349.175 98.3682 349.151C98.3496 349.126 98.3371 349.096 98.332 349.064ZM98.9123 348.985C100.202 349.289 101.177 349.25 101.548 348.867C101.612 348.804 101.663 348.723 101.695 348.63C101.728 348.538 101.741 348.437 101.733 348.337C101.733 348.299 101.725 348.262 101.709 348.229C101.694 348.196 101.672 348.169 101.645 348.15H101.596C101.193 347.924 99.8956 348.474 98.9445 348.985H98.9123Z" fill="#1C61B0"/>
<path d="M98.4205 349.171C98.4003 349.156 98.3842 349.134 98.3741 349.108C98.3641 349.082 98.3606 349.053 98.3641 349.024C98.4526 348.011 98.8025 347.058 99.3636 346.303C99.474 346.19 99.6033 346.108 99.7425 346.062C99.8817 346.016 100.027 346.008 100.17 346.038C100.548 346.097 100.653 346.332 100.669 346.529C100.758 347.334 99.2991 348.837 98.5817 349.201C98.5473 349.211 98.5114 349.211 98.477 349.201L98.4205 349.171ZM100.105 346.372C100.004 346.354 99.9006 346.363 99.8021 346.397C99.7036 346.431 99.6119 346.489 99.5328 346.568C99.0898 347.175 98.8087 347.933 98.7268 348.739C99.4683 348.238 100.46 347.059 100.411 346.568C100.404 346.53 100.389 346.494 100.366 346.467C100.343 346.439 100.314 346.419 100.282 346.411C100.226 346.385 100.166 346.371 100.105 346.372Z" fill="#1C61B0"/>
<path d="M86.105 193.531C83.0099 209.859 88.3134 338.326 88.3134 338.326H98.5657L102.95 231.245L119.07 338.326L130.032 337.344C122.867 254.41 116.54 204.898 116.54 204.898V198.64L86.105 193.531Z" fill="#263238"/>
<path opacity="0.2" d="M130.048 337.324L119.087 338.306L106.392 254.017L102.959 231.235L98.5739 338.316H88.3215C88.3215 338.316 83.0181 209.829 86.105 193.531L116.572 198.65V204.907C116.572 204.907 122.883 254.44 130.048 337.324Z" fill="white"/>
<path d="M85.436 138.311C86.5097 146.02 87.1105 153.815 87.2334 161.633C87.3382 167.085 87.2334 172.272 87.0803 176.968C86.6773 187.981 85.8068 196.311 85.8471 199.17L116.604 199.838C123.939 160.641 117.636 139.362 117.636 139.362C115.251 138.555 112.829 137.925 110.382 137.476C109.844 137.391 109.307 137.312 108.77 137.24C104.42 136.837 100.055 136.739 95.6964 136.945C94.8904 136.945 94.028 137.034 93.2139 137.112C89.1033 137.535 85.436 138.311 85.436 138.311Z" fill="#1C61B0"/>
<path d="M109.769 138.517C109.769 138.517 107.939 141.749 106.472 141.975C104.393 142.319 96.8003 136.651 96.8003 136.651C98.5574 135.069 99.4198 131.621 99.7986 127.976C100.07 125.018 100.121 122.036 99.9518 119.066L107.053 128.477C106.118 131.424 105.562 134.568 107.399 136.778C108.075 137.563 108.884 138.157 109.769 138.517Z" fill="#B55B52"/>
<path opacity="0.2" d="M107.383 136.749C104.255 134.669 101.633 131.619 99.7827 127.907C100.054 124.949 100.105 121.967 99.9359 118.997L107.037 128.408C106.102 131.385 105.586 134.588 107.383 136.749Z" fill="black"/>
<path d="M115.258 110.578C115.862 113.299 115.258 118.82 112.26 116.855C109.261 114.891 114.25 105.882 115.258 110.578Z" fill="#263238"/>
<path d="M99.2346 113.378C98.6462 120.254 98.0175 124.282 100.379 128.34C103.942 134.43 111.317 132.613 113.581 126.041C115.629 120.146 116.241 109.831 111.107 106.059C109.968 105.224 108.674 104.756 107.345 104.697C106.017 104.638 104.698 104.99 103.512 105.721C102.326 106.453 101.312 107.538 100.564 108.877C99.8155 110.216 99.3582 111.765 99.2346 113.378Z" fill="#B55B52"/>
<path d="M103.345 109.821L103.627 102.09C103.627 102.09 96.8892 101.108 97.0424 105.352C93.2219 107.415 94.7372 114.596 99.6377 118.339C102.491 115.804 102.402 109.311 102.402 109.311C102.692 109.487 103.015 109.654 103.345 109.821Z" fill="#263238"/>
<path d="M96.2928 118.633C96.396 119.487 96.6373 120.306 97.0026 121.045C97.3679 121.784 97.8499 122.426 98.4206 122.936C99.952 124.292 101.395 122.799 101.524 120.618C101.645 118.653 100.992 115.578 99.1863 115.087C98.788 114.991 98.3766 115.017 97.9884 115.162C97.6003 115.307 97.2474 115.566 96.9612 115.917C96.675 116.267 96.4642 116.699 96.3476 117.173C96.231 117.647 96.2122 118.148 96.2928 118.633Z" fill="#B55B52"/>
<path d="M107.512 116.905C107.431 117.465 107.617 117.956 107.915 118.015C108.213 118.074 108.52 117.671 108.592 117.111C108.665 116.551 108.487 116.06 108.189 116.001C107.891 115.942 107.585 116.345 107.512 116.905Z" fill="#263238"/>
<path d="M112.687 117.887C112.614 118.447 112.799 118.948 113.098 118.997C113.396 119.046 113.702 118.653 113.775 118.093C113.847 117.533 113.67 117.042 113.372 116.983C113.074 116.924 112.767 117.337 112.687 117.887Z" fill="#263238"/>
<path d="M111.002 117.887C111.348 119.639 111.891 121.325 112.614 122.897C112.262 123.088 111.88 123.187 111.494 123.187C111.108 123.187 110.726 123.088 110.374 122.897L111.002 117.887Z" fill="#A02724"/>
<path d="M107.625 124.567C107.817 124.641 108.014 124.697 108.213 124.734C108.249 124.74 108.284 124.729 108.313 124.703C108.341 124.677 108.361 124.639 108.367 124.597C108.37 124.575 108.37 124.552 108.366 124.53C108.362 124.508 108.355 124.488 108.344 124.469C108.334 124.451 108.32 124.435 108.305 124.424C108.289 124.412 108.272 124.404 108.254 124.4C107.685 124.307 107.142 124.053 106.669 123.657C106.195 123.261 105.805 122.735 105.529 122.121C105.523 122.1 105.514 122.081 105.501 122.066C105.489 122.05 105.474 122.037 105.457 122.029C105.44 122.02 105.422 122.016 105.404 122.017C105.386 122.018 105.368 122.023 105.352 122.033C105.319 122.05 105.293 122.082 105.28 122.123C105.266 122.163 105.266 122.208 105.28 122.249C105.52 122.81 105.852 123.306 106.255 123.704C106.658 124.103 107.125 124.397 107.625 124.567Z" fill="#263238"/>
<path d="M106.191 114.566C106.236 114.585 106.286 114.588 106.333 114.574C106.38 114.56 106.423 114.53 106.457 114.488C106.7 114.192 106.996 113.969 107.322 113.836C107.648 113.703 107.994 113.664 108.335 113.722C108.369 113.731 108.405 113.733 108.439 113.725C108.474 113.718 108.508 113.703 108.537 113.68C108.567 113.657 108.593 113.628 108.614 113.593C108.634 113.557 108.649 113.518 108.657 113.476C108.665 113.434 108.666 113.391 108.66 113.348C108.654 113.306 108.642 113.265 108.623 113.229C108.604 113.192 108.58 113.16 108.551 113.135C108.522 113.11 108.49 113.093 108.455 113.083C108.028 112.994 107.589 113.033 107.177 113.196C106.764 113.358 106.39 113.64 106.086 114.016C106.035 114.079 106.006 114.164 106.006 114.252C106.006 114.34 106.035 114.425 106.086 114.488C106.116 114.523 106.152 114.549 106.191 114.566Z" fill="#263238"/>
<path d="M115.258 116.148C115.308 116.168 115.361 116.168 115.411 116.148C115.48 116.123 115.539 116.066 115.573 115.988C115.608 115.911 115.616 115.82 115.596 115.735C115.483 115.229 115.27 114.763 114.977 114.378C114.684 113.993 114.318 113.7 113.912 113.525C113.842 113.503 113.769 113.514 113.706 113.556C113.643 113.598 113.596 113.668 113.573 113.751C113.553 113.836 113.561 113.927 113.596 114.004C113.631 114.081 113.689 114.139 113.759 114.164C114.081 114.302 114.37 114.536 114.599 114.845C114.829 115.154 114.991 115.527 115.072 115.932C115.086 115.984 115.111 116.03 115.143 116.068C115.175 116.106 115.215 116.133 115.258 116.148Z" fill="#263238"/>
<path d="M97.0423 105.352C97.0423 105.352 93.5603 101.137 105.376 101.52C117.192 101.903 119.159 109.979 113.743 111.855L113.501 110.539C112.571 111.123 111.549 111.459 110.503 111.523C109.458 111.588 108.414 111.379 107.44 110.912L108.294 110.264C108.294 110.264 100.226 111.266 97.0423 105.352Z" fill="#263238"/>
<path d="M106.472 141.945C106.472 141.945 104.965 144.067 103.248 146.16C100.742 144.618 94.8741 140.482 95.1884 136.66C95.535 135.55 97.9208 134.843 97.9208 134.843C97.9208 134.843 100.452 138.959 106.472 141.945Z" fill="#1C61B0"/>
<path d="M106.473 141.946C107.706 143.157 108.791 144.576 109.697 146.16C111.542 144.706 110.615 137.594 109.938 136.808C108.962 136.158 107.867 135.82 106.755 135.825C107.12 136.796 107.285 137.861 107.236 138.928C107.187 139.995 106.925 141.03 106.473 141.946Z" fill="#1C61B0"/>
<g opacity="0.5">
<path d="M106.472 141.945C106.472 141.945 104.965 144.067 103.248 146.16C100.742 144.618 94.8741 140.482 95.1884 136.66C95.535 135.55 97.9208 134.843 97.9208 134.843C97.9208 134.843 100.452 138.959 106.472 141.945Z" fill="white"/>
<path d="M106.473 141.946C107.706 143.157 108.791 144.576 109.697 146.16C111.542 144.706 110.615 137.594 109.938 136.808C108.962 136.158 107.867 135.82 106.755 135.825C107.12 136.796 107.285 137.861 107.236 138.928C107.187 139.995 106.925 141.03 106.473 141.946Z" fill="white"/>
</g>
<path opacity="0.2" d="M106.392 254.017L102.958 231.235L103.619 219.181C103.619 219.181 108.318 240.086 106.392 254.017Z" fill="black"/>
<path d="M88.66 148.714C85.6778 154.776 81.0594 163.45 78.5286 169.61C77.1826 173.097 76.7635 176.83 76.03 180.593C75.3288 184.611 74.6276 188.708 73.8538 192.755L70.0011 192.342C69.8641 188.089 69.8963 183.874 70.1059 179.62C70.3719 175.19 70.5653 170.406 71.9355 166.201C74.6598 158.116 78.2465 150.885 82.0911 143.606L88.66 148.734V148.714Z" fill="#B55B52"/>
<path d="M85.4362 138.311C81.108 139.677 73.3462 158.637 73.3462 158.637L82.5427 165.897L90.8364 156.073C91.3125 152.516 91.1335 148.875 90.3125 145.414C88.9665 139.5 85.4362 138.311 85.4362 138.311Z" fill="#1C61B0"/>
<path opacity="0.7" d="M85.4362 138.311C81.108 139.677 73.3462 158.637 73.3462 158.637L82.5427 165.897L90.8364 156.073C91.3125 152.516 91.1335 148.875 90.3125 145.414C88.9665 139.5 85.4362 138.311 85.4362 138.311Z" fill="white"/>
<path d="M88.6982 196.757L152.589 114.178C152.933 113.733 153.346 113.375 153.804 113.124C154.261 112.874 154.755 112.736 155.256 112.718C155.758 112.7 156.257 112.803 156.726 113.02C157.195 113.237 157.624 113.565 157.989 113.985L159.532 115.757C160.269 116.605 160.7 117.774 160.729 119.009C160.759 120.243 160.385 121.441 159.69 122.34L95.7994 204.919L88.6982 196.757Z" fill="#263238"/>
<path opacity="0.6" d="M88.6982 196.757L152.589 114.178C152.933 113.733 153.346 113.375 153.804 113.124C154.261 112.874 154.755 112.736 155.256 112.718C155.758 112.7 156.257 112.803 156.726 113.02C157.195 113.237 157.624 113.565 157.989 113.985L159.532 115.757C160.269 116.605 160.7 117.774 160.729 119.009C160.759 120.243 160.385 121.441 159.69 122.34L95.7994 204.919L88.6982 196.757Z" fill="white"/>
<path opacity="0.2" d="M158.46 114.537L159.532 115.765C159.897 116.184 160.19 116.686 160.396 117.242C160.601 117.799 160.715 118.4 160.73 119.01C160.745 119.621 160.661 120.229 160.483 120.8C160.305 121.371 160.037 121.893 159.693 122.337L95.8012 204.927L94.7373 203.699L158.629 121.109C158.972 120.664 159.24 120.141 159.417 119.57C159.595 118.999 159.678 118.391 159.662 117.78C159.646 117.17 159.532 116.569 159.326 116.013C159.119 115.456 158.825 114.955 158.46 114.537Z" fill="black"/>
<path d="M138.076 146.514L149.916 160.13L151.455 158.136L149.924 156.377L152.358 153.224L151.463 152.192L155.123 147.467L156.017 148.498L158.306 145.541L159.838 147.31L161.426 145.247L160.531 144.215L162.82 141.248L161.023 139.185L162.522 137.25L165.222 140.344L167.962 136.808L156.122 123.192L138.076 146.514Z" fill="#263238"/>
<path opacity="0.6" d="M138.076 146.514L149.916 160.13L151.455 158.136L149.924 156.377L152.358 153.224L151.463 152.192L155.123 147.467L156.017 148.498L158.306 145.541L159.838 147.31L161.426 145.247L160.531 144.215L162.82 141.248L161.023 139.185L162.522 137.25L165.222 140.344L167.962 136.808L156.122 123.192L138.076 146.514Z" fill="white"/>
<g opacity="0.2">
<path opacity="0.6" d="M150.388 156.921L148.851 158.908L149.918 160.134L151.456 158.147L150.388 156.921Z" fill="black"/>
<path opacity="0.6" d="M156.017 148.498L155.123 147.457L151.463 152.192L152.358 153.223L149.924 156.377L148.852 155.149L151.294 151.995L150.392 150.964L154.051 146.229L154.953 147.27L157.234 144.313L158.306 145.541L156.017 148.498Z" fill="black"/>
<path opacity="0.6" d="M159.459 142.977L161.756 140.02L162.828 141.248L160.531 144.215L161.434 145.246L159.838 147.309L158.774 146.081L160.362 144.018L159.459 142.977Z" fill="black"/>
<path opacity="0.6" d="M161.446 136.018L159.948 137.955L161.015 139.181L162.514 137.244L161.446 136.018Z" fill="black"/>
<path opacity="0.6" d="M166.893 135.586L164.15 139.131L165.217 140.358L167.96 136.813L166.893 135.586Z" fill="black"/>
</g>
<path d="M150.888 114.856L131.302 140.171C130.978 140.59 130.994 141.249 131.337 141.643L138.444 149.812C138.788 150.207 139.328 150.187 139.652 149.769L159.239 124.453C159.562 124.035 159.546 123.376 159.203 122.981L152.096 114.812C151.753 114.418 151.212 114.437 150.888 114.856Z" fill="#263238"/>
<path d="M96.1719 231.619C94.6854 233.54 92.9029 235.087 90.9261 236.169C88.9493 237.251 86.817 237.848 84.651 237.925C82.4849 238.003 80.3275 237.56 78.302 236.621C76.2766 235.682 74.4227 234.266 72.8462 232.454L67.4944 226.304C65.9176 224.492 64.649 222.319 63.7612 219.91C62.8734 217.501 62.3837 214.902 62.3201 212.262C62.2565 209.622 62.6202 206.992 63.3905 204.523C64.1607 202.055 65.3224 199.795 66.8093 197.873C68.2971 195.944 70.0827 194.391 72.0638 193.305C74.0449 192.218 76.1825 191.619 78.354 191.541C80.5256 191.464 82.6883 191.909 84.7182 192.853C86.7481 193.796 88.6053 195.218 90.1833 197.038L95.5271 203.188C97.1011 205.003 98.3664 207.178 99.2507 209.59C100.135 212.001 100.621 214.601 100.681 217.241C100.741 219.881 100.373 222.509 99.5997 224.976C98.826 227.443 97.6613 229.7 96.1719 231.619Z" fill="#263238"/>
<path d="M90.0222 224.545C89.2825 225.503 88.3953 226.274 87.4112 226.813C86.4271 227.353 85.3654 227.651 84.2868 227.69C83.2081 227.729 82.1337 227.509 81.125 227.042C80.1162 226.575 79.1929 225.87 78.4077 224.968L73.346 219.073C72.5608 218.171 71.9292 217.089 71.4872 215.89C71.0452 214.69 70.8015 213.395 70.7701 212.081C70.7387 210.766 70.9201 209.457 71.304 208.228C71.6879 206.998 72.2668 205.874 73.0075 204.917C73.7464 203.959 74.6332 203.189 75.617 202.649C76.6007 202.11 77.6622 201.813 78.7404 201.774C79.8187 201.736 80.8925 201.957 81.9004 202.426C82.9083 202.894 83.8304 203.601 84.6139 204.505L89.7239 210.399C91.3018 212.227 92.2195 214.744 92.2754 217.397C92.3313 220.05 91.5209 222.621 90.0222 224.545Z" fill="white"/>
<path opacity="0.5" d="M150.888 114.856L131.302 140.171C130.978 140.59 130.994 141.249 131.337 141.643L138.444 149.812C138.788 150.207 139.328 150.187 139.652 149.769L159.239 124.453C159.562 124.035 159.546 123.376 159.203 122.981L152.096 114.812C151.753 114.418 151.212 114.437 150.888 114.856Z" fill="white"/>
<g opacity="0.5">
<path d="M96.1719 231.619C94.6854 233.54 92.9029 235.087 90.9261 236.169C88.9493 237.251 86.817 237.848 84.651 237.925C82.4849 238.003 80.3275 237.56 78.302 236.621C76.2766 235.682 74.4227 234.266 72.8462 232.454L67.4944 226.304C65.9176 224.492 64.649 222.319 63.7612 219.91C62.8734 217.501 62.3837 214.902 62.3201 212.262C62.2565 209.622 62.6202 206.992 63.3905 204.523C64.1607 202.055 65.3224 199.795 66.8093 197.873C68.2971 195.944 70.0827 194.391 72.0638 193.305C74.0449 192.218 76.1825 191.619 78.354 191.541C80.5256 191.464 82.6883 191.909 84.7182 192.853C86.7481 193.796 88.6053 195.218 90.1833 197.038L95.5271 203.188C97.1011 205.003 98.3664 207.178 99.2507 209.59C100.135 212.001 100.621 214.601 100.681 217.241C100.741 219.881 100.373 222.509 99.5997 224.976C98.826 227.443 97.6613 229.7 96.1719 231.619Z" fill="white"/>
<path d="M90.0222 224.545C89.2825 225.503 88.3953 226.274 87.4112 226.813C86.4271 227.353 85.3654 227.651 84.2868 227.69C83.2081 227.729 82.1337 227.509 81.125 227.042C80.1162 226.575 79.1929 225.87 78.4077 224.968L73.346 219.073C72.5608 218.171 71.9292 217.089 71.4872 215.89C71.0452 214.69 70.8015 213.395 70.7701 212.081C70.7387 210.766 70.9201 209.457 71.304 208.228C71.6879 206.998 72.2668 205.874 73.0075 204.917C73.7464 203.959 74.6332 203.189 75.617 202.649C76.6007 202.11 77.6622 201.813 78.7404 201.774C79.8187 201.736 80.8925 201.957 81.9004 202.426C82.9083 202.894 83.8304 203.601 84.6139 204.505L89.7239 210.399C91.3018 212.227 92.2195 214.744 92.2754 217.397C92.3313 220.05 91.5209 222.621 90.0222 224.545Z" fill="white"/>
</g>
<path opacity="0.2" d="M157.065 120.52L159.209 122.976C159.29 123.072 159.354 123.188 159.397 123.315C159.441 123.443 159.464 123.579 159.464 123.717C159.464 123.855 159.441 123.992 159.397 124.119C159.354 124.247 159.29 124.362 159.209 124.459L139.623 149.765C139.544 149.863 139.45 149.941 139.347 149.994C139.243 150.048 139.131 150.075 139.019 150.075C138.906 150.075 138.795 150.048 138.691 149.994C138.587 149.941 138.493 149.863 138.414 149.765L136.278 147.309C136.438 147.502 136.654 147.61 136.879 147.61C137.104 147.61 137.319 147.502 137.479 147.309L157.065 121.993C157.145 121.897 157.209 121.782 157.253 121.656C157.297 121.529 157.319 121.394 157.319 121.256C157.319 121.119 157.297 120.983 157.253 120.857C157.209 120.73 157.145 120.616 157.065 120.52Z" fill="black"/>
<g opacity="0.2">
<path d="M83.0182 202.687L84.6301 204.524C83.0285 202.837 80.9545 201.967 78.8401 202.097C76.7257 202.227 74.734 203.346 73.2796 205.221C71.8253 207.097 71.0205 209.583 71.0329 212.164C71.0453 214.744 71.8739 217.219 73.3461 219.073L71.7341 217.226C70.1491 215.403 69.2234 212.886 69.1606 210.23C69.0979 207.574 69.9033 204.997 71.3997 203.065C72.896 201.133 74.9607 200.005 77.1396 199.928C79.3185 199.852 81.4331 200.834 83.0182 202.658V202.687Z" fill="black"/>
<path d="M93.8908 201.39L95.5028 203.237C98.5862 206.926 100.36 211.942 100.443 217.208C100.526 222.473 98.9116 227.569 95.9467 231.4C92.9819 235.231 88.9028 237.492 84.5852 237.698C80.2676 237.905 76.0559 236.039 72.8542 232.503L71.2422 230.665C74.4332 234.285 78.6695 236.22 83.0264 236.046C87.3833 235.873 91.5071 233.606 94.4977 229.741C97.4883 225.875 99.103 220.724 98.9893 215.413C98.8756 210.101 97.0427 205.06 93.8908 201.39Z" fill="black"/>
</g>
<g opacity="0.2">
<path d="M83.0182 202.687L84.6301 204.524C83.0285 202.837 80.9545 201.967 78.8401 202.097C76.7257 202.227 74.734 203.346 73.2796 205.221C71.8253 207.097 71.0205 209.583 71.0329 212.164C71.0453 214.744 71.8739 217.219 73.3461 219.073L71.7341 217.226C70.1491 215.403 69.2234 212.886 69.1606 210.23C69.0979 207.574 69.9033 204.997 71.3997 203.065C72.896 201.133 74.9607 200.005 77.1396 199.928C79.3185 199.852 81.4331 200.834 83.0182 202.658V202.687Z" fill="black"/>
<path d="M83.0182 202.687L84.6301 204.524C83.0285 202.837 80.9545 201.967 78.8401 202.097C76.7257 202.227 74.734 203.346 73.2796 205.221C71.8253 207.097 71.0205 209.583 71.0329 212.164C71.0453 214.744 71.8739 217.219 73.3461 219.073L71.7341 217.226C70.1491 215.403 69.2234 212.886 69.1606 210.23C69.0979 207.574 69.9033 204.997 71.3997 203.065C72.896 201.133 74.9607 200.005 77.1396 199.928C79.3185 199.852 81.4331 200.834 83.0182 202.658V202.687Z" fill="black"/>
</g>
<path d="M70.7506 203.561L76.6747 201.753L76.0138 196.478L68.792 198.256L70.7506 203.561Z" fill="#B55B52"/>
<path d="M70.1703 191.35L68.792 198.227L76.046 196.449C76.046 196.449 76.1427 190.269 73.4507 189.867L70.1703 191.35Z" fill="#B55B52"/>
</svg>
