<svg width="20" height="20" viewBox="0 0 20 20" fill="none" xmlns="http://www.w3.org/2000/svg">
<path d="M15 5.96675C14.95 5.95842 14.8917 5.95842 14.8417 5.96675C13.6917 5.92508 12.775 4.98342 12.775 3.81675C12.775 2.62508 13.7333 1.66675 14.925 1.66675C16.1167 1.66675 17.075 2.63342 17.075 3.81675C17.0667 4.98342 16.15 5.92508 15 5.96675Z" stroke="#8A8A8A" stroke-width="1.5" stroke-linecap="round" stroke-linejoin="round"/>
<path d="M14.1417 12.0333C15.2833 12.225 16.5417 12.025 17.425 11.4333C18.6 10.65 18.6 9.36664 17.425 8.58331C16.5333 7.99164 15.2583 7.79163 14.1167 7.99163" stroke="#8A8A8A" stroke-width="1.5" stroke-linecap="round" stroke-linejoin="round"/>
<path d="M4.975 5.96675C5.025 5.95842 5.08333 5.95842 5.13333 5.96675C6.28333 5.92508 7.2 4.98342 7.2 3.81675C7.2 2.62508 6.24167 1.66675 5.05 1.66675C3.85833 1.66675 2.9 2.63342 2.9 3.81675C2.90833 4.98342 3.825 5.92508 4.975 5.96675Z" stroke="#8A8A8A" stroke-width="1.5" stroke-linecap="round" stroke-linejoin="round"/>
<path d="M5.83333 12.0333C4.69167 12.225 3.43333 12.025 2.55 11.4333C1.375 10.65 1.375 9.36664 2.55 8.58331C3.44167 7.99164 4.71667 7.79163 5.85833 7.99163" stroke="#8A8A8A" stroke-width="1.5" stroke-linecap="round" stroke-linejoin="round"/>
<path d="M10 12.1916C9.95 12.1833 9.89167 12.1833 9.84167 12.1916C8.69167 12.1499 7.775 11.2083 7.775 10.0416C7.775 8.84994 8.73333 7.8916 9.925 7.8916C11.1167 7.8916 12.075 8.85827 12.075 10.0416C12.0667 11.2083 11.15 12.1583 10 12.1916Z" stroke="#8A8A8A" stroke-width="1.5" stroke-linecap="round" stroke-linejoin="round"/>
<path d="M7.575 14.8166C6.4 15.5999 6.4 16.8832 7.575 17.6666C8.90834 18.5582 11.0917 18.5582 12.425 17.6666C13.6 16.8832 13.6 15.5999 12.425 14.8166C11.1 13.9332 8.90834 13.9332 7.575 14.8166Z" stroke="#8A8A8A" stroke-width="1.5" stroke-linecap="round" stroke-linejoin="round"/>
</svg>
