<svg width="20" height="20" viewBox="0 0 20 20" fill="none" xmlns="http://www.w3.org/2000/svg">
<path d="M10 9.79175V10.2084M10 6.66675V7.08341M10 12.9167V13.3334M15.8333 15.8334C16.2754 15.8334 16.6993 15.6578 17.0118 15.3453C17.3244 15.0327 17.5 14.6088 17.5 14.1667V11.6667C17.058 11.6667 16.634 11.4912 16.3215 11.1786C16.0089 10.866 15.8333 10.4421 15.8333 10.0001C15.8333 9.55805 16.0089 9.13413 16.3215 8.82157C16.634 8.50901 17.058 8.33341 17.5 8.33341V5.83341C17.5 5.39139 17.3244 4.96746 17.0118 4.6549C16.6993 4.34234 16.2754 4.16675 15.8333 4.16675H4.16667C3.72464 4.16675 3.30072 4.34234 2.98816 4.6549C2.67559 4.96746 2.5 5.39139 2.5 5.83341V8.33341C2.94203 8.33341 3.36595 8.50901 3.67851 8.82157C3.99107 9.13413 4.16667 9.55805 4.16667 10.0001C4.16667 10.4421 3.99107 10.866 3.67851 11.1786C3.36595 11.4912 2.94203 11.6667 2.5 11.6667V14.1667C2.5 14.6088 2.67559 15.0327 2.98816 15.3453C3.30072 15.6578 3.72464 15.8334 4.16667 15.8334H15.8333Z" stroke="#8A8A8A" stroke-width="1.5" stroke-linecap="round" stroke-linejoin="round"/>
</svg>
