<svg width="120" height="120" viewBox="0 0 120 120" fill="none" xmlns="http://www.w3.org/2000/svg">
<rect width="120" height="120" rx="60" fill="#4A90E2" fill-opacity="0.25"/>
<path d="M60 59.5V60.5M60 52V53M60 67V68M74 74C75.0609 74 76.0783 73.5786 76.8284 72.8284C77.5786 72.0783 78 71.0609 78 70V64C76.9391 64 75.9217 63.5786 75.1716 62.8284C74.4214 62.0783 74 61.0609 74 60C74 58.9391 74.4214 57.9217 75.1716 57.1716C75.9217 56.4214 76.9391 56 78 56V50C78 48.9391 77.5786 47.9217 76.8284 47.1716C76.0783 46.4214 75.0609 46 74 46H46C44.9391 46 43.9217 46.4214 43.1716 47.1716C42.4214 47.9217 42 48.9391 42 50V56C43.0609 56 44.0783 56.4214 44.8284 57.1716C45.5786 57.9217 46 58.9391 46 60C46 61.0609 45.5786 62.0783 44.8284 62.8284C44.0783 63.5786 43.0609 64 42 64V70C42 71.0609 42.4214 72.0783 43.1716 72.8284C43.9217 73.5786 44.9391 74 46 74H74Z" stroke="#4A90E2" stroke-width="2.5" stroke-linecap="round" stroke-linejoin="round"/>
</svg>
