<svg width="29" height="24" viewBox="0 0 29 24" fill="none" xmlns="http://www.w3.org/2000/svg">
<g filter="url(#filter0_d_2211_24612)">
<path d="M11.1819 12.5078L22.6913 0.427617C22.9629 0.142539 23.2798 0 23.642 0C24.0041 0 24.321 0.142539 24.5926 0.427617C24.8642 0.712695 25 1.05146 25 1.44392C25 1.83638 24.8642 2.17467 24.5926 2.4588L12.1326 15.5724C11.861 15.8575 11.5441 16 11.1819 16C10.8198 16 10.5029 15.8575 10.2313 15.5724L4.39174 9.44321C4.12013 9.15813 3.98976 8.81984 4.00063 8.42833C4.01149 8.03682 4.15318 7.69805 4.42569 7.41203C4.69821 7.126 5.02097 6.98346 5.39398 6.98441C5.76698 6.98536 6.08929 7.1279 6.3609 7.41203L11.1819 12.5078Z" fill="#4CAF50"/>
</g>
<defs>
<filter id="filter0_d_2211_24612" x="0" y="0" width="29" height="24" filterUnits="userSpaceOnUse" color-interpolation-filters="sRGB">
<feFlood flood-opacity="0" result="BackgroundImageFix"/>
<feColorMatrix in="SourceAlpha" type="matrix" values="0 0 0 0 0 0 0 0 0 0 0 0 0 0 0 0 0 0 127 0" result="hardAlpha"/>
<feOffset dy="4"/>
<feGaussianBlur stdDeviation="2"/>
<feComposite in2="hardAlpha" operator="out"/>
<feColorMatrix type="matrix" values="0 0 0 0 0 0 0 0 0 0 0 0 0 0 0 0 0 0 0.25 0"/>
<feBlend mode="normal" in2="BackgroundImageFix" result="effect1_dropShadow_2211_24612"/>
<feBlend mode="normal" in="SourceGraphic" in2="effect1_dropShadow_2211_24612" result="shape"/>
</filter>
</defs>
</svg>
