<svg width="12" height="12" viewBox="0 0 12 12" fill="none" xmlns="http://www.w3.org/2000/svg">
<path d="M10.8349 7.15L10.6349 9.65C10.5599 10.415 10.4999 11 9.14488 11H2.85488C1.49988 11 1.43988 10.415 1.36488 9.65L1.16488 7.15C1.12488 6.735 1.25488 6.35 1.48988 6.055C1.49488 6.05 1.49488 6.05 1.49988 6.045C1.77488 5.71 2.18988 5.5 2.65488 5.5H9.34488C9.80988 5.5 10.2199 5.71 10.4899 6.035C10.4949 6.04 10.4999 6.045 10.4999 6.05C10.7449 6.345 10.8799 6.73 10.8349 7.15Z" stroke="#8A8A8A" stroke-miterlimit="10"/>
<path d="M1.75 5.71514V3.14014C1.75 1.44014 2.175 1.01514 3.875 1.01514H4.51C5.145 1.01514 5.29 1.20514 5.53 1.52514L6.165 2.37514C6.325 2.58514 6.42 2.71514 6.845 2.71514H8.12C9.82 2.71514 10.245 3.14014 10.245 4.84014V5.73514" stroke="#8A8A8A" stroke-miterlimit="10" stroke-linecap="round" stroke-linejoin="round"/>
<path d="M4.71484 8.5H7.28484" stroke="#8A8A8A" stroke-miterlimit="10" stroke-linecap="round" stroke-linejoin="round"/>
</svg>
