<svg width="20" height="20" viewBox="0 0 20 20" fill="none" xmlns="http://www.w3.org/2000/svg">
<path d="M9.99935 17.0827H5.83268C3.33268 17.0827 1.66602 15.8327 1.66602 12.916V7.08268C1.66602 4.16602 3.33268 2.91602 5.83268 2.91602H14.166C16.666 2.91602 18.3327 4.16602 18.3327 7.08268V9.58268" stroke="#B3B3B3" stroke-width="1.5" stroke-miterlimit="10" stroke-linecap="round" stroke-linejoin="round"/>
<path d="M14.1673 7.5L11.559 9.58333C10.7006 10.2667 9.29231 10.2667 8.43398 9.58333L5.83398 7.5" stroke="#B3B3B3" stroke-width="1.5" stroke-miterlimit="10" stroke-linecap="round" stroke-linejoin="round"/>
<path d="M16.0085 12.3076L13.0585 15.2576C12.9419 15.3743 12.8335 15.5909 12.8085 15.7493L12.6502 16.8743C12.5919 17.2826 12.8752 17.5659 13.2835 17.5076L14.4085 17.3493C14.5669 17.3243 14.7919 17.2159 14.9002 17.0993L17.8502 14.1493C18.3585 13.6409 18.6002 13.0493 17.8502 12.2993C17.1085 11.5576 16.5169 11.7993 16.0085 12.3076Z" stroke="#B3B3B3" stroke-width="1.5" stroke-miterlimit="10" stroke-linecap="round" stroke-linejoin="round"/>
<path d="M15.584 12.7324C15.834 13.6324 16.534 14.3324 17.434 14.5824" stroke="#B3B3B3" stroke-width="1.5" stroke-miterlimit="10" stroke-linecap="round" stroke-linejoin="round"/>
</svg>
