<svg width="40" height="40" viewBox="0 0 40 40" fill="none" xmlns="http://www.w3.org/2000/svg">
<rect width="40" height="40" rx="20" fill="#4A90E2"/>
<path d="M10 20.0601C10.0006 22.4561 10.8505 24.7733 12.397 26.5953C13.9435 28.4173 16.0851 29.6245 18.437 30V22.9679H15.9V20.0601H18.44V17.8465C18.3839 17.3284 18.4419 16.8043 18.6098 16.3113C18.7777 15.8183 19.0515 15.3685 19.4116 14.994C19.7718 14.6194 20.2095 14.3292 20.6936 14.144C21.1778 13.9589 21.6965 13.8832 22.213 13.9225C22.963 13.9345 23.713 14.0019 24.453 14.1237V16.5979H23.189C22.9742 16.5695 22.7558 16.5902 22.5499 16.6582C22.3441 16.7262 22.1561 16.84 21.9998 16.9909C21.8435 17.1419 21.7229 17.3263 21.647 17.5305C21.571 17.7346 21.5416 17.9534 21.561 18.1705V20.0601H24.332L23.889 22.9689H21.561V30C23.4486 29.6998 25.2112 28.8618 26.6402 27.585C28.0691 26.3082 29.1045 24.6461 29.6238 22.7957C30.143 20.9452 30.1244 18.9837 29.5702 17.1435C29.0159 15.3033 27.9492 13.6615 26.4964 12.4123C25.0435 11.1632 23.2653 10.3591 21.3724 10.0952C19.4794 9.83132 17.5509 10.1187 15.8153 10.9234C14.0796 11.728 12.6094 13.0163 11.5788 14.6355C10.5482 16.2548 10.0003 18.1372 10 20.0601Z" fill="white"/>
</svg>
