<svg width="28" height="28" viewBox="0 0 28 28" fill="none" xmlns="http://www.w3.org/2000/svg">
<path d="M27.7277 11.2579H26.6V11.1998H14V16.7997H21.9121C20.7578 20.0596 17.6561 22.3996 14 22.3996C9.3611 22.3996 5.6 18.6386 5.6 13.9998C5.6 9.36094 9.3611 5.5999 14 5.5999C16.1413 5.5999 18.0894 6.40769 19.5727 7.72717L23.5326 3.76734C21.0322 1.43708 17.6876 0 14 0C6.2685 0 0 6.26839 0 13.9998C0 21.7311 6.2685 27.9995 14 27.9995C21.7315 27.9995 28 21.7311 28 13.9998C28 13.0611 27.9034 12.1448 27.7277 11.2579Z" fill="#FFC107"/>
<path d="M1.61444 7.48357L6.21414 10.8568C7.45874 7.77547 10.4729 5.5999 14.0002 5.5999C16.1415 5.5999 18.0896 6.40769 19.5729 7.72717L23.5328 3.76733C21.0324 1.43708 17.6878 0 14.0002 0C8.62284 0 3.95944 3.03585 1.61444 7.48357Z" fill="#FF3D00"/>
<path d="M14.0002 27.9999C17.6164 27.9999 20.9022 26.616 23.3865 24.3656L19.0535 20.699C17.6009 21.8043 15.8255 22.402 14.0002 22.4C10.3588 22.4 7.26691 20.0781 6.10211 16.8379L1.53671 20.3553C3.85371 24.8892 8.55911 27.9999 14.0002 27.9999Z" fill="#4CAF50"/>
<path d="M27.7277 11.2578H26.6V11.1997H14V16.7996H21.9121C21.3599 18.3511 20.3653 19.7068 19.0512 20.6992L19.0533 20.6978L23.3863 24.3644C23.0797 24.643 28 20.9995 28 13.9997C28 13.061 27.9034 12.1447 27.7277 11.2578Z" fill="#4A90E2"/>
</svg>
