<svg width="120" height="120" viewBox="0 0 120 120" fill="none" xmlns="http://www.w3.org/2000/svg">
<rect width="120" height="120" rx="60" fill="#4A90E2" fill-opacity="0.25"/>
<path d="M72.0002 50.32C71.8802 50.3 71.7402 50.3 71.6202 50.32C68.8602 50.22 66.6602 47.96 66.6602 45.16C66.6602 42.3 68.9602 40 71.8202 40C74.6802 40 76.9801 42.32 76.9801 45.16C76.9601 47.96 74.7602 50.22 72.0002 50.32Z" stroke="#4A90E2" stroke-width="2.5" stroke-linecap="round" stroke-linejoin="round"/>
<path d="M69.9399 64.8801C72.6799 65.3401 75.6999 64.8601 77.8199 63.4401C80.6399 61.5601 80.6399 58.4801 77.8199 56.6001C75.6799 55.1801 72.6199 54.7001 69.8799 55.1801" stroke="#4A90E2" stroke-width="2.5" stroke-linecap="round" stroke-linejoin="round"/>
<path d="M47.94 50.32C48.06 50.3 48.2 50.3 48.32 50.32C51.08 50.22 53.28 47.96 53.28 45.16C53.28 42.3 50.98 40 48.12 40C45.26 40 42.96 42.32 42.96 45.16C42.98 47.96 45.18 50.22 47.94 50.32Z" stroke="#4A90E2" stroke-width="2.5" stroke-linecap="round" stroke-linejoin="round"/>
<path d="M49.9999 64.8801C47.2599 65.3401 44.2399 64.8601 42.1199 63.4401C39.2999 61.5601 39.2999 58.4801 42.1199 56.6001C44.2599 55.1801 47.3199 54.7001 50.0599 55.1801" stroke="#4A90E2" stroke-width="2.5" stroke-linecap="round" stroke-linejoin="round"/>
<path d="M60.0002 65.2599C59.8802 65.2399 59.7402 65.2399 59.6202 65.2599C56.8602 65.1599 54.6602 62.8999 54.6602 60.0999C54.6602 57.2399 56.9602 54.9399 59.8202 54.9399C62.6802 54.9399 64.9802 57.2599 64.9802 60.0999C64.9602 62.8999 62.7602 65.1799 60.0002 65.2599Z" stroke="#4A90E2" stroke-width="2.5" stroke-linecap="round" stroke-linejoin="round"/>
<path d="M54.1804 71.56C51.3604 73.44 51.3604 76.52 54.1804 78.4C57.3804 80.54 62.6204 80.54 65.8204 78.4C68.6404 76.52 68.6404 73.44 65.8204 71.56C62.6404 69.44 57.3804 69.44 54.1804 71.56Z" stroke="#4A90E2" stroke-width="2.5" stroke-linecap="round" stroke-linejoin="round"/>
</svg>
