<svg width="120" height="120" viewBox="0 0 120 120" fill="none" xmlns="http://www.w3.org/2000/svg">
<rect width="120" height="120" rx="60" fill="#4A90E2" fill-opacity="0.25"/>
<path d="M54.3201 57.74C54.1201 57.72 53.8801 57.72 53.6601 57.74C48.9001 57.58 45.1201 53.68 45.1201 48.88C45.1201 43.98 49.0801 40 54.0001 40C58.9001 40 62.8801 43.98 62.8801 48.88C62.8601 53.68 59.0801 57.58 54.3201 57.74Z" stroke="#4A90E2" stroke-width="2.5" stroke-linecap="round" stroke-linejoin="round"/>
<path d="M68.8196 44C72.6996 44 75.8196 47.14 75.8196 51C75.8196 54.78 72.8196 57.86 69.0796 58C68.9196 57.98 68.7396 57.98 68.5596 58" stroke="#4A90E2" stroke-width="2.5" stroke-linecap="round" stroke-linejoin="round"/>
<path d="M44.3204 65.12C39.4804 68.36 39.4804 73.64 44.3204 76.86C49.8204 80.54 58.8404 80.54 64.3404 76.86C69.1804 73.62 69.1804 68.34 64.3404 65.12C58.8604 61.46 49.8404 61.46 44.3204 65.12Z" stroke="#4A90E2" stroke-width="2.5" stroke-linecap="round" stroke-linejoin="round"/>
<path d="M72.6797 76C74.1197 75.7 75.4797 75.12 76.5997 74.26C79.7197 71.92 79.7197 68.06 76.5997 65.72C75.4997 64.88 74.1597 64.32 72.7397 64" stroke="#4A90E2" stroke-width="2.5" stroke-linecap="round" stroke-linejoin="round"/>
</svg>
