<svg width="250" height="154" viewBox="0 0 250 154" fill="none" xmlns="http://www.w3.org/2000/svg">
<g filter="url(#filter0_d_2216_24518)">
<path d="M76.1709 36.2338C76.3649 35.6369 77.2093 35.6369 77.4033 36.2338L79.3358 42.1815C79.4226 42.4485 79.6713 42.6292 79.952 42.6292H86.2058C86.8335 42.6292 87.0944 43.4323 86.5867 43.8012L81.5272 47.4771C81.3001 47.6421 81.2051 47.9345 81.2918 48.2015L83.2244 54.1493C83.4183 54.7461 82.7351 55.2425 82.2274 54.8736L77.1679 51.1977C76.9408 51.0327 76.6334 51.0327 76.4063 51.1977L71.3468 54.8736C70.8391 55.2425 70.1559 54.7461 70.3498 54.1493L72.2824 48.2015C72.3691 47.9345 72.2741 47.6421 72.047 47.4771L66.9876 43.8012C66.4798 43.4323 66.7408 42.6292 67.3684 42.6292H73.6222C73.9029 42.6292 74.1517 42.4485 74.2384 42.1815L76.1709 36.2338Z" fill="#FDC748"/>
<path d="M100.171 36.2338C100.365 35.6369 101.209 35.6369 101.403 36.2338L103.336 42.1815C103.423 42.4485 103.671 42.6292 103.952 42.6292H110.206C110.833 42.6292 111.094 43.4323 110.587 43.8012L105.527 47.4771C105.3 47.6421 105.205 47.9345 105.292 48.2015L107.224 54.1493C107.418 54.7461 106.735 55.2425 106.227 54.8736L101.168 51.1977C100.941 51.0327 100.633 51.0327 100.406 51.1977L95.3468 54.8736C94.8391 55.2425 94.1559 54.7461 94.3498 54.1493L96.2824 48.2015C96.3691 47.9345 96.2741 47.6421 96.047 47.4771L90.9876 43.8012C90.4798 43.4323 90.7408 42.6292 91.3684 42.6292H97.6222C97.9029 42.6292 98.1517 42.4485 98.2384 42.1815L100.171 36.2338Z" fill="#FDC748"/>
<path d="M124.171 36.2338C124.365 35.6369 125.209 35.6369 125.403 36.2338L127.336 42.1815C127.423 42.4485 127.671 42.6292 127.952 42.6292H134.206C134.833 42.6292 135.094 43.4323 134.587 43.8012L129.527 47.4771C129.3 47.6421 129.205 47.9345 129.292 48.2015L131.224 54.1493C131.418 54.7461 130.735 55.2425 130.227 54.8736L125.168 51.1977C124.941 51.0327 124.633 51.0327 124.406 51.1977L119.347 54.8736C118.839 55.2425 118.156 54.7461 118.35 54.1493L120.282 48.2015C120.369 47.9345 120.274 47.6421 120.047 47.4771L114.988 43.8012C114.48 43.4323 114.741 42.6292 115.368 42.6292H121.622C121.903 42.6292 122.152 42.4485 122.238 42.1815L124.171 36.2338Z" fill="#FDC748"/>
<path d="M148.171 36.2338C148.365 35.6369 149.209 35.6369 149.403 36.2338L151.336 42.1815C151.423 42.4485 151.671 42.6292 151.952 42.6292H158.206C158.833 42.6292 159.094 43.4323 158.587 43.8012L153.527 47.4771C153.3 47.6421 153.205 47.9345 153.292 48.2015L155.224 54.1493C155.418 54.7461 154.735 55.2425 154.227 54.8736L149.168 51.1977C148.941 51.0327 148.633 51.0327 148.406 51.1977L143.347 54.8736C142.839 55.2425 142.156 54.7461 142.35 54.1493L144.282 48.2015C144.369 47.9345 144.274 47.6421 144.047 47.4771L138.988 43.8012C138.48 43.4323 138.741 42.6292 139.368 42.6292H145.622C145.903 42.6292 146.152 42.4485 146.238 42.1815L148.171 36.2338Z" fill="#FDC748"/>
<path d="M172.171 36.2338C172.365 35.6369 173.209 35.6369 173.403 36.2338L175.336 42.1815C175.423 42.4485 175.671 42.6292 175.952 42.6292H182.206C182.833 42.6292 183.094 43.4323 182.587 43.8012L177.527 47.4771C177.3 47.6421 177.205 47.9345 177.292 48.2015L179.224 54.1493C179.418 54.7461 178.735 55.2425 178.227 54.8736L173.168 51.1977C172.941 51.0327 172.633 51.0327 172.406 51.1977L167.347 54.8736C166.839 55.2425 166.156 54.7461 166.35 54.1493L168.282 48.2015C168.369 47.9345 168.274 47.6421 168.047 47.4771L162.988 43.8012C162.48 43.4323 162.741 42.6292 163.368 42.6292H169.622C169.903 42.6292 170.152 42.4485 170.238 42.1815L172.171 36.2338Z" fill="#FDC748"/>
</g>
<defs>
<filter id="filter0_d_2216_24518" x="-5.34058e-05" y="0.000204086" width="249.574" height="153.574" filterUnits="userSpaceOnUse" color-interpolation-filters="sRGB">
<feFlood flood-opacity="0" result="BackgroundImageFix"/>
<feColorMatrix in="SourceAlpha" type="matrix" values="0 0 0 0 0 0 0 0 0 0 0 0 0 0 0 0 0 0 127 0" result="hardAlpha"/>
<feOffset dy="30.45"/>
<feGaussianBlur stdDeviation="32.3936"/>
<feComposite in2="hardAlpha" operator="out"/>
<feColorMatrix type="matrix" values="0 0 0 0 0.0833333 0 0 0 0 0.0833333 0 0 0 0 0.0833333 0 0 0 0.15 0"/>
<feBlend mode="normal" in2="BackgroundImageFix" result="effect1_dropShadow_2216_24518"/>
<feBlend mode="normal" in="SourceGraphic" in2="effect1_dropShadow_2216_24518" result="shape"/>
</filter>
</defs>
</svg>
