<svg width="20" height="22" viewBox="0 0 20 22" fill="none" xmlns="http://www.w3.org/2000/svg">
<path d="M19.4883 20.1558L12.6414 9.39547L19.3975 1.96344C19.5503 1.7912 19.6291 1.56567 19.6167 1.33576C19.6043 1.10584 19.5018 0.89007 19.3314 0.735217C19.161 0.580365 18.9365 0.498915 18.7064 0.508527C18.4764 0.518138 18.2594 0.618036 18.1025 0.786563L11.6669 7.86531L7.23829 0.905781C7.15932 0.781482 7.05025 0.679124 6.9212 0.608191C6.79214 0.537259 6.64727 0.500046 6.50001 0.5H1.25001C1.09312 0.499924 0.939099 0.54203 0.804071 0.621909C0.669043 0.701788 0.557975 0.816503 0.482497 0.95404C0.407019 1.09158 0.369909 1.24688 0.375051 1.40368C0.380193 1.56048 0.427399 1.71302 0.511725 1.84531L7.3586 12.6045L0.602507 20.042C0.523611 20.1268 0.46232 20.2263 0.422188 20.335C0.382056 20.4436 0.36388 20.5591 0.368713 20.6748C0.373547 20.7904 0.401294 20.904 0.450346 21.0089C0.499399 21.1138 0.56878 21.2079 0.654471 21.2858C0.740161 21.3637 0.840456 21.4237 0.949541 21.4626C1.05863 21.5014 1.17433 21.5182 1.28996 21.512C1.40558 21.5058 1.51882 21.4766 1.62311 21.4263C1.7274 21.376 1.82067 21.3055 1.89751 21.2189L8.33313 14.1402L12.7617 21.0997C12.8413 21.223 12.9507 21.3243 13.0797 21.3942C13.2087 21.4642 13.3533 21.5005 13.5 21.5H18.75C18.9067 21.5 19.0606 21.4578 19.1954 21.378C19.3303 21.2982 19.4412 21.1836 19.5167 21.0462C19.5921 20.9089 19.6293 20.7538 19.6243 20.5971C19.6193 20.4405 19.5723 20.2881 19.4883 20.1558ZM13.9802 19.75L2.8436 2.25H6.01548L17.1564 19.75H13.9802Z" fill="#0D110D"/>
</svg>
