<svg width="40" height="40" viewBox="0 0 40 40" fill="none" xmlns="http://www.w3.org/2000/svg">
<rect width="40" height="40" rx="20" fill="#4A90E2"/>
<path d="M31.3535 12.96C30.5185 13.33 29.6215 13.58 28.6785 13.693C29.6515 13.1108 30.3794 12.1945 30.7265 11.115C29.8123 11.658 28.8118 12.0402 27.7685 12.245C27.0668 11.4959 26.1375 10.9994 25.1248 10.8325C24.1121 10.6656 23.0726 10.8378 22.1677 11.3223C21.2628 11.8067 20.5432 12.5764 20.1206 13.5117C19.698 14.4471 19.596 15.4958 19.8305 16.495C17.9781 16.402 16.1661 15.9206 14.5119 15.0819C12.8577 14.2433 11.3983 13.0662 10.2285 11.627C9.82846 12.317 9.59846 13.117 9.59846 13.969C9.59801 14.736 9.78689 15.4913 10.1483 16.1678C10.5098 16.8442 11.0326 17.4211 11.6705 17.847C10.9307 17.8235 10.2073 17.6236 9.56046 17.264V17.324C9.56039 18.3998 9.93249 19.4424 10.6136 20.275C11.2948 21.1076 12.243 21.679 13.2975 21.892C12.6112 22.0777 11.8918 22.1051 11.1935 21.972C11.491 22.8976 12.0705 23.7071 12.8508 24.287C13.6312 24.8669 14.5734 25.1882 15.5455 25.206C13.8953 26.5014 11.8573 27.2041 9.75946 27.201C9.38784 27.2011 9.01654 27.1794 8.64746 27.136C10.7769 28.5052 13.2558 29.2318 15.7875 29.229C24.3575 29.229 29.0425 22.131 29.0425 15.975C29.0425 15.775 29.0375 15.573 29.0285 15.373C29.9398 14.714 30.7264 13.8979 31.3515 12.963L31.3535 12.96Z" fill="white"/>
</svg>
