<svg width="16" height="16" viewBox="0 0 16 16" fill="none" xmlns="http://www.w3.org/2000/svg">
<path d="M7.99407 6.2439C8.94645 6.2439 9.70836 7.02439 9.70836 8C9.70836 8.97561 8.94645 9.7561 7.99407 9.7561C7.04169 9.7561 6.27979 8.97561 6.27979 8C6.27979 7.02439 7.04169 6.2439 7.99407 6.2439ZM6.27979 1.7561C6.27979 2.73171 7.04169 3.5122 7.99407 3.5122C8.94645 3.5122 9.70836 2.73171 9.70836 1.7561C9.70836 0.780488 8.94645 0 7.99407 0C7.04169 0 6.27979 0.780488 6.27979 1.7561ZM6.27979 14.2439C6.27979 15.2195 7.04169 16 7.99407 16C8.94645 16 9.70836 15.2195 9.70836 14.2439C9.70836 13.2683 8.94645 12.4878 7.99407 12.4878C7.04169 12.4878 6.27979 13.2683 6.27979 14.2439Z" fill="#4A90E2"/>
</svg>
