<svg id="Layer_1" data-name="Layer 1" xmlns="http://www.w3.org/2000/svg" viewBox="0 0 326.75 89.17"><defs><style>.cls-1{fill:#4a90e2;}</style></defs><path class="cls-1" d="M353.44,366V333.09c0-1.25-.07-1.15,1.12-1.15h8.74c.33,0,.51.13.5.48s0,.48,0,.72v48.73c0,.8,0,.81-.81.81-3,0-5.93,0-8.89,0a1.18,1.18,0,0,1-1.11-.63q-5.19-7.85-10.4-15.68-3.94-6-7.9-11.92c-1.16-1.75-2.31-3.51-3.48-5.25a2.12,2.12,0,0,0-.44-.4,3.16,3.16,0,0,0-.14.59c0,.46,0,.92,0,1.38v30.78c0,1.15.12,1.11-1.08,1.11h-8.74c-.58,0-.63-.08-.65-.67,0-.19,0-.38,0-.57q0-24.07,0-48.16c0-1.62.19-1.34,1.32-1.34,2.77,0,5.55,0,8.33,0a1.3,1.3,0,0,1,1.26.65q3.48,5.35,7,10.66c2,3.08,4.09,6.14,6.12,9.22l8.45,12.81c.17.26.36.51.54.76Z" transform="translate(-213.9 -313.18)"/><path class="cls-1" d="M530,374.86l-.51,1a11.7,11.7,0,0,1-9.43,6.49,18.61,18.61,0,0,1-7.81-.8,13.39,13.39,0,0,1-6.41-4.44,15.77,15.77,0,0,1-3.32-7.77,28.62,28.62,0,0,1-.32-4.34q0-10.79,0-21.57v-.08c0-1,0-1,1-1h8.5c.72,0,.81.12.83.87v.65c0,6.43,0,12.87,0,19.31a14.08,14.08,0,0,0,.82,5.15,7.68,7.68,0,0,0,6.46,5.06,8.79,8.79,0,0,0,4.08-.22,8.46,8.46,0,0,0,5.31-5.07,13,13,0,0,0,1-5q0-9.74,0-19.47c0-1.31-.08-1.25,1.21-1.25h8.66a.53.53,0,0,1,.57.55,5.28,5.28,0,0,1,0,.56c0,12.58,0,25.16,0,37.74a26.87,26.87,0,0,1-1.07,8,18.31,18.31,0,0,1-4.22,7.45,17.69,17.69,0,0,1-5.07,3.68,19.4,19.4,0,0,1-5.45,1.7,27.67,27.67,0,0,1-9.08,0,21.31,21.31,0,0,1-5.91-1.86,17.85,17.85,0,0,1-3.93-2.68,19.61,19.61,0,0,1-5.38-8.41c-.15-.46-.09-.6.41-.78,1.06-.38,2.14-.75,3.21-1.11l4.43-1.53c.12,0,.25-.1.38-.13.5-.12.65-.06.9.42s.6,1.26.92,1.88a12.53,12.53,0,0,0,3,3.67,8.09,8.09,0,0,0,3.86,1.74,12.53,12.53,0,0,0,6-.39,8.65,8.65,0,0,0,5.09-4.23,11.73,11.73,0,0,0,1.44-5.57c.08-2.56,0-5.12,0-7.68a3.18,3.18,0,0,0-.06-.43Z" transform="translate(-213.9 -313.18)"/><path class="cls-1" d="M381.93,368.12a5.91,5.91,0,0,0,.88,2.09,8.24,8.24,0,0,0,3.23,3,13.73,13.73,0,0,0,10.63,1.28,15.39,15.39,0,0,0,7.8-5.07c.44-.52.58-.56,1.12-.14l5.92,4.48c.44.34.62.46.17,1A21.4,21.4,0,0,1,406,379.8a25.27,25.27,0,0,1-9,3.14c-.79.13-1.61.14-2.41.22a25.76,25.76,0,0,1-11.22-1.73,20.55,20.55,0,0,1-5.25-3.14,18.67,18.67,0,0,1-6.18-9.25,24.06,24.06,0,0,1-.8-6.7,19.8,19.8,0,0,1,2.27-9.31,19.17,19.17,0,0,1,4.76-5.95,21.91,21.91,0,0,1,3.13-2.27,21,21,0,0,1,7.9-2.66,26.76,26.76,0,0,1,2.81-.29,22.88,22.88,0,0,1,3,.15,22.2,22.2,0,0,1,6.32,1.57,14.28,14.28,0,0,1,8,7.58,10.42,10.42,0,0,1,.7,5.69,9.23,9.23,0,0,1-1.51,4,12.52,12.52,0,0,1-3.64,3.39,24.44,24.44,0,0,1-8.84,3.18,50.35,50.35,0,0,1-10.62.66l-3.08,0A1.4,1.4,0,0,0,381.93,368.12Zm3.33-7.37c1.12-.05,2.16-.15,3.21-.15a29.74,29.74,0,0,0,4.89-.53,11.22,11.22,0,0,0,4.53-1.59,3.86,3.86,0,0,0,2-3.7,4.27,4.27,0,0,0-2-3.16,9.32,9.32,0,0,0-6.81-1.4,11.54,11.54,0,0,0-7.28,4,11,11,0,0,0-2.51,5.67c-.09.57,0,.68.57.71Z" transform="translate(-213.9 -313.18)"/><path class="cls-1" d="M414.43,382.63c.28-.46.47-.8.69-1.14l7.85-12c1.38-2.11,2.74-4.25,4.15-6.35a1,1,0,0,0,0-1.29c-3.17-4.72-6.31-9.45-9.46-14.18q-1.5-2.25-3-4.51c-.06-.09-.12-.17-.18-.27-.17-.34-.1-.48.3-.52a3.85,3.85,0,0,1,.48,0c3.26,0,6.53,0,9.79,0a1.33,1.33,0,0,1,1.26.66q3.36,5.08,6.76,10.15l1,1.49c.52-.84,1-1.55,1.41-2.28q2.67-4.51,5.35-9a4.5,4.5,0,0,0,.25-.41,1,1,0,0,1,1.05-.58c3.13,0,6.25,0,9.38,0a2.81,2.81,0,0,1,.41,0c.35.06.46.25.28.57s-.57.86-.85,1.28l-6.11,9.31c-1.83,2.77-3.64,5.54-5.49,8.28a1.14,1.14,0,0,0,0,1.5c2.79,4.12,5.54,8.27,8.3,12.41l4.16,6.25a2.37,2.37,0,0,1,.19.35c.09.23,0,.37-.25.39a5.28,5.28,0,0,1-.56,0c-3.29,0-6.58,0-9.87,0a1.26,1.26,0,0,1-1.24-.66c-2.37-3.62-4.79-7.22-7.19-10.83-.53-.78-.6-.77-1.09.08l-5.85,10a6.1,6.1,0,0,0-.39.71,1.19,1.19,0,0,1-1.26.76c-1.92,0-3.83,0-5.75,0h-3.64C415.08,382.68,414.82,382.66,414.43,382.63Z" transform="translate(-213.9 -313.18)"/><path class="cls-1" d="M479.52,366.8V352.18c0-.19,0-.38,0-.57,0-.58-.06-.63-.67-.64h-3.23c-.71,0-.76,0-.76-.71q0-3.56,0-7.11c0-.68.13-.81.8-.82h3.16c.65,0,.69-.05.7-.69,0-.89,0-1.78,0-2.67a13.49,13.49,0,0,1,1.89-6.75,10.4,10.4,0,0,1,4.13-3.87,17.83,17.83,0,0,1,5-1.67,36.52,36.52,0,0,1,4.89-.51,4,4,0,0,1,.49,0c.55,0,.65.13.66.69,0,1.53,0,3.07,0,4.6,0,.92,0,1.83,0,2.75,0,.72-.06.72-.79.79s-1.61.17-2.4.32a4,4,0,0,0-2.35,1.32,3.65,3.65,0,0,0-.73,1.23,11.18,11.18,0,0,0-.36,4,.41.41,0,0,0,.44.46h5.66c.92,0,1,.07,1,.95,0,2.29,0,4.57,0,6.86,0,.83,0,.83-.88.83H491c-.95,0-.95,0-.95,1,0,3.34,0,6.67,0,10v19.39c0,.16,0,.32,0,.49,0,.79,0,.82-.82.82h-8.81c-.84,0-.85,0-.85-.86Z" transform="translate(-213.9 -313.18)"/><path class="cls-1" d="M458,362.47V343.42c0-1.1,0-1.1,1.13-1.1H468a.53.53,0,0,1,.52.52c0,.25,0,.49,0,.73v37.95c0,1.15,0,1.15-1.15,1.15h-8.41c-.88,0-.91,0-.91-.91Z" transform="translate(-213.9 -313.18)"/><path class="cls-1" d="M470.5,331.19a6,6,0,0,1-2.43,4.88,8.06,8.06,0,0,1-8.88.55,6.34,6.34,0,0,1-3-6.3c.27-2.86,3.26-5.49,6.16-5.67a8.43,8.43,0,0,1,3.5.34,7.52,7.52,0,0,1,1.78.92,6.21,6.21,0,0,1,2.74,3.84C470.42,330.23,470.45,330.71,470.5,331.19Z" transform="translate(-213.9 -313.18)"/><g id="Symbol"><path class="cls-1" d="M244.59,380c-2.94,0-5.89.11-8.82,0a22.49,22.49,0,0,1-9.8-2.4,16,16,0,0,1-5.5-4.9,13.38,13.38,0,0,1-2.06-5.12,16.83,16.83,0,0,1,1.38-10.3,65.78,65.78,0,0,1,4.16-7.65c2.2-3.7,4.39-7.41,6.6-11.11q2.8-4.71,5.64-9.41c1.51-2.52,3-5,4.56-7.53a18.14,18.14,0,0,1,6.78-6.44,16.26,16.26,0,0,1,6-1.86,18.63,18.63,0,0,1,9,1.2,13.2,13.2,0,0,1,4.46,2.84,1.24,1.24,0,0,1,.44,1.07.89.89,0,0,1-1.2.83,4,4,0,0,1-.72-.35,13.37,13.37,0,0,0-3.54-1.36,13.41,13.41,0,0,0-12.6,3.7,27.54,27.54,0,0,0-4,4.95c-2,3-3.82,6.05-5.69,9.1-1.08,1.74-2.11,3.51-3.13,5.28s-2.1,3.7-3.12,5.56c-1.14,2.1-2.3,4.2-3.38,6.34a18.38,18.38,0,0,0-1.88,5.39,8.46,8.46,0,0,0,.62,5,6.78,6.78,0,0,0,3.81,3.29,12.42,12.42,0,0,0,4.51.82,36.67,36.67,0,0,0,7.4-.45c2.17-.39,4.35-.77,6.53-1.07a13.16,13.16,0,0,1,5.69.06,6.84,6.84,0,0,1,5.06,5.5,7.55,7.55,0,0,1-4.84,8.28,11.62,11.62,0,0,1-3.95.74h-8.41Z" transform="translate(-213.9 -313.18)"/><path class="cls-1" d="M287.85,375.83a18.55,18.55,0,0,1-1,5.78,15.26,15.26,0,0,1-2.56,4.46,16.14,16.14,0,0,1-5.12,4.25A15,15,0,0,1,274,392a28.17,28.17,0,0,1-3.78.29q-19.09,0-38.18-.13a19.21,19.21,0,0,1-8.31-1.78,16.83,16.83,0,0,1-6.48-5.33,18,18,0,0,1-2.05-3.46,16.25,16.25,0,0,1-1.18-4.5,12.26,12.26,0,0,1,.2-4.48,4.28,4.28,0,0,1,.32-.91,1,1,0,0,1,1.11-.62,1,1,0,0,1,.78,1,15.5,15.5,0,0,0,.32,3,12.8,12.8,0,0,0,2.75,5.76,15.05,15.05,0,0,0,6.37,4.53,22.22,22.22,0,0,0,6.19,1.43c2.85.24,5.7.27,8.55.27,6.18,0,12.35,0,18.53,0,1.88,0,3.77-.06,5.65-.16a18.22,18.22,0,0,0,5.07-.87,7.94,7.94,0,0,0,4.7-3.59,7.68,7.68,0,0,0,.79-2.44,7.92,7.92,0,0,0-.62-4.26,22.54,22.54,0,0,0-3-5.22c-1.43-1.88-2.88-3.76-4.36-5.6-1.27-1.56-2.62-3.07-3.92-4.61a9.13,9.13,0,0,1-2.27-7.86,7.54,7.54,0,0,1,3.25-4.82,7.05,7.05,0,0,1,6-1.07,9.12,9.12,0,0,1,4.93,3.16,38.31,38.31,0,0,1,3.36,5.22c1,1.67,2,3.37,3,5.08,1.38,2.37,2.8,4.72,4.08,7.14a16.78,16.78,0,0,1,1.92,6.54C287.72,374.38,287.78,375.1,287.85,375.83Z" transform="translate(-213.9 -313.18)"/><path class="cls-1" d="M264.83,323a14.92,14.92,0,0,1,8.89,2.93,15.55,15.55,0,0,1,4.38,4.79c2.52,4.25,5.07,8.5,7.6,12.76q2.31,3.89,4.6,7.78t4.64,8c1.3,2.29,2.62,4.57,3.82,6.92a14.18,14.18,0,0,1,1.51,5.65c0,.65.15,1.29.14,1.93a15.54,15.54,0,0,1-1.77,7.12,18.36,18.36,0,0,1-3.67,5,14.87,14.87,0,0,1-5.62,3.54,2.66,2.66,0,0,1-.47.11c-.64.06-1-.11-1.15-.53a1.06,1.06,0,0,1,.42-1.28c.41-.3.83-.6,1.26-.87a14,14,0,0,0,3.61-3.42,13.28,13.28,0,0,0,2.34-5.44,13.89,13.89,0,0,0-.15-5.67,24.8,24.8,0,0,0-2.92-7.06c-1-1.82-2.06-3.66-3.1-5.48-1.21-2.09-2.44-4.18-3.67-6.27-1.75-3-3.49-6-5.27-9q-2.22-3.75-4.54-7.44a11.85,11.85,0,0,0-3.17-3.3,7.08,7.08,0,0,0-4.39-1.35,7,7,0,0,0-4.28,1.47,10.5,10.5,0,0,0-2.33,2.55,35.75,35.75,0,0,0-3.11,5.74c-1.67,3.94-3.31,7.89-5,11.83a10.9,10.9,0,0,1-2.85,4.06,6.34,6.34,0,0,1-8,.41,7.18,7.18,0,0,1-2.8-5.58,9,9,0,0,1,.94-4.45c.74-1.64,1.55-3.26,2.43-4.83,1.51-2.67,3.05-5.32,4.67-7.93,1.32-2.13,2.66-4.25,4.17-6.24a16.13,16.13,0,0,1,8.92-6A15.69,15.69,0,0,1,264.83,323Z" transform="translate(-213.9 -313.18)"/></g></svg>