<svg id="Layer_1" data-name="Layer 1" xmlns="http://www.w3.org/2000/svg" viewBox="0 0 86.52 79.11"><defs><style>.cls-1{fill:#4a90e2;}</style></defs><g id="Symbol"><path class="cls-1" d="M244.59,380c-2.94,0-5.89.11-8.82,0a22.49,22.49,0,0,1-9.8-2.4,16,16,0,0,1-5.5-4.9,13.38,13.38,0,0,1-2.06-5.12,16.83,16.83,0,0,1,1.38-10.3,65.78,65.78,0,0,1,4.16-7.65c2.2-3.7,4.39-7.41,6.6-11.11q2.8-4.71,5.64-9.41c1.51-2.52,3-5,4.56-7.53a18.14,18.14,0,0,1,6.78-6.44,16.26,16.26,0,0,1,6-1.86,18.63,18.63,0,0,1,9,1.2,13.2,13.2,0,0,1,4.46,2.84,1.24,1.24,0,0,1,.44,1.07.89.89,0,0,1-1.2.83,4,4,0,0,1-.72-.35,13.37,13.37,0,0,0-3.54-1.36,13.41,13.41,0,0,0-12.6,3.7,27.54,27.54,0,0,0-4,4.95c-2,3-3.82,6.05-5.69,9.1-1.08,1.74-2.11,3.51-3.13,5.28s-2.1,3.7-3.12,5.56c-1.14,2.1-2.3,4.2-3.38,6.34a18.38,18.38,0,0,0-1.88,5.39,8.46,8.46,0,0,0,.62,5,6.78,6.78,0,0,0,3.81,3.29,12.42,12.42,0,0,0,4.51.82,36.67,36.67,0,0,0,7.4-.45c2.17-.39,4.35-.77,6.53-1.07a13.16,13.16,0,0,1,5.69.06,6.84,6.84,0,0,1,5.06,5.5,7.55,7.55,0,0,1-4.84,8.28,11.62,11.62,0,0,1-3.95.74h-8.41Z" transform="translate(-213.9 -313.18)"/><path class="cls-1" d="M287.85,375.83a18.55,18.55,0,0,1-1,5.78,15.26,15.26,0,0,1-2.56,4.46,16.14,16.14,0,0,1-5.12,4.25A15,15,0,0,1,274,392a28.17,28.17,0,0,1-3.78.29q-19.09,0-38.18-.13a19.21,19.21,0,0,1-8.31-1.78,16.83,16.83,0,0,1-6.48-5.33,18,18,0,0,1-2.05-3.46,16.25,16.25,0,0,1-1.18-4.5,12.26,12.26,0,0,1,.2-4.48,4.28,4.28,0,0,1,.32-.91,1,1,0,0,1,1.11-.62,1,1,0,0,1,.78,1,15.5,15.5,0,0,0,.32,3,12.8,12.8,0,0,0,2.75,5.76,15.05,15.05,0,0,0,6.37,4.53,22.22,22.22,0,0,0,6.19,1.43c2.85.24,5.7.27,8.55.27,6.18,0,12.35,0,18.53,0,1.88,0,3.77-.06,5.65-.16a18.22,18.22,0,0,0,5.07-.87,7.94,7.94,0,0,0,4.7-3.59,7.68,7.68,0,0,0,.79-2.44,7.92,7.92,0,0,0-.62-4.26,22.54,22.54,0,0,0-3-5.22c-1.43-1.88-2.88-3.76-4.36-5.6-1.27-1.56-2.62-3.07-3.92-4.61a9.13,9.13,0,0,1-2.27-7.86,7.54,7.54,0,0,1,3.25-4.82,7.05,7.05,0,0,1,6-1.07,9.12,9.12,0,0,1,4.93,3.16,38.31,38.31,0,0,1,3.36,5.22c1,1.67,2,3.37,3,5.08,1.38,2.37,2.8,4.72,4.08,7.14a16.78,16.78,0,0,1,1.92,6.54C287.72,374.38,287.78,375.1,287.85,375.83Z" transform="translate(-213.9 -313.18)"/><path class="cls-1" d="M264.83,323a14.92,14.92,0,0,1,8.89,2.93,15.55,15.55,0,0,1,4.38,4.79c2.52,4.25,5.07,8.5,7.6,12.76q2.31,3.89,4.6,7.78t4.64,8c1.3,2.29,2.62,4.57,3.82,6.92a14.18,14.18,0,0,1,1.51,5.65c0,.65.15,1.29.14,1.93a15.54,15.54,0,0,1-1.77,7.12,18.36,18.36,0,0,1-3.67,5,14.87,14.87,0,0,1-5.62,3.54,2.66,2.66,0,0,1-.47.11c-.64.06-1-.11-1.15-.53a1.06,1.06,0,0,1,.42-1.28c.41-.3.83-.6,1.26-.87a14,14,0,0,0,3.61-3.42,13.28,13.28,0,0,0,2.34-5.44,13.89,13.89,0,0,0-.15-5.67,24.8,24.8,0,0,0-2.92-7.06c-1-1.82-2.06-3.66-3.1-5.48-1.21-2.09-2.44-4.18-3.67-6.27-1.75-3-3.49-6-5.27-9q-2.22-3.75-4.54-7.44a11.85,11.85,0,0,0-3.17-3.3,7.08,7.08,0,0,0-4.39-1.35,7,7,0,0,0-4.28,1.47,10.5,10.5,0,0,0-2.33,2.55,35.75,35.75,0,0,0-3.11,5.74c-1.67,3.94-3.31,7.89-5,11.83a10.9,10.9,0,0,1-2.85,4.06,6.34,6.34,0,0,1-8,.41,7.18,7.18,0,0,1-2.8-5.58,9,9,0,0,1,.94-4.45c.74-1.64,1.55-3.26,2.43-4.83,1.51-2.67,3.05-5.32,4.67-7.93,1.32-2.13,2.66-4.25,4.17-6.24a16.13,16.13,0,0,1,8.92-6A15.69,15.69,0,0,1,264.83,323Z" transform="translate(-213.9 -313.18)"/></g></svg>